<svg width="24" height="24" viewBox="0 0 24 24" fill="none" xmlns="http://www.w3.org/2000/svg">
<path d="M21.6986 16.6396C21.6994 16.6278 21.6998 16.6159 21.6998 16.604C21.6998 15.4225 18.9324 14.4509 14.0355 14.3354M21.6986 16.6396C21.6964 16.6733 21.6911 16.7068 21.6828 16.7401M21.6986 16.6396C21.699 16.6369 21.6994 16.6341 21.6998 16.6313M21.6986 16.6396C21.6939 16.6732 21.6886 16.7067 21.6828 16.7401M21.6828 16.7401C21.3831 17.9359 17.1625 18.884 11.9998 18.884C6.83714 18.884 2.61648 17.9359 2.31682 16.7401M21.6828 16.7401C21.1962 19.54 17.0467 21.7269 11.9998 21.7269C6.95291 21.7269 2.80341 19.54 2.31682 16.7401M2.31682 16.7401C2.30847 16.7068 2.30317 16.6733 2.30097 16.6396M2.31682 16.7401C2.31101 16.7067 2.30573 16.6732 2.30097 16.6396M2.30097 16.6396C2.30019 16.6278 2.2998 16.6159 2.2998 16.604C2.2998 15.4161 5.09167 14.4422 10.0269 14.3354M2.30097 16.6396C2.30058 16.6369 2.30019 16.6341 2.2998 16.6313M14.6293 15.7479C14.6293 17.2001 13.452 17.1435 11.9998 17.1435C10.5476 17.1435 9.37036 17.2001 9.37036 15.7479C9.37036 14.6962 11.1233 10.9273 11.9998 9.17432C12.8763 10.9273 14.6293 14.6962 14.6293 15.7479Z" stroke="#2B2826"/>
<path d="M8.84193 10.9991C9.06805 10.7322 9.41449 9.94016 8.99128 8.90764C8.46227 7.61699 8.37084 7.16167 8.60474 6.34997C8.79187 5.70061 9.23796 5.31433 9.43762 5.20235C9.24748 5.53487 8.92952 6.42892 9.17882 7.34498C9.49045 8.49006 9.92379 8.38987 9.71705 9.90772C9.62538 10.414 9.40315 10.828 8.84193 10.9991Z" fill="#2B2826"/>
<path d="M14.5748 10.9991C14.8009 10.7322 15.1473 9.94016 14.7241 8.90764C14.1951 7.61699 14.1037 7.16167 14.3376 6.34997C14.5247 5.70061 14.9708 5.31433 15.1705 5.20235C14.9803 5.53487 14.6624 6.42892 14.9117 7.34498C15.2233 8.49006 15.6566 8.38987 15.4499 9.90772C15.3582 10.414 15.136 10.828 14.5748 10.9991Z" fill="#2B2826"/>
<path d="M11.7084 0.899902C11.9345 1.16684 12.2809 1.95883 11.8577 2.99135C11.3287 4.282 11.2373 4.73732 11.4712 5.54902C11.6583 6.19838 12.1044 6.58467 12.3041 6.69664C12.1139 6.36412 11.796 5.47008 12.0453 4.55401C12.3569 3.40894 12.7902 3.50912 12.5835 1.99127C12.4918 1.48495 12.2696 1.07103 11.7084 0.899902Z" fill="#2B2826"/>
<path d="M8.84193 10.9991C9.06805 10.7322 9.41449 9.94016 8.99128 8.90764C8.46227 7.61699 8.37084 7.16167 8.60474 6.34997C8.79187 5.70061 9.23796 5.31433 9.43762 5.20235C9.24748 5.53487 8.92952 6.42892 9.17882 7.34498C9.49045 8.49006 9.92379 8.38987 9.71705 9.90772C9.62538 10.414 9.40315 10.828 8.84193 10.9991Z" stroke="#2B2826" stroke-width="0.176428"/>
<path d="M14.5748 10.9991C14.8009 10.7322 15.1473 9.94016 14.7241 8.90764C14.1951 7.61699 14.1037 7.16167 14.3376 6.34997C14.5247 5.70061 14.9708 5.31433 15.1705 5.20235C14.9803 5.53487 14.6624 6.42892 14.9117 7.34498C15.2233 8.49006 15.6566 8.38987 15.4499 9.90772C15.3582 10.414 15.136 10.828 14.5748 10.9991Z" stroke="#2B2826" stroke-width="0.176428"/>
<path d="M11.7084 0.899902C11.9345 1.16684 12.2809 1.95883 11.8577 2.99135C11.3287 4.282 11.2373 4.73732 11.4712 5.54902C11.6583 6.19838 12.1044 6.58467 12.3041 6.69664C12.1139 6.36412 11.796 5.47008 12.0453 4.55401C12.3569 3.40894 12.7902 3.50912 12.5835 1.99127C12.4918 1.48495 12.2696 1.07103 11.7084 0.899902Z" stroke="#2B2826" stroke-width="0.176428"/>
</svg>
