<svg width="24" height="24" viewBox="0 0 24 24" fill="none" xmlns="http://www.w3.org/2000/svg">
<path d="M6.83119 3.50777C6.83119 2.48817 7.65774 1.66162 8.67734 1.66162H15.3235C16.3431 1.66162 17.1697 2.48817 17.1697 3.50777C17.1697 4.52738 16.3431 5.35393 15.3235 5.35393H8.67734C7.65774 5.35393 6.83119 4.52738 6.83119 3.50777Z" stroke="#2B2826"/>
<path d="M8.30811 5.35393H15.6927V8.30778H8.30811V5.35393Z" stroke="#2B2826"/>
<path d="M6.27734 9.04624C6.27734 8.6384 6.60796 8.30778 7.01581 8.30778H16.985C17.3929 8.30778 17.7235 8.6384 17.7235 9.04624V21.4155C17.7235 21.8233 17.3929 22.1539 16.985 22.1539H7.01581C6.60796 22.1539 6.27734 21.8233 6.27734 21.4155V9.04624Z" stroke="#2B2826"/>
<path d="M10.6914 12.9062C10.4962 12.711 10.1796 12.711 9.98434 12.9062C9.78908 13.1015 9.78908 13.4181 9.98434 13.6133L10.6914 12.9062ZM14.0145 13.6133C14.2098 13.4181 14.2098 13.1015 14.0145 12.9062C13.8193 12.711 13.5027 12.711 13.3074 12.9062L14.0145 13.6133ZM10.6914 15.3062C10.4962 15.1109 10.1796 15.1109 9.98434 15.3062C9.78908 15.5015 9.78908 15.8181 9.98434 16.0133L10.6914 15.3062ZM14.0145 16.0133C14.2098 15.8181 14.2098 15.5015 14.0145 15.3062C13.8193 15.1109 13.5027 15.1109 13.3074 15.3062L14.0145 16.0133ZM10.6914 17.7062C10.4962 17.511 10.1796 17.511 9.98434 17.7062C9.78908 17.9015 9.78908 18.2181 9.98434 18.4133L10.6914 17.7062ZM11.9994 19.7213L11.6459 20.0749L11.9994 20.4284L12.353 20.0749L11.9994 19.7213ZM14.0145 18.4133C14.2098 18.2181 14.2098 17.9015 14.0145 17.7062C13.8193 17.511 13.5027 17.511 13.3074 17.7062L14.0145 18.4133ZM9.98434 13.6133L11.6459 15.2749L12.353 14.5678L10.6914 12.9062L9.98434 13.6133ZM12.353 15.2749L14.0145 13.6133L13.3074 12.9062L11.6459 14.5678L12.353 15.2749ZM9.98434 16.0133L11.6459 17.6749L12.353 16.9678L10.6914 15.3062L9.98434 16.0133ZM12.353 17.6749L14.0145 16.0133L13.3074 15.3062L11.6459 16.9678L12.353 17.6749ZM9.98434 18.4133L11.6459 20.0749L12.353 19.3678L10.6914 17.7062L9.98434 18.4133ZM12.353 20.0749L14.0145 18.4133L13.3074 17.7062L11.6459 19.3678L12.353 20.0749ZM11.4994 14.9213V17.3213H12.4994V14.9213H11.4994ZM11.4994 17.3213V19.5367H12.4994V17.3213H11.4994Z" fill="#2B2826"/>
<circle cx="12" cy="11.2598" r="1" stroke="#2B2826"/>
</svg>
