<svg width="22" height="22" viewBox="0 0 22 22" fill="none" xmlns="http://www.w3.org/2000/svg">
<path d="M8.04016 4.92008V5.42008H8.54016V4.92008H8.04016ZM4.28016 4.92008H3.78016V5.42008H4.28016V4.92008ZM17.2402 12.5201V13.0201H17.7402V12.5201H17.2402ZM12.9202 12.5201H12.4202V13.0201H12.9202V12.5201ZM6.36024 2.50012C6.0841 2.50012 5.86024 2.72398 5.86024 3.00012C5.86024 3.27626 6.0841 3.50012 6.36024 3.50012V2.50012ZM4.92016 1.58008H7.40016V0.580078H4.92016V1.58008ZM7.54016 1.72008V4.92008H8.54016V1.72008H7.54016ZM8.04016 4.42008H4.28016V5.42008H8.04016V4.42008ZM4.78016 4.92008V1.72008H3.78016V4.92008H4.78016ZM7.40016 1.58008C7.47748 1.58008 7.54016 1.64276 7.54016 1.72008H8.54016C8.54016 1.09047 8.02976 0.580078 7.40016 0.580078V1.58008ZM4.92016 0.580078C4.29055 0.580078 3.78016 1.09047 3.78016 1.72008H4.78016C4.78016 1.64276 4.84284 1.58008 4.92016 1.58008V0.580078ZM4.12016 5.42008H8.12016V4.42008H4.12016V5.42008ZM8.26016 5.56008V7.80008H9.26016V5.56008H8.26016ZM3.98016 7.80008V5.56008H2.98016V7.80008H3.98016ZM8.12016 5.42008C8.19748 5.42008 8.26016 5.48276 8.26016 5.56008H9.26016C9.26016 4.93047 8.74976 4.42008 8.12016 4.42008V5.42008ZM4.12016 4.42008C3.49055 4.42008 2.98016 4.93047 2.98016 5.56008H3.98016C3.98016 5.48276 4.04284 5.42008 4.12016 5.42008V4.42008ZM1.66016 12.1201C1.66016 9.61271 3.69278 7.58008 6.20016 7.58008V6.58008C3.1405 6.58008 0.660156 9.06042 0.660156 12.1201H1.66016ZM6.20016 7.58008C8.70753 7.58008 10.7402 9.61271 10.7402 12.1201H11.7402C11.7402 9.06042 9.25981 6.58008 6.20016 6.58008V7.58008ZM1.80016 21.3401H10.0802V20.3401H1.80016V21.3401ZM11.7402 12.5201V12.1201H10.7402V12.5201H11.7402ZM0.660156 20.2001C0.660156 20.8297 1.17055 21.3401 1.80016 21.3401V20.3401C1.72284 20.3401 1.66016 20.2774 1.66016 20.2001H0.660156ZM9.96016 13.0201H20.2002V12.0201H9.96016V13.0201ZM20.3402 13.1601V20.2001H21.3402V13.1601H20.3402ZM20.2002 20.3401H9.96016V21.3401H20.2002V20.3401ZM9.82016 20.2001V13.1601H8.82016V20.2001H9.82016ZM9.96016 20.3401C9.88284 20.3401 9.82016 20.2774 9.82016 20.2001H8.82016C8.82016 20.8297 9.33055 21.3401 9.96016 21.3401V20.3401ZM20.3402 20.2001C20.3402 20.2774 20.2775 20.3401 20.2002 20.3401V21.3401C20.8298 21.3401 21.3402 20.8297 21.3402 20.2001H20.3402ZM20.2002 13.0201C20.2775 13.0201 20.3402 13.0828 20.3402 13.1601H21.3402C21.3402 12.5305 20.8298 12.0201 20.2002 12.0201V13.0201ZM9.96016 12.0201C9.33055 12.0201 8.82016 12.5305 8.82016 13.1601H9.82016C9.82016 13.0828 9.88284 13.0201 9.96016 13.0201V12.0201ZM12.5002 15.214H17.6202V14.214H12.5002V15.214ZM17.7602 15.354V18.0001H18.7602V15.354H17.7602ZM17.6202 18.1401H12.5002V19.1401H17.6202V18.1401ZM12.3602 18.0001V15.354H11.3602V18.0001H12.3602ZM12.5002 18.1401C12.4229 18.1401 12.3602 18.0774 12.3602 18.0001H11.3602C11.3602 18.6297 11.8706 19.1401 12.5002 19.1401V18.1401ZM17.7602 18.0001C17.7602 18.0774 17.6975 18.1401 17.6202 18.1401V19.1401C18.2498 19.1401 18.7602 18.6297 18.7602 18.0001H17.7602ZM17.6202 15.214C17.6975 15.214 17.7602 15.2766 17.7602 15.354H18.7602C18.7602 14.7244 18.2498 14.214 17.6202 14.214V15.214ZM12.5002 14.214C11.8706 14.214 11.3602 14.7244 11.3602 15.354H12.3602C12.3602 15.2766 12.4229 15.214 12.5002 15.214V14.214ZM13.5602 10.7801H16.6002V9.78008H13.5602V10.7801ZM16.7402 10.9201V12.5201H17.7402V10.9201H16.7402ZM17.2402 12.0201H12.9202V13.0201H17.2402V12.0201ZM13.4202 12.5201V10.9201H12.4202V12.5201H13.4202ZM16.6002 10.7801C16.6775 10.7801 16.7402 10.8428 16.7402 10.9201H17.7402C17.7402 10.2905 17.2298 9.78008 16.6002 9.78008V10.7801ZM13.5602 9.78008C12.9306 9.78008 12.4202 10.2905 12.4202 10.9201H13.4202C13.4202 10.8428 13.4828 10.7801 13.5602 10.7801V9.78008ZM6.36024 3.50012H7.50024V2.50012H6.36024V3.50012ZM1.16016 12.6201H5.00024V11.6201H1.16016V12.6201ZM5.50024 13.1201V14.8729H6.50024V13.1201H5.50024ZM0.660156 12.1201V15.8729H1.66016V12.1201H0.660156ZM0.660156 15.8729V20.2001H1.66016V15.8729H0.660156ZM5.00024 15.3729H1.16016V16.3729H5.00024V15.3729ZM5.50024 14.8729C5.50024 15.149 5.27639 15.3729 5.00024 15.3729V16.3729C5.82867 16.3729 6.50024 15.7013 6.50024 14.8729H5.50024ZM5.00024 12.6201C5.27639 12.6201 5.50024 12.8439 5.50024 13.1201H6.50024C6.50024 12.2917 5.82867 11.6201 5.00024 11.6201V12.6201Z" fill="#2B2826"/>
</svg>
