<svg width="17" height="16" viewBox="0 0 17 16" fill="none" xmlns="http://www.w3.org/2000/svg">
<path d="M13.9473 3.5H2.94727" stroke="#A4A4A4" stroke-linecap="round" stroke-linejoin="round"/>
<path d="M6.94727 6.5V10.5" stroke="#A4A4A4" stroke-linecap="round" stroke-linejoin="round"/>
<path d="M9.94727 6.5V10.5" stroke="#A4A4A4" stroke-linecap="round" stroke-linejoin="round"/>
<path d="M12.9473 3.5V13C12.9473 13.1326 12.8946 13.2598 12.8008 13.3536C12.7071 13.4473 12.5799 13.5 12.4473 13.5H4.44727C4.31466 13.5 4.18748 13.4473 4.09371 13.3536C3.99994 13.2598 3.94727 13.1326 3.94727 13V3.5" stroke="#A4A4A4" stroke-linecap="round" stroke-linejoin="round"/>
<path d="M10.9473 3.5V2.5C10.9473 2.23478 10.8419 1.98043 10.6544 1.79289C10.4668 1.60536 10.2125 1.5 9.94727 1.5H6.94727C6.68205 1.5 6.4277 1.60536 6.24016 1.79289C6.05262 1.98043 5.94727 2.23478 5.94727 2.5V3.5" stroke="#A4A4A4" stroke-linecap="round" stroke-linejoin="round"/>
</svg>
