<svg width="44" height="44" viewBox="0 0 44 44" fill="none" xmlns="http://www.w3.org/2000/svg">
<rect width="44" height="44" rx="22" fill="#BC8B57" fill-opacity="0.1"/>
<path d="M26.5 16H27.25C27.25 15.5858 26.9142 15.25 26.5 15.25V16ZM25.75 26.05C25.75 26.4642 26.0858 26.8 26.5 26.8C26.9142 26.8 27.25 26.4642 27.25 26.05H25.75ZM11.5 16V15.25C11.0858 15.25 10.75 15.5858 10.75 16H11.5ZM11.5 28H10.75C10.75 28.4142 11.0858 28.75 11.5 28.75V28ZM32.5 28V28.75C32.9142 28.75 33.25 28.4142 33.25 28H32.5ZM27 16.25C26.5858 16.25 26.25 16.5858 26.25 17C26.25 17.4142 26.5858 17.75 27 17.75V16.25ZM29.125 28C29.125 28.8284 28.4534 29.5 27.625 29.5V31C29.2819 31 30.625 29.6569 30.625 28H29.125ZM27.625 29.5C26.7966 29.5 26.125 28.8284 26.125 28H24.625C24.625 29.6569 25.9681 31 27.625 31V29.5ZM26.125 28C26.125 27.1716 26.7966 26.5 27.625 26.5V25C25.9681 25 24.625 26.3431 24.625 28H26.125ZM27.625 26.5C28.4534 26.5 29.125 27.1716 29.125 28H30.625C30.625 26.3431 29.2819 25 27.625 25V26.5ZM17.875 28C17.875 28.8284 17.2034 29.5 16.375 29.5V31C18.0319 31 19.375 29.6569 19.375 28H17.875ZM16.375 29.5C15.5466 29.5 14.875 28.8284 14.875 28H13.375C13.375 29.6569 14.7181 31 16.375 31V29.5ZM14.875 28C14.875 27.1716 15.5466 26.5 16.375 26.5V25C14.7181 25 13.375 26.3431 13.375 28H14.875ZM16.375 26.5C17.2034 26.5 17.875 27.1716 17.875 28H19.375C19.375 26.3431 18.0319 25 16.375 25V26.5ZM25.375 27.25H18.625V28.75H25.375V27.25ZM25.75 16V26.05H27.25V16H25.75ZM28.25 16.25H27V17.75H28.25V16.25ZM33.25 21.25C33.25 18.4886 31.0114 16.25 28.25 16.25V17.75C30.183 17.75 31.75 19.317 31.75 21.25H33.25ZM14.125 27.25H11.5V28.75H14.125V27.25ZM12.25 28V16H10.75V28H12.25ZM11.5 16.75H26.5V15.25H11.5V16.75ZM31.75 21.25V28H33.25V21.25H31.75ZM32.5 27.25H29.875V28.75H32.5V27.25Z" fill="#2B2826"/>
</svg>
