<svg width="18" height="18" viewBox="0 0 18 18" fill="none" xmlns="http://www.w3.org/2000/svg">
<path fill-rule="evenodd" clip-rule="evenodd" d="M17.64 9.20419C17.64 8.56601 17.5827 7.95237 17.4764 7.36328H9V10.8446H13.8436C13.635 11.9696 13.0009 12.9228 12.0477 13.561V15.8192H14.9564C16.6582 14.2524 17.64 11.9451 17.64 9.20419Z" fill="#2B2826"/>
<path fill-rule="evenodd" clip-rule="evenodd" d="M9.00074 17.999C11.4307 17.999 13.468 17.1931 14.9571 15.8185L12.0485 13.5603C11.2426 14.1003 10.2116 14.4194 9.00074 14.4194C6.65664 14.4194 4.67255 12.8363 3.96483 10.709H0.958008V13.0408C2.43892 15.9822 5.48255 17.999 9.00074 17.999Z" fill="#2B2826"/>
<path fill-rule="evenodd" clip-rule="evenodd" d="M3.96409 10.7101C3.78409 10.1701 3.68182 9.59325 3.68182 9.00007C3.68182 8.40689 3.78409 7.83007 3.96409 7.29007V4.95825H0.957273C0.347727 6.17325 0 7.5478 0 9.00007C0 10.4523 0.347727 11.8269 0.957273 13.0419L3.96409 10.7101Z" fill="#2B2826"/>
<path fill-rule="evenodd" clip-rule="evenodd" d="M9.00074 3.57955C10.3221 3.57955 11.5085 4.03364 12.4412 4.92545L15.0226 2.34409C13.4639 0.891818 11.4266 0 9.00074 0C5.48255 0 2.43892 2.01682 0.958008 4.95818L3.96483 7.29C4.67255 5.16273 6.65664 3.57955 9.00074 3.57955Z" fill="#2B2826"/>
</svg>
