<svg xmlns="http://www.w3.org/2000/svg" width="18" height="18.487" viewBox="0 0 18 18.487">
  <path id="home" d="M11.25,17.5V13a.75.75,0,0,0-.75-.75h-3a.75.75,0,0,0-.75.75v4.5a.75.75,0,0,1-.75.75H1.5a.75.75,0,0,1-.75-.75V8.828a.778.778,0,0,1,.244-.553l7.5-6.816a.75.75,0,0,1,1.013,0l7.5,6.816a.778.778,0,0,1,.244.553V17.5a.75.75,0,0,1-.75.75H12a.75.75,0,0,1-.75-.75Z" transform="translate(0 -0.513)" fill="none" stroke="#2b2826" stroke-linecap="round" stroke-linejoin="round" stroke-width="1.5"/>
</svg>
