<svg width="1250" height="246" viewBox="0 0 1250 246" fill="none" xmlns="http://www.w3.org/2000/svg">
<path d="M493.338 34.5911C498.321 31.3377 503.87 28.5197 510.115 29.4539C518.612 30.7248 519.767 41.4384 519.14 49.1389C518.257 59.9882 513.064 66.7819 503.274 70.4578C498.25 72.3452 487.71 74.3813 484.209 69.7771C483.604 68.9822 482.701 67.3971 482.254 68.2777C481.874 69.0274 482.272 72.814 481.258 74.48" stroke="#CCAA70" stroke-width="2" stroke-miterlimit="22.9256" stroke-linecap="round" stroke-linejoin="round"/>
<path d="M478.613 81.9346C475.707 85.5736 472.8 89.2114 470.313 92.0103C467.826 94.8092 465.759 96.7691 463.596 98.2543C461.432 99.7406 459.171 100.752 455.995 101.612C452.819 102.474 448.728 103.184 444.292 103.948C442.129 104.321 439.885 104.708 437.598 105.099M432.604 105.955C431.837 106.086 431.067 106.218 430.297 106.35" stroke="#CCAA70" stroke-width="2" stroke-miterlimit="22.9256" stroke-linecap="round" stroke-linejoin="round"/>
<path d="M415.957 107.771C411.887 108.114 407.819 108.46 404.858 108.847C401.897 109.235 400.045 109.665 398.452 110.128C396.859 110.591 395.523 111.086 394.608 111.517C393.693 111.947 393.198 112.314 392.703 112.679" stroke="#CCAA70" stroke-width="2" stroke-miterlimit="22.9256" stroke-linecap="round" stroke-linejoin="round"/>
<path d="M491.169 44.7988C492.025 45.138 492.882 45.4771 493.48 46.1733C494.078 46.8694 494.416 47.9226 494.408 48.9496C494.398 49.9765 494.041 50.9749 493.309 52.0198C492.578 53.0634 491.471 54.1534 490.703 55.0459C489.936 55.9384 489.507 56.6346 489.392 57.3046C489.275 57.9733 489.472 58.6171 489.99 58.9908C490.508 59.3657 491.347 59.4728 492.275 59.3752C493.203 59.2764 494.221 58.9729 495.426 58.7326C496.631 58.4922 498.023 58.3137 499.282 58.278C500.54 58.2423 501.664 58.3494 502.459 58.4386C503.254 58.5279 503.718 58.5993 504.182 58.6707" stroke="#CCAA70" stroke-width="2" stroke-miterlimit="22.9256" stroke-linecap="round" stroke-linejoin="round"/>
<path d="M513.393 56.4736C512.732 57.7588 512.072 59.044 511.1 60.1603C510.126 61.2765 508.841 62.2225 507.716 62.8378C506.592 63.4542 505.628 63.7398 504.664 64.0254" stroke="#CCAA70" stroke-width="2" stroke-miterlimit="22.9256" stroke-linecap="round" stroke-linejoin="round"/>
<path d="M515.213 41.747C514.91 40.4261 514.606 39.1052 513.964 38.0068C513.321 36.9085 512.339 36.035 511.108 35.5792C509.876 35.1246 508.395 35.0889 506.975 35.4186C505.555 35.7482 504.199 36.4455 503.082 37.3547C501.967 38.2651 501.092 39.3896 500.45 40.5677C499.808 41.7458 499.397 42.9775 499.129 44.1115C498.861 45.2456 498.737 46.2809 498.727 47.1913C498.719 48.1016 498.825 48.887 498.932 49.6724" stroke="#CCAA70" stroke-width="2" stroke-miterlimit="22.9256" stroke-linecap="round" stroke-linejoin="round"/>
<path d="M499.051 44.4541C499.948 44.6112 500.813 44.798 501.6 45.0574C502.93 45.4942 504.037 46.1368 504.983 46.9579C505.929 47.779 506.714 48.7786 507.268 49.8317C507.821 50.8849 508.142 51.9916 508.313 53.0352C508.482 54.08 508.499 55.0618 508.517 56.0435" stroke="#CCAA70" stroke-width="2" stroke-miterlimit="22.9256" stroke-linecap="round" stroke-linejoin="round"/>
<path d="M509.684 67.1172C508.962 69.9232 508.231 72.9672 507.471 76.8478C506.409 82.26 505.286 89.3024 504.523 97.2576C503.759 105.213 503.356 114.081 503.575 121.572C503.794 129.063 504.636 135.178 506.268 141.25C507.899 147.322 510.319 153.35 513.949 159.445C517.58 165.54 522.422 171.701 527.661 176.939C532.899 182.177 538.534 186.492 543.865 189.72C549.196 192.947 554.225 195.086 560.038 197.085C565.851 199.081 572.449 200.937 578.226 203.058C584.004 205.18 588.96 207.57 592.634 209.513C596.307 211.456 598.697 212.954 601.085 214.453" stroke="#CCAA70" stroke-width="2" stroke-miterlimit="22.9256" stroke-linecap="round" stroke-linejoin="round"/>
<path d="M546.372 203.36C542.905 204.4 539.439 205.44 536.278 206.133C533.117 206.827 530.263 207.173 527.856 207.356C525.45 207.54 523.493 207.56 521.535 207.581" stroke="#CCAA70" stroke-width="2" stroke-miterlimit="22.9256" stroke-linecap="round" stroke-linejoin="round"/>
<path d="M414.648 122.393C414.878 125.506 415.117 128.642 415.396 131.869C415.766 136.144 416.205 140.579 417.003 144.925C417.803 149.271 418.962 153.527 420.161 157.062C420.47 157.976 420.783 158.842 421.097 159.673M422.74 163.719C423.105 164.569 423.471 165.402 423.836 166.233" stroke="#CCAA70" stroke-width="2" stroke-miterlimit="22.9256" stroke-linecap="round" stroke-linejoin="round"/>
<path d="M415.57 133.841C414.765 134.234 413.848 134.595 412.697 134.895C410.465 135.477 407.354 135.825 403.819 135.955C400.283 136.085 396.322 135.999 392.681 135.773C389.041 135.547 385.723 135.183 382.882 134.836C382.761 134.821 382.642 134.806 382.523 134.792" stroke="#CCAA70" stroke-width="2" stroke-miterlimit="22.9256" stroke-linecap="round" stroke-linejoin="round"/>
<path d="M305.172 152.171C309.724 148.236 314.275 144.301 318.681 140.968C323.085 137.635 327.343 134.904 332.071 132.643C336.799 130.382 341.997 128.59 347.105 127.665C352.214 126.741 357.236 126.681 362.331 127.283C367.426 127.885 372.594 129.148 377.498 131.687C382.402 134.228 387.042 138.046 391.886 143.052C395.887 147.186 400.028 152.13 403.754 156.588M411.424 165.547C413.568 167.931 415.671 170.116 417.977 172.284C422.131 176.19 426.948 180.037 430.736 182.635C434.524 185.234 437.284 186.585 440.044 187.935" stroke="#CCAA70" stroke-width="2" stroke-miterlimit="22.9256" stroke-linecap="round" stroke-linejoin="round"/>
<path d="M379.477 83.126C380.045 86.0712 380.614 89.0165 380.868 92.0034C381.121 94.9891 381.06 98.0165 381.253 100.708C381.446 103.4 381.893 105.756 382.644 107.656C383.396 109.555 384.452 110.997 385.914 112.327C387.377 113.658 389.246 114.876 391.684 115.821C394.121 116.766 397.128 117.436 400.368 118.097C403.609 118.757 407.082 119.407 409.814 120.25C412.547 121.094 414.538 122.13 416.132 123.491C417.727 124.852 418.925 126.538 420.123 128.224" stroke="#CCAA70" stroke-width="2" stroke-miterlimit="22.9256" stroke-linecap="round" stroke-linejoin="round"/>
<path d="M497.123 103.139C496.817 104.744 496.511 106.35 496.208 107.952M494.967 114.563C494.335 117.979 493.728 121.347 493.17 124.623C491.998 131.514 491.042 138.001 490.434 142.3C489.826 146.6 489.565 148.715 489.305 150.828" stroke="#CCAA70" stroke-width="2" stroke-miterlimit="22.9256" stroke-linecap="round" stroke-linejoin="round"/>
<path d="M546.006 16C547.39 22.6604 548.773 29.3209 549.497 37.3332C550.221 45.3455 550.285 54.7096 549.497 63.5739C548.708 72.4395 547.068 80.8052 546.055 88.0939C545.372 93.0027 544.974 97.4236 544.934 101.689M545.828 113.603C546.522 117.93 547.608 122.302 549.031 126.804C551.089 133.32 553.857 140.109 556.32 147.075C558.78 154.042 560.937 161.185 562.273 168.151C563.608 175.118 564.124 181.907 564.011 187.506C563.931 191.492 563.532 194.875 563.042 198.085" stroke="#CCAA70" stroke-width="2" stroke-miterlimit="22.9256" stroke-linecap="round" stroke-linejoin="round"/>
<path d="M575.903 202.231C576.561 198.473 577.111 194.608 577.222 190.316C577.369 184.599 576.741 178.123 575.501 171.647C574.261 165.171 572.411 158.695 570.191 152.072C567.971 145.448 565.38 138.676 562.808 132.699C560.237 126.723 557.683 121.542 555.598 117.033C553.513 112.524 551.895 108.685 550.605 104.897C549.314 101.11 548.349 97.3718 547.779 93.0152C547.301 89.3643 547.102 85.2802 547.102 81.2188" stroke="#CCAA70" stroke-width="2" stroke-miterlimit="22.9256" stroke-linecap="round" stroke-linejoin="round"/>
<path d="M530.809 38.8311C530.474 41.5455 530.138 44.2598 529.242 47.2955C528.346 50.3312 526.892 53.6894 524.709 57.2571C522.527 60.8247 519.616 64.6029 516.916 68.4919C514.216 72.382 511.725 76.3828 509.962 79.7267C508.199 83.0706 507.164 85.7564 506.399 88.3649C505.634 90.9734 505.139 93.5045 504.765 96.3439C504.391 99.1844 504.139 102.334 503.887 105.484" stroke="#CCAA70" stroke-width="2" stroke-miterlimit="22.9256" stroke-linecap="round" stroke-linejoin="round"/>
<path d="M543.414 41.8945C543.027 44.9588 542.641 48.023 542.013 51.261M540.344 58.1357C539.517 60.9691 538.485 63.9239 537.239 66.9584C535.321 71.6303 532.889 76.4974 530.44 81.505C527.989 86.5125 525.521 91.6628 523.612 96.0706C521.704 100.478 520.354 104.144 519.093 108.716C518.66 110.288 518.236 111.965 517.835 113.709M514.647 138.796C514.641 139.318 514.64 139.842 514.641 140.371C514.662 146.021 515.138 152.083 515.791 156.376C516.442 160.671 517.269 163.199 518.36 165.33C519.451 167.462 520.808 169.199 522.163 170.935" stroke="#CCAA70" stroke-width="2" stroke-miterlimit="22.9256" stroke-linecap="round" stroke-linejoin="round"/>
<path d="M531.467 121.254C530.488 128.276 529.509 135.298 529.147 142.257C528.786 149.217 529.041 156.111 529.765 161.878C530.488 167.645 531.68 172.284 532.829 175.539C533.979 178.795 535.084 180.668 536.347 182.434C537.609 184.201 539.027 185.862 540.156 186.966C541.285 188.07 542.127 188.618 542.968 189.165" stroke="#CCAA70" stroke-width="2" stroke-miterlimit="22.9256" stroke-linecap="round" stroke-linejoin="round"/>
<path fill-rule="evenodd" clip-rule="evenodd" d="M467.109 88.0012C467.317 88.1547 467.777 88.219 468.44 88.3761C469.103 88.5343 469.968 88.7842 470.744 89.2245C471.52 89.6648 472.206 90.2955 472.611 91.0107C473.014 91.7259 473.137 92.5268 473.245 93.0599C473.355 93.593 473.451 93.8596 473.576 93.9738C473.701 94.0869 473.854 94.0464 474.004 93.5454C474.154 93.0444 474.299 92.0829 474.517 91.2821C474.736 90.4824 475.027 89.8433 475.531 89.359C476.037 88.8735 476.756 88.5427 477.511 88.3201C478.267 88.0976 479.06 87.9846 479.488 87.8072C479.916 87.6299 479.981 87.3872 479.819 87.2658C479.657 87.1444 479.269 87.1444 478.603 87.0635C477.936 86.9826 476.99 86.8207 476.211 86.4935C475.431 86.1662 474.816 85.6736 474.433 84.9703C474.048 84.267 473.895 83.3543 473.782 82.7117C473.669 82.0691 473.596 81.6978 473.486 81.5383C473.375 81.38 473.227 81.4336 473.105 81.8715C472.982 82.3082 472.885 83.1282 472.607 83.885C472.329 84.6418 471.871 85.3368 471.28 85.8378C470.69 86.3376 469.968 86.6434 469.231 86.866C468.495 87.0885 467.745 87.2277 467.346 87.4181C466.948 87.6085 466.902 87.8501 467.109 88.0024V88.0012Z" stroke="#6E6661" stroke-width="2" stroke-miterlimit="22.9256" stroke-linecap="round" stroke-linejoin="round"/>
<path fill-rule="evenodd" clip-rule="evenodd" d="M441.902 106.867C442.041 106.969 442.349 107.012 442.795 107.118C443.238 107.224 443.819 107.392 444.339 107.687C444.859 107.982 445.32 108.405 445.591 108.884C445.862 109.364 445.943 109.9 446.016 110.257C446.088 110.616 446.154 110.794 446.238 110.869C446.322 110.945 446.425 110.918 446.525 110.582C446.625 110.247 446.723 109.602 446.869 109.065C447.015 108.528 447.211 108.1 447.549 107.775C447.888 107.45 448.37 107.228 448.877 107.079C449.384 106.93 449.914 106.854 450.201 106.735C450.488 106.616 450.532 106.453 450.424 106.372C450.315 106.29 450.055 106.29 449.608 106.236C449.161 106.182 448.528 106.073 448.004 105.854C447.481 105.636 447.07 105.305 446.812 104.833C446.555 104.362 446.451 103.749 446.375 103.319C446.299 102.888 446.25 102.639 446.176 102.532C446.103 102.426 446.004 102.462 445.922 102.755C445.84 103.047 445.774 103.597 445.589 104.105C445.402 104.613 445.095 105.079 444.699 105.414C444.302 105.75 443.818 105.954 443.324 106.103C442.83 106.252 442.327 106.346 442.06 106.473C441.794 106.601 441.763 106.762 441.901 106.866L441.902 106.867Z" stroke="#6E6661" stroke-width="2" stroke-miterlimit="22.9256" stroke-linecap="round" stroke-linejoin="round"/>
<path fill-rule="evenodd" clip-rule="evenodd" d="M462.91 97.1073C462.714 97.5297 462.596 98.3342 462.164 99.0303C461.732 99.7277 460.986 100.317 460.447 100.699C459.907 101.082 459.574 101.258 459.652 101.484C459.731 101.71 460.221 101.985 460.752 102.249C461.281 102.515 461.851 102.769 462.263 103.261C462.676 103.752 462.931 104.478 463.195 104.792C463.46 105.106 463.735 105.009 463.96 104.616C464.186 104.224 464.362 103.537 464.755 103.075C465.147 102.613 465.757 102.378 466.365 102.153C466.973 101.927 467.582 101.711 467.562 101.466C467.542 101.221 466.894 100.946 466.197 100.505C465.501 100.063 464.755 99.4552 464.323 98.7769C463.891 98.0997 463.773 97.3536 463.577 97.0002C463.38 96.6468 463.105 96.686 462.909 97.1085L462.91 97.1073Z" stroke="#6E6661" stroke-width="2" stroke-miterlimit="22.9256" stroke-linecap="round" stroke-linejoin="round"/>
<path fill-rule="evenodd" clip-rule="evenodd" d="M489.817 82.6258C489.112 81.3442 488.436 80.1458 488.898 78.2978C489.073 77.5968 489.438 77.2029 489.694 77.0566C490.027 76.8662 490.176 77.1375 491.073 77.1077C492.103 77.0732 492.196 78.0835 492.196 79.3342C492.196 80.748 491.854 81.3906 491.19 82.5972C490.373 84.08 490.415 83.7099 489.817 82.6258Z" stroke="#6E6661" stroke-width="2" stroke-miterlimit="22.9256" stroke-linecap="round" stroke-linejoin="round"/>
<path fill-rule="evenodd" clip-rule="evenodd" d="M491.211 82.7093C492.267 81.6954 493.25 80.7327 495.154 80.7006C495.876 80.6887 496.351 80.9386 496.558 81.148C496.829 81.4206 496.604 81.6348 496.866 82.4939C497.166 83.4804 496.214 83.8327 495.007 84.1552C493.641 84.5217 492.932 84.3563 491.596 84.0267C489.952 83.6209 490.32 83.5661 491.213 82.7093H491.211Z" stroke="#6E6661" stroke-width="2" stroke-miterlimit="22.9256" stroke-linecap="round" stroke-linejoin="round"/>
<path fill-rule="evenodd" clip-rule="evenodd" d="M491.49 84.0749C492.742 84.8317 493.927 85.5314 494.451 87.3628C494.649 88.0578 494.53 88.5814 494.382 88.8349C494.188 89.1669 493.924 89.005 493.162 89.4798C492.287 90.0249 491.701 89.1966 491.076 88.1137C490.369 86.8892 490.345 86.1609 490.317 84.7841C490.283 83.0919 490.431 83.4322 491.49 84.0725V84.0749Z" stroke="#6E6661" stroke-width="2" stroke-miterlimit="22.9256" stroke-linecap="round" stroke-linejoin="round"/>
<path fill-rule="evenodd" clip-rule="evenodd" d="M490.245 84.7001C489.838 86.1055 489.468 87.4312 487.835 88.4106C487.216 88.7819 486.678 88.8021 486.395 88.7259C486.024 88.6248 486.112 88.3273 485.456 87.7144C484.703 87.0099 485.351 86.2293 486.236 85.3451C487.235 84.3455 487.933 84.1337 489.255 83.7505C490.881 83.2793 490.59 83.5113 490.246 84.7001H490.245Z" stroke="#6E6661" stroke-width="2" stroke-miterlimit="22.9256" stroke-linecap="round" stroke-linejoin="round"/>
<path fill-rule="evenodd" clip-rule="evenodd" d="M489.328 83.7489C487.867 83.837 486.494 83.9322 485.024 82.722C484.466 82.2626 484.267 81.764 484.244 81.4713C484.214 81.0881 484.524 81.0714 484.882 80.2468C485.293 79.3019 486.246 79.6506 487.375 80.1873C488.652 80.7942 489.085 81.3796 489.89 82.497C490.878 83.8715 490.563 83.6751 489.327 83.7489H489.328Z" stroke="#6E6661" stroke-width="2" stroke-miterlimit="22.9256" stroke-linecap="round" stroke-linejoin="round"/>
<path fill-rule="evenodd" clip-rule="evenodd" d="M485.046 95.1904C488.233 95.1904 488.233 100.031 485.046 100.031C481.86 100.031 481.86 95.1904 485.046 95.1904Z" stroke="#6E6661" stroke-width="2" stroke-miterlimit="22.9256" stroke-linecap="round" stroke-linejoin="round"/>
<path fill-rule="evenodd" clip-rule="evenodd" d="M465.641 202.961C464.441 200.783 463.293 198.746 464.078 195.606C464.376 194.415 464.997 193.746 465.43 193.497C465.998 193.173 466.249 193.635 467.774 193.584C469.525 193.526 469.684 195.243 469.684 197.367C469.684 199.77 469.101 200.862 467.973 202.912C466.584 205.432 466.657 204.804 465.642 202.961H465.641Z" stroke="#6E6661" stroke-width="2" stroke-miterlimit="22.9256" stroke-linecap="round" stroke-linejoin="round"/>
<path fill-rule="evenodd" clip-rule="evenodd" d="M468.008 203.101C469.802 201.378 471.472 199.743 474.708 199.688C475.934 199.668 476.742 200.094 477.095 200.449C477.555 200.913 477.173 201.276 477.618 202.736C478.128 204.413 476.51 205.01 474.459 205.56C472.138 206.182 470.932 205.901 468.661 205.341C465.867 204.652 466.493 204.559 468.009 203.101H468.008Z" stroke="#6E6661" stroke-width="2" stroke-miterlimit="22.9256" stroke-linecap="round" stroke-linejoin="round"/>
<path fill-rule="evenodd" clip-rule="evenodd" d="M468.486 205.424C470.614 206.711 472.627 207.9 473.518 211.012C473.856 212.192 473.653 213.083 473.401 213.515C473.072 214.079 472.623 213.805 471.327 214.612C469.839 215.538 468.843 214.13 467.782 212.29C466.581 210.21 466.539 208.971 466.492 206.633C466.433 203.757 466.686 204.336 468.486 205.424Z" stroke="#6E6661" stroke-width="2" stroke-miterlimit="22.9256" stroke-linecap="round" stroke-linejoin="round"/>
<path fill-rule="evenodd" clip-rule="evenodd" d="M466.365 206.485C465.672 208.875 465.044 211.126 462.269 212.791C461.217 213.423 460.304 213.457 459.822 213.327C459.191 213.155 459.34 212.651 458.226 211.607C456.947 210.41 458.049 209.083 459.551 207.581C461.25 205.882 462.435 205.521 464.681 204.872C467.444 204.072 466.95 204.465 466.365 206.485Z" stroke="#6E6661" stroke-width="2" stroke-miterlimit="22.9256" stroke-linecap="round" stroke-linejoin="round"/>
<path fill-rule="evenodd" clip-rule="evenodd" d="M464.806 204.867C462.323 205.016 459.991 205.179 457.492 203.123C456.545 202.344 456.205 201.495 456.167 200.996C456.117 200.345 456.643 200.316 457.251 198.916C457.95 197.31 459.57 197.902 461.488 198.814C463.658 199.844 464.395 200.841 465.761 202.739C467.441 205.073 466.905 204.74 464.806 204.866V204.867Z" stroke="#6E6661" stroke-width="2" stroke-miterlimit="22.9256" stroke-linecap="round" stroke-linejoin="round"/>
<path fill-rule="evenodd" clip-rule="evenodd" d="M456.085 184.992C459.647 184.992 459.647 190.403 456.085 190.403C452.524 190.403 452.524 184.992 456.085 184.992Z" stroke="#6E6661" stroke-width="2" stroke-miterlimit="22.9256" stroke-linecap="round" stroke-linejoin="round"/>
<path fill-rule="evenodd" clip-rule="evenodd" d="M505.203 198.451C504.897 199.111 504.713 200.366 504.039 201.453C503.366 202.54 502.202 203.459 501.359 204.056C500.517 204.654 499.997 204.93 500.119 205.282C500.242 205.634 501.007 206.064 501.834 206.477C502.661 206.891 503.549 207.288 504.193 208.055C504.835 208.821 505.234 209.954 505.648 210.444C506.062 210.935 506.491 210.781 506.843 210.168C507.195 209.555 507.471 208.483 508.083 207.763C508.696 207.043 509.645 206.676 510.595 206.323C511.545 205.971 512.494 205.634 512.463 205.251C512.432 204.868 511.422 204.44 510.334 203.751C509.247 203.062 508.083 202.112 507.409 201.055C506.736 199.998 506.551 198.835 506.246 198.284C505.94 197.733 505.51 197.793 505.204 198.451H505.203Z" stroke="#6E6661" stroke-width="2" stroke-miterlimit="22.9256" stroke-linecap="round" stroke-linejoin="round"/>
<path fill-rule="evenodd" clip-rule="evenodd" d="M538.911 200.921C539.216 201.58 539.401 202.836 540.074 203.923C540.748 205.011 541.912 205.93 542.754 206.527C543.597 207.124 544.117 207.4 543.994 207.753C543.872 208.105 543.107 208.533 542.279 208.947C541.452 209.361 540.565 209.759 539.921 210.525C539.277 211.292 538.88 212.425 538.466 212.915C538.051 213.405 537.623 213.252 537.271 212.639C536.919 212.026 536.642 210.955 536.03 210.235C535.417 209.515 534.467 209.147 533.517 208.795C532.568 208.443 531.618 208.106 531.649 207.723C531.68 207.34 532.69 206.911 533.778 206.222C534.866 205.533 536.03 204.584 536.703 203.527C537.377 202.47 537.56 201.306 537.867 200.755C538.173 200.204 538.601 200.265 538.908 200.923L538.911 200.921Z" stroke="#6E6661" stroke-width="2" stroke-miterlimit="22.9256" stroke-linecap="round" stroke-linejoin="round"/>
<path fill-rule="evenodd" clip-rule="evenodd" d="M481.797 220.112C482.131 220.359 482.876 220.463 483.946 220.717C485.017 220.972 486.413 221.377 487.666 222.088C488.919 222.8 490.028 223.818 490.682 224.973C491.334 226.128 491.53 227.421 491.706 228.282C491.882 229.144 492.039 229.574 492.242 229.758C492.444 229.941 492.692 229.876 492.933 229.066C493.175 228.257 493.409 226.704 493.761 225.411C494.114 224.118 494.584 223.087 495.4 222.304C496.216 221.521 497.378 220.985 498.599 220.626C499.82 220.266 501.098 220.084 501.79 219.796C502.482 219.509 502.586 219.118 502.326 218.922C502.065 218.725 501.438 218.725 500.361 218.595C499.284 218.465 497.756 218.204 496.497 217.674C495.237 217.146 494.246 216.35 493.626 215.214C493.006 214.078 492.758 212.603 492.575 211.565C492.392 210.527 492.275 209.926 492.097 209.67C491.918 209.415 491.679 209.501 491.481 210.207C491.284 210.913 491.127 212.237 490.678 213.461C490.229 214.684 489.488 215.806 488.535 216.614C487.582 217.422 486.414 217.916 485.224 218.275C484.034 218.635 482.823 218.858 482.18 219.166C481.536 219.473 481.463 219.863 481.797 220.11V220.112Z" stroke="#6E6661" stroke-width="2" stroke-miterlimit="22.9256" stroke-linecap="round" stroke-linejoin="round"/>
<path fill-rule="evenodd" clip-rule="evenodd" d="M521.409 216.066C526.674 216.066 526.674 224.064 521.409 224.064C516.145 224.064 516.145 216.066 521.409 216.066Z" stroke="#6E6661" stroke-width="2" stroke-miterlimit="22.9256" stroke-linecap="round" stroke-linejoin="round"/>
<path fill-rule="evenodd" clip-rule="evenodd" d="M494.505 190.672C493.44 190.961 491.693 191.431 489.98 192.437C488.268 193.444 486.591 194.988 485.757 196.957C484.924 198.927 484.934 201.323 485.047 202.817C485.16 204.31 485.375 204.902 486.083 205.037C486.791 205.173 487.993 204.853 489.356 204.307C490.718 203.759 492.241 202.984 493.424 201.969C494.606 200.953 495.447 199.696 495.923 197.89C496.399 196.084 496.51 193.731 496.518 192.351C496.527 190.971 496.433 190.566 496.193 190.418C495.954 190.27 495.571 190.38 494.505 190.669V190.672Z" stroke="#6E6661" stroke-width="2" stroke-miterlimit="22.9256" stroke-linecap="round" stroke-linejoin="round"/>
<path d="M982.406 136.487C984.566 137.351 986.698 138.204 988.79 139.039M996.382 142.066C1003.98 145.089 1010.79 147.785 1016.22 149.897C1028.55 154.697 1033.7 156.477 1036.47 157.336C1039.23 158.194 1039.62 158.13 1041.24 156.636C1042.86 155.142 1045.72 152.218 1055.45 142.809C1065.17 133.4 1081.76 117.508 1094.09 106.435C1106.41 95.362 1114.47 89.1104 1120.12 84.0614C1125.78 79.0131 1129.04 75.1674 1132.09 71.7603C1138.4 64.7178 1142.18 61.2106 1151.59 60.245C1155.67 59.827 1160.47 59.8693 1163.46 59.8063C1166.45 59.7433 1167.62 59.5767 1170.26 57.8626C1172.89 56.1491 1176.99 52.8881 1179.81 50.8189C1182.63 48.7503 1185.01 47.3065 1186.83 46.8467C1190.54 45.9069 1194.56 47.1502 1193.25 51.4884C1191.39 57.6112 1184.65 63.1297 1179.51 67.2549" stroke="#CCAA70" stroke-width="2" stroke-miterlimit="22.9256" stroke-linecap="round" stroke-linejoin="round"/>
<path d="M1137.69 74.3309C1139.36 72.5332 1141.03 70.736 1143.92 69.3146C1150.72 65.9614 1162.07 65.3761 1170.17 66.033C1175.06 66.4305 1179.7 67.3078 1182.52 67.7465C1185.34 68.1852 1186.34 68.1852 1188.55 67.4241C1194.89 65.2421 1201.83 61.039 1207.13 57.7168" stroke="#CCAA70" stroke-width="2" stroke-miterlimit="22.9256" stroke-linecap="round" stroke-linejoin="round"/>
<path d="M1207.14 57.7181C1206.45 55.8981 1205.77 54.0688 1205.35 52.2139" stroke="#CCAA70" stroke-width="2" stroke-miterlimit="22.9256" stroke-linecap="round" stroke-linejoin="round"/>
<path d="M1205.35 52.2144C1202.64 51.2878 1199.99 49.8411 1197.83 47.6144C1195.76 45.4834 1194.76 42.9864 1195.24 40.3663C1195.41 39.4334 1195.73 38.7559 1196.01 38.3939C1196.29 38.0314 1196.53 37.9839 1197.45 38.174C1200.53 38.8154 1207.88 41.5043 1210.99 42.7253C1213.02 43.5213 1213.38 43.759 1213.97 44.456C1216.05 46.8991 1218.8 53.0981 1220.01 56.3132C1220.79 58.3715 1220.84 59.0948 1220.5 60.0295C1218.93 64.3757 1206.29 76.848 1202.14 80.9995" stroke="#CCAA70" stroke-width="2" stroke-miterlimit="22.9256" stroke-linecap="round" stroke-linejoin="round"/>
<path d="M1207.28 41.3312C1206.14 38.7374 1205.55 36.2422 1205.74 33.4474C1205.89 31.1491 1206.75 29.045 1208.26 27.8246C1208.7 27.4695 1208.94 27.438 1209.34 27.6236C1209.73 27.8091 1210.27 28.2106 1211.78 29.7391C1213.29 31.2665 1215.77 33.9222 1217.95 36.1179C1220.14 38.3131 1222.04 40.0501 1223.24 41.3467C1224.43 42.6444 1224.92 43.5023 1225.61 45.6477C1227.12 50.3828 1228.71 58.0684 1229.42 62.8087C1229.68 64.5864 1229.66 64.954 1229.31 65.5159C1228.09 67.4968 1218.53 74.9145 1214.69 77.8232C1210.27 81.1667 1205.71 84.4087 1203.11 86.2591C1200.52 88.1101 1199.9 88.5688 1198.35 89.0963C1196.79 89.6226 1194.31 90.2177 1189.38 91.2038C1181.08 92.863 1163.38 95.9487 1155.83 98.6473C1152.23 99.937 1149.93 101.355 1146.21 104.229M1139.71 109.709C1136.72 112.49 1133.17 116.158 1128.98 121.218C1121.43 130.346 1111.79 144.004 1102.83 156.266C1093.88 168.53 1085.61 179.398 1075.99 190.502C1066.38 201.608 1055.41 212.949 1049.13 218.785C1042.84 224.622 1041.24 224.953 1038.57 224.622C1035.9 224.291 1032.16 223.299 1025.19 220.558C1018.22 217.817 1008.02 213.327 993.437 206.948C985.691 203.558 976.711 199.635 967.152 195.462" stroke="#CCAA70" stroke-width="2" stroke-miterlimit="22.9256" stroke-linecap="round" stroke-linejoin="round"/>
<path d="M1213.56 31.5824C1213.81 27.546 1214.32 21.9484 1218.19 19.929C1218.84 19.5905 1219.41 19.476 1219.8 19.5041C1220.2 19.5327 1220.4 19.7051 1220.82 20.7039C1221.98 23.4763 1223.4 28.578 1224.09 31.8939C1225.09 36.7458 1225.34 40.8263 1225.6 45.6479" stroke="#CCAA70" stroke-width="2" stroke-miterlimit="22.9256" stroke-linecap="round" stroke-linejoin="round"/>
<path d="M1224.74 35.5996C1226.32 34.0063 1227.79 33.102 1229.98 32.4566C1232.04 31.8507 1234.36 31.6806 1236.2 32.2499C1237.91 32.7785 1237.49 33.4319 1236.34 35.3556C1234.77 37.9729 1229.81 45.7897 1228.07 48.3142C1227.59 48.998 1227.19 49.5432 1226.83 50.0134" stroke="#CCAA70" stroke-width="2" stroke-miterlimit="22.9256" stroke-linecap="round" stroke-linejoin="round"/>
<path d="M1195.32 40.0186C1197.23 40.5867 1201.17 41.8667 1202.75 41.3111C1203.38 41.0895 1203.67 40.6835 1203.83 40.1033" stroke="#CCAA70" stroke-width="2" stroke-miterlimit="22.9256" stroke-linecap="round" stroke-linejoin="round"/>
<path d="M1206.93 29.3838C1208.35 30.8385 1210.64 33.2071 1211.89 34.2346C1213.05 35.1916 1214.22 35.5266 1215.66 34.9997C1215.95 34.896 1216.21 34.7563 1216.46 34.596" stroke="#CCAA70" stroke-width="2" stroke-miterlimit="22.9256" stroke-linecap="round" stroke-linejoin="round"/>
<path d="M1217.69 20.2305C1218.26 22.4256 1219.31 26.5783 1220.16 28.1698C1220.96 29.6531 1222.12 29.8026 1223.56 29.5449" stroke="#CCAA70" stroke-width="2" stroke-miterlimit="22.9256" stroke-linecap="round" stroke-linejoin="round"/>
<path d="M1234.97 31.9873C1233.45 34.0891 1231.21 37.1365 1230.59 39.1833C1230.06 40.9467 1230.51 41.8487 1231.61 42.8635" stroke="#CCAA70" stroke-width="2" stroke-miterlimit="22.9256" stroke-linecap="round" stroke-linejoin="round"/>
<path fill-rule="evenodd" clip-rule="evenodd" d="M1109.54 75.2154C1109.75 75.3677 1110.21 75.4324 1110.87 75.5894C1111.53 75.7463 1112.39 75.996 1113.16 76.4347C1113.94 76.8739 1114.62 77.5016 1115.02 78.2141C1115.43 78.9271 1115.55 79.7237 1115.66 80.2552C1115.76 80.7866 1115.86 81.0524 1115.99 81.1652C1116.11 81.278 1116.26 81.2379 1116.41 80.7385C1116.56 80.2391 1116.71 79.281 1116.92 78.4838C1117.14 77.6866 1117.43 77.0503 1117.93 76.5675C1118.44 76.0848 1119.15 75.7543 1119.91 75.5332C1120.66 75.3116 1121.45 75.1988 1121.88 75.0218C1122.3 74.8449 1122.37 74.6032 1122.21 74.4823C1122.04 74.3615 1121.66 74.3615 1120.99 74.2807C1120.33 74.2 1119.39 74.0391 1118.61 73.7126C1117.83 73.3868 1117.22 72.8954 1116.84 72.195C1116.46 71.4945 1116.3 70.5845 1116.19 69.9442C1116.08 69.304 1116.01 68.934 1115.9 68.7754C1115.79 68.6173 1115.64 68.6717 1115.52 69.1069C1115.4 69.5422 1115.3 70.3595 1115.02 71.1137C1114.74 71.868 1114.29 72.5603 1113.7 73.0592C1113.11 73.5574 1112.39 73.8621 1111.66 74.0837C1110.92 74.3054 1110.18 74.444 1109.78 74.6335C1109.38 74.8231 1109.34 75.0636 1109.54 75.216V75.2154Z" stroke="#6E6661" stroke-width="2" stroke-miterlimit="22.9256" stroke-linecap="round" stroke-linejoin="round"/>
<path fill-rule="evenodd" clip-rule="evenodd" d="M1098.19 99.9384C1098.29 100.015 1098.52 100.048 1098.85 100.127C1099.19 100.206 1099.62 100.332 1100.01 100.553C1100.4 100.774 1100.74 101.09 1100.95 101.449C1101.15 101.808 1101.21 102.21 1101.26 102.477C1101.32 102.745 1101.37 102.879 1101.43 102.935C1101.49 102.992 1101.57 102.972 1101.65 102.721C1101.72 102.469 1101.79 101.986 1101.9 101.585C1102.01 101.183 1102.16 100.863 1102.41 100.619C1102.67 100.376 1103.03 100.209 1103.41 100.098C1103.79 99.9865 1104.18 99.9298 1104.4 99.8405C1104.61 99.7511 1104.65 99.6297 1104.56 99.569C1104.48 99.5083 1104.29 99.5083 1103.95 99.4677C1103.62 99.4276 1103.14 99.3462 1102.75 99.1819C1102.36 99.0175 1102.05 98.7701 1101.86 98.4173C1101.67 98.0645 1101.59 97.6064 1101.53 97.2839C1101.48 96.9615 1101.44 96.7748 1101.39 96.6952C1101.33 96.6156 1101.26 96.6425 1101.2 96.8624C1101.13 97.0818 1101.08 97.493 1100.95 97.8732C1100.81 98.2535 1100.58 98.6023 1100.28 98.8531C1099.98 99.104 1099.62 99.2575 1099.25 99.3691C1098.88 99.4808 1098.5 99.5507 1098.3 99.6458C1098.11 99.7414 1098.08 99.8622 1098.19 99.939V99.9384Z" stroke="#6E6661" stroke-width="2" stroke-miterlimit="22.9256" stroke-linecap="round" stroke-linejoin="round"/>
<path fill-rule="evenodd" clip-rule="evenodd" d="M1105.35 84.2868C1105.16 84.7071 1105.04 85.5089 1104.61 86.203C1104.18 86.8977 1103.43 87.4842 1102.9 87.8656C1102.36 88.2476 1102.03 88.4228 1102.11 88.6479C1102.18 88.873 1102.67 89.1467 1103.2 89.4107C1103.73 89.6748 1104.3 89.929 1104.71 90.4181C1105.12 90.9072 1105.37 91.6305 1105.63 91.9438C1105.9 92.2565 1106.17 92.1586 1106.4 91.7674C1106.62 91.3763 1106.8 90.6919 1107.19 90.232C1107.58 89.7727 1108.19 89.5379 1108.79 89.3128C1109.4 89.0877 1110.01 88.873 1109.99 88.6284C1109.97 88.3839 1109.32 88.1101 1108.63 87.6703C1107.93 87.2305 1107.19 86.624 1106.76 85.9493C1106.33 85.2747 1106.21 84.5319 1106.02 84.1797C1105.82 83.828 1105.55 83.867 1105.35 84.2874V84.2868Z" stroke="#6E6661" stroke-width="2" stroke-miterlimit="22.9256" stroke-linecap="round" stroke-linejoin="round"/>
<path fill-rule="evenodd" clip-rule="evenodd" d="M1132.16 69.8578C1131.46 68.5801 1130.78 67.3866 1131.24 65.5459C1131.42 64.8478 1131.78 64.4549 1132.04 64.3094C1132.37 64.1193 1132.52 64.3902 1133.41 64.3604C1134.44 64.326 1134.53 65.3328 1134.53 66.5779C1134.53 67.9867 1134.19 68.627 1133.53 69.8286C1132.71 71.3061 1132.76 70.9379 1132.16 69.8578V69.8578Z" stroke="#6E6661" stroke-width="2" stroke-miterlimit="22.9256" stroke-linecap="round" stroke-linejoin="round"/>
<path fill-rule="evenodd" clip-rule="evenodd" d="M1133.55 69.94C1134.6 68.9303 1135.58 67.971 1137.48 67.9389C1138.2 67.9263 1138.67 68.1766 1138.88 68.3845C1139.15 68.6565 1138.92 68.869 1139.18 69.7252C1139.48 70.7079 1138.53 71.0584 1137.33 71.3803C1135.97 71.7451 1135.26 71.5808 1133.93 71.2526C1132.29 70.8488 1132.66 70.7939 1133.55 69.9394L1133.55 69.94Z" stroke="#6E6661" stroke-width="2" stroke-miterlimit="22.9256" stroke-linecap="round" stroke-linejoin="round"/>
<path fill-rule="evenodd" clip-rule="evenodd" d="M1133.83 71.3012C1135.08 72.0555 1136.26 72.753 1136.78 74.5771C1136.98 75.2689 1136.86 75.7912 1136.71 76.0443C1136.52 76.3754 1136.25 76.2144 1135.5 76.6869C1134.62 77.2298 1134.04 76.4046 1133.42 75.3262C1132.71 74.1063 1132.69 73.3807 1132.66 72.0096C1132.63 70.3236 1132.77 70.6632 1133.83 71.3012V71.3012Z" stroke="#6E6661" stroke-width="2" stroke-miterlimit="22.9256" stroke-linecap="round" stroke-linejoin="round"/>
<path fill-rule="evenodd" clip-rule="evenodd" d="M1132.59 71.9242C1132.18 73.3245 1131.82 74.6445 1130.19 75.621C1129.57 75.9915 1129.04 76.0121 1128.75 75.9348C1128.38 75.834 1128.47 75.5379 1127.82 74.9269C1127.07 74.2253 1127.71 73.447 1128.59 72.5668C1129.59 71.5708 1130.29 71.3595 1131.6 70.9781C1133.22 70.509 1132.93 70.7393 1132.59 71.9242H1132.59Z" stroke="#6E6661" stroke-width="2" stroke-miterlimit="22.9256" stroke-linecap="round" stroke-linejoin="round"/>
<path fill-rule="evenodd" clip-rule="evenodd" d="M1131.68 70.9757C1130.22 71.0628 1128.85 71.159 1127.39 69.9529C1126.83 69.4959 1126.63 68.9987 1126.61 68.7067C1126.58 68.3247 1126.89 68.3075 1127.25 67.4868C1127.66 66.5453 1128.61 66.8929 1129.73 67.4273C1131 68.032 1131.44 68.6156 1132.24 69.7284C1133.22 71.0977 1132.91 70.9018 1131.68 70.9757H1131.68Z" stroke="#6E6661" stroke-width="2" stroke-miterlimit="22.9256" stroke-linecap="round" stroke-linejoin="round"/>
<path fill-rule="evenodd" clip-rule="evenodd" d="M1127.41 82.3779C1130.59 82.3779 1130.59 87.2018 1127.41 87.2018C1124.24 87.2018 1124.24 82.3779 1127.41 82.3779Z" stroke="#6E6661" stroke-width="2" stroke-miterlimit="22.9256" stroke-linecap="round" stroke-linejoin="round"/>
<path fill-rule="evenodd" clip-rule="evenodd" d="M1027.86 158.591C1027.05 157.112 1026.27 155.73 1026.8 153.599C1027.01 152.791 1027.43 152.336 1027.72 152.168C1028.11 151.948 1028.28 152.261 1029.31 152.227C1030.5 152.187 1030.61 153.353 1030.61 154.794C1030.61 156.425 1030.21 157.167 1029.45 158.557C1028.5 160.267 1028.55 159.841 1027.86 158.591V158.591Z" stroke="#6E6661" stroke-width="2" stroke-miterlimit="22.9256" stroke-linecap="round" stroke-linejoin="round"/>
<path fill-rule="evenodd" clip-rule="evenodd" d="M1029.47 158.686C1030.69 157.516 1031.82 156.406 1034.02 156.37C1034.85 156.355 1035.4 156.645 1035.64 156.885C1035.95 157.2 1035.69 157.446 1035.99 158.437C1036.34 159.574 1035.24 159.981 1033.85 160.353C1032.27 160.775 1031.45 160.585 1029.91 160.205C1028.02 159.738 1028.44 159.674 1029.47 158.685V158.686Z" stroke="#6E6661" stroke-width="2" stroke-miterlimit="22.9256" stroke-linecap="round" stroke-linejoin="round"/>
<path fill-rule="evenodd" clip-rule="evenodd" d="M1029.8 160.262C1031.24 161.136 1032.61 161.943 1033.21 164.055C1033.44 164.855 1033.3 165.46 1033.13 165.753C1032.91 166.136 1032.6 165.95 1031.72 166.497C1030.71 167.126 1030.04 166.17 1029.32 164.922C1028.5 163.51 1028.47 162.67 1028.44 161.083C1028.4 159.131 1028.57 159.524 1029.8 160.263L1029.8 160.262Z" stroke="#6E6661" stroke-width="2" stroke-miterlimit="22.9256" stroke-linecap="round" stroke-linejoin="round"/>
<path fill-rule="evenodd" clip-rule="evenodd" d="M1028.35 160.982C1027.89 162.603 1027.46 164.131 1025.58 165.261C1024.86 165.689 1024.24 165.714 1023.91 165.624C1023.49 165.508 1023.59 165.165 1022.83 164.458C1021.96 163.645 1022.71 162.745 1023.73 161.726C1024.88 160.573 1025.69 160.328 1027.21 159.887C1029.09 159.344 1028.75 159.611 1028.35 160.982H1028.35Z" stroke="#6E6661" stroke-width="2" stroke-miterlimit="22.9256" stroke-linecap="round" stroke-linejoin="round"/>
<path fill-rule="evenodd" clip-rule="evenodd" d="M1027.3 159.885C1025.61 159.986 1024.03 160.097 1022.33 158.701C1021.69 158.172 1021.46 157.597 1021.44 157.258C1021.4 156.816 1021.76 156.796 1022.17 155.847C1022.65 154.757 1023.74 155.159 1025.05 155.777C1026.52 156.477 1027.02 157.153 1027.95 158.441C1029.09 160.026 1028.72 159.799 1027.3 159.885L1027.3 159.885Z" stroke="#6E6661" stroke-width="2" stroke-miterlimit="22.9256" stroke-linecap="round" stroke-linejoin="round"/>
<path fill-rule="evenodd" clip-rule="evenodd" d="M1042.27 162.932C1042.44 163.059 1042.83 163.112 1043.38 163.243C1043.93 163.373 1044.64 163.581 1045.29 163.947C1045.93 164.313 1046.5 164.835 1046.84 165.429C1047.17 166.023 1047.27 166.686 1047.36 167.129C1047.45 167.572 1047.53 167.793 1047.64 167.887C1047.74 167.981 1047.87 167.947 1047.99 167.531C1048.12 167.115 1048.24 166.318 1048.42 165.654C1048.6 164.989 1048.84 164.46 1049.26 164.058C1049.68 163.656 1050.28 163.381 1050.9 163.196C1051.53 163.011 1052.19 162.917 1052.54 162.77C1052.9 162.622 1052.95 162.421 1052.82 162.321C1052.68 162.22 1052.36 162.22 1051.81 162.153C1051.26 162.086 1050.47 161.952 1049.82 161.681C1049.18 161.409 1048.67 161.001 1048.35 160.417C1048.03 159.833 1047.9 159.076 1047.81 158.543C1047.72 158.009 1047.65 157.701 1047.56 157.57C1047.47 157.438 1047.35 157.483 1047.25 157.846C1047.15 158.208 1047.06 158.888 1046.83 159.517C1046.6 160.145 1046.22 160.721 1045.73 161.136C1045.24 161.552 1044.64 161.805 1044.03 161.99C1043.42 162.174 1042.8 162.29 1042.47 162.447C1042.14 162.605 1042.1 162.805 1042.27 162.932V162.932Z" stroke="#6E6661" stroke-width="2" stroke-miterlimit="22.9256" stroke-linecap="round" stroke-linejoin="round"/>
<path fill-rule="evenodd" clip-rule="evenodd" d="M1045.56 146.629C1048.74 146.629 1048.74 151.453 1045.56 151.453C1042.39 151.453 1042.39 146.629 1045.56 146.629Z" stroke="#6E6661" stroke-width="2" stroke-miterlimit="22.9256" stroke-linecap="round" stroke-linejoin="round"/>
<path fill-rule="evenodd" clip-rule="evenodd" d="M1032.49 143.189C1031.88 143.022 1030.87 142.753 1029.89 142.175C1028.91 141.598 1027.95 140.713 1027.47 139.583C1026.99 138.453 1027 137.079 1027.06 136.222C1027.13 135.365 1027.25 135.026 1027.66 134.949C1028.06 134.871 1028.75 135.054 1029.53 135.368C1030.32 135.682 1031.19 136.126 1031.87 136.708C1032.55 137.291 1033.03 138.012 1033.3 139.048C1033.57 140.083 1033.64 141.434 1033.64 142.225C1033.65 143.016 1033.59 143.248 1033.46 143.333C1033.32 143.418 1033.1 143.355 1032.49 143.189V143.189Z" stroke="#6E6661" stroke-width="2" stroke-miterlimit="22.9256" stroke-linecap="round" stroke-linejoin="round"/>
<path d="M254.742 134.32C255.833 127.894 261.429 123 268.169 123" stroke="#6E6661" stroke-width="2" stroke-miterlimit="22.9256" stroke-linecap="round" stroke-linejoin="round"/>
<path d="M268.169 123C261.431 123 255.835 118.106 254.742 111.68" stroke="#6E6661" stroke-width="2" stroke-miterlimit="22.9256" stroke-linecap="round" stroke-linejoin="round"/>
<path d="M703.204 24.7826C701.839 25.5721 700.51 26.4125 699.249 27.3392C696.306 29.5054 693.726 32.1512 691.388 35.5638C689.05 38.9764 686.951 43.1573 685.691 46.5487C684.429 49.9401 684.004 52.5406 683.586 54.6459C683.167 56.7512 682.754 58.3628 681.99 59.8102C681.226 61.259 680.109 62.5437 678.455 63.9529C676.801 65.3621 674.607 66.8929 672.817 67.8862C671.027 68.8794 669.641 69.335 668.575 69.8556C667.51 70.3763 666.767 70.9635 666.273 71.5421C665.78 72.1208 665.536 72.6938 665.458 73.4508C665.381 74.2091 665.465 75.1529 665.894 76.1673C666.323 77.1818 667.095 78.2698 667.732 79.0918C668.369 79.9138 668.868 80.4713 669.24 80.8293C669.612 81.1872 669.856 81.3443 669.955 81.5013C670.055 81.6584 670.011 81.8154 669.809 82.2045C669.607 82.5936 669.246 83.2133 668.714 83.799C668.182 84.3848 667.479 84.9366 666.906 85.3257C666.337 85.7119 665.897 85.9383 665.262 86.2114" stroke="#CCAA70" stroke-width="2.07704" stroke-miterlimit="22.9256" stroke-linecap="round" stroke-linejoin="round"/>
<path d="M665.266 86.2113C665.189 86.6329 665.126 87.0602 665.099 87.4946C665.053 88.2657 665.119 89.0651 665.429 89.9111C665.739 90.7572 666.294 91.65 666.872 92.4452C667.336 93.0818 667.815 93.6549 668.296 94.2165" stroke="#CCAA70" stroke-width="2.07704" stroke-miterlimit="22.9256" stroke-linecap="round" stroke-linejoin="round"/>
<path d="M675.078 96.1493C674.112 95.63 673.144 95.1108 672.174 94.7457C671.203 94.3793 670.23 94.167 669.437 94.1303C668.645 94.0949 668.034 94.2364 667.451 94.4854C666.868 94.7344 666.313 95.0895 665.897 95.5946C665.481 96.0997 665.204 96.7534 665.079 97.4396C664.955 98.1258 664.983 98.8446 665.119 99.3949C665.253 99.9467 665.495 100.33 665.93 100.864C666.363 101.397 666.988 102.079 667.284 102.481C667.578 102.883 667.543 103.003 667.387 103.259C667.23 103.515 666.954 103.905 666.622 104.512C666.289 105.118 665.903 105.939 665.665 106.933C665.428 107.928 665.341 109.097 665.552 110.309C665.763 111.522 666.274 112.778 667.199 113.791C668.126 114.804 669.468 115.575 671.368 116.203C673.269 116.832 675.728 117.315 679.122 117.83C682.515 118.344 686.843 118.889 690.229 119.755C693.614 120.621 696.059 121.808 698.112 123.745C700.165 125.682 701.827 128.366 703.648 131.514C705.471 134.662 707.452 138.274 709.48 142.108C709.971 143.036 710.465 143.977 710.959 144.922M715.52 153.646C717.157 156.732 718.693 159.519 720.211 162.26" stroke="#CCAA70" stroke-width="2.07704" stroke-miterlimit="22.9256" stroke-linecap="round" stroke-linejoin="round"/>
<path d="M668.566 77.6897C668.566 77.5553 668.566 77.4223 668.715 77.326C668.862 77.2313 669.158 77.1761 669.62 77.1506C670.083 77.1251 670.714 77.1308 671.33 77.3657C671.946 77.6005 672.549 78.0632 672.926 78.5513C673.302 79.0394 673.452 79.553 673.455 79.9322C673.458 80.3114 673.313 80.5576 673.118 80.6297C672.923 80.7019 672.678 80.6014 672.454 80.4953C672.231 80.3892 672.03 80.2774 671.829 80.1671" stroke="#CCAA70" stroke-width="2.07704" stroke-miterlimit="22.9256" stroke-linecap="round" stroke-linejoin="round"/>
<path d="M673.855 81.5833C674.455 81.5833 675.057 81.5833 675.57 81.4036C676.084 81.2239 676.513 80.8631 676.838 80.4429C677.165 80.0227 677.39 79.5417 677.555 79.055C677.721 78.5668 677.826 78.0716 677.867 77.5496C677.908 77.0275 677.885 76.4799 677.862 75.9324" stroke="#CCAA70" stroke-width="2.07704" stroke-miterlimit="22.9256" stroke-linecap="round" stroke-linejoin="round"/>
<path d="M726.689 155.03C721.58 160.691 716.471 166.353 711.639 172.404C706.806 178.457 702.25 184.9 699.212 190.584C696.175 196.269 694.656 201.192 694.173 205.68C693.69 210.168 694.242 214.217 695.278 217.463C696.313 220.707 697.831 223.147 700.524 226.07C703.216 228.993 707.083 232.398 710.949 235.804" stroke="#CCAA70" stroke-width="2.07704" stroke-miterlimit="22.9256" stroke-linecap="round" stroke-linejoin="round"/>
<path d="M706.564 25.8338C704.467 25.3499 702.37 24.866 701.644 23.2531C700.919 21.6402 701.564 18.8982 704.225 16.599C706.886 14.3013 711.564 12.4464 718.42 11.2763C725.275 10.1063 734.308 9.62238 743.786 11.4376C753.263 13.2529 763.182 17.3659 770.986 22.8159C778.791 28.2659 784.479 35.0544 787.015 44.582C789.552 54.1097 788.94 66.3751 787.099 77.2921C786.44 81.2042 785.623 84.9422 784.869 88.5614M788.007 124.623C789.586 127.289 791.505 129.817 793.753 132.146M804.008 140.266C809.901 143.991 816.746 147.251 824.021 150.583C828.333 152.558 832.797 154.557 837.158 156.586M852.781 164.477C854.36 165.38 855.861 166.289 857.263 167.203C866.094 172.969 871.001 178.979 875.908 184.989" stroke="#CCAA70" stroke-width="2.07704" stroke-miterlimit="22.9256" stroke-linecap="round" stroke-linejoin="round"/>
<path d="M728.078 51.5446C734.601 52.8773 741.123 54.2101 748.956 62.3668C756.788 70.5234 765.934 85.5053 769.42 102.943C772.906 120.382 770.736 140.277 770.495 156.012C770.254 171.746 771.943 183.323 776.463 194.175C780.985 205.027 788.34 215.156 795.695 225.283" stroke="#CCAA70" stroke-width="2.07704" stroke-miterlimit="22.9256" stroke-linecap="round" stroke-linejoin="round"/>
<path d="M787.337 75.8248C787.171 80.2208 787.004 84.6167 787.057 88.8288M812.226 125.843C819.895 129.284 828.912 132.347 836.821 134.427" stroke="#CCAA70" stroke-width="2.07704" stroke-miterlimit="22.9256" stroke-linecap="round" stroke-linejoin="round"/>
<path d="M727.207 66.1699C733.826 69.2034 740.443 72.2368 746.063 76.9242C751.681 81.6117 756.301 87.9544 759.555 95.0301C762.809 102.106 764.698 109.913 764.733 119.09C764.769 128.267 762.948 138.813 759.808 148.427C756.667 158.041 752.206 166.722 748.951 175.524C745.695 184.326 743.645 193.249 744.188 201.569C744.73 209.888 747.865 217.606 750.94 222.428C754.014 227.251 757.029 229.181 760.043 231.109" stroke="#CCAA70" stroke-width="2.07704" stroke-miterlimit="22.9256" stroke-linecap="round" stroke-linejoin="round"/>
<path d="M737.246 83.2218C736.613 85.3653 736.022 87.4409 735.498 89.4146C733.991 95.0868 733.025 99.9128 732.888 106.738C732.751 113.563 733.44 122.388 735.577 130.351C737.714 138.313 741.299 145.415 744.954 152.412C746.707 155.768 748.475 159.102 750.251 162.423" stroke="#CCAA70" stroke-width="2.07704" stroke-miterlimit="22.9256" stroke-linecap="round" stroke-linejoin="round"/>
<path d="M746.984 98.9041C746.157 101.289 745.41 103.645 744.772 105.963C742.468 114.333 741.587 122.194 742.299 129.615C743.011 137.036 745.316 144.017 747.857 150.522C748.962 153.352 750.112 156.091 751.286 158.779" stroke="#CCAA70" stroke-width="2.07704" stroke-miterlimit="22.9256" stroke-linecap="round" stroke-linejoin="round"/>
<path d="M713.809 33.4896C718.529 32.004 723.249 30.5198 729.533 30.4391C735.818 30.3599 743.668 31.6856 750.872 35.1945C758.077 38.7033 764.637 44.3924 769.107 53.9172C773.576 63.4406 775.955 76.7983 777.541 87.9586C777.583 88.2586 777.626 88.5571 777.667 88.8528M779.953 106.489C780.054 107.218 780.155 107.934 780.259 108.64M783.987 124.876C785.26 128.709 786.933 132.875 789.218 137.786C792.76 145.403 796.882 153.099 801.852 160.283M807.349 167.56C809.896 170.639 812.638 173.569 815.602 176.297M818.221 178.604C819.493 179.675 820.803 180.709 822.154 181.704M825.018 183.708C826.418 184.639 827.861 185.527 829.347 186.369C839.671 192.217 852.174 195.847 864.676 199.476" stroke="#CCAA70" stroke-width="2.07704" stroke-miterlimit="22.9256" stroke-linecap="round" stroke-linejoin="round"/>
<path d="M716.301 27.1511C715.104 27.5826 713.907 28.0127 713.476 27.4623C713.044 26.912 713.379 25.3797 714.458 24.2053C715.536 23.0324 717.355 22.2175 720.468 21.452C723.581 20.6852 727.986 19.9678 733.47 20.231C738.954 20.4942 745.515 21.7392 751.954 24.46C758.393 27.1808 764.71 31.3758 769.357 37.4965C774.003 43.6171 776.98 51.6606 778.437 59.3235C779.893 66.9877 779.831 74.2714 779.862 79.4653C779.886 83.3788 779.964 86.1067 780.312 88.5006M799.171 107.646C799.196 107.656 799.222 107.666 799.247 107.676" stroke="#CCAA70" stroke-width="2.07704" stroke-miterlimit="22.9256" stroke-linecap="round" stroke-linejoin="round"/>
<path d="M729.633 74.5105C735.14 80.5901 740.647 86.6712 744.604 93.9549C748.561 101.24 750.971 109.728 752.29 118.705C753.608 127.681 753.839 137.145 753.293 145.175C752.748 153.206 751.428 159.802 749.076 165.681C746.725 171.56 743.341 176.722 740.043 181.369C736.744 186.015 733.533 190.145 730.693 194.589C727.854 199.035 725.387 203.796 723.838 208.7C722.289 213.603 721.658 218.652 721.543 222.523C721.429 226.394 721.831 229.091 722.231 231.786" stroke="#CCAA70" stroke-width="2.07704" stroke-miterlimit="22.9256" stroke-linecap="round" stroke-linejoin="round"/>
<path d="M751.285 158.781C755.206 164.849 759.125 170.919 764.266 177.325C769.408 183.733 775.771 190.479 783.402 195.885C791.033 201.291 799.932 205.358 810.17 207.583C820.408 209.808 831.986 210.191 843.565 210.574" stroke="#CCAA70" stroke-width="2.07704" stroke-miterlimit="22.9256" stroke-linecap="round" stroke-linejoin="round"/>
<path d="M742.593 40.1549C739.922 39.0966 737.25 38.0369 733.729 37.7115C730.207 37.3846 725.835 37.7907 723.434 38.6537C721.033 39.5168 720.603 40.8369 720.818 41.8202C721.033 42.8021 721.894 43.4473 725.224 44.1533C728.556 44.8593 734.359 45.6276 738.903 46.7326C743.448 47.8376 746.733 49.2807 750.186 52.5505C753.64 55.8202 757.264 60.9179 759.72 65.1243C762.176 69.3306 763.466 72.6471 764.54 76.1163C765.614 79.5855 766.474 83.209 767.335 86.8324" stroke="#CCAA70" stroke-width="2.07704" stroke-miterlimit="22.9256" stroke-linecap="round" stroke-linejoin="round"/>
<path d="M791.84 89.9664C793.727 82.6954 798.467 75.7994 801.916 75.7994C805.366 75.7994 810.106 82.6954 811.993 89.9664" stroke="#6E6661" stroke-width="2.07704" stroke-miterlimit="22.9256" stroke-linecap="round" stroke-linejoin="round"/>
<path d="M822.708 107.636C827.325 112.772 830.22 119.347 828.638 122.085C827.011 124.903 819.491 125.648 812.562 124.04" stroke="#6E6661" stroke-width="2.07704" stroke-miterlimit="22.9256" stroke-linecap="round" stroke-linejoin="round"/>
<path d="M791.269 124.04C784.341 125.648 776.82 124.903 775.193 122.085C773.613 119.347 776.507 112.774 781.124 107.636" stroke="#6E6661" stroke-width="2.07704" stroke-miterlimit="22.9256" stroke-linecap="round" stroke-linejoin="round"/>
<path d="M795.461 111.499C784.844 117.522 770.105 96.7025 773.268 91.227C776.553 85.5365 803.852 88.3025 801.811 101.792" stroke="#6E6661" stroke-width="2.07704" stroke-miterlimit="22.9256" stroke-linecap="round" stroke-linejoin="round"/>
<path d="M802.023 101.793C799.981 88.304 827.282 85.5379 830.568 91.2285C833.728 96.704 818.99 117.524 808.374 111.501" stroke="#6E6661" stroke-width="2.07704" stroke-miterlimit="22.9256" stroke-linecap="round" stroke-linejoin="round"/>
<path d="M808.34 111.598C818.924 117.749 808.246 140.975 801.916 140.975C795.586 140.975 784.91 117.749 795.493 111.598" stroke="#6E6661" stroke-width="2.07704" stroke-miterlimit="22.9256" stroke-linecap="round" stroke-linejoin="round"/>
<path d="M799.211 107.639C790.867 108.9 797.861 116.383 801.914 116.383C805.968 116.383 812.962 108.899 804.618 107.639" stroke="#6E6661" stroke-width="2.07704" stroke-miterlimit="22.9256" stroke-linecap="round" stroke-linejoin="round"/>
<path fill-rule="evenodd" clip-rule="evenodd" d="M801.915 109.172C804.766 109.172 809.872 101.793 801.915 101.793C793.958 101.793 799.064 109.172 801.915 109.172Z" stroke="#6E6661" stroke-width="2.07704" stroke-miterlimit="22.9256" stroke-linecap="round" stroke-linejoin="round"/>
<path d="M795.304 110.585C793.072 109.64 790.812 107.484 790.292 105.54C789.721 103.41 790.831 100.018 792.544 98.1415C796.776 93.5078 795.712 102.89 795.984 103.955C796.105 104.429 797.292 106.212 798.051 107.88" stroke="#6E6661" stroke-width="2.07704" stroke-miterlimit="22.9256" stroke-linecap="round" stroke-linejoin="round"/>
<path d="M808.531 110.584C810.764 109.639 813.024 107.482 813.544 105.54C814.114 103.41 813.005 100.018 811.292 98.1415C807.06 93.5078 808.124 102.89 807.852 103.955C807.732 104.429 806.544 106.212 805.785 107.88" stroke="#6E6661" stroke-width="2.07704" stroke-miterlimit="22.9256" stroke-linecap="round" stroke-linejoin="round"/>
<path fill-rule="evenodd" clip-rule="evenodd" d="M793.897 165.084C794.234 165.333 794.984 165.438 796.063 165.695C797.142 165.951 798.549 166.359 799.811 167.076C801.073 167.793 802.191 168.819 802.849 169.984C803.507 171.148 803.704 172.45 803.882 173.317C804.06 174.186 804.217 174.619 804.421 174.804C804.625 174.988 804.875 174.923 805.119 174.107C805.362 173.292 805.598 171.727 805.953 170.424C806.308 169.122 806.782 168.082 807.604 167.293C808.426 166.503 809.597 165.964 810.827 165.603C812.057 165.241 813.346 165.057 814.043 164.768C814.741 164.478 814.846 164.085 814.582 163.887C814.319 163.69 813.688 163.69 812.603 163.559C811.518 163.427 809.979 163.164 808.709 162.632C807.44 162.1 806.441 161.296 805.816 160.153C805.191 159.009 804.942 157.523 804.758 156.477C804.574 155.432 804.455 154.828 804.275 154.569C804.096 154.31 803.855 154.399 803.656 155.111C803.456 155.822 803.298 157.157 802.845 158.389C802.392 159.621 801.646 160.752 800.686 161.565C799.725 162.379 798.549 162.877 797.35 163.239C796.151 163.601 794.93 163.828 794.282 164.136C793.634 164.446 793.559 164.838 793.896 165.087L793.897 165.084Z" stroke="#6E6661" stroke-width="2.07704" stroke-miterlimit="22.9256" stroke-linecap="round" stroke-linejoin="round"/>
<path fill-rule="evenodd" clip-rule="evenodd" d="M783.363 157.442C786.961 157.442 786.961 162.908 783.363 162.908C779.765 162.908 779.765 157.442 783.363 157.442Z" stroke="#6E6661" stroke-width="2.07704" stroke-miterlimit="22.9256" stroke-linecap="round" stroke-linejoin="round"/>
<path fill-rule="evenodd" clip-rule="evenodd" d="M781.895 173.625C781.587 174.289 781.402 175.554 780.722 176.65C780.043 177.747 778.87 178.672 778.021 179.273C777.173 179.876 776.648 180.153 776.772 180.509C776.895 180.864 777.668 181.295 778.501 181.713C779.334 182.13 780.23 182.53 780.878 183.301C781.526 184.073 781.928 185.216 782.344 185.71C782.761 186.203 783.193 186.049 783.548 185.432C783.903 184.815 784.18 183.734 784.797 183.01C785.414 182.286 786.372 181.915 787.328 181.56C788.285 181.205 789.243 180.865 789.212 180.479C789.18 180.093 788.162 179.661 787.067 178.966C785.971 178.272 784.799 177.315 784.119 176.25C783.44 175.186 783.255 174.013 782.947 173.457C782.638 172.901 782.207 172.963 781.897 173.627L781.895 173.625Z" stroke="#6E6661" stroke-width="2.07704" stroke-miterlimit="22.9256" stroke-linecap="round" stroke-linejoin="round"/>
<path fill-rule="evenodd" clip-rule="evenodd" d="M814.718 184.538C813.671 182.637 812.669 180.86 813.354 178.119C813.614 177.079 814.155 176.495 814.534 176.278C815.029 175.995 815.248 176.399 816.58 176.355C818.108 176.304 818.246 177.803 818.246 179.657C818.246 181.754 817.737 182.707 816.752 184.496C815.541 186.694 815.603 186.147 814.718 184.54V184.538Z" stroke="#6E6661" stroke-width="2.07704" stroke-miterlimit="22.9256" stroke-linecap="round" stroke-linejoin="round"/>
<path fill-rule="evenodd" clip-rule="evenodd" d="M816.783 184.66C818.349 183.156 819.806 181.728 822.63 181.682C823.701 181.663 824.406 182.035 824.713 182.345C825.115 182.75 824.782 183.067 825.17 184.341C825.614 185.804 824.202 186.327 822.412 186.806C820.388 187.349 819.334 187.103 817.351 186.615C814.914 186.014 815.458 185.932 816.783 184.661V184.66Z" stroke="#6E6661" stroke-width="2.07704" stroke-miterlimit="22.9256" stroke-linecap="round" stroke-linejoin="round"/>
<path fill-rule="evenodd" clip-rule="evenodd" d="M817.2 186.687C819.058 187.811 820.813 188.849 821.59 191.564C821.884 192.594 821.708 193.371 821.488 193.749C821.201 194.241 820.809 194.002 819.679 194.707C818.38 195.515 817.511 194.286 816.584 192.681C815.536 190.864 815.501 189.784 815.46 187.743C815.409 185.233 815.629 185.738 817.2 186.687Z" stroke="#6E6661" stroke-width="2.07704" stroke-miterlimit="22.9256" stroke-linecap="round" stroke-linejoin="round"/>
<path fill-rule="evenodd" clip-rule="evenodd" d="M815.348 187.613C814.744 189.698 814.197 191.663 811.775 193.116C810.856 193.668 810.06 193.698 809.638 193.583C809.088 193.433 809.218 192.993 808.244 192.084C807.128 191.039 808.09 189.881 809.4 188.57C810.883 187.088 811.917 186.774 813.878 186.205C816.291 185.506 815.859 185.85 815.348 187.613V187.613Z" stroke="#6E6661" stroke-width="2.07704" stroke-miterlimit="22.9256" stroke-linecap="round" stroke-linejoin="round"/>
<path fill-rule="evenodd" clip-rule="evenodd" d="M813.992 186.202C811.824 186.332 809.79 186.474 807.608 184.68C806.78 183.999 806.485 183.259 806.452 182.823C806.408 182.255 806.868 182.229 807.399 181.008C808.008 179.606 809.422 180.124 811.096 180.919C812.99 181.819 813.633 182.687 814.825 184.344C816.292 186.382 815.824 186.09 813.992 186.201V186.202Z" stroke="#6E6661" stroke-width="2.07704" stroke-miterlimit="22.9256" stroke-linecap="round" stroke-linejoin="round"/>
<path fill-rule="evenodd" clip-rule="evenodd" d="M821.721 168.853C822.566 168.622 823.951 168.25 825.309 167.452C826.668 166.654 827.998 165.431 828.658 163.869C829.319 162.307 829.311 160.406 829.222 159.222C829.132 158.038 828.961 157.568 828.4 157.461C827.838 157.353 826.886 157.606 825.805 158.041C824.724 158.474 823.517 159.089 822.579 159.894C821.641 160.699 820.974 161.697 820.597 163.129C820.219 164.56 820.131 166.427 820.125 167.52C820.118 168.614 820.193 168.935 820.383 169.053C820.573 169.17 820.877 169.084 821.721 168.853V168.853Z" stroke="#6E6661" stroke-width="2.07704" stroke-miterlimit="22.9256" stroke-linecap="round" stroke-linejoin="round"/>
<path d="M881.43 159.017C881.43 160.624 878.834 162.077 874.657 163.113M868.087 164.244C865.363 164.548 862.355 164.718 859.193 164.718C846.912 164.718 836.957 162.165 836.957 159.017" stroke="#6E6661" stroke-width="2.07704" stroke-miterlimit="22.9256" stroke-linecap="round" stroke-linejoin="round"/>
<path d="M836.957 159.017C836.957 154.426 839.062 150.236 842.53 147.047M875.857 147.047C879.325 150.235 881.43 154.426 881.43 159.017" stroke="#6E6661" stroke-width="2.07704" stroke-miterlimit="22.9256" stroke-linecap="round" stroke-linejoin="round"/>
<path d="M882.863 120.24C884.332 121.535 885.149 123.112 885.149 125.004C885.149 132.139 873.529 134.783 859.194 134.783C844.858 134.783 833.238 132.139 833.238 125.004C833.238 123.111 834.056 121.535 835.525 120.24" stroke="#6E6661" stroke-width="2.07704" stroke-miterlimit="22.9256" stroke-linecap="round" stroke-linejoin="round"/>
<path d="M880.997 131.079C881.388 131.893 881.596 132.79 881.596 133.776C881.596 140.642 871.567 143.188 859.194 143.188C846.823 143.188 836.793 140.642 836.793 133.776C836.793 132.79 837 131.893 837.391 131.079" stroke="#6E6661" stroke-width="2.07704" stroke-miterlimit="22.9256" stroke-linecap="round" stroke-linejoin="round"/>
<path d="M877.029 140.184C877.421 140.968 877.631 141.842 877.631 142.813C877.631 148.922 869.375 151.187 859.192 151.187C849.01 151.187 840.754 148.922 840.754 142.813C840.754 141.841 840.962 140.966 841.355 140.184" stroke="#6E6661" stroke-width="2.07704" stroke-miterlimit="22.9256" stroke-linecap="round" stroke-linejoin="round"/>
<path d="M889.662 84.8969C895.517 88.4779 899.044 93.7256 899.044 101.012C899.044 117.398 881.203 123.472 859.193 123.472C846.822 123.472 835.766 121.552 828.457 116.96M824.145 88.5501C825.443 87.1777 826.981 85.9623 828.726 84.8955" stroke="#6E6661" stroke-width="2.07704" stroke-miterlimit="22.9256" stroke-linecap="round" stroke-linejoin="round"/>
<path d="M868.904 80.3878C881.138 81.1561 889.962 83.3364 889.962 85.9057C889.962 89.1161 876.186 91.718 859.192 91.718C842.198 91.718 828.422 89.1161 828.422 85.9057C828.422 83.3364 837.245 81.1561 849.481 80.3878" stroke="#6E6661" stroke-width="2.07704" stroke-miterlimit="22.9256" stroke-linecap="round" stroke-linejoin="round"/>
<path d="M868.904 84.7583C868.904 86.2694 864.556 87.4932 859.192 87.4932C853.828 87.4932 849.48 86.2694 849.48 84.7583" stroke="#6E6661" stroke-width="2.07704" stroke-miterlimit="22.9256" stroke-linecap="round" stroke-linejoin="round"/>
<path d="M868.904 84.7583V69.7834M849.48 69.7834V84.7583" stroke="#6E6661" stroke-width="2.07704" stroke-miterlimit="22.9256" stroke-linecap="round" stroke-linejoin="round"/>
<path d="M865.668 67.7446C867.653 68.2455 868.904 68.9727 868.904 69.782C868.904 71.2931 864.556 72.5169 859.192 72.5169C853.828 72.5169 849.48 71.2931 849.48 69.782C849.48 68.9727 850.73 68.2441 852.716 67.7446" stroke="#6E6661" stroke-width="2.07704" stroke-miterlimit="22.9256" stroke-linecap="round" stroke-linejoin="round"/>
<path d="M865.67 68.4082C865.67 69.4156 862.771 70.232 859.195 70.232C855.618 70.232 852.719 69.4156 852.719 68.4082" stroke="#6E6661" stroke-width="2.07704" stroke-miterlimit="22.9256" stroke-linecap="round" stroke-linejoin="round"/>
<path d="M852.719 58.4222V68.4083M865.672 68.4083V58.4222" stroke="#6E6661" stroke-width="2.07704" stroke-miterlimit="22.9256" stroke-linecap="round" stroke-linejoin="round"/>
<path fill-rule="evenodd" clip-rule="evenodd" d="M859.195 56.5984C862.771 56.5984 865.67 57.4148 865.67 58.4221C865.67 59.4295 862.771 60.2459 859.195 60.2459C855.618 60.2459 852.719 59.4295 852.719 58.4221C852.719 57.4148 855.618 56.5984 859.195 56.5984Z" stroke="#6E6661" stroke-width="2.07704" stroke-miterlimit="22.9256" stroke-linecap="round" stroke-linejoin="round"/>
<path d="M854.879 65.1243C855.511 65.1243 856.024 64.387 856.024 63.4775C856.024 62.5679 855.511 61.8306 854.879 61.8306C854.247 61.8306 853.734 62.5679 853.734 63.4775C853.734 64.387 854.247 65.1243 854.879 65.1243Z" stroke="#6E6661" stroke-width="2.07704" stroke-miterlimit="22.9256" stroke-linecap="round" stroke-linejoin="round"/>
<path d="M844.152 60.2559L838.468 58.0077M833.89 56.1967L798.027 42.0071" stroke="#6E6661" stroke-width="2.07704" stroke-miterlimit="22.9256" stroke-linecap="round" stroke-linejoin="round"/>
<path d="M842.354 69.1963L839.169 69.9844M836.635 70.6111L827.799 72.7971M824.176 73.6927L811.008 76.9511" stroke="#6E6661" stroke-width="2.07704" stroke-miterlimit="22.9256" stroke-linecap="round" stroke-linejoin="round"/>
<path d="M831.059 67.2877L816.054 66.9424M809.84 66.7995L802.141 66.6227" stroke="#6E6661" stroke-width="2.07704" stroke-miterlimit="22.9256" stroke-linecap="round" stroke-linejoin="round"/>
<g clip-path="url(#clip0_4009_122052)">
<path fill-rule="evenodd" clip-rule="evenodd" d="M22.5218 38.2961C23.04 38.6763 24.185 38.8393 25.8356 39.2321C27.4862 39.6249 29.6383 40.2476 31.5689 41.3466C33.4996 42.4414 35.2129 44.0127 36.2158 45.7929C37.2229 47.573 37.5238 49.5663 37.7954 50.8952C38.067 52.2241 38.3094 52.8885 38.6186 53.1685C38.932 53.4485 39.3123 53.3482 39.6842 52.1029C40.0561 50.8534 40.4197 48.459 40.9629 46.4698C41.5062 44.4765 42.2291 42.8886 43.4869 41.6809C44.7448 40.4732 46.5375 39.65 48.418 39.0942C50.2984 38.5426 52.2708 38.2584 53.3364 37.8155C54.402 37.3725 54.565 36.7708 54.1597 36.4657C53.7585 36.1649 52.7932 36.1649 51.13 35.9643C49.471 35.7637 47.1142 35.3625 45.1752 34.5435C43.232 33.7286 41.7026 32.5 40.7498 30.7491C39.7929 28.9982 39.4126 26.7249 39.1284 25.1244C38.8484 23.5239 38.6646 22.6004 38.393 22.2034C38.1172 21.8064 37.7494 21.9443 37.4444 23.0308C37.1393 24.1173 36.8969 26.1608 36.2033 28.0454C35.5096 29.93 34.3687 31.6601 32.8978 32.9054C31.4269 34.1507 29.63 34.9112 27.7955 35.467C25.961 36.0186 24.093 36.3654 23.1026 36.8418C22.1123 37.314 21.9953 37.9158 22.5134 38.2961H22.5218Z" stroke="#6E6661" stroke-width="2" stroke-miterlimit="22.9256" stroke-linecap="round" stroke-linejoin="round"/>
<path fill-rule="evenodd" clip-rule="evenodd" d="M52.2546 56.9546C57.5993 56.9546 57.5993 65.074 52.2546 65.074C46.9099 65.074 46.9099 56.9546 52.2546 56.9546Z" stroke="#6E6661" stroke-width="2" stroke-miterlimit="22.9256" stroke-linecap="round" stroke-linejoin="round"/>
<path fill-rule="evenodd" clip-rule="evenodd" d="M154.489 38.3628C152.596 34.9237 150.786 31.7143 152.023 26.7582C152.491 24.8778 153.473 23.8247 154.154 23.4319C155.049 22.9221 155.446 23.6492 157.853 23.5698C160.615 23.4779 160.866 26.1857 160.866 29.5372C160.866 33.3273 159.946 35.0532 158.166 38.2834C155.976 42.2575 156.089 41.2671 154.489 38.3628V38.3628Z" stroke="#6E6661" stroke-width="2" stroke-miterlimit="22.9256" stroke-linecap="round" stroke-linejoin="round"/>
<path fill-rule="evenodd" clip-rule="evenodd" d="M158.221 38.5842C161.05 35.868 163.687 33.2855 168.793 33.1977C170.728 33.1643 172.003 33.8371 172.558 34.3971C173.285 35.1283 172.684 35.7008 173.382 38.0034C174.184 40.6486 171.635 41.593 168.396 42.458C164.736 43.44 162.83 42.9971 159.249 42.1112C154.84 41.0247 155.826 40.8784 158.221 38.5801V38.5842Z" stroke="#6E6661" stroke-width="2" stroke-miterlimit="22.9256" stroke-linecap="round" stroke-linejoin="round"/>
<path fill-rule="evenodd" clip-rule="evenodd" d="M158.971 42.2492C162.331 44.2801 165.503 46.1564 166.907 51.0665C167.437 52.9302 167.12 54.3343 166.723 55.0155C166.205 55.9055 165.494 55.4751 163.451 56.7455C161.102 58.2081 159.531 55.9849 157.855 53.0848C155.958 49.8003 155.895 47.8488 155.82 44.1589C155.728 39.6207 156.125 40.5358 158.967 42.2533L158.971 42.2492Z" stroke="#6E6661" stroke-width="2" stroke-miterlimit="22.9256" stroke-linecap="round" stroke-linejoin="round"/>
<path fill-rule="evenodd" clip-rule="evenodd" d="M155.631 43.9207C154.54 47.69 153.546 51.242 149.171 53.8705C147.512 54.8651 146.07 54.9236 145.309 54.7146C144.315 54.443 144.549 53.649 142.79 52.0026C140.771 50.1137 142.51 48.0202 144.879 45.6508C147.558 42.9721 149.43 42.4038 152.973 41.3758C157.332 40.1138 156.555 40.7323 155.631 43.9207V43.9207Z" stroke="#6E6661" stroke-width="2" stroke-miterlimit="22.9256" stroke-linecap="round" stroke-linejoin="round"/>
<path fill-rule="evenodd" clip-rule="evenodd" d="M153.171 41.3716C149.256 41.6056 145.574 41.8647 141.634 38.6177C140.138 37.3892 139.603 36.0519 139.544 35.2622C139.465 34.2342 140.297 34.1882 141.253 31.9818C142.357 29.4452 144.91 30.3813 147.94 31.8188C151.362 33.4444 152.528 35.0156 154.68 38.0118C157.329 41.6975 156.485 41.171 153.171 41.3674V41.3716Z" stroke="#6E6661" stroke-width="2" stroke-miterlimit="22.9256" stroke-linecap="round" stroke-linejoin="round"/>
<path fill-rule="evenodd" clip-rule="evenodd" d="M5.67923 96.319C5.36999 96.9876 5.18195 98.2622 4.49662 99.3654C3.81129 100.469 2.63286 101.4 1.7762 102.006C0.919545 102.612 0.393013 102.892 0.518378 103.252C0.643743 103.611 1.421 104.046 2.26095 104.464C3.10089 104.886 4.00352 105.287 4.65541 106.064C5.30731 106.841 5.71266 107.99 6.13054 108.488C6.5526 108.985 6.9872 108.83 7.3424 108.208C7.70178 107.585 7.98176 106.499 8.60022 105.767C9.22287 105.036 10.1882 104.664 11.1493 104.305C12.1146 103.945 13.0757 103.607 13.0465 103.218C13.0172 102.83 11.9892 102.395 10.886 101.693C9.78283 100.995 8.60022 100.03 7.9149 98.9559C7.22957 97.8819 7.0457 96.7035 6.73229 96.1435C6.42306 95.5835 5.98846 95.6462 5.67505 96.3148L5.67923 96.319Z" stroke="#6E6661" stroke-width="2" stroke-miterlimit="22.9256" stroke-linecap="round" stroke-linejoin="round"/>
<path fill-rule="evenodd" clip-rule="evenodd" d="M170.508 195.269C168.908 194.835 166.288 194.129 163.718 192.62C161.148 191.107 158.632 188.792 157.378 185.838C156.129 182.883 156.142 179.285 156.313 177.041C156.484 174.797 156.806 173.912 157.867 173.707C158.929 173.502 160.734 173.983 162.777 174.806C164.821 175.625 167.107 176.791 168.883 178.312C170.659 179.837 171.921 181.722 172.635 184.434C173.35 187.146 173.517 190.677 173.53 192.745C173.542 194.814 173.4 195.424 173.041 195.646C172.681 195.867 172.105 195.704 170.508 195.269V195.269Z" stroke="#6E6661" stroke-width="2" stroke-miterlimit="22.9256" stroke-linecap="round" stroke-linejoin="round"/>
<path d="M125.004 203.13C130.867 208.521 134.423 215.604 134.423 223.364" stroke="#6E6661" stroke-width="2" stroke-miterlimit="22.9256" stroke-linecap="round" stroke-linejoin="round"/>
<path d="M136.846 157.819C139.329 160.009 140.712 162.675 140.712 165.871C140.712 177.932 121.067 182.403 96.8383 182.403C72.6095 182.403 52.9648 177.932 52.9648 165.871C52.9648 162.67 54.348 160.009 56.8303 157.819" stroke="#6E6661" stroke-width="2" stroke-miterlimit="22.9256" stroke-linecap="round" stroke-linejoin="round"/>
<path d="M126.992 191.529C127.656 192.854 128.007 194.333 128.007 195.971C128.007 206.297 114.054 210.125 96.8415 210.125C79.6289 210.125 65.6758 206.297 65.6758 195.971C65.6758 194.329 66.0268 192.85 66.6912 191.529" stroke="#6E6661" stroke-width="2" stroke-miterlimit="22.9256" stroke-linecap="round" stroke-linejoin="round"/>
<path d="M113.254 77.2177V72.5291" stroke="#6E6661" stroke-width="2" stroke-miterlimit="22.9256" stroke-linecap="round" stroke-linejoin="round"/>
<path d="M107.789 70.2056V53.3231" stroke="#6E6661" stroke-width="2" stroke-miterlimit="22.9256" stroke-linecap="round" stroke-linejoin="round"/>
<path fill-rule="evenodd" clip-rule="evenodd" d="M96.8391 56.4071C102.886 56.4071 107.788 55.0281 107.788 53.3231C107.788 51.6181 102.886 50.2391 96.8391 50.2391C90.7924 50.2391 85.8906 51.6181 85.8906 53.3231C85.8906 55.0239 90.7924 56.4071 96.8391 56.4071Z" stroke="#6E6661" stroke-width="2" stroke-miterlimit="22.9256" stroke-linecap="round" stroke-linejoin="round"/>
<path d="M68.673 203.13C62.8101 208.521 59.2539 215.604 59.2539 223.364" stroke="#6E6661" stroke-width="2" stroke-miterlimit="22.9256" stroke-linecap="round" stroke-linejoin="round"/>
<path d="M59.9878 176.139C59.3276 177.514 58.9766 179.03 58.9766 180.698C58.9766 192.302 75.9301 196.607 96.8409 196.607C117.752 196.607 134.705 192.302 134.705 180.698C134.705 179.03 134.354 177.514 133.694 176.139" stroke="#6E6661" stroke-width="2" stroke-miterlimit="22.9256" stroke-linecap="round" stroke-linejoin="round"/>
<path d="M45.3352 98.0742C35.4397 104.129 29.4766 112.997 29.4766 125.316C29.4766 153.013 59.6351 163.281 96.8392 163.281C116.743 163.281 134.632 160.343 146.964 153.364" stroke="#6E6661" stroke-width="2" stroke-miterlimit="22.9256" stroke-linecap="round" stroke-linejoin="round"/>
<path d="M80.4273 90.4562C59.7463 91.7558 44.832 95.4373 44.832 99.7833C44.832 105.212 68.1164 109.608 96.8459 109.608C100.786 109.608 104.627 109.524 108.317 109.37" stroke="#6E6661" stroke-width="2" stroke-miterlimit="22.9256" stroke-linecap="round" stroke-linejoin="round"/>
<path d="M80.4258 97.8401C80.4258 100.393 87.7763 102.462 96.8402 102.462C100.48 102.462 103.844 102.128 106.564 101.563" stroke="#6E6661" stroke-width="2" stroke-miterlimit="22.9256" stroke-linecap="round" stroke-linejoin="round"/>
<path d="M80.4258 97.8402V72.5291" stroke="#6E6661" stroke-width="2" stroke-miterlimit="22.9256" stroke-linecap="round" stroke-linejoin="round"/>
<path d="M85.8881 69.0814C82.5325 69.9255 80.418 71.1583 80.418 72.5248C80.418 75.078 87.7685 77.1466 96.8324 77.1466C105.9 77.1466 113.247 75.078 113.247 72.5248C113.247 71.1541 111.132 69.9255 107.777 69.0814" stroke="#6E6661" stroke-width="2" stroke-miterlimit="22.9256" stroke-linecap="round" stroke-linejoin="round"/>
<path d="M85.8906 70.2056C85.8906 71.9063 90.7924 73.2895 96.8391 73.2895C102.886 73.2895 107.788 71.9105 107.788 70.2056" stroke="#6E6661" stroke-width="2" stroke-miterlimit="22.9256" stroke-linecap="round" stroke-linejoin="round"/>
<path d="M85.8906 70.2056V53.3231" stroke="#6E6661" stroke-width="2" stroke-miterlimit="22.9256" stroke-linecap="round" stroke-linejoin="round"/>
<path d="M59.25 223.364C59.25 228.683 76.0781 233 96.8385 233C117.595 233 134.427 228.688 134.427 223.364" stroke="#6E6661" stroke-width="2" stroke-miterlimit="22.9256" stroke-linecap="round" stroke-linejoin="round"/>
<path d="M89.552 64.6519C90.6205 64.6519 91.4868 63.4059 91.4868 61.8688C91.4868 60.3317 90.6205 59.0857 89.552 59.0857C88.4834 59.0857 87.6172 60.3317 87.6172 61.8688C87.6172 63.4059 88.4834 64.6519 89.552 64.6519Z" stroke="#6E6661" stroke-width="2" stroke-miterlimit="22.9256" stroke-linecap="round" stroke-linejoin="round"/>
<path d="M192.701 83.1431L191.54 98.0281C191.481 98.7803 191.465 99.5157 191.485 100.239C205.23 118.488 208.485 139.365 197.954 151.621C184.758 166.974 154.917 162.971 131.302 142.679C107.687 122.386 99.2379 93.4857 112.435 78.1285C122.965 65.8762 144.098 65.9514 164.206 76.7955C164.925 76.7119 165.648 76.5824 166.383 76.411L180.921 73.022" stroke="#6E6661" stroke-width="2" stroke-miterlimit="22.9256" stroke-linecap="round" stroke-linejoin="round"/>
<path d="M203.952 129.219C203.263 133.531 201.571 137.434 198.8 140.66C187.129 154.246 160.727 150.702 139.837 132.75C135.395 128.931 131.559 124.768 128.383 120.452M123.782 113.264C123.243 112.282 122.737 111.296 122.265 110.314M118.83 100.912C116.385 91.1916 117.618 82.0776 123.147 75.6463C125.917 72.4203 129.519 70.1596 133.681 68.8307" stroke="#6E6661" stroke-width="2" stroke-miterlimit="22.9256" stroke-linecap="round" stroke-linejoin="round"/>
<path d="M192.701 83.1432C191.281 84.798 187.49 83.8703 184.239 81.0747C180.988 78.2791 179.501 74.6728 180.921 73.0179" stroke="#6E6661" stroke-width="2" stroke-miterlimit="22.9256" stroke-linecap="round" stroke-linejoin="round"/>
<path d="M193.612 108.003C191.932 104.927 191.251 101.655 191.535 98.024L192.697 83.1391M180.917 73.0179L166.379 76.407C162.831 77.2344 159.496 77.0547 156.203 75.8554" stroke="#6E6661" stroke-width="2" stroke-miterlimit="22.9256" stroke-linecap="round" stroke-linejoin="round"/>
<path fill-rule="evenodd" clip-rule="evenodd" d="M211.912 48.8684C211.089 48.1622 210.266 47.5604 209.443 47.0506C209.188 46.8918 208.908 46.8793 208.707 47.0172C207.859 47.6064 204.29 46.6996 202.894 45.6131C202.61 45.3916 202.259 45.3666 202.042 45.5504C201.148 46.3151 198.674 46.8124 197.408 46.4572C197.103 46.3736 196.835 46.4781 196.735 46.7247C196.192 48.0326 193.312 50.0092 191.892 50.0427C191.628 50.0468 191.44 50.2015 191.398 50.448C191.181 51.7518 189.142 54.3761 187.997 54.8107C187.784 54.8901 187.671 55.0781 187.692 55.3163C187.792 56.6034 186.447 59.6372 185.469 60.3393C185.285 60.4688 185.226 60.6945 185.31 60.9452C185.753 62.3075 185.034 65.847 184.161 66.2189C183.977 66.2983 183.877 66.4487 183.872 66.6577C183.768 71.0998 185.247 74.635 187.846 76.8707C190.446 79.1064 194.165 80.0341 198.54 79.2652C198.745 79.2276 198.883 79.1064 198.929 78.9142C199.167 77.9948 202.552 76.7495 203.968 76.9835C204.227 77.0253 204.441 76.9334 204.541 76.7328C205.088 75.663 207.884 73.8787 209.175 73.7826C209.418 73.7658 209.581 73.6238 209.631 73.4023C209.886 72.203 212.176 69.7918 213.433 69.3823C213.672 69.307 213.793 69.0981 213.759 68.8348C213.58 67.4266 215.101 64.2841 216.313 63.5486C216.538 63.4107 216.605 63.1307 216.476 62.8424C215.932 61.6431 216.058 59.1232 216.676 58.1245C216.827 57.8863 216.747 57.5395 216.484 57.2929C215.201 56.0769 213.764 52.6879 214.219 51.756C214.323 51.5387 214.269 51.2671 214.073 51.0372C213.446 50.3017 212.727 49.5788 211.904 48.8684H211.912Z" stroke="#6E6661" stroke-width="2" stroke-miterlimit="22.9256" stroke-linecap="round" stroke-linejoin="round"/>
<path d="M192.393 82.8757C193.893 83.2936 195.452 83.5151 197.036 83.5611C197.257 83.5694 197.429 83.4733 197.516 83.2978C197.734 82.859 198.787 82.4286 200.162 82.2573C201.298 82.1152 202.36 82.1904 202.978 82.4119C203.246 82.508 203.496 82.4579 203.643 82.2782C204.399 81.3379 207.546 80.1762 208.858 80.3601C209.108 80.3935 209.313 80.3058 209.414 80.1094C210.003 78.9853 213.158 76.8875 214.528 76.7162C214.762 76.6869 214.921 76.5365 214.955 76.3108C215.164 74.9527 217.83 71.923 219.217 71.4425C219.451 71.3631 219.572 71.15 219.535 70.8867C219.313 69.3656 220.813 65.6757 221.996 64.8399C222.201 64.6937 222.251 64.4262 222.13 64.1504C221.532 62.8425 221.482 59.7 222.038 58.5801C222.155 58.346 222.075 58.0326 221.837 57.7986C221.319 57.2846 220.692 56.311 220.191 55.1618C219.556 53.7117 219.309 52.4288 219.526 51.9524C219.614 51.7602 219.581 51.5262 219.43 51.3089C218.193 49.5496 216.605 47.7987 214.608 46.0854C214.549 46.0352 214.487 45.9893 214.428 45.9349C214.37 45.8848 214.315 45.8305 214.253 45.7803C212.259 44.067 210.287 42.759 208.36 41.8021C208.122 41.6851 207.888 41.6851 207.709 41.8021C207.27 42.0904 205.966 42.0403 204.437 41.6307C203.225 41.3048 202.167 40.8368 201.578 40.398C201.311 40.1974 200.993 40.1682 200.776 40.3186C199.752 41.0374 196.639 41.4552 195.256 41.0624C194.967 40.9788 194.708 41.0708 194.595 41.2964C193.948 42.5877 190.525 44.627 188.987 44.6395C188.72 44.6395 188.532 44.7899 188.486 45.0365C188.223 46.4824 185.623 49.5705 184.316 49.9842C184.098 50.0511 183.973 50.2308 183.981 50.469C184.015 51.8521 182.418 55.2871 181.395 56.0352C181.219 56.1647 181.161 56.3778 181.232 56.6202C181.612 57.8905 180.935 61.1793 180.12 62.0652C179.961 62.2365 179.949 62.4914 180.087 62.7422C180.404 63.323 180.634 64.3594 180.663 65.5044C180.701 66.8876 180.433 67.9949 180.032 68.2749C179.869 68.3878 179.802 68.5716 179.844 68.7889C180.128 70.3476 180.58 71.8562 181.219 73.277" stroke="#6E6661" stroke-width="2" stroke-miterlimit="22.9256" stroke-linecap="round" stroke-linejoin="round"/>
<path fill-rule="evenodd" clip-rule="evenodd" d="M209.694 51.4552C213.672 57.3933 213.927 64.7104 209.794 69.5202C205.661 74.33 198.39 75.1783 191.921 72.1403C187.943 66.2022 187.688 58.8851 191.821 54.0753C195.954 49.2654 203.225 48.4171 209.694 51.4552V51.4552Z" stroke="#6E6661" stroke-width="2" stroke-miterlimit="22.9256" stroke-linecap="round" stroke-linejoin="round"/>
<path d="M212.264 57.1174L197.906 73.8244M189.348 66.4696L203.706 49.7627" stroke="#6E6661" stroke-width="2" stroke-miterlimit="22.9256" stroke-linecap="round" stroke-linejoin="round"/>
<path d="M209.691 51.4551L191.914 72.1403" stroke="#6E6661" stroke-width="2" stroke-miterlimit="22.9256" stroke-linecap="round" stroke-linejoin="round"/>
<path d="M195.453 43.3148L196.999 46.4657" stroke="#6E6661" stroke-width="2" stroke-miterlimit="22.9256" stroke-linecap="round" stroke-linejoin="round"/>
<path d="M201.527 42.316L202.447 45.4293" stroke="#6E6661" stroke-width="2" stroke-miterlimit="22.9256" stroke-linecap="round" stroke-linejoin="round"/>
<path d="M191.483 50.2433L189.227 46.4155" stroke="#6E6661" stroke-width="2" stroke-miterlimit="22.9256" stroke-linecap="round" stroke-linejoin="round"/>
<path d="M187.768 54.9988L185.098 51.568" stroke="#6E6661" stroke-width="2" stroke-miterlimit="22.9256" stroke-linecap="round" stroke-linejoin="round"/>
<path d="M185.297 60.5943L182.246 57.5396" stroke="#6E6661" stroke-width="2" stroke-miterlimit="22.9256" stroke-linecap="round" stroke-linejoin="round"/>
<path d="M183.954 66.3861L181.367 63.8788" stroke="#6E6661" stroke-width="2" stroke-miterlimit="22.9256" stroke-linecap="round" stroke-linejoin="round"/>
<path d="M208.277 43.8204L209.055 46.9211" stroke="#6E6661" stroke-width="2" stroke-miterlimit="22.9256" stroke-linecap="round" stroke-linejoin="round"/>
<path d="M219.879 64.3009L216.536 63.2479M217.455 51.7018L214.271 51.3967M198.801 79.1399L201.672 81.3213M204.325 76.9419L207.806 79.4951M209.486 73.6615L213.28 75.7843M213.627 69.2737L217.752 70.9285M219.954 58.1497L216.736 57.7109" stroke="#6E6661" stroke-width="2" stroke-miterlimit="22.9256" stroke-linecap="round" stroke-linejoin="round"/>
<path d="M218.174 49.675L217.029 44.7816C216.82 43.8957 216.097 43.2731 215.19 43.202L210.18 42.8051" stroke="#6E6661" stroke-width="2" stroke-miterlimit="22.9256" stroke-linecap="round" stroke-linejoin="round"/>
<path d="M177.981 144.292C166.848 143.953 153.994 138.788 142.862 129.223C126.385 115.061 118.875 95.7173 123.368 82.0233" stroke="#6E6661" stroke-width="2" stroke-miterlimit="22.9256" stroke-linecap="round" stroke-linejoin="round"/>
</g>
<defs>
<clipPath id="clip0_4009_122052">
<rect width="222" height="246" fill="white"/>
</clipPath>
</defs>
</svg>
