<svg width="20" height="20" viewBox="0 0 20 20" fill="none" xmlns="http://www.w3.org/2000/svg">
<path d="M13.75 5H14.375C14.375 4.65482 14.0952 4.375 13.75 4.375V5ZM13.125 13.375C13.125 13.7202 13.4048 14 13.75 14C14.0952 14 14.375 13.7202 14.375 13.375H13.125ZM1.25 5V4.375C0.904822 4.375 0.625 4.65482 0.625 5H1.25ZM1.25 15H0.625C0.625 15.3452 0.904822 15.625 1.25 15.625L1.25 15ZM18.75 15V15.625C19.0952 15.625 19.375 15.3452 19.375 15H18.75ZM14 5.375C13.6548 5.375 13.375 5.65482 13.375 6C13.375 6.34518 13.6548 6.625 14 6.625V5.375ZM15.9375 15C15.9375 15.6904 15.3779 16.25 14.6875 16.25V17.5C16.0682 17.5 17.1875 16.3807 17.1875 15H15.9375ZM14.6875 16.25C13.9971 16.25 13.4375 15.6904 13.4375 15H12.1875C12.1875 16.3807 13.3068 17.5 14.6875 17.5V16.25ZM13.4375 15C13.4375 14.3096 13.9971 13.75 14.6875 13.75V12.5C13.3068 12.5 12.1875 13.6193 12.1875 15H13.4375ZM14.6875 13.75C15.3779 13.75 15.9375 14.3096 15.9375 15H17.1875C17.1875 13.6193 16.0682 12.5 14.6875 12.5V13.75ZM6.5625 15C6.5625 15.6904 6.00286 16.25 5.3125 16.25V17.5C6.69321 17.5 7.8125 16.3807 7.8125 15H6.5625ZM5.3125 16.25C4.62214 16.25 4.0625 15.6904 4.0625 15H2.8125C2.8125 16.3807 3.93179 17.5 5.3125 17.5V16.25ZM4.0625 15C4.0625 14.3096 4.62214 13.75 5.3125 13.75V12.5C3.93179 12.5 2.8125 13.6193 2.8125 15H4.0625ZM5.3125 13.75C6.00286 13.75 6.5625 14.3096 6.5625 15H7.8125C7.8125 13.6193 6.69321 12.5 5.3125 12.5V13.75ZM12.8125 14.375H7.1875V15.625H12.8125V14.375ZM13.125 5V13.375H14.375V5H13.125ZM15.375 5.375H14V6.625H15.375V5.375ZM19.375 9.375C19.375 7.16586 17.5841 5.375 15.375 5.375V6.625C16.8938 6.625 18.125 7.85622 18.125 9.375H19.375ZM3.4375 14.375H1.25V15.625H3.4375V14.375ZM1.875 15V5H0.625V15H1.875ZM1.25 5.625H13.75V4.375H1.25V5.625ZM18.125 9.375V15H19.375V9.375H18.125ZM18.75 14.375H16.5625V15.625H18.75V14.375Z" fill="#2B2826"/>
</svg>
