<svg width="20" height="20" viewBox="0 0 20 20" fill="none" xmlns="http://www.w3.org/2000/svg">
<path d="M9.55482 2.31892L7.31196 4.56178C7.06789 4.80585 7.06789 5.20158 7.31196 5.44566L9.55316 7.68686C9.79724 7.93094 10.193 7.93093 10.437 7.68686L12.6799 5.444C12.924 5.19993 12.924 4.8042 12.6799 4.56012L10.4387 2.31892C10.1946 2.07484 9.7989 2.07484 9.55482 2.31892Z" stroke="#BC8B57" stroke-width="1.25" stroke-linecap="round" stroke-linejoin="round"/>
<path d="M14.5552 7.31892L12.3123 9.56178C12.0683 9.80585 12.0683 10.2016 12.3123 10.4457L14.5535 12.6869C14.7976 12.9309 15.1933 12.9309 15.4374 12.6869L17.6803 10.444C17.9243 10.1999 17.9243 9.8042 17.6803 9.56012L15.4391 7.31892C15.195 7.07484 14.7993 7.07484 14.5552 7.31892Z" stroke="#BC8B57" stroke-width="1.25" stroke-linecap="round" stroke-linejoin="round"/>
<path d="M4.55482 7.3116L2.31196 9.55445C2.06789 9.79853 2.06789 10.1943 2.31196 10.4383L4.55316 12.6795C4.79724 12.9236 5.19297 12.9236 5.43705 12.6795L7.6799 10.4367C7.92398 10.1926 7.92398 9.79687 7.6799 9.5528L5.4387 7.3116C5.19462 7.06752 4.7989 7.06752 4.55482 7.3116Z" stroke="#BC8B57" stroke-width="1.25" stroke-linecap="round" stroke-linejoin="round"/>
<path d="M9.55519 12.3116L7.31233 14.5545C7.06825 14.7985 7.06825 15.1943 7.31233 15.4383L9.55353 17.6795C9.79761 17.9236 10.1933 17.9236 10.4374 17.6795L12.6803 15.4367C12.9243 15.1926 12.9243 14.7969 12.6803 14.5528L10.4391 12.3116C10.195 12.0675 9.79926 12.0675 9.55519 12.3116Z" stroke="#BC8B57" stroke-width="1.25" stroke-linecap="round" stroke-linejoin="round"/>
</svg>
