<svg width="18" height="20" viewBox="0 0 18 20" fill="none" xmlns="http://www.w3.org/2000/svg">
<path d="M17.25 4.25H0.75M6.75 8.75V14.75M11.25 8.75V14.75M15.75 4.25V18.5C15.75 18.6989 15.671 18.8897 15.5303 19.0303C15.3897 19.171 15.1989 19.25 15 19.25H3C2.80109 19.25 2.61032 19.171 2.46967 19.0303C2.32902 18.8897 2.25 18.6989 2.25 18.5V4.25M12.75 4.25V2.75C12.75 2.35218 12.592 1.97064 12.3107 1.68934C12.0294 1.40804 11.6478 1.25 11.25 1.25H6.75C6.35218 1.25 5.97064 1.40804 5.68934 1.68934C5.40804 1.97064 5.25 2.35218 5.25 2.75V4.25" stroke="#2B2826" stroke-width="1.5" stroke-linecap="round" stroke-linejoin="round"/>
</svg>
