<svg width="19" height="18" viewBox="0 0 19 18" fill="none" xmlns="http://www.w3.org/2000/svg">
<path d="M10.9062 12.0938H3.3125" stroke="white" stroke-linecap="round" stroke-linejoin="round"/>
<path d="M15.6875 12.0938H13.7188" stroke="white" stroke-linecap="round" stroke-linejoin="round"/>
<path d="M12.3125 13.5C13.0892 13.5 13.7188 12.8704 13.7188 12.0938C13.7188 11.3171 13.0892 10.6875 12.3125 10.6875C11.5358 10.6875 10.9062 11.3171 10.9062 12.0938C10.9062 12.8704 11.5358 13.5 12.3125 13.5Z" stroke="white" stroke-linecap="round" stroke-linejoin="round"/>
<path d="M6.40625 5.90625H3.3125" stroke="white" stroke-linecap="round" stroke-linejoin="round"/>
<path d="M15.6875 5.90625H9.21875" stroke="white" stroke-linecap="round" stroke-linejoin="round"/>
<path d="M7.8125 7.3125C8.58915 7.3125 9.21875 6.6829 9.21875 5.90625C9.21875 5.1296 8.58915 4.5 7.8125 4.5C7.03585 4.5 6.40625 5.1296 6.40625 5.90625C6.40625 6.6829 7.03585 7.3125 7.8125 7.3125Z" stroke="white" stroke-linecap="round" stroke-linejoin="round"/>
</svg>
