<svg width="16" height="16" viewBox="0 0 16 16" fill="none" xmlns="http://www.w3.org/2000/svg">
    <path
        d="M8 14C8 14 1.75 10.5 1.75 6.25001C1.75 5.49868 2.01031 4.77057 2.48664 4.18954C2.96297 3.60851 3.62589 3.21046 4.36262 3.06312C5.09935 2.91577 5.86438 3.02823 6.52754 3.38136C7.1907 3.73449 7.71103 4.30648 8 5.00001C8.28897 4.30648 8.8093 3.73449 9.47246 3.38136C10.1356 3.02823 10.9006 2.91577 11.6374 3.06312C12.3741 3.21046 13.037 3.60851 13.5134 4.18954C13.9897 4.77057 14.25 5.49868 14.25 6.25001C14.25 10.5 8 14 8 14Z"
        stroke="#BC8B57" stroke-linecap="round" stroke-linejoin="round" />
</svg>