<svg width="15" height="14" viewBox="0 0 15 14" fill="none" xmlns="http://www.w3.org/2000/svg">
<path d="M14.1992 8.66976V13.6339H11.2934V8.97245C11.2934 7.82223 10.8696 7.03523 9.84048 7.03523C9.05348 7.03523 8.56917 7.58008 8.38756 8.06438C8.32702 8.246 8.26648 8.48815 8.26648 8.79084V13.6339H5.36065C5.36065 13.6339 5.42119 5.76393 5.36065 4.97694H8.26648V6.1877C8.62971 5.58232 9.35617 4.73478 10.8696 4.73478C12.7463 4.73478 14.1992 6.00608 14.1992 8.66976ZM2.33375 0.799805C1.36514 0.799805 0.699219 1.46572 0.699219 2.31326C0.699219 3.16079 1.3046 3.82671 2.27321 3.82671C3.30236 3.82671 3.90774 3.16079 3.90774 2.31326C3.96828 1.40519 3.36289 0.799805 2.33375 0.799805ZM0.880833 13.6339H3.78666V4.97694H0.880833V13.6339Z" fill="#BC8C58"/>
</svg>
