<svg width="24" height="24" viewBox="0 0 24 24" fill="none" xmlns="http://www.w3.org/2000/svg">
<path d="M10.4871 8.46307C9.74929 9.0562 6.61076 10.5246 6.5934 11.6529C6.57604 12.7813 6.58616 18.0689 6.5934 20.5716C6.5934 21.02 6.89719 21.9126 8.11238 21.8953C9.32757 21.8779 11.8831 21.888 12.1797 21.8953M10.4967 8.46307C9.75887 9.0562 6.62034 10.5246 6.60298 11.6529C6.58562 12.7813 6.59575 18.0689 6.60298 20.5716C6.60298 21.02 6.90678 21.9126 8.12197 21.8953C9.22459 21.8795 11.7238 21.8864 12.0916 21.8932M12.0916 21.8932C12.1292 21.8939 12.1618 21.8946 12.1893 21.8953M12.0916 21.8932C12.4594 21.8864 14.7856 21.8795 15.8882 21.8953C17.1034 21.9126 17.4072 21.02 17.4072 20.5716C17.4144 18.0689 17.4245 12.7813 17.4072 11.6529C17.3898 10.5246 14.4243 9.0562 13.6865 8.46307M12.0916 21.8932C12.0541 21.8939 12.0214 21.8946 11.994 21.8953M13.243 6.11949V3.12492C13.243 2.47775 12.7183 1.95312 12.0712 1.95312C11.424 1.95312 10.8994 2.47775 10.8994 3.12492V6.11949H13.243ZM14.6751 7.76868V6.81388C14.6751 6.43038 14.3643 6.11949 13.9808 6.11949H10.1616C9.77808 6.11949 9.46719 6.43038 9.46719 6.81388L9.46719 7.76868C9.46719 8.15218 9.77808 8.46307 10.1616 8.46307H13.9808C14.3643 8.46307 14.6751 8.15218 14.6751 7.76868Z" stroke="#2B2826"/>
<path d="M11.9999 19.4678C12.7888 19.4678 13.4284 18.8282 13.4284 18.0392C13.4284 17.4678 12.4761 15.4202 11.9999 14.4678C11.5237 15.4202 10.5713 17.4678 10.5713 18.0392C10.5713 18.8282 11.2109 19.4678 11.9999 19.4678Z" stroke="#2B2826"/>
<path d="M7.06445 11.7026H13.4998M13.3023 11.7026H16.9971" stroke="#2B2826" stroke-linecap="round"/>
</svg>
