<svg width="20" height="20" viewBox="0 0 20 20" fill="none" xmlns="http://www.w3.org/2000/svg">
<path d="M10.6333 7.1474V7.6474H11.1333V7.1474H10.6333ZM4.93551 7.1474H4.43551V7.6474H4.93551V7.1474ZM2.56144 19.5L2.20277 19.8484L2.35005 20H2.56144V19.5ZM13.0074 19.5V20H13.2187L13.366 19.8484L13.0074 19.5ZM3.2719 1.89926C2.99576 1.89926 2.7719 2.12312 2.7719 2.39926C2.7719 2.6754 2.99576 2.89926 3.2719 2.89926V1.89926ZM18.9965 3.50716C18.9965 4.89182 17.874 6.01432 16.4893 6.01432V7.01432C18.4263 7.01432 19.9965 5.44411 19.9965 3.50716H18.9965ZM16.4893 6.01432C15.1047 6.01432 13.9822 4.89182 13.9822 3.50716H12.9822C12.9822 5.44411 14.5524 7.01432 16.4893 7.01432V6.01432ZM13.9822 3.50716C13.9822 2.12249 15.1047 1 16.4893 1V0C14.5524 0 12.9822 1.57021 12.9822 3.50716H13.9822ZM16.4893 1C17.874 1 18.9965 2.12249 18.9965 3.50716H19.9965C19.9965 1.57021 18.4263 0 16.4893 0V1ZM6.20168 1H9.36711V0H6.20168V1ZM9.5002 1.13309V4.29852H10.5002V1.13309H9.5002ZM10.0002 3.79852H5.56859V4.79852H10.0002V3.79852ZM6.06859 4.29852V1.13309H5.06859V4.29852H6.06859ZM9.36711 1C9.44061 1 9.5002 1.05958 9.5002 1.13309H10.5002C10.5002 0.507301 9.9929 0 9.36711 0V1ZM6.20168 0C5.57589 0 5.06859 0.5073 5.06859 1.13309H6.06859C6.06859 1.05958 6.12818 1 6.20168 1V0ZM10.1333 4.9316V7.1474H11.1333V4.9316H10.1333ZM10.6333 6.6474H4.93551V7.6474H10.6333V6.6474ZM5.43551 7.1474V4.9316H4.43551V7.1474H5.43551ZM10.0002 4.79852C10.0737 4.79852 10.1333 4.8581 10.1333 4.9316H11.1333C11.1333 4.30582 10.626 3.79852 10.0002 3.79852V4.79852ZM5.56859 3.79852C4.94281 3.79852 4.43551 4.30582 4.43551 4.9316H5.43551C5.43551 4.8581 5.49509 4.79852 5.56859 4.79852V3.79852ZM1.00391 14.4279C1.00391 10.6831 4.03963 7.6474 7.78439 7.6474V6.6474C3.48735 6.6474 0.00390625 10.1308 0.00390625 14.4279H1.00391ZM7.78439 7.6474C11.5292 7.6474 14.5649 10.6831 14.5649 14.4279H15.5649C15.5649 10.1308 12.0814 6.6474 7.78439 6.6474V7.6474ZM2.9201 19.1516C1.73364 17.9301 1.00391 16.2647 1.00391 14.4279H0.00390625C0.00390625 16.5352 0.842359 18.4478 2.20277 19.8484L2.9201 19.1516ZM14.5649 14.4279C14.5649 16.2647 13.8352 17.9301 12.6487 19.1516L13.366 19.8484C14.7264 18.4478 15.5649 16.5352 15.5649 14.4279H14.5649ZM2.56144 20H13.0074V19H2.56144V20ZM5.56859 1.89926H3.2719V2.89926H5.56859V1.89926ZM10.0002 2.89926H13.7987V1.89926H10.0002V2.89926Z" fill="#2B2826"/>
</svg>
