<svg width="24" height="24" viewBox="0 0 24 24" fill="none" xmlns="http://www.w3.org/2000/svg">
<path d="M8.57227 17.1582L13.9228 11.8076M9.24109 12.4764H9.24777V12.4831H9.24109V12.4764ZM9.5755 12.4764C9.5755 12.6611 9.42578 12.8108 9.24109 12.8108C9.0564 12.8108 8.90668 12.6611 8.90668 12.4764C8.90668 12.2917 9.0564 12.142 9.24109 12.142C9.42578 12.142 9.5755 12.2917 9.5755 12.4764ZM13.254 16.4894H13.2607V16.4961H13.254V16.4894ZM13.5884 16.4894C13.5884 16.6741 13.4387 16.8238 13.254 16.8238C13.0693 16.8238 12.9196 16.6741 12.9196 16.4894C12.9196 16.3047 13.0693 16.155 13.254 16.155C13.4387 16.155 13.5884 16.3047 13.5884 16.4894Z" stroke="#2B2826" stroke-linecap="round" stroke-linejoin="round"/>
<path d="M11.3247 21.7649L12.8602 20.3452C13.0985 20.125 13.4208 20.019 13.7437 20.0563L15.8141 20.2953C15.8706 20.3018 15.9278 20.2638 15.9406 20.1999L16.3548 18.1418C16.4187 17.8245 16.6164 17.5493 16.8984 17.3888L18.7128 16.3558C18.7652 16.326 18.7892 16.2577 18.7622 16.1982L17.8969 14.2878C17.7633 13.9929 17.7633 13.6544 17.8969 13.3595L18.7622 11.4492C18.7892 11.3896 18.7652 11.3213 18.7128 11.2915L16.8984 10.2586C16.6164 10.098 16.4187 9.82286 16.3548 9.50552L16.0847 8.16331C16.0479 7.98041 15.8872 7.84884 15.7006 7.84884L6.79443 7.84885C6.60786 7.84885 6.44718 7.98041 6.41037 8.16331L6.14023 9.50552C6.07636 9.82286 5.87867 10.098 5.59662 10.2586L3.78226 11.2915C3.7299 11.3213 3.70589 11.3896 3.73287 11.4492L4.59821 13.3595C4.7318 13.6544 4.7318 13.9929 4.59821 14.2878L3.73287 16.1982C3.70589 16.2577 3.7299 16.326 3.78226 16.3558L3.53778 16.7853L3.78226 16.3558L5.59662 17.3888C5.87867 17.5493 6.07636 17.8245 6.14023 18.1418L6.55443 20.1999C6.56731 20.2638 6.62448 20.3018 6.68099 20.2953L8.75133 20.0563C9.07422 20.019 9.39656 20.125 9.63483 20.3452L11.1704 21.7649C11.2144 21.8056 11.2807 21.8056 11.3247 21.7649Z" stroke="#2B2826"/>
<path d="M14.0451 7.63249V8.13249H14.5451V7.63249H14.0451ZM8.96401 7.63249H8.46401V8.13249H8.96401V7.63249ZM7.48047 2.89827C7.20433 2.89827 6.98047 3.12213 6.98047 3.39827C6.98047 3.67442 7.20433 3.89827 7.48047 3.89827V2.89827ZM21.4489 4.38626C21.4489 5.59116 20.4722 6.56793 19.2673 6.56793V7.56793C21.0244 7.56793 22.4489 6.14344 22.4489 4.38626H21.4489ZM19.2673 6.56793C18.0624 6.56793 17.0856 5.59116 17.0856 4.38626H16.0856C16.0856 6.14344 17.5101 7.56793 19.2673 7.56793V6.56793ZM17.0856 4.38626C17.0856 3.18136 18.0624 2.20459 19.2673 2.20459V1.20459C17.5101 1.20459 16.0856 2.62907 16.0856 4.38626H17.0856ZM19.2673 2.20459C20.4722 2.20459 21.4489 3.18136 21.4489 4.38626H22.4489C22.4489 2.62907 21.0244 1.20459 19.2673 1.20459V2.20459ZM10.0931 2.20459H12.9159V1.20459H10.0931V2.20459ZM12.9805 2.26915V5.09196H13.9805V2.26915H12.9805ZM13.4805 4.59196H9.52857V5.59196H13.4805V4.59196ZM10.0286 5.09196V2.26915H9.02857V5.09196H10.0286ZM12.9159 2.20459C12.9516 2.20459 12.9805 2.23349 12.9805 2.26915H13.9805C13.9805 1.68121 13.5039 1.20459 12.9159 1.20459V2.20459ZM10.0931 1.20459C9.50519 1.20459 9.02857 1.68121 9.02857 2.26915H10.0286C10.0286 2.23349 10.0575 2.20459 10.0931 2.20459V1.20459ZM13.5451 5.65652V7.63249H14.5451V5.65652H13.5451ZM14.0451 7.13249H8.96401V8.13249H14.0451V7.13249ZM9.46401 7.63249V5.65652H8.46401V7.63249H9.46401ZM13.4805 5.59196C13.5162 5.59196 13.5451 5.62087 13.5451 5.65652H14.5451C14.5451 5.06858 14.0684 4.59196 13.4805 4.59196V5.59196ZM9.52857 4.59196C8.94063 4.59196 8.46401 5.06858 8.46401 5.65652H9.46401C9.46401 5.62086 9.49291 5.59196 9.52857 5.59196V4.59196ZM9.52857 2.89827H7.48047V3.89827H9.52857V2.89827ZM13.4805 3.89827H16.8679V2.89827H13.4805V3.89827Z" fill="#2B2826"/>
</svg>
