<svg width="68" height="26" viewBox="0 0 68 26" fill="none" xmlns="http://www.w3.org/2000/svg">
    <path
        d="M18.8773 10.2827L20.6963 8.46132C20.1398 7.90607 19.4638 7.48536 18.7198 7.23133C17.9759 6.9773 17.1837 6.89667 16.4038 6.9956C15.6239 7.09454 14.877 7.37041 14.22 7.80216C13.5631 8.23391 13.0135 8.8101 12.6133 9.48672C13.5979 8.90632 14.7475 8.66955 15.8814 8.81363C17.0152 8.95771 18.0691 9.47447 18.8773 10.2827Z"
        fill="#727272" />
    <path
        d="M13.4065 15.7507L11.5859 17.5713C12.1424 18.1269 12.8186 18.5478 13.5627 18.8021C14.3068 19.0563 15.0992 19.137 15.8793 19.038C16.6594 18.9391 17.4065 18.6631 18.0636 18.2312C18.7207 17.7993 19.2703 17.2228 19.6705 16.5459C18.686 17.1264 17.5364 17.3633 16.4026 17.2194C15.2687 17.0754 14.2148 16.5588 13.4065 15.7507Z"
        fill="#2B2826" />
    <path
        d="M18.8743 10.2827L13.4062 15.7507C14.2144 16.559 15.2683 17.0757 16.4021 17.2198C17.536 17.3639 18.6856 17.1271 19.6702 16.5467C20.2506 15.5621 20.4874 14.4125 20.3433 13.2786C20.1993 12.1447 19.6825 11.0909 18.8743 10.2827Z"
        fill="#727272" />
    <path
        d="M13.4086 15.7507L18.8767 10.2827C18.0685 9.47444 17.0146 8.95768 15.8808 8.8136C14.7469 8.66952 13.5973 8.90629 12.6127 9.48669C12.0323 10.4713 11.7955 11.6209 11.9396 12.7548C12.0837 13.8886 12.6004 14.9425 13.4086 15.7507Z"
        fill="#2B2826" />
    <path
        d="M29.3766 14.2985C29.3766 15.4355 28.5073 16.546 26.7273 16.546C24.6398 16.546 23.971 15.1944 23.918 14.4585L25.6441 14.151C25.6707 14.606 25.9922 15.0477 26.6875 15.0477C27.2095 15.0477 27.4639 14.7667 27.4639 14.4725C27.4639 14.2314 27.3032 14.0308 26.8084 13.9263L26.046 13.7522C24.6281 13.4448 24.0655 12.6418 24.0655 11.7053C24.0655 10.488 25.1361 9.4977 26.6212 9.4977C28.5471 9.49536 29.2159 10.6979 29.2791 11.4783L27.5927 11.7857C27.5389 11.344 27.2579 10.9695 26.643 10.9695C26.2528 10.9695 25.9204 11.1966 25.9204 11.5446C25.9204 11.8255 26.1475 11.9863 26.4424 12.0393L27.3282 12.211C28.7071 12.4927 29.3766 13.3215 29.3766 14.2985ZM44.8138 12.8338C44.8509 13.5465 44.6709 14.2538 44.2978 14.8622C43.9247 15.4707 43.3758 15.9517 42.7237 16.2418C42.0716 16.532 41.3469 16.6176 40.6451 16.4874C39.9433 16.3572 39.2975 16.0173 38.7929 15.5125C38.2882 15.0078 37.9485 14.3619 37.8185 13.6601C37.6884 12.9583 37.7742 12.2336 38.0645 11.5815C38.3548 10.9295 38.8359 10.3807 39.4444 10.0077C40.053 9.63475 40.7603 9.45501 41.4731 9.49224C42.3445 9.53775 43.1681 9.90443 43.7851 10.5215C44.402 11.1386 44.7685 11.9623 44.8138 12.8338ZM42.7848 13.0171C42.7848 12.1026 42.1137 11.3604 41.2865 11.3604C40.4594 11.3604 39.7882 12.1018 39.7882 13.0171C39.7882 13.9325 40.4594 14.6739 41.2865 14.6739C42.1137 14.6739 42.7872 13.9317 42.7872 13.0171H42.7848ZM52.214 6.96073C52.004 6.93366 51.7907 6.973 51.6042 7.07323C51.4176 7.17345 51.2671 7.32955 51.1737 7.51963C51.0804 7.70971 51.0488 7.92424 51.0836 8.13315C51.1183 8.34206 51.2175 8.53487 51.3673 8.68454C51.5171 8.83422 51.71 8.93327 51.9189 8.96779C52.1279 9.00231 52.3424 8.97058 52.5324 8.87705C52.7224 8.78351 52.8783 8.63287 52.9784 8.44623C53.0785 8.25959 53.1176 8.04631 53.0903 7.8363C53.0615 7.61406 52.9599 7.40762 52.8013 7.24922C52.6428 7.09082 52.4363 6.98938 52.214 6.96073ZM51.0653 16.546H53.0989V10.6043L51.0653 9.48677V16.546ZM55.3074 10.822C55.5174 10.8492 55.7306 10.8101 55.9173 10.71C56.1039 10.61 56.2546 10.454 56.3481 10.264C56.4416 10.074 56.4734 9.85951 56.4388 9.65057C56.4043 9.44163 56.3053 9.24873 56.1556 9.09892C56.0059 8.94911 55.8131 8.84989 55.6042 8.81519C55.3953 8.78048 55.1808 8.81202 54.9907 8.90538C54.8006 8.99874 54.6445 9.14925 54.5443 9.3358C54.4441 9.52235 54.4047 9.73559 54.4318 9.94563C54.4604 10.1679 54.5619 10.3744 54.7203 10.533C54.8787 10.6915 55.0851 10.7931 55.3074 10.822ZM54.4224 11.3323V16.5467H56.4561V12.4498L54.4224 11.3323ZM46.4838 9.48677H45.2594V11.5282H46.4838V14.304C46.4838 14.8988 46.7201 15.4692 47.1407 15.8898C47.5613 16.3104 48.1317 16.5467 48.7265 16.5467H49.741V14.5123H49.4687C48.9427 14.5123 48.5166 14.0441 48.5166 13.4596V11.5282H49.741V9.48677H48.5174V8.08602L46.4775 6.95215L46.4838 9.48677ZM32.2928 15.9989V19.0806L30.2584 17.9631V9.48677H32.2921V10.033C32.8068 9.67801 33.4171 9.48753 34.0424 9.48677C35.8513 9.48677 37.32 11.067 37.32 13.0164C37.32 14.9657 35.8536 16.546 34.0424 16.546C33.4173 16.5448 32.8073 16.3541 32.2928 15.9989ZM32.2928 13.0741C32.3209 13.9614 32.9788 14.6723 33.7888 14.6723C34.6168 14.6723 35.2871 13.9309 35.2871 13.0156C35.2871 12.1002 34.616 11.3589 33.7888 11.3589C32.9788 11.3589 32.3209 12.0698 32.2928 12.9571V13.0741Z"
        fill="#2B2826" />
    <rect x="0.5" y="0.5" width="67" height="25" rx="3.5" stroke="#C8C8C8" />
</svg>