<svg xmlns="http://www.w3.org/2000/svg" width="18.75" height="13.125" viewBox="0 0 18.75 13.125">
  <path id="ven" d="M13.25,1h.625A.625.625,0,0,0,13.25.375Zm-.625,8.375a.625.625,0,0,0,1.25,0ZM.75,1V.375A.625.625,0,0,0,.125,1Zm0,10H.125a.625.625,0,0,0,.625.625Zm17.5,0v.625A.625.625,0,0,0,18.875,11ZM13.5,1.375a.625.625,0,0,0,0,1.25ZM15.438,11a1.25,1.25,0,0,1-1.25,1.25V13.5a2.5,2.5,0,0,0,2.5-2.5Zm-1.25,1.25A1.25,1.25,0,0,1,12.938,11h-1.25a2.5,2.5,0,0,0,2.5,2.5ZM12.938,11a1.25,1.25,0,0,1,1.25-1.25V8.5a2.5,2.5,0,0,0-2.5,2.5Zm1.25-1.25A1.25,1.25,0,0,1,15.438,11h1.25a2.5,2.5,0,0,0-2.5-2.5ZM6.063,11a1.25,1.25,0,0,1-1.25,1.25V13.5a2.5,2.5,0,0,0,2.5-2.5Zm-1.25,1.25A1.25,1.25,0,0,1,3.563,11H2.313a2.5,2.5,0,0,0,2.5,2.5ZM3.563,11a1.25,1.25,0,0,1,1.25-1.25V8.5a2.5,2.5,0,0,0-2.5,2.5Zm1.25-1.25A1.25,1.25,0,0,1,6.063,11h1.25a2.5,2.5,0,0,0-2.5-2.5Zm7.5.625H6.688v1.25h5.625ZM12.625,1V9.375h1.25V1Zm2.25.375H13.5v1.25h1.375Zm4,4a4,4,0,0,0-4-4v1.25a2.75,2.75,0,0,1,2.75,2.75Zm-15.937,5H.75v1.25H2.938ZM1.375,11V1H.125V11ZM.75,1.625h12.5V.375H.75Zm16.875,3.75V11h1.25V5.375Zm.625,5H16.063v1.25H18.25Z" transform="translate(-0.125 -0.375)" fill="#2b2826"/>
</svg>
