<svg width="18" height="18" viewBox="0 0 18 18" fill="none" xmlns="http://www.w3.org/2000/svg">
<path fill-rule="evenodd" clip-rule="evenodd" d="M0.476562 17.3693L1.66584 13.0271C0.931119 11.7533 0.545194 10.3083 0.546969 8.83778C0.548906 4.21738 4.30893 0.458496 8.92944 0.458496C11.1716 0.459635 13.2762 1.3322 14.859 2.91612C16.4417 4.50003 17.3126 6.60539 17.3118 8.8445C17.3098 13.4646 13.5492 17.2241 8.92933 17.2241H8.92568C7.52291 17.2236 6.14451 16.8716 4.92015 16.204L0.476562 17.3693ZM6.36298 4.97267C6.51211 4.97871 6.67731 4.98577 6.8343 5.3345V5.33462C6.94121 5.57253 7.12096 6.01548 7.26454 6.3693C7.37095 6.63153 7.45749 6.8448 7.4798 6.88937C7.53221 6.99407 7.56696 7.11665 7.49723 7.25621C7.48652 7.27766 7.47663 7.29788 7.4672 7.31718C7.41524 7.42346 7.37686 7.50194 7.28806 7.6054C7.25259 7.64673 7.21591 7.69132 7.17927 7.73586C7.10754 7.82307 7.03595 7.9101 6.97374 7.97224C6.8687 8.0766 6.75933 8.19007 6.88169 8.39958C7.00405 8.60909 7.42432 9.2947 8.04693 9.84986C8.71706 10.4474 9.29898 10.6997 9.59358 10.8274C9.65077 10.8522 9.69714 10.8723 9.73121 10.8893C9.94084 10.994 10.0629 10.9765 10.1851 10.8367C10.3073 10.6969 10.7082 10.2254 10.848 10.0157C10.9878 9.80611 11.1274 9.84086 11.3193 9.91081C11.5113 9.98076 12.5409 10.4874 12.7505 10.5922C12.7917 10.6128 12.8303 10.6314 12.8659 10.6486C13.0117 10.7189 13.1101 10.7663 13.1521 10.8367C13.2044 10.9243 13.2043 11.3433 13.0298 11.8324C12.8554 12.3215 12.0004 12.7933 11.6162 12.8281C11.5793 12.8315 11.5425 12.8358 11.5047 12.8402C11.1497 12.8819 10.7018 12.9346 9.10291 12.3041C7.1336 11.5275 5.83565 9.60218 5.5693 9.20709C5.54771 9.17507 5.5329 9.1531 5.52505 9.1426L5.52257 9.13928C5.40915 8.98763 4.66992 7.99919 4.66992 6.97652C4.66992 6.01247 5.14367 5.5069 5.36183 5.27409C5.37686 5.25806 5.39067 5.24331 5.40304 5.2298C5.59489 5.02018 5.82183 4.96777 5.9615 4.96777L6.36298 4.97267Z" fill="#2B2826"/>
</svg>
