<?xml version="1.0" standalone="no"?>
<!DOCTYPE svg PUBLIC "-//W3C//DTD SVG 1.1//EN" "http://www.w3.org/Graphics/SVG/1.1/DTD/svg11.dtd" >
<svg xmlns="http://www.w3.org/2000/svg" xmlns:xlink="http://www.w3.org/1999/xlink" version="1.1">
<metadata>
Created by FontForge 20170731 at Sat Dec 10 04:01:52 2022
 By Aleksey,,,
Copyright 2017-2021 Indian Type Foundry. All rights reserved.
</metadata>
<defs>
<font id="Gambetta-Regular" horiz-adv-x="1476" >
  <font-face 
    font-family="Gambetta"
    font-weight="400"
    font-stretch="normal"
    units-per-em="2048"
    panose-1="0 0 0 0 0 0 0 0 0 0"
    ascent="1638"
    descent="-410"
    x-height="926"
    cap-height="1393"
    bbox="-86 -518 3336 1866"
    underline-thickness="102"
    underline-position="-307"
    unicode-range="U+0020-FB02"
  />
<missing-glyph horiz-adv-x="20" 
 />
    <glyph glyph-name="fi" unicode="fi" horiz-adv-x="1269" 
d="M1057 90q12 -21 39.5 -29.5t87.5 -15.5v-45q-125 8 -217 8t-217 -8v45q43 5 60 8t36 11t28 22q21 35 21 158v592h-510v-592q0 -119 18 -154q12 -21 39.5 -29.5t87.5 -15.5v-45q-125 8 -217 8q-91 0 -219 -8v45q44 5 61 8t36.5 11t27.5 22q21 31 21 158v592h-181v51
l181 16q12 285 152 428.5t388 143.5q96 0 199 -23l-64 -254h-43l-49 193q-49 16 -106 16q-332 0 -332 -471v-29l440 15q108 3 187 16l37 -18q-11 -96 -11 -242v-436q0 -115 19 -152z" />
    <glyph glyph-name="fl" unicode="fl" horiz-adv-x="1261" 
d="M1049 90q12 -21 39.5 -29.5t87.5 -15.5v-45q-125 8 -218 8q-92 0 -217 -8v45q57 7 84 14.5t41 26.5q14 22 17.5 67.5t3.5 155.5v1055q-79 43 -170 43q-160 0 -246 -114.5t-86 -340.5v-41l297 15v-90h-297v-592q0 -119 18 -154q12 -21 39.5 -29.5t87.5 -15.5v-45
q-125 8 -217 8q-91 0 -219 -8v45q58 7 85.5 14.5t39.5 26.5q21 31 21 158v592h-181v51l181 18q4 146 47.5 258t115 179t161 100t192.5 33q81 0 188 -31q47 14 64 20l32 -18q-10 -87 -10 -242v-895q0 -105 3 -150.5t16 -68.5z" />
    <glyph glyph-name=".notdef" horiz-adv-x="20" 
 />
    <glyph glyph-name=".null" horiz-adv-x="0" 
 />
    <glyph glyph-name="nonmarkingreturn" horiz-adv-x="682" 
 />
    <glyph glyph-name="space" unicode=" " horiz-adv-x="425" 
 />
    <glyph glyph-name="exclam" unicode="!" horiz-adv-x="608" 
d="M332 360h-53l-70 824q-18 170 96 170t96 -170zM307 -20q-48 0 -80 32.5t-32 83.5q0 47 32.5 80t79.5 33q45 0 77 -33t32 -80q0 -50 -32 -83t-77 -33z" />
    <glyph glyph-name="quotedbl" unicode="&#x22;" horiz-adv-x="475" 
d="M84 1024l-64 430h173l-66 -430h-43zM348 1024l-65 430h172l-64 -430h-43z" />
    <glyph glyph-name="numbersign" unicode="#" horiz-adv-x="1247" 
d="M238 0l53 369h-193v90h205l59 409h-202v88h215l53 375h92l-53 -375h375l53 375h92l-53 -375h215v-88h-227l-60 -409h225v-90h-237l-53 -369h-92l53 369h-375l-53 -369h-92zM395 459h375l59 409h-374z" />
    <glyph glyph-name="dollar" unicode="$" horiz-adv-x="1128" 
d="M512 -20q-201 0 -410 94l62 313h41l47 -270q147 -65 264 -68v574q-69 35 -109 56.5t-92 56t-80.5 65t-51.5 73.5t-29 91q-4 32 -2 51q3 131 100 220.5t264 109.5v135h78v-129h14q186 0 383 -88l-53 -297h-43l-51 254q-134 63 -250 63v-524l6 -2q78 -36 124 -59.5t106 -61
t94 -71.5t61.5 -81.5t34.5 -101.5q0 -7 1 -23t1 -24q-5 -140 -121.5 -236.5t-306.5 -115.5v-138h-78v134h-4zM285 1059q0 -87 56.5 -144t174.5 -116v481q-113 -15 -172 -73t-59 -148zM881 293q0 50 -20 91t-63 77t-88 63t-116 62v-535q132 12 209.5 77.5t77.5 164.5z" />
    <glyph glyph-name="percent" unicode="%" horiz-adv-x="1572" 
d="M340 0l836 1372l59 -39l-836 -1374zM383 559q-131 0 -220 100t-89 275q0 180 95.5 299t229.5 119q130 0 220 -105.5t90 -281.5q0 -179 -95 -292.5t-231 -113.5zM391 610q82 0 130 88t48 244q0 157 -47 255.5t-135 98.5q-79 0 -128.5 -90.5t-49.5 -244.5t48.5 -252.5
t133.5 -98.5zM1174 -20q-130 0 -220 100t-90 274q0 180 95.5 299t230.5 119q129 0 219 -105.5t90 -281.5q0 -179 -94.5 -292t-230.5 -113zM1184 33q81 0 128.5 87t47.5 242q0 157 -47 257t-133 100q-81 0 -131 -91.5t-50 -246.5q0 -154 49 -251t136 -97z" />
    <glyph glyph-name="ampersand" unicode="&#x26;" horiz-adv-x="1554" 
d="M156 307q0 136 97.5 246.5t260.5 181.5q-102 128 -145 207t-43 162q0 132 97.5 221.5t262.5 89.5q144 0 232 -72t88 -194q0 -116 -87.5 -212t-240.5 -169l387 -471q96 146 113 319q7 48 3.5 79t-9.5 49.5t-21.5 29t-34 15.5t-45.5 10q-16 2 -24 4v51q123 -6 202 -6
q37 0 207 6v-51q-89 -14 -107 -21q-51 -18 -73 -78q-14 -39 -23 -108q-27 -220 -137 -363q90 -105 169.5 -142.5t205.5 -45.5v-45q-117 -20 -186 -20q-171 0 -291 145q-174 -145 -418 -145q-201 0 -320.5 90t-119.5 237zM639 815l8 -8q99 56 162 138.5t63 189.5
q0 96 -53.5 158.5t-148.5 62.5q-90 0 -147.5 -59t-57.5 -156q0 -56 22.5 -110t52 -94t79.5 -99q13 -15 20 -23zM313 352q0 -137 90.5 -215t241.5 -78q181 0 322 125l-398 484q-12 16 -18 22q-238 -124 -238 -338z" />
    <glyph glyph-name="quotesingle" unicode="'" horiz-adv-x="276" 
d="M117 1024l-64 430h170l-63 -430h-43z" />
    <glyph glyph-name="parenleft" unicode="(" horiz-adv-x="540" 
d="M98 594q0 248 89 466t257 435l39 -33q-245 -386 -245 -868t245 -868l-39 -33q-168 217 -257 435t-89 466z" />
    <glyph glyph-name="parenright" unicode=")" horiz-adv-x="540" 
d="M442 594q0 -248 -89 -466t-257 -435l-39 33q246 388 246 868t-246 868l39 33q168 -217 257 -435t89 -466z" />
    <glyph glyph-name="asterisk" unicode="*" horiz-adv-x="587" 
d="M489 1311l52 -90l-185 -82l185 -84l-52 -90l-161 116l18 -198h-104l18 198l-162 -116l-51 90l184 82l-184 84l51 90l162 -119l-18 201h104l-18 -199z" />
    <glyph glyph-name="plus" unicode="+" horiz-adv-x="909" 
d="M410 174v367h-369v82h369v358h92v-358h366v-82h-366v-367h-92z" />
    <glyph glyph-name="comma" unicode="," horiz-adv-x="409" 
d="M76 -276q149 121 164 260q-24 -4 -35 -4q-49 0 -80 33t-31 75q0 49 30.5 85t84.5 36q55 0 94 -41.5t39 -112.5q1 -105 -64 -206t-172 -173z" />
    <glyph glyph-name="hyphen" unicode="-" horiz-adv-x="626" 
d="M561 526h-495v88l495 31v-119z" />
    <glyph glyph-name="period" unicode="." horiz-adv-x="409" 
d="M207 -20q-48 0 -80.5 33t-32.5 83q0 47 33 80t80 33q44 0 76 -33t32 -80q0 -50 -31.5 -83t-76.5 -33z" />
    <glyph glyph-name="slash" unicode="/" horiz-adv-x="892" 
d="M20 -143l736 1720h116l-735 -1720h-117z" />
    <glyph glyph-name="zero" unicode="0" horiz-adv-x="1224" 
d="M594 -20q-143 0 -251.5 91t-165 243.5t-56.5 340.5q0 133 32 255.5t92.5 222t159 159.5t220.5 60q146 0 256 -86t166.5 -235t56.5 -339q0 -140 -35.5 -268t-100 -227t-162 -158t-212.5 -59zM610 47q151 0 242.5 165t91.5 441q0 288 -89 458.5t-247 170.5
q-153 0 -240 -148t-87 -419q0 -195 37 -344t112 -236.5t180 -87.5z" />
    <glyph glyph-name="one" unicode="1" horiz-adv-x="770" 
d="M500 98q12 -23 44 -31t132 -20v-47q-159 8 -266 8q-108 0 -269 -8v47q126 15 150 26q16 7 24 19q21 31 21 156v854q0 22 -0.5 34t-4.5 26t-8.5 20t-18.5 13.5t-26.5 10.5t-41 7t-54.5 6.5t-73 5.5v39l337 88h35v-1106q0 -111 19 -148z" />
    <glyph glyph-name="two" unicode="2" horiz-adv-x="974" 
d="M86 1075l-45 31q153 246 403 246q166 0 271.5 -97.5t105.5 -257.5q0 -37 -5.5 -73t-20 -71.5t-26.5 -64t-37.5 -64.5t-41 -57.5t-49 -58.5t-48 -53t-52 -55t-49.5 -51l-297 -312h565l63 170h43l-24 -307h-811l2 41l342 397q169 195 229 297t60 217q0 139 -75 216t-196 77
q-182 0 -307 -170z" />
    <glyph glyph-name="three" unicode="3" horiz-adv-x="1075" 
d="M915 1284l-426 -530q46 4 80 4q78 0 146 -21.5t120.5 -63t82.5 -107t30 -148.5q0 -128 -70 -228.5t-191 -155t-271 -54.5q-104 0 -177 19t-145 54l56 289h43l55 -264q88 -31 192 -31q155 0 253 89t98 245q0 75 -26 132.5t-71 91t-100 50.5t-119 17q-50 0 -100 -8l-25 30
l400 506h-506l-66 -166h-43l17 297h759z" />
    <glyph glyph-name="four" unicode="4" horiz-adv-x="1077" 
d="M987 350l-199 17v-123q0 -117 19 -154q12 -21 39.5 -29.5t87.5 -15.5v-45q-125 8 -217 8q-94 0 -219 -8v45q57 7 84 14.5t41 26.5q20 31 20 135v141h-639v41l719 945h65v-910h220zM643 440v680l-520 -684z" />
    <glyph glyph-name="five" unicode="5" horiz-adv-x="1064" 
d="M944 434q0 -140 -73.5 -245t-194 -157t-268.5 -52q-172 0 -304 73l48 289h43l63 -264q91 -31 170 -31q158 0 260.5 90.5t102.5 255.5q0 163 -95.5 249.5t-251.5 86.5q-148 0 -258 -88l-30 23l49 667h667l-8 -139h-588l-30 -438q114 80 262 80q199 0 317.5 -108
t118.5 -292z" />
    <glyph glyph-name="six" unicode="6" horiz-adv-x="1091" 
d="M903 1284q-251 -58 -404.5 -203t-205.5 -362q136 104 299 104q114 0 203 -44t143.5 -136t54.5 -219q0 -86 -28.5 -164.5t-83 -141.5t-142.5 -100.5t-198 -37.5q-96 0 -172.5 31.5t-124 82t-79 118t-44 134t-12.5 135.5q0 105 30 212.5t94 213t154 193t220.5 155
t283.5 97.5zM268 492q0 -210 74 -327.5t225 -117.5q128 0 199.5 90t71.5 242q0 174 -76.5 274.5t-208.5 100.5q-155 0 -277 -125q-8 -57 -8 -137z" />
    <glyph glyph-name="seven" unicode="7" horiz-adv-x="952" 
d="M76 1331h850v-51l-570 -1337l-135 53l596 1192h-647l-86 -203h-43z" />
    <glyph glyph-name="eight" unicode="8" horiz-adv-x="1064" 
d="M977 340q0 -160 -125.5 -260t-335.5 -100q-180 0 -304 86t-124 225q0 117 77.5 210.5t233.5 172.5q-125 68 -191.5 145t-66.5 195q0 150 116.5 244t289.5 94q168 0 275.5 -82t107.5 -215q0 -201 -271 -346q71 -37 121 -70t98.5 -78t73.5 -100.5t25 -120.5zM561 760
q7 -4 22.5 -11.5t22.5 -11.5q99 66 146 134t47 151q0 118 -70.5 191t-191.5 73q-117 0 -190 -62.5t-73 -160.5q0 -50 21.5 -93.5t65 -81t88.5 -66t112 -62.5zM225 319q0 -124 86.5 -199t218.5 -75q127 0 216.5 67.5t89.5 180.5q0 38 -12.5 72t-39.5 65t-54.5 55t-74.5 52
t-80.5 46t-89.5 46q-6 3 -17 9t-17 9q-115 -78 -170.5 -153t-55.5 -175z" />
    <glyph glyph-name="nine" unicode="9" horiz-adv-x="1087" 
d="M184 47q249 56 399 200t201 359q-134 -98 -295 -98q-109 0 -196 42t-141 130.5t-54 212.5q0 89 28 169.5t82 146t141.5 104.5t197.5 39q91 0 165 -31.5t121 -82.5t78.5 -118t44.5 -134t13 -136q0 -105 -29 -212.5t-91.5 -212.5t-151.5 -192.5t-218.5 -155t-283.5 -97.5z
M254 948q0 -169 74.5 -269.5t208.5 -100.5q147 0 264 114q10 78 10 148q0 207 -74.5 325.5t-216.5 118.5q-127 0 -196.5 -92.5t-69.5 -243.5z" />
    <glyph glyph-name="colon" unicode=":" horiz-adv-x="409" 
d="M207 717q-47 0 -80 34t-33 83q0 47 33 79.5t80 32.5q45 0 76.5 -32.5t31.5 -79.5q0 -49 -31.5 -83t-76.5 -34zM207 -20q-48 0 -80.5 33t-32.5 83q0 47 33 80t80 33q44 0 76 -33t32 -80q0 -50 -31.5 -83t-76.5 -33z" />
    <glyph glyph-name="semicolon" unicode=";" horiz-adv-x="407" 
d="M207 717q-47 0 -80 34t-33 83q0 47 33 79.5t80 32.5q45 0 76.5 -32.5t31.5 -79.5q0 -49 -31.5 -83t-76.5 -34zM76 -276q149 123 164 260q-24 -4 -37 -4q-48 0 -79.5 33t-31.5 75q0 49 31 85t86 36t93 -41.5t38 -112.5q1 -105 -63.5 -206t-170.5 -173z" />
    <glyph glyph-name="less" unicode="&#x3c;" horiz-adv-x="909" 
d="M868 948l-673 -313l673 -316v-96l-827 393v37l827 394v-99z" />
    <glyph glyph-name="equal" unicode="=" horiz-adv-x="909" 
d="M41 700v82h827v-82h-827zM41 385v82h827v-82h-827z" />
    <glyph glyph-name="greater" unicode="&#x3e;" horiz-adv-x="909" 
d="M41 948v99l827 -394v-37l-827 -393v96l674 316z" />
    <glyph glyph-name="question" unicode="?" horiz-adv-x="854" 
d="M152 977h-46l-59 295q160 80 348 80q193 0 298.5 -69t105.5 -204q0 -58 -20.5 -108t-54.5 -88.5t-76 -76t-86 -80.5t-82 -92t-68 -119.5t-41 -154.5h-56v33q0 98 34 180.5t82 139t96 107.5t82 109.5t34 121.5q0 102 -71 168.5t-203 66.5q-82 0 -148 -31zM340 -20
q-52 0 -86.5 32.5t-34.5 83.5q0 47 35 80t86 33q49 0 82 -32.5t33 -80.5q0 -51 -32.5 -83.5t-82.5 -32.5z" />
    <glyph glyph-name="at" unicode="@" horiz-adv-x="1376" 
d="M969 -219q-157 -66 -303 -66q-165 0 -294 67.5t-204.5 198.5t-75.5 306q0 185 86.5 336t239.5 237t342 86q382 0 379 -366v-390q0 -91 32 -115t144 -30v-37q-83 -28 -152 -28q-167 0 -164 163v60q-77 -105 -157.5 -164t-179.5 -59q-94 0 -152.5 53t-58.5 145
q0 133 133.5 227.5t414.5 167.5q-1 49 -9 91t-28 81.5t-50 67t-78 44.5t-109 17q-102 0 -193.5 -42.5t-158.5 -116t-106.5 -179t-39.5 -225.5q0 -232 139.5 -380t358.5 -148q102 0 227 35zM596 221q0 -60 35.5 -96.5t99.5 -36.5q78 0 147.5 54.5t120.5 131.5v232
q-403 -94 -403 -285z" />
    <glyph glyph-name="A" unicode="A" horiz-adv-x="1372" 
d="M709 1393l467 -1170q3 -6 8 -19q22 -52 31.5 -71.5t29.5 -39.5t43.5 -26.5t71.5 -15.5v-51q-132 8 -246 8q-61 0 -225 -8v51q93 15 114 28q27 16 27 54q0 57 -51 182l-43 109h-567l-66 -168q-33 -88 -33 -131q0 -25 18.5 -39.5t37.5 -19t69 -11.5q8 -1 13.5 -2t11.5 -2
v-51q-176 8 -227 8q-49 0 -181 -8v51q83 15 111.5 40.5t66.5 119.5l472 1182h47zM397 496h510l-258 647z" />
    <glyph glyph-name="B" unicode="B" horiz-adv-x="1277" 
d="M1169 387q0 -184 -146 -285.5t-423 -101.5h-518v51q65 6 97 16.5t46 32.5q23 43 23 205v782q0 66 -1 95t-6 59.5t-16 48.5q-15 23 -47 34t-96 17v52h493q263 0 385.5 -78t122.5 -236q0 -133 -81 -220t-218 -124q176 -29 280.5 -113.5t104.5 -234.5zM547 1325h-150v-565
h123q200 0 303 71.5t103 212.5q0 281 -379 281zM397 68h211q205 0 301.5 79t96.5 222q0 153 -105 239t-301 86h-203v-626z" />
    <glyph glyph-name="C" unicode="C" horiz-adv-x="1302" 
d="M90 678q0 156 52 291.5t145 234t228.5 155t295.5 56.5q206 0 401 -92l-59 -377h-55l-60 346q-104 51 -239 51q-123 0 -226 -52t-170.5 -140.5t-105 -203.5t-37.5 -242q0 -134 35 -251t101.5 -207.5t172 -143t236.5 -52.5q122 0 237 43l56 336h55l57 -375
q-218 -75 -430 -75q-324 0 -507 185t-183 513z" />
    <glyph glyph-name="D" unicode="D" 
d="M82 1393h557q357 0 552 -167t195 -495q0 -158 -55 -292.5t-154.5 -231.5t-246.5 -152t-324 -55h-524v51q66 8 97.5 19t45.5 36q14 24 17.5 66.5t3.5 136.5v774q0 100 -5 145.5t-22 69.5q-16 21 -46.5 29.5t-90.5 13.5v52zM403 66h211q279 0 442 168t163 456
q0 635 -607 635h-209v-1259z" />
    <glyph glyph-name="E" unicode="E" horiz-adv-x="1228" 
d="M969 72l131 323h53l-39 -395h-1032v51q69 8 101 19t46 36q23 40 23 203v774q0 100 -5 145.5t-24 69.5q-17 20 -49 29t-92 14v52h999l21 -355h-55l-111 283h-528v-561h237q50 0 81.5 5t52.5 15.5t33 31t20 46.5t18 67l6 27h53v-458h-53q-26 106 -37 128q-22 46 -77 58
q-35 8 -97 8h-237v-616h561z" />
    <glyph glyph-name="F" unicode="F" horiz-adv-x="1138" 
d="M82 1393h979l20 -355h-55l-111 283h-512v-598h195q40 0 68 1t52 5.5t38.5 8.5t28 16t20.5 22t14.5 31t12 38.5t11.5 50.5l1.5 7.5t1.5 6.5l2 8h53v-461h-53q-25 106 -37 130q-22 43 -80 55q-43 9 -133 9h-195v-403q0 -112 17 -142q14 -26 45.5 -36.5t103.5 -18.5v-51
q-153 8 -245 8q-89 0 -242 -8v51q70 8 101.5 18.5t45.5 36.5q17 33 17 144v833q0 100 -5 145.5t-22 69.5q-16 21 -46.5 29.5t-90.5 13.5v52z" />
    <glyph glyph-name="G" unicode="G" horiz-adv-x="1478" 
d="M909 588v49h477v-45q-29 -5 -39 -7t-30 -8t-26.5 -14t-16 -22t-12 -34.5t-2.5 -49.5v-400q-137 -39 -245.5 -58t-228.5 -19q-314 0 -505 186t-191 512q0 159 54 295t151.5 233.5t241 153t315.5 55.5q212 0 416 -82l-62 -360h-55l-57 321q-115 49 -265 49q-168 0 -300 -88
t-201.5 -234t-69.5 -321q0 -298 154 -473.5t422 -175.5q66 0 113 8.5t87 31t60 65.5t20 108v172q0 29 -5 51t-11.5 37t-23 26t-28.5 17t-39 10.5t-44 6t-54 4.5z" />
    <glyph glyph-name="H" unicode="H" horiz-adv-x="1581" 
d="M1333 1145v-897q0 -112 17 -142q14 -26 45.5 -36.5t103.5 -18.5v-51q-153 8 -244 8q-90 0 -243 -8v51q71 8 102.5 18.5t44.5 36.5q19 32 19 144v438h-775v-440q0 -112 17 -142q14 -26 45.5 -36.5t103.5 -18.5v-51q-153 8 -245 8q-89 0 -242 -8v51q70 8 101.5 18.5
t45.5 36.5q17 33 17 144v893q0 110 -17 143q-14 26 -45.5 36.5t-101.5 18.5v52q172 -9 242 -9q72 0 245 9v-52q-72 -8 -103.5 -18.5t-45.5 -36.5q-17 -30 -17 -141v-383h775v381q0 111 -19 143q-13 26 -44.5 36.5t-102.5 18.5v52q172 -9 243 -9q72 0 244 9v-52
q-72 -8 -103.5 -18.5t-45.5 -36.5q-17 -30 -17 -141z" />
    <glyph glyph-name="I" unicode="I" horiz-adv-x="649" 
d="M403 1145v-897q0 -112 17 -142q14 -26 45.5 -36.5t103.5 -18.5v-51q-153 8 -243 8q-91 0 -244 -8v51q70 8 101.5 18.5t45.5 36.5q17 33 17 144v893q0 110 -17 143q-14 26 -45.5 36.5t-101.5 18.5v52q172 -9 244 -9q70 0 243 9v-52q-72 -8 -103.5 -18.5t-45.5 -36.5
q-17 -30 -17 -141z" />
    <glyph glyph-name="J" unicode="J" horiz-adv-x="624" 
d="M391 1143v-836q0 -195 -39 -331.5t-138 -244t-269 -182.5l-31 54q180 92 251 251t71 427v864q0 111 -17 141q-14 26 -45.5 36.5t-103.5 18.5v52q173 -9 243 -9q71 0 244 9v-52q-71 -8 -102.5 -18.5t-44.5 -36.5q-19 -32 -19 -143z" />
    <glyph glyph-name="K" unicode="K" horiz-adv-x="1449" 
d="M414 1145v-461l524 492q12 11 28.5 26.5t24.5 22.5t16.5 17t11.5 18t3 18q0 51 -113 63v52q105 -9 219 -9q82 0 267 9v-52q-105 -12 -165 -39.5t-151 -109.5l-385 -348l389 -535q47 -62 79 -101.5t63.5 -68.5t50.5 -44t50.5 -25t51 -13t64.5 -8v-49q-100 4 -187 4
q-51 0 -125 -4l-550 741l-166 -149v-344q0 -113 16 -142q14 -26 48 -36.5t110 -18.5v-51q-159 8 -254 8q-96 0 -252 -8v51q74 8 108 18.5t50 36.5q16 31 16 144v893q0 112 -16 143q-16 26 -50 36.5t-108 18.5v52q175 -9 252 -9q76 0 254 9v-52q-76 -8 -110 -18.5t-48 -36.5
q-11 -17 -13.5 -46.5t-2.5 -94.5z" />
    <glyph glyph-name="L" unicode="L" horiz-adv-x="1118" 
d="M403 1145v-1073h496l115 325h55l-25 -397h-962v51q66 8 97.5 19t45.5 36q21 41 21 203v834q0 110 -17 143q-14 26 -45.5 36.5t-101.5 18.5v52q172 -9 242 -9q72 0 245 9v-52q-72 -8 -103.5 -18.5t-45.5 -36.5q-17 -30 -17 -141z" />
    <glyph glyph-name="M" unicode="M" horiz-adv-x="1857" 
d="M1788 51v-51q-188 8 -234 8q-84 0 -223 -8v51q32 5 54 9.5t40 13.5t28.5 16.5t18 24.5t11 30.5t4 41.5t-1 51.5t-4.5 66.5l-70 866l-491 -1097h-60l-469 1065l-80 -924q-3 -36 -4 -55t3.5 -38.5t13 -28t29 -17.5t45.5 -14t69 -11v-51q-184 8 -193 8q-40 0 -204 -8v51
q62 9 88.5 20t38.5 33q5 10 8.5 21.5t6.5 33t4 37t4 54t5 63.5l70 764q5 62 7 100.5t-5 68t-12.5 43.5t-29 25.5t-39.5 14.5t-59 10q-8 1 -12 2v52h308l481 -1084l473 1084h309v-52q-32 -4 -53 -7t-40 -10.5t-29.5 -14t-18.5 -22t-11 -29.5t-3.5 -41t1 -52.5t5.5 -68.5
l69 -783q5 -51 7 -75t7 -56.5t8.5 -45t12.5 -30.5t17.5 -23.5t24.5 -13.5t32.5 -11t42.5 -7z" />
    <glyph glyph-name="N" unicode="N" horiz-adv-x="1523" 
d="M1253 1384q5 0 189 9v-52q-69 -10 -94.5 -19.5t-38.5 -35.5q-17 -33 -17 -207v-1079h-53l-915 1188l2 -873q0 -101 2.5 -143.5t13.5 -65.5q13 -27 47.5 -36.5t145.5 -18.5v-51q-58 2 -114 4t-86.5 3t-53.5 1q-35 0 -199 -8v51q66 10 92 18.5t37 30.5q13 23 16.5 68.5
t3.5 146.5v762v66.5t-2 52t-2 42t-7 31t-8.5 23.5t-15 16t-18 12t-25.5 8t-31 7t-40 6v52h276l840 -1102v786q0 101 -3.5 146.5t-16.5 68.5q-12 22 -47 31t-142 18v52q69 -2 152 -5.5t112 -3.5z" />
    <glyph glyph-name="O" unicode="O" 
d="M739 -20q-148 0 -272 56t-205.5 151.5t-126.5 222t-45 268.5q0 108 26.5 213.5t81 200t130.5 166.5t182 114.5t229 42.5q126 0 233 -39.5t182 -107t128 -157t78.5 -190t25.5 -206.5q0 -144 -42 -274.5t-121 -234t-204.5 -165t-279.5 -61.5zM743 51q213 0 345.5 172
t132.5 459q0 291 -134.5 476t-347.5 185q-216 0 -348.5 -166t-132.5 -452q0 -192 61 -345.5t172 -241t252 -87.5z" />
    <glyph glyph-name="P" unicode="P" horiz-adv-x="1208" 
d="M580 51v-51q-153 8 -246 8q-89 0 -242 -8v51q71 8 102.5 18.5t45.5 36.5q16 31 16 144v835q0 67 -1 96.5t-6 60t-16 48.5q-17 23 -51.5 34t-99.5 17v52h522q271 0 409 -103t138 -282q0 -196 -174.5 -315.5t-460.5 -119.5h-102v-325q0 -113 16 -142q14 -26 46 -36.5
t104 -18.5zM414 1325v-676q86 -8 123 -8q211 0 330.5 93.5t119.5 252.5q0 152 -106 245t-308 93h-159z" />
    <glyph glyph-name="Q" unicode="Q" horiz-adv-x="1474" 
d="M1456 -166q-153 -129 -338 -129q-245 0 -450 277q-131 11 -241 71.5t-183 154.5t-113.5 215.5t-40.5 254.5q0 108 26.5 213.5t82 200t132.5 166.5t186 114.5t235 42.5q122 0 226.5 -39.5t178.5 -107t126.5 -157t77.5 -190t25 -206.5q0 -130 -34.5 -250t-100.5 -219
t-170.5 -167t-234.5 -89q74 -93 156.5 -131.5t181.5 -38.5q147 0 272 59v-45zM743 51q213 0 345.5 172t132.5 459q0 291 -134.5 476t-347.5 185q-216 0 -348.5 -166t-132.5 -452q0 -192 61 -345.5t172 -241t252 -87.5z" />
    <glyph glyph-name="R" unicode="R" horiz-adv-x="1368" 
d="M1358 49v-49q-152 4 -174 4q-39 0 -137 -4l-402 651q-70 -4 -115 -4h-116v-340q0 -164 20 -201q16 -25 48 -35t112 -20v-51q-159 8 -258 8q-95 0 -254 -8v51q78 10 110 20.5t46 37.5q26 43 26 200v776q0 94 -4.5 136.5t-21.5 68.5q-25 39 -152 51v52h518q273 0 412 -86
t139 -254q0 -140 -92.5 -238t-267.5 -139l260 -400q39 -59 72 -99t58.5 -63.5t56 -37t54 -18.5t62.5 -9zM414 1325v-598q72 -10 135 -10q444 0 444 307q0 143 -104 222t-307 79h-168z" />
    <glyph glyph-name="S" unicode="S" horiz-adv-x="1140" 
d="M516 -20q-203 0 -414 100l62 326h55l51 -289q142 -64 271 -64q158 0 253 69t95 185q0 27 -6.5 51.5t-14.5 44.5t-27.5 42t-32.5 36.5t-44 35.5t-47 31.5t-57 32.5t-58.5 31t-64.5 33q-58 30 -90 46.5t-79.5 45t-74 49.5t-58 52.5t-47.5 62t-27 69.5t-11 83q0 160 125 261
t339 101q191 0 387 -94l-53 -307h-55l-53 270q-128 59 -246 59q-147 0 -227 -63t-80 -172q0 -23 3.5 -44t12.5 -40t17 -34.5t26 -32.5t30 -29t37.5 -28.5t41 -26t47.5 -26t49 -25l55 -27.5q61 -30 96 -48t86.5 -47.5t81.5 -52.5t65 -56.5t53.5 -66t31 -74.5t12.5 -88
q0 -167 -143 -274.5t-373 -107.5z" />
    <glyph glyph-name="T" unicode="T" horiz-adv-x="1280" 
d="M51 963l27 430h1124l27 -430h-58l-114 356h-340v-1071q0 -113 16 -142q14 -26 46 -36.5t104 -18.5v-51q-153 8 -244 8t-244 -8v51q71 9 103.5 19t44.5 36q18 30 18 144v1069h-338l-114 -356h-58z" />
    <glyph glyph-name="U" unicode="U" horiz-adv-x="1404" 
d="M1214 1096v-498q0 -314 -122.5 -466t-389.5 -152q-139 0 -238.5 43t-157.5 127.5t-84.5 197t-26.5 262.5v533q0 110 -17 143q-14 26 -45 36.5t-100 18.5v52q169 -9 239 -9q71 0 244 9v-52q-71 -8 -102 -18.5t-45 -36.5q-17 -30 -17 -141v-510q0 -273 91.5 -416
t299.5 -143q194 0 283.5 117.5t89.5 363.5v539q0 150 -16 188q-12 28 -42 38t-100 19v52q147 -9 213 -9q51 0 201 9v-52q-70 -10 -97.5 -19.5t-41.5 -33.5q-19 -37 -19 -192z" />
    <glyph glyph-name="V" unicode="V" horiz-adv-x="1316" 
d="M633 0l-400 1077q-20 54 -29 77.5t-23.5 57.5t-20.5 45t-20 29.5t-22 22.5t-26 12.5t-32.5 11.5t-41.5 8v52q148 -9 234 -9q64 0 248 9v-52q-95 -16 -117 -28q-31 -16 -31 -56q0 -39 51 -180l295 -809l312 869q5 16 14 40t13.5 36.5t8 27.5t3.5 27q0 8 -2 15.5t-4.5 13
t-8 10t-10.5 8t-14 6.5t-15.5 4.5t-19 4t-20.5 4t-23.5 4t-24.5 3.5v52q189 -9 215 -9q28 0 176 9v-52q-62 -11 -87.5 -24.5t-47.5 -50.5t-55 -129l-426 -1137h-49z" />
    <glyph glyph-name="W" unicode="W" horiz-adv-x="2123" 
d="M1915 1384q1 0 190 9v-52q-55 -8 -78.5 -14.5t-48 -30t-38 -55.5t-39.5 -104l-418 -1137h-49l-361 1018l-385 -1018h-47l-391 1077q-26 69 -37.5 100t-30 66t-28 45.5t-33 24.5t-43 17.5t-60.5 10.5v52q185 -9 256 -9q56 0 240 9v-52q-38 -5 -58 -9t-44 -12.5t-34.5 -23
t-10.5 -36.5q0 -42 51 -183l287 -798l378 1026h50l364 -1033l303 865q4 13 11 33t10.5 30.5t8 23.5t6 22.5t1.5 17.5q0 27 -21.5 43.5t-40.5 21t-65 10.5q-8 1 -12 2v52q189 -9 217 -9z" />
    <glyph glyph-name="X" unicode="X" horiz-adv-x="1409" 
d="M510 1167l231 -352l242 354q39 56 39 91q0 34 -37.5 52t-122.5 29v52q141 -9 262 -9q20 0 199 9v-52q-75 -15 -112.5 -36t-84.5 -86l-340 -471l291 -443q90 -137 158 -190.5t137 -63.5v-51q-164 8 -276 8q-122 0 -248 -8v51q77 9 110 26.5t33 53.5q0 27 -45 92l-268 416
l-279 -410q-39 -56 -39 -94q0 -33 37.5 -51.5t124.5 -32.5v-51q-115 8 -266 8q-96 0 -219 -8v51q85 20 121.5 41.5t85.5 85.5l389 529l-240 370q-92 142 -155 197.5t-138 66.5v52q185 -9 262 -9q140 0 234 9v-52q-131 -16 -131 -77q0 -25 45 -97z" />
    <glyph glyph-name="Y" unicode="Y" horiz-adv-x="1290" 
d="M1085 1219l-366 -609v-362q0 -113 16 -142q14 -26 46 -36.5t104 -18.5v-51q-153 8 -246 8q-89 0 -242 -8v51q71 9 103.5 19t44.5 36q18 30 18 144v332l-319 565q-26 46 -38.5 67.5t-31 46.5t-30 33.5t-33.5 20t-43 16t-58 10.5v52q202 -9 238 -9q134 0 260 9v-52
q-72 -13 -105.5 -30t-33.5 -47t34 -90l275 -488l283 492q36 61 36 88q0 33 -37 48t-122 27v52q141 -9 245 -9q25 0 197 9v-52q-82 -17 -108 -30q-47 -24 -87 -92z" />
    <glyph glyph-name="Z" unicode="Z" horiz-adv-x="1159" 
d="M915 74l121 329h54l-25 -403h-995v49l823 1270h-645l-115 -326h-53l22 400h979v-50l-821 -1269h655z" />
    <glyph glyph-name="bracketleft" unicode="[" horiz-adv-x="612" 
d="M535 1475v-52q-43 0 -73 -1.5t-55 -8t-40.5 -12t-27 -21.5t-17 -29t-9 -42t-4 -52t-0.5 -67v-1204q0 -44 0.5 -67t4 -52t9 -42t17 -29.5t27 -22t40.5 -12t55 -8t73 -1.5v-51h-345v1774h345z" />
    <glyph glyph-name="backslash" unicode="\" horiz-adv-x="892" 
d="M20 1577h117l735 -1720h-116z" />
    <glyph glyph-name="bracketright" unicode="]" horiz-adv-x="638" 
d="M78 1423v52h373v-1774h-373v51q39 0 68 1t54.5 5t43 7t32 13t23.5 17t15.5 24t10 29.5t5 38t2 44.5t0.5 55v1204q0 45 -0.5 67.5t-4 51.5t-9.5 41.5t-19 29t-30.5 22t-45.5 12t-62 8t-83 1.5z" />
    <glyph glyph-name="asciicircum" unicode="^" horiz-adv-x="901" 
d="M137 565h-96l391 766h35l393 -766h-102l-316 606z" />
    <glyph glyph-name="underscore" unicode="_" horiz-adv-x="901" 
d="M-20 -170v78h942v-78h-942z" />
    <glyph glyph-name="grave" unicode="`" horiz-adv-x="296" 
d="M0 1364l14 29h123l160 -326l-35 -25z" />
    <glyph glyph-name="a" unicode="a" horiz-adv-x="1013" 
d="M129 776q75 81 158.5 125.5t195.5 44.5q149 0 234.5 -84.5t85.5 -247.5l-2 -424q0 -92 30 -118.5t121 -26.5v-41q-74 -24 -137 -24q-156 0 -156 163v56q-76 -104 -158 -161.5t-184 -57.5q-95 0 -155 53.5t-60 146.5q0 136 141.5 240t418.5 162q-2 120 -58.5 190
t-177.5 70q-148 0 -264 -101zM248 223q0 -59 36 -97t103 -38q143 0 272 184l3 244q-193 -42 -303.5 -115.5t-110.5 -177.5z" />
    <glyph glyph-name="b" unicode="b" horiz-adv-x="1136" 
d="M334 1217v-445q73 77 156 125.5t194 48.5q163 0 255.5 -116.5t92.5 -307.5q0 -153 -57.5 -275t-171.5 -194.5t-266 -72.5q-178 0 -349 106v1088q0 89 -3 122.5t-17 49.5q-11 13 -35 18t-82 10v47q77 5 129 17t129 37l35 -19q-10 -85 -10 -239zM608 831q-143 0 -274 -114
v-574q97 -100 229 -100q150 0 235 114.5t85 309.5q0 164 -67 264t-208 100z" />
    <glyph glyph-name="c" unicode="c" horiz-adv-x="923" 
d="M866 178q-146 -198 -366 -198q-177 0 -286.5 125t-109.5 335q0 143 55 256.5t165.5 181.5t259.5 68q144 0 264 -65l-62 -267h-43l-51 240q-67 29 -135 29q-94 0 -164 -56t-104.5 -146.5t-34.5 -201.5q0 -182 82.5 -286.5t226.5 -104.5q164 0 266 127z" />
    <glyph glyph-name="d" unicode="d" horiz-adv-x="1204" 
d="M952 1217v-938q0 -53 2 -86.5t10 -59.5t17 -38.5t30.5 -20.5t44 -9.5t62.5 -1.5v-45l-311 -38v174q-155 -172 -344 -172q-164 0 -261.5 122t-97.5 316q0 230 136 378t364 148q98 0 203 -37v265q0 87 -3.5 121.5t-17.5 50.5q-11 13 -34.5 18t-81.5 10v47q54 4 101 12.5
t76 16.5t83 25l33 -19q-11 -94 -11 -239zM254 469q0 -106 29 -188t94 -133.5t160 -51.5q143 0 270 113v571q-96 103 -229 103q-150 0 -237 -111.5t-87 -302.5z" />
    <glyph glyph-name="e" unicode="e" horiz-adv-x="972" 
d="M899 162q-163 -182 -383 -182q-195 0 -303.5 127t-108.5 327q0 222 123.5 367t329.5 145q164 0 252 -100t88 -271v-79h-643v-17q0 -180 83.5 -285.5t244.5 -105.5t282 113zM524 885q-113 0 -182.5 -90t-83.5 -244l492 12q0 67 -12 122.5t-37 101.5t-70.5 72t-106.5 26z
" />
    <glyph glyph-name="f" unicode="f" horiz-adv-x="688" 
d="M385 1006v-95l309 15v-90h-309v-592q0 -119 18 -154q12 -21 39.5 -29.5t87.5 -15.5v-45q-125 8 -217 8q-91 0 -219 -8v45q58 7 85.5 14.5t39.5 26.5q21 31 21 158v592h-181v51l181 18q1 125 23 223.5t60 162.5t91 106t112 60t127 18q67 0 154 -23l-55 -246h-43l-54 189
q-35 12 -67 12q-90 0 -146.5 -101.5t-56.5 -299.5z" />
    <glyph glyph-name="g" unicode="g" horiz-adv-x="1011" 
d="M963 932l30 -23l-16 -84h-197q88 -76 88 -200q0 -141 -109.5 -235.5t-271.5 -94.5q-75 0 -137 18q-59 -62 -73 -86q-13 -24 -13 -45q0 -33 25 -46t78 -13h215q176 0 272 -63.5t96 -184.5q0 -150 -144 -239t-362 -89q-173 0 -284 57t-111 158q0 74 58 133.5t155 102.5
q-65 12 -98 44t-33 79q0 48 37 94t125 119q-90 40 -141.5 114t-51.5 170q0 138 112.5 233t274.5 95q143 0 244 -69zM492 356q102 0 166.5 71t64.5 185q0 118 -67.5 195.5t-178.5 77.5q-103 0 -166 -70t-63 -186q0 -118 65 -195.5t179 -77.5zM195 -190q0 -92 86.5 -143.5
t222.5 -51.5q132 0 220.5 57t88.5 160q0 87 -74 122.5t-229 35.5h-166h-14q-135 -80 -135 -180z" />
    <glyph glyph-name="h" unicode="h" horiz-adv-x="1253" 
d="M1040 580v-338q0 -120 19 -152q12 -21 39.5 -29.5t87.5 -15.5v-45q-128 8 -219 8q-92 0 -217 -8v45q57 7 83.5 14.5t40.5 26.5q21 35 21 158v297q0 161 -63 225.5t-185 64.5q-157 0 -282 -102v-487q0 -117 18 -152q12 -21 39.5 -29.5t87.5 -15.5v-45q-125 8 -217 8
q-91 0 -219 -8v45q58 7 85.5 14.5t39.5 26.5q20 34 20 158v932q0 88 -3 121t-17 49q-11 13 -35 18t-82 10v47q54 4 101 12.5t76 16.5t83 25l33 -19q-10 -85 -10 -239v-433q84 79 164 120.5t186 41.5q160 0 242.5 -94t82.5 -272z" />
    <glyph glyph-name="i" unicode="i" horiz-adv-x="616" 
d="M291 1135q-46 0 -77.5 31t-31.5 77q0 44 31.5 75.5t77.5 31.5q44 0 76 -31.5t32 -75.5q0 -45 -31.5 -76.5t-76.5 -31.5zM385 678v-436q0 -117 18 -152q12 -21 39.5 -29.5t87.5 -15.5v-45q-125 8 -217 8t-217 -8v45q57 7 84 14.5t39 26.5q21 31 21 158v393
q0 85 -3.5 119.5t-17.5 50.5q-11 13 -34.5 19t-80.5 12v45q124 11 258 53l33 -18q-10 -85 -10 -240z" />
    <glyph glyph-name="j" unicode="j" horiz-adv-x="571" 
d="M270 1135q-45 0 -76.5 31.5t-31.5 76.5q0 44 32 75.5t76 31.5q46 0 77.5 -31.5t31.5 -75.5q0 -46 -31.5 -77t-77.5 -31zM362 678v-404q0 -540 -331 -725l-29 48q49 32 85 71t59 86.5t38 94.5t22 111.5t9 119.5t2 135v422q0 88 -3 121t-17 49q-17 20 -117 31v45
q128 11 258 53l35 -18q-11 -94 -11 -240z" />
    <glyph glyph-name="k" unicode="k" horiz-adv-x="1105" 
d="M365 1217v-748l284 262q6 6 16.5 16t15.5 14.5t13 12.5t11.5 13t8 11.5t6 12.5t1.5 12q0 28 -24.5 40t-84.5 20v43q131 -8 226 -8q34 0 190 8v-43q-71 -13 -115 -36.5t-104 -74.5l-211 -182l301 -414q84 -117 201 -133v-43q-90 4 -139 4q-39 0 -121 -4l-346 502
l-129 -111v-149q0 -117 18 -152q12 -21 39.5 -29.5t87.5 -15.5v-45q-125 8 -217 8q-91 0 -219 -8v45q58 7 85.5 14.5t39.5 26.5q20 34 20 158v932q0 88 -3 121t-17 49q-11 13 -35 18t-82 10v47q54 4 101 12.5t76 16.5t83 25l33 -19q-10 -85 -10 -239z" />
    <glyph glyph-name="l" unicode="l" horiz-adv-x="593" 
d="M365 1217v-908v-31q0 -92 2.5 -129.5t15.5 -58.5q12 -21 39.5 -29.5t87.5 -15.5v-45q-125 8 -217 8q-91 0 -219 -8v45q58 7 85.5 14.5t39.5 26.5q14 19 17 55t3 127v41v867q0 88 -3 121t-17 49q-11 13 -35 18t-82 10v47q54 4 101 12.5t76 16.5t83 25l33 -19
q-10 -85 -10 -239z" />
    <glyph glyph-name="m" unicode="m" horiz-adv-x="1886" 
d="M96 0v45q57 7 84 14.5t39 26.5q21 31 21 158v393q0 85 -3.5 119.5t-17.5 50.5q-11 13 -34.5 19t-80.5 12v45q128 11 258 53l33 -18q-8 -86 -8 -140q79 80 157 124t179 44q203 0 272 -170q91 84 170.5 127t186.5 43q159 0 240 -94t81 -272v-320q0 -78 3 -114t14 -56
q12 -21 39.5 -29.5t87.5 -15.5v-45q-125 8 -218 8q-92 0 -217 -8v45q57 7 84 14.5t41 26.5q21 31 21 174v281q0 160 -62.5 225t-179.5 65q-147 0 -274 -96q18 -67 18 -155v-336q0 -125 17 -154q12 -21 39.5 -29.5t87.5 -15.5v-45q-125 8 -218 8q-92 0 -217 -8v45
q57 7 84 14.5t41 26.5q21 35 21 158v297q0 160 -59 225t-169 65q-149 0 -272 -110v-43v-436q0 -117 18 -152q12 -21 39.5 -29.5t87.5 -15.5v-45q-125 8 -217 8t-217 -8z" />
    <glyph glyph-name="n" unicode="n" horiz-adv-x="1263" 
d="M385 678v-436q0 -117 18 -152q12 -21 39.5 -29.5t87.5 -15.5v-45q-125 8 -217 8t-217 -8v45q57 7 84 14.5t39 26.5q21 31 21 158v393q0 85 -3.5 119.5t-17.5 50.5q-11 13 -34.5 19t-80.5 12v45q128 11 258 53l33 -18q-8 -82 -8 -134q82 79 161 120.5t185 41.5
q156 0 237 -94t81 -272v-338q0 -121 16 -152q12 -21 39.5 -29.5t87.5 -15.5v-45q-125 8 -217 8t-217 -8v45q57 7 84 14.5t41 26.5q20 34 20 158v286q0 164 -62.5 232.5t-180.5 68.5q-161 0 -277 -104v-49z" />
    <glyph glyph-name="o" unicode="o" horiz-adv-x="1120" 
d="M549 -20q-122 0 -221.5 52t-161.5 157.5t-62 248.5q0 109 37.5 204.5t100.5 161.5t149 104t180 38q92 0 173 -33t142 -92.5t96.5 -149t35.5 -196.5q0 -217 -136 -356t-333 -139zM563 45q139 0 217 106.5t78 297.5q0 190 -78 312t-223 122q-138 0 -216.5 -110.5
t-78.5 -301.5q0 -189 77.5 -307.5t223.5 -118.5z" />
    <glyph glyph-name="p" unicode="p" horiz-adv-x="1163" 
d="M569 -395v-45q-208 8 -278 8q-91 0 -219 -8v45q44 5 61 8t36.5 11t27.5 22q13 19 16.5 52.5t3.5 104.5v834q0 88 -3 121t-17 49q-11 13 -35 19t-82 12v45q130 11 260 53l33 -18q-8 -86 -8 -140q69 73 151 120.5t193 47.5q164 0 258 -116t94 -306q0 -235 -137.5 -389.5
t-358.5 -154.5q-100 0 -203 36v-215q0 -114 19 -151q13 -22 49.5 -30.5t138.5 -14.5zM362 678v-535q93 -100 228 -100q148 0 234.5 114.5t86.5 309.5q0 163 -69 263.5t-209 100.5t-271 -108v-45z" />
    <glyph glyph-name="q" unicode="q" horiz-adv-x="1142" 
d="M971 -350q12 -21 39.5 -29.5t87.5 -15.5v-45q-120 8 -219 8q-83 0 -279 -8v45q103 6 138 13t48 28q21 35 21 157v344q-72 -74 -154 -120.5t-192 -46.5q-163 0 -260 123t-97 311q0 150 60 270t175 191t267 71q134 0 271 -63l32 73h43v-1155q0 -114 19 -151zM254 465
q0 -77 17 -142.5t50.5 -117.5t89.5 -81.5t128 -29.5q138 0 268 111v579q-96 99 -225 99q-152 0 -240 -113.5t-88 -304.5z" />
    <glyph glyph-name="r" unicode="r" horiz-adv-x="815" 
d="M385 684v-14q35 56 66 96.5t72.5 79.5t90 59.5t103.5 20.5q33 0 53 -4l-22 -148q-121 0 -209.5 -37.5t-153.5 -126.5v-368q0 -117 18 -152q13 -22 47.5 -30.5t124.5 -14.5v-45q-185 8 -262 8q-92 0 -217 -8v45q57 7 84 14.5t39 26.5q21 31 21 158v401q0 84 -3.5 118.5
t-17.5 51.5q-18 21 -115 29v47q130 9 256 53l35 -20q-10 -85 -10 -240z" />
    <glyph glyph-name="s" unicode="s" horiz-adv-x="888" 
d="M412 410q-54 24 -89 41t-73 42.5t-59.5 51t-35.5 61.5t-14 78q0 115 96 188.5t244 73.5q170 0 285 -67l-47 -232h-43l-51 199q-73 37 -160 37q-92 0 -140.5 -43t-48.5 -111q0 -65 50 -105t166 -89q56 -24 91.5 -41.5t76.5 -44.5t64 -54t38.5 -66t15.5 -85
q0 -81 -51.5 -142t-134.5 -91.5t-184 -30.5q-175 0 -297 69l49 240h43l55 -211q80 -35 168 -35q101 0 158 45t57 117q0 31 -11.5 56t-26.5 42.5t-50 38t-60.5 32.5t-80.5 36z" />
    <glyph glyph-name="t" unicode="t" horiz-adv-x="675" 
d="M416 -20q-113 0 -166 60.5t-53 184.5v611h-138v45q96 18 149.5 88.5t80.5 191.5h53v-248l317 13v-90h-317v-545q0 -126 36.5 -173.5t121.5 -47.5q66 0 141 28l21 -51q-130 -67 -246 -67z" />
    <glyph glyph-name="u" unicode="u" horiz-adv-x="1198" 
d="M975 946v-667q0 -53 2 -86.5t10 -59.5t17 -38.5t30.5 -20.5t44 -9.5t62.5 -1.5v-45l-312 -38v143q-78 -69 -153.5 -106t-169.5 -37q-311 0 -311 366v318q0 48 -2 78.5t-9.5 53.5t-16.5 34t-30.5 18t-43 8.5t-60.5 1.5v45l305 43v-561q0 -161 63 -226t181 -65
q131 0 247 86v484q0 48 -2 78.5t-9.5 53.5t-16 34t-29.5 18t-42 8.5t-60 1.5v45z" />
    <glyph glyph-name="v" unicode="v" horiz-adv-x="1019" 
d="M2 881v45q141 -8 205 -8q84 0 196 8v-45q-66 -2 -94 -14.5t-28 -45.5q0 -34 26 -90l240 -528l221 522q20 52 20 82q0 71 -120 74v45q93 -8 168 -8q86 0 182 8v-45q-54 -4 -87.5 -36t-66.5 -106l-334 -739h-45l-327 715q-20 46 -28 62.5t-23.5 43t-28 35t-31.5 16.5t-45 9
z" />
    <glyph glyph-name="w" unicode="w" horiz-adv-x="1593" 
d="M449 0l-289 715q-39 95 -68.5 129t-89.5 37v45q98 -8 178 -8q106 0 223 8v-45q-67 -2 -94.5 -14.5t-27.5 -45.5q0 -31 24 -90l203 -508l293 699h53l281 -697l204 500q25 61 25 92q0 35 -30.5 48.5t-102.5 15.5v45q104 -8 176 -8q88 0 184 8v-45q-52 -3 -87.5 -35
t-67.5 -107l-312 -739h-49l-287 700l-292 -700h-47z" />
    <glyph glyph-name="x" unicode="x" horiz-adv-x="1001" 
d="M375 752l168 -217l125 184q45 68 45 108q0 26 -19 39.5t-61 18.5v41q102 -6 166 -6t166 6v-41q-65 -7 -103.5 -37t-87.5 -100l-190 -267l213 -276q70 -91 103 -120.5t91 -43.5v-41q-73 8 -207 8q-55 0 -186 -8v41q82 6 82 49q0 38 -70 131l-141 182l-133 -184
q-68 -91 -68 -129q0 -43 80 -49v-41q-115 8 -180 8q-74 0 -158 -8v41q66 11 109 42t92 95l217 279l-238 307q-43 58 -78.5 85t-80.5 36v41q114 -6 176 -6q74 0 215 6v-41q-88 -9 -88 -51q0 -33 41 -82z" />
    <glyph glyph-name="y" unicode="y" horiz-adv-x="1064" 
d="M80 -291q36 -8 88 -8q110 0 174 44t102 144l45 113l-317 713q-44 99 -70 129.5t-88 36.5v45q141 -8 199 -8q87 0 215 8v-45q-66 -1 -95.5 -20t-29.5 -56q0 -33 25 -94l243 -547l238 549q20 44 20 78q0 42 -35 65t-100 25v45q117 -8 183 -8q90 0 186 8v-45
q-54 -4 -87.5 -36t-66.5 -106l-350 -786q-56 -128 -100.5 -204.5t-93.5 -122t-98 -61.5t-120 -16q-45 0 -92 7z" />
    <glyph glyph-name="z" unicode="z" horiz-adv-x="970" 
d="M831 0h-727v41l582 819h-414l-102 -217h-43l20 283h719v-43l-581 -817h424l112 217h45z" />
    <glyph glyph-name="braceleft" unicode="{" horiz-adv-x="620" 
d="M86 563v49q99 29 131.5 80t32.5 150v344q0 67 19 118.5t49.5 83t72 52t82.5 28t86 7.5v-43q-103 -17 -144.5 -78.5t-41.5 -173.5v-326q0 -214 -193 -260v-10q93 -20 143 -87t50 -173v-328q0 -113 41.5 -175.5t144.5 -76.5v-43q-57 0 -107.5 13.5t-98 43.5t-75.5 89
t-28 141v348q0 96 -35 147.5t-129 79.5z" />
    <glyph glyph-name="bar" unicode="|" horiz-adv-x="569" 
d="M233 -440v1986h103v-1986h-103z" />
    <glyph glyph-name="braceright" unicode="}" horiz-adv-x="620" 
d="M535 612v-49q-94 -28 -129 -79.5t-35 -147.5v-348q0 -66 -19 -117.5t-49.5 -82.5t-72 -51.5t-82.5 -28t-85 -7.5v43q101 14 143 76.5t42 175.5v328q0 107 49.5 173.5t142.5 86.5v10q-192 45 -192 260v326q0 111 -42 173t-143 79v43q56 0 106.5 -13.5t98 -44t75.5 -90
t28 -141.5v-344q0 -99 32.5 -150t131.5 -80z" />
    <glyph glyph-name="asciitilde" unicode="~" horiz-adv-x="909" 
d="M807 694l67 -37q-99 -200 -251 -200q-51 0 -101.5 25t-84 54.5t-78 54.5t-85.5 25q-49 0 -88 -34.5t-84 -114.5l-67 37q100 201 254 201q42 0 82 -16.5t71 -40t61 -47t64 -40t68 -16.5q49 0 88 34.5t84 114.5z" />
    <glyph glyph-name="nbspace" unicode="&#xa0;" horiz-adv-x="425" 
 />
    <glyph glyph-name="exclamdown" unicode="&#xa1;" horiz-adv-x="608" 
d="M307 985q45 0 77 -33.5t32 -83.5q0 -47 -32 -79.5t-77 -32.5q-47 0 -79.5 32.5t-32.5 79.5q0 51 32 84t80 33zM332 604l69 -823q18 -170 -96 -170t-96 170l70 823h53z" />
    <glyph glyph-name="cent" unicode="&#xa2;" horiz-adv-x="923" 
d="M469 -4v180q-164 11 -264.5 134.5t-100.5 324.5q0 189 96 324t269 169v207h78v-196h37q142 0 264 -66l-62 -266h-43l-51 240q-60 26 -135 26q-141 0 -222 -114t-81 -285q0 -182 82.5 -287.5t226.5 -105.5q162 0 266 129l37 -37q-128 -176 -319 -197v-180h-78z" />
    <glyph glyph-name="sterling" unicode="&#xa3;" horiz-adv-x="980" 
d="M901 0h-838v131q55 14 106 40t98.5 65t76.5 96.5t29 124.5q0 97 -66 209h-241v77h194q-48 75 -74 139t-26 140q0 141 105.5 235.5t283.5 94.5q184 0 352 -109l-47 -268h-43l-57 248q-107 63 -224 63q-109 0 -166 -65.5t-57 -165.5q0 -25 3.5 -48.5t12 -49t15.5 -43.5
t22 -45.5t22.5 -40.5t26.5 -44t25 -41h342v-77h-297q47 -96 47 -185q0 -65 -26 -121t-73.5 -98.5t-99.5 -73t-118 -57.5h592l86 186h45z" />
    <glyph glyph-name="currency" unicode="&#xa4;" horiz-adv-x="946" 
d="M20 1057l58 57l125 -127q116 80 274 80q151 0 266 -78l125 127l58 -57l-123 -123q98 -112 98 -270q0 -156 -104 -269l129 -129l-56 -57l-133 133q-127 -86 -286 -86q-145 0 -252 74l-119 -123l-57 57l116 117q-106 112 -106 283q0 164 108 272zM461 1001q-139 0 -213 -90
t-74 -245q0 -156 74 -247t213 -91q146 0 222.5 90.5t76.5 247.5q0 156 -76.5 245.5t-222.5 89.5z" />
    <glyph glyph-name="yen" unicode="&#xa5;" horiz-adv-x="1290" 
d="M1118 600h-971v80h324l-227 405q-26 47 -38.5 68t-31 46t-30 34t-33.5 20t-43 16t-58 11v51q180 -8 238 -8q148 0 260 8v-51q-71 -13 -105 -30.5t-34 -47.5t34 -90l242 -432h64l247 436q37 63 37 88q0 33 -37 49t-122 27v51q125 -8 249 -8q44 0 197 8v-51
q-82 -17 -109 -31q-47 -26 -86 -92l-288 -477h321v-80zM735 106q14 -26 46 -36.5t104 -18.5v-51q-153 8 -246 8q-89 0 -242 -8v51q71 9 103.5 19t44.5 36q18 30 18 144v145h-416v78h971v-78h-399v-147q0 -113 16 -142z" />
    <glyph glyph-name="brokenbar" unicode="&#xa6;" horiz-adv-x="569" 
d="M336 700h-103v846h103v-846zM233 412h103v-852h-103v852z" />
    <glyph glyph-name="section" unicode="&#xa7;" horiz-adv-x="1124" 
d="M965 -131q0 -162 -128 -271.5t-309 -109.5q-183 0 -387 98l60 322h55l49 -293q127 -61 248 -61q111 0 190.5 73.5t79.5 182.5q0 33 -9 63.5t-22.5 54.5t-39.5 49.5t-48 43.5t-61 41.5t-66.5 39t-74.5 40.5q-10 5 -15 8q-50 27 -76 41.5t-68 39.5t-64 42t-52.5 43
t-46.5 49.5t-32 54t-22.5 64t-6.5 71.5q0 95 46 170.5t134 122.5q-111 100 -111 256t114.5 258t293.5 102t369 -94l-56 -305h-55l-53 283q-118 55 -226 55q-112 0 -181.5 -68t-69.5 -174q0 -57 16.5 -100.5t55 -81t82 -65t118.5 -66.5q177 -92 243 -140q143 -103 163 -237
q4 -24 4 -51q0 -186 -172 -293q131 -108 131 -258zM555 297q160 -84 217 -123q92 70 92 186q0 34 -9.5 65t-23.5 55.5t-41 50.5t-50 44.5t-64 43t-69.5 40t-78.5 41.5q-92 47 -176 105q-98 -67 -98 -193q0 -32 8.5 -61.5t19.5 -51.5t36 -46.5t44 -40t57.5 -39t62.5 -37
t73 -39.5z" />
    <glyph glyph-name="dieresis" unicode="&#xa8;" horiz-adv-x="557" 
d="M459 1087q-43 0 -72 30.5t-29 74.5q0 40 29.5 70t71.5 30q41 0 69.5 -30t28.5 -70q0 -44 -28.5 -74.5t-69.5 -30.5zM100 1087q-41 0 -70.5 30.5t-29.5 74.5q0 40 29.5 70t70.5 30t71 -30t30 -70q0 -44 -29.5 -74.5t-71.5 -30.5z" />
    <glyph glyph-name="copyright" unicode="&#xa9;" 
d="M733 39q-137 0 -258.5 51t-207.5 138.5t-135.5 208t-49.5 255.5q0 177 84.5 325.5t236 236t336.5 87.5q146 0 270 -51.5t208 -139.5t131 -206.5t47 -251.5q0 -181 -84.5 -330t-236.5 -236t-341 -87zM739 96q165 0 297.5 78t206.5 214.5t74 303.5q0 166 -74 302
t-206.5 214t-297.5 78q-166 0 -298.5 -78t-205.5 -213.5t-73 -302.5q0 -125 43 -235.5t118.5 -189.5t183 -125t232.5 -46zM369 676q0 170 115 281.5t290 111.5q130 0 219 -47l-35 -193h-28l-23 152q-63 31 -145 31q-136 0 -208.5 -88.5t-72.5 -235.5q0 -142 75.5 -234
t207.5 -92q65 0 143 29l33 148h27l28 -193q-150 -41 -239 -41q-167 0 -277 103t-110 268z" />
    <glyph glyph-name="ordfeminine" unicode="&#xaa;" horiz-adv-x="645" 
d="M66 1245q119 107 233 107q97 0 153.5 -56.5t55.5 -158.5l-2 -265q-1 -59 18.5 -76.5t79.5 -17.5v-33q-56 -18 -102 -18q-113 0 -113 107v28q-103 -133 -215 -133q-60 0 -96.5 32t-36.5 93q0 171 346 260l6 2q-7 154 -141 154q-77 0 -164 -56zM162 893q0 -38 21 -58
t57 -20q75 0 151 96l2 158q-231 -61 -231 -176z" />
    <glyph glyph-name="guillemotleft" unicode="&#xab;" horiz-adv-x="858" 
d="M719 39l-311 424v24l311 422l41 -24l-203 -410l203 -409zM389 39l-311 424v24l311 422l39 -24l-201 -410l201 -409z" />
    <glyph glyph-name="logicalnot" unicode="&#xac;" horiz-adv-x="909" 
d="M70 711v84h770v-492h-90v408h-680z" />
    <glyph glyph-name="softhyphen" unicode="&#xad;" horiz-adv-x="626" 
d="M561 526h-495v88l495 31v-119z" />
    <glyph glyph-name="registered" unicode="&#xae;" horiz-adv-x="759" 
d="M381 860q-117 0 -198 81.5t-81 197.5q0 114 81 195t198 81q116 0 196 -80.5t80 -195.5q0 -116 -80.5 -197.5t-195.5 -81.5zM381 895q100 0 170 71.5t70 172.5q0 100 -70.5 171.5t-169.5 71.5q-101 0 -171.5 -71.5t-70.5 -171.5q0 -101 70.5 -172.5t171.5 -71.5zM522 1010
v-13h-71l-76 125h-37v-61q0 -38 4 -41q7 -7 31 -10v-13h-117v13q24 3 31 10q4 4 4 41v158q0 32 -2 36q-7 11 -33 11v14h113q54 0 85 -18.5t31 -51.5q0 -58 -69 -77l59 -93q14 -21 47 -30zM338 1257v-110q6 -2 20 -2q78 0 78 59q0 53 -71 53h-27z" />
    <glyph glyph-name="macron" unicode="&#xaf;" horiz-adv-x="526" 
d="M0 1141v88h526v-88h-526z" />
    <glyph glyph-name="degree" unicode="&#xb0;" horiz-adv-x="569" 
d="M291 1413q98 0 158.5 -59t60.5 -150q0 -90 -66 -150.5t-168 -60.5q-97 0 -157 60t-60 151t65 150t167 59zM283 1368q-66 0 -103 -47t-37 -117t37 -118t103 -48q68 0 104.5 47.5t36.5 118.5q0 70 -36 117t-105 47z" />
    <glyph glyph-name="plusminus" unicode="&#xb1;" horiz-adv-x="909" 
d="M410 406v292h-369v82h369v289h92v-289h366v-82h-366v-292h-92zM41 184v82h827v-82h-827z" />
    <glyph glyph-name="twosuperior" unicode="&#xb2;" horiz-adv-x="522" 
d="M45 1366l-31 27q34 66 92.5 104.5t137.5 38.5q95 0 155 -53t60 -142q0 -43 -13 -80.5t-42 -74.5t-52 -60t-67 -63l-156 -139h233q41 0 55.5 16t28.5 68h39l-16 -181h-457v35l150 160q103 115 137.5 172t34.5 119q0 65 -37 102t-100 37q-96 0 -152 -86z" />
    <glyph glyph-name="threesuperior" unicode="&#xb3;" horiz-adv-x="577" 
d="M506 1499l-234 -276h23q102 0 168.5 -48.5t66.5 -138.5q0 -102 -86.5 -161.5t-214.5 -59.5q-97 0 -170 39l37 152h31l41 -140q38 -10 70 -10q78 0 123 41.5t45 116.5q0 77 -47 117t-117 40q-31 0 -49 -6l-15 23l199 237h-172q-44 0 -60.5 -16.5t-27.5 -65.5h-35l10 185
h412z" />
    <glyph glyph-name="acute" unicode="&#xb4;" horiz-adv-x="296" 
d="M160 1393h123l14 -29l-262 -322l-35 25z" />
    <glyph glyph-name="micro" unicode="&#xb5;" horiz-adv-x="1228" 
d="M498 -20q-186 0 -258 135q86 -256 86 -553h-140v1364h144v-541q0 -161 62.5 -226t180.5 -65q132 0 248 86v746h144v-736q0 -92 30 -118.5t121 -26.5v-41q-74 -24 -137 -24q-147 0 -158 143q-78 -69 -153.5 -106t-169.5 -37z" />
    <glyph glyph-name="paragraph" unicode="&#xb6;" horiz-adv-x="980" 
d="M592 1167h332v-51q-75 -6 -111 -17t-53 -34q-16 -24 -19.5 -61.5t-3.5 -122.5v-615q0 -195 -39 -331.5t-138 -244t-269 -182.5l-31 54q181 94 258.5 253.5t77.5 420.5v141l-4 -29q-240 -2 -383 105.5t-143 300.5q0 182 133.5 297.5t392.5 115.5z" />
    <glyph glyph-name="periodcentered" unicode="&#xb7;" horiz-adv-x="409" 
d="M207 586q-48 0 -80.5 33t-32.5 83q0 47 33 80t80 33q44 0 76 -33t32 -80q0 -50 -31.5 -83t-76.5 -33z" />
    <glyph glyph-name="cedilla" unicode="&#xb8;" horiz-adv-x="217" 
d="M0 -416q58 23 89.5 52.5t31.5 60.5q0 27 -48 88t-48 96q0 76 102 158h45q-55 -62 -55 -127q0 -23 25 -53t50 -64t25 -67q0 -56 -56 -101t-147 -73z" />
    <glyph glyph-name="onesuperior" unicode="&#xb9;" horiz-adv-x="411" 
d="M279 895q6 -13 23.5 -18.5t62.5 -12.5v-37q-70 4 -170 4q-68 0 -140 -4v37q44 6 61.5 11.5t24.5 17.5q11 11 11 65v396q0 54 -18.5 67t-104.5 19v37l221 51h18v-567q0 -44 11 -66z" />
    <glyph glyph-name="ordmasculine" unicode="&#xba;" horiz-adv-x="690" 
d="M340 727q-130 0 -214.5 79t-84.5 216q0 145 90 237.5t219 92.5q132 0 215.5 -81.5t83.5 -221.5q0 -143 -89 -232.5t-220 -89.5zM348 774q82 0 127 68.5t45 185.5q0 118 -44.5 197.5t-131.5 79.5q-82 0 -127 -70t-45 -186q0 -118 44.5 -196.5t131.5 -78.5z" />
    <glyph glyph-name="guillemotright" unicode="&#xbb;" horiz-adv-x="858" 
d="M137 909l312 -422v-24l-312 -424l-39 27l201 409l-201 410zM469 909l311 -422v-24l-311 -424l-41 27l203 409l-203 410z" />
    <glyph glyph-name="onequarter" unicode="&#xbc;" horiz-adv-x="1304" 
d="M174 -4l854 1376l55 -35l-854 -1378zM352 709q6 -13 23.5 -18.5t62.5 -12.5v-37q-70 4 -170 4q-69 0 -139 -4v37q44 6 61.5 12t24.5 17q10 13 10 65v395q0 55 -18 67.5t-105 18.5v37l222 51h18v-567q0 -45 10 -65zM1192 174l-107 12v-22q0 -87 9 -105q7 -11 20.5 -14.5
t44.5 -7.5v-35q-55 4 -137 4q-74 0 -129 -4v35q53 6 63 20q11 18 11 80v49h-320v25l377 491h61v-469h117zM967 233v316l-244 -318z" />
    <glyph glyph-name="onehalf" unicode="&#xbd;" horiz-adv-x="1308" 
d="M174 -4l854 1376l55 -35l-854 -1378zM352 709q6 -13 23.5 -18.5t62.5 -12.5v-37q-70 4 -170 4q-69 0 -139 -4v37q44 6 61.5 12t24.5 17q10 13 10 65v395q0 55 -18 67.5t-105 18.5v37l222 51h18v-567q0 -45 10 -65zM764 539l-31 26q35 66 94 105t136 39q97 0 157 -52.5
t60 -142.5q0 -34 -11 -67.5t-23.5 -56.5t-41.5 -56t-44.5 -48t-53.5 -50l-156 -140h231q41 0 55.5 16t28.5 68h41l-18 -180h-457v35l150 160q104 114 138 171t34 119q0 65 -37.5 102.5t-100.5 37.5q-92 0 -151 -86z" />
    <glyph glyph-name="threequarters" unicode="&#xbe;" horiz-adv-x="1396" 
d="M270 -4l854 1376l54 -35l-854 -1378zM571 1303l-239 -265h18q101 0 166.5 -46.5t65.5 -133.5q0 -105 -90 -166t-222 -61q-98 0 -168 39l41 151h33l35 -139q38 -10 70 -10q81 0 128.5 44t47.5 122q0 73 -46.5 111t-115.5 38q-32 0 -47 -6l-17 23l205 225h-170
q-44 0 -60.5 -16.5t-29.5 -65.5h-35l19 184h411v-28zM1284 172l-106 12v-22q0 -89 10 -105t63 -22v-35q-53 4 -135 4q-76 0 -129 -4v35q55 7 64 20q10 16 10 80v49h-322v25l377 491h62v-469h116zM1061 231v320l-246 -322z" />
    <glyph glyph-name="questiondown" unicode="&#xbf;" horiz-adv-x="854" 
d="M514 981q50 0 84.5 -33.5t34.5 -83.5q0 -47 -34.5 -79.5t-84.5 -32.5q-49 0 -83 32.5t-34 79.5q0 51 33.5 84t83.5 33zM702 -16h43l60 -295q-160 -80 -346 -80q-195 0 -299.5 68.5t-104.5 203.5q0 58 20.5 108t54.5 88.5t75.5 76t85.5 80.5t82 92t67.5 119.5t40.5 154.5
h58v-33q0 -98 -34 -180.5t-82 -139t-96 -107t-82 -109t-34 -121.5q0 -102 71 -169t203 -67q80 0 146 31z" />
    <glyph glyph-name="Agrave" unicode="&#xc0;" horiz-adv-x="1372" 
d="M338 1649l2 32l113 50l268 -238l-27 -37zM709 1393l467 -1170q3 -6 8 -19q22 -52 31.5 -71.5t29.5 -39.5t43.5 -26.5t71.5 -15.5v-51q-132 8 -246 8q-61 0 -225 -8v51q93 15 114 28q27 16 27 54q0 57 -51 182l-43 109h-567l-66 -168q-33 -88 -33 -131q0 -25 18.5 -39.5
t37.5 -19t69 -11.5q8 -1 13.5 -2t11.5 -2v-51q-176 8 -227 8q-49 0 -181 -8v51q83 15 111.5 40.5t66.5 119.5l472 1182h47zM397 496h510l-258 647z" />
    <glyph glyph-name="Aacute" unicode="&#xc1;" horiz-adv-x="1372" 
d="M920 1731l112 -50l2 -32l-356 -193l-27 37zM709 1393l467 -1170q3 -6 8 -19q22 -52 31.5 -71.5t29.5 -39.5t43.5 -26.5t71.5 -15.5v-51q-132 8 -246 8q-61 0 -225 -8v51q93 15 114 28q27 16 27 54q0 57 -51 182l-43 109h-567l-66 -168q-33 -88 -33 -131q0 -25 18.5 -39.5
t37.5 -19t69 -11.5q8 -1 13.5 -2t11.5 -2v-51q-176 8 -227 8q-49 0 -181 -8v51q83 15 111.5 40.5t66.5 119.5l472 1182h47zM397 496h510l-258 647z" />
    <glyph glyph-name="Acircumflex" unicode="&#xc2;" horiz-adv-x="1372" 
d="M705 1702l251 -215l-22 -31l-244 119l-256 -119l-20 31l252 215h39zM709 1393l467 -1170q3 -6 8 -19q22 -52 31.5 -71.5t29.5 -39.5t43.5 -26.5t71.5 -15.5v-51q-132 8 -246 8q-61 0 -225 -8v51q93 15 114 28q27 16 27 54q0 57 -51 182l-43 109h-567l-66 -168
q-33 -88 -33 -131q0 -25 18.5 -39.5t37.5 -19t69 -11.5q8 -1 13.5 -2t11.5 -2v-51q-176 8 -227 8q-49 0 -181 -8v51q83 15 111.5 40.5t66.5 119.5l472 1182h47zM397 496h510l-258 647z" />
    <glyph glyph-name="Atilde" unicode="&#xc3;" horiz-adv-x="1372" 
d="M457 1475l-49 18q39 170 172 170q55 0 136.5 -39t108.5 -39q60 0 99 92l47 -16q-21 -84 -65.5 -128t-102.5 -44q-51 0 -130.5 39t-113.5 39q-33 0 -57 -21t-45 -71zM709 1393l467 -1170q3 -6 8 -19q22 -52 31.5 -71.5t29.5 -39.5t43.5 -26.5t71.5 -15.5v-51
q-132 8 -246 8q-61 0 -225 -8v51q93 15 114 28q27 16 27 54q0 57 -51 182l-43 109h-567l-66 -168q-33 -88 -33 -131q0 -25 18.5 -39.5t37.5 -19t69 -11.5q8 -1 13.5 -2t11.5 -2v-51q-176 8 -227 8q-49 0 -181 -8v51q83 15 111.5 40.5t66.5 119.5l472 1182h47zM397 496h510
l-258 647z" />
    <glyph glyph-name="Adieresis" unicode="&#xc4;" horiz-adv-x="1372" 
d="M864 1475q-41 0 -70.5 30.5t-29.5 73.5q0 40 29.5 70t70.5 30t71 -30t30 -70q0 -43 -30 -73.5t-71 -30.5zM508 1475q-43 0 -72.5 30.5t-29.5 73.5q0 40 30 70t72 30q40 0 69 -30t29 -70q0 -43 -29 -73.5t-69 -30.5zM709 1393l467 -1170q3 -6 8 -19q22 -52 31.5 -71.5
t29.5 -39.5t43.5 -26.5t71.5 -15.5v-51q-132 8 -246 8q-61 0 -225 -8v51q93 15 114 28q27 16 27 54q0 57 -51 182l-43 109h-567l-66 -168q-33 -88 -33 -131q0 -25 18.5 -39.5t37.5 -19t69 -11.5q8 -1 13.5 -2t11.5 -2v-51q-176 8 -227 8q-49 0 -181 -8v51q83 15 111.5 40.5
t66.5 119.5l472 1182h47zM397 496h510l-258 647z" />
    <glyph glyph-name="Aring" unicode="&#xc5;" horiz-adv-x="1372" 
d="M686 1866q82 0 139.5 -57t57.5 -140q0 -80 -57.5 -137t-139.5 -57q-79 0 -135.5 57t-56.5 137q0 83 56 140t136 57zM686 1810q-57 0 -96 -40t-39 -101q0 -59 39 -99t96 -40t98 40.5t41 98.5q0 61 -40.5 101t-98.5 40zM709 1393l467 -1170q3 -6 8 -19q22 -52 31.5 -71.5
t29.5 -39.5t43.5 -26.5t71.5 -15.5v-51q-132 8 -246 8q-61 0 -225 -8v51q93 15 114 28q27 16 27 54q0 57 -51 182l-43 109h-567l-66 -168q-33 -88 -33 -131q0 -25 18.5 -39.5t37.5 -19t69 -11.5q8 -1 13.5 -2t11.5 -2v-51q-176 8 -227 8q-49 0 -181 -8v51q83 15 111.5 40.5
t66.5 119.5l472 1182h47zM397 496h510l-258 647z" />
    <glyph glyph-name="AE" unicode="&#xc6;" horiz-adv-x="1933" 
d="M1673 72l129 321h56l-39 -393h-1031v51q69 8 101.5 19t46.5 36q14 24 18 68t4 135v187h-456l-158 -260q-39 -59 -39 -101q0 -35 38.5 -54t125.5 -30v-51q-180 8 -229 8q-102 0 -228 -8v51q81 15 119 43t88 109l739 1190h828l20 -353h-57l-111 281h-526v-573h234
q43 0 71.5 3t49.5 11t33.5 20t22 31.5t16.5 43.5t15 59q3 15 5 22h53v-455h-53q-26 104 -38 128q-23 45 -82 56q-35 7 -93 7h-234v-602h561zM547 567h411v678z" />
    <glyph glyph-name="Ccedilla" unicode="&#xc7;" horiz-adv-x="1302" 
d="M90 678q0 156 52 291.5t145 234t228.5 155t295.5 56.5q206 0 401 -92l-59 -377h-55l-60 346q-104 51 -239 51q-123 0 -226 -52t-170.5 -140.5t-105 -203.5t-37.5 -242q0 -134 35 -251t101.5 -207.5t172 -143t236.5 -52.5q122 0 237 43l56 336h55l57 -375
q-198 -69 -397 -75q-27 -46 -27 -86q0 -23 25 -53t50.5 -64.5t25.5 -67.5q0 -54 -56 -99.5t-147 -74.5l-12 33q121 49 121 110q0 27 -48.5 88.5t-48.5 96.5q0 62 58 117q-312 8 -488 192.5t-176 505.5z" />
    <glyph glyph-name="Egrave" unicode="&#xc8;" horiz-adv-x="1228" 
d="M319 1649l3 32l110 50l268 -238l-24 -37zM969 72l131 323h53l-39 -395h-1032v51q69 8 101 19t46 36q23 40 23 203v774q0 100 -5 145.5t-24 69.5q-17 20 -49 29t-92 14v52h999l21 -355h-55l-111 283h-528v-561h237q50 0 81.5 5t52.5 15.5t33 31t20 46.5t18 67l6 27h53
v-458h-53q-26 106 -37 128q-22 46 -77 58q-35 8 -97 8h-237v-616h561z" />
    <glyph glyph-name="Eacute" unicode="&#xc9;" horiz-adv-x="1228" 
d="M901 1731l111 -50l4 -32l-359 -193l-24 37zM969 72l131 323h53l-39 -395h-1032v51q69 8 101 19t46 36q23 40 23 203v774q0 100 -5 145.5t-24 69.5q-17 20 -49 29t-92 14v52h999l21 -355h-55l-111 283h-528v-561h237q50 0 81.5 5t52.5 15.5t33 31t20 46.5t18 67l6 27h53
v-458h-53q-26 106 -37 128q-22 46 -77 58q-35 8 -97 8h-237v-616h561z" />
    <glyph glyph-name="Ecircumflex" unicode="&#xca;" horiz-adv-x="1228" 
d="M686 1702l252 -215l-23 -31l-245 119l-254 -119l-23 31l254 215h39zM969 72l131 323h53l-39 -395h-1032v51q69 8 101 19t46 36q23 40 23 203v774q0 100 -5 145.5t-24 69.5q-17 20 -49 29t-92 14v52h999l21 -355h-55l-111 283h-528v-561h237q50 0 81.5 5t52.5 15.5t33 31
t20 46.5t18 67l6 27h53v-458h-53q-26 106 -37 128q-22 46 -77 58q-35 8 -97 8h-237v-616h561z" />
    <glyph glyph-name="Edieresis" unicode="&#xcb;" horiz-adv-x="1228" 
d="M846 1475q-42 0 -71.5 30.5t-29.5 73.5q0 40 29.5 70t71.5 30q41 0 69.5 -30t28.5 -70q0 -43 -28.5 -73.5t-69.5 -30.5zM487 1475q-41 0 -70.5 30.5t-29.5 73.5q0 40 29.5 70t70.5 30t71 -30t30 -70q0 -43 -30 -73.5t-71 -30.5zM969 72l131 323h53l-39 -395h-1032v51
q69 8 101 19t46 36q23 40 23 203v774q0 100 -5 145.5t-24 69.5q-17 20 -49 29t-92 14v52h999l21 -355h-55l-111 283h-528v-561h237q50 0 81.5 5t52.5 15.5t33 31t20 46.5t18 67l6 27h53v-458h-53q-26 106 -37 128q-22 46 -77 58q-35 8 -97 8h-237v-616h561z" />
    <glyph glyph-name="Igrave" unicode="&#xcc;" horiz-adv-x="649" 
d="M-23 1649l3 32l112 50l268 -238l-24 -37zM403 1145v-897q0 -112 17 -142q14 -26 45.5 -36.5t103.5 -18.5v-51q-153 8 -243 8q-91 0 -244 -8v51q70 8 101.5 18.5t45.5 36.5q17 33 17 144v893q0 110 -17 143q-14 26 -45.5 36.5t-101.5 18.5v52q172 -9 244 -9q70 0 243 9
v-52q-72 -8 -103.5 -18.5t-45.5 -36.5q-17 -30 -17 -141z" />
    <glyph glyph-name="Iacute" unicode="&#xcd;" horiz-adv-x="649" 
d="M559 1731l113 -50l2 -32l-357 -193l-26 37zM403 1145v-897q0 -112 17 -142q14 -26 45.5 -36.5t103.5 -18.5v-51q-153 8 -243 8q-91 0 -244 -8v51q70 8 101.5 18.5t45.5 36.5q17 33 17 144v893q0 110 -17 143q-14 26 -45.5 36.5t-101.5 18.5v52q172 -9 244 -9q70 0 243 9
v-52q-72 -8 -103.5 -18.5t-45.5 -36.5q-17 -30 -17 -141z" />
    <glyph glyph-name="Icircumflex" unicode="&#xce;" horiz-adv-x="649" 
d="M346 1702l252 -215l-23 -31l-245 119l-254 -119l-23 31l254 215h39zM403 1145v-897q0 -112 17 -142q14 -26 45.5 -36.5t103.5 -18.5v-51q-153 8 -243 8q-91 0 -244 -8v51q70 8 101.5 18.5t45.5 36.5q17 33 17 144v893q0 110 -17 143q-14 26 -45.5 36.5t-101.5 18.5v52
q172 -9 244 -9q70 0 243 9v-52q-72 -8 -103.5 -18.5t-45.5 -36.5q-17 -30 -17 -141z" />
    <glyph glyph-name="Idieresis" unicode="&#xcf;" horiz-adv-x="649" 
d="M506 1475q-43 0 -73 30.5t-30 73.5q0 40 30.5 70t72.5 30q40 0 69 -30t29 -70q0 -43 -29 -73.5t-69 -30.5zM147 1475q-43 0 -72.5 30.5t-29.5 73.5q0 40 30 70t72 30q40 0 69.5 -30t29.5 -70q0 -43 -29.5 -73.5t-69.5 -30.5zM403 1145v-897q0 -112 17 -142
q14 -26 45.5 -36.5t103.5 -18.5v-51q-153 8 -243 8q-91 0 -244 -8v51q70 8 101.5 18.5t45.5 36.5q17 33 17 144v893q0 110 -17 143q-14 26 -45.5 36.5t-101.5 18.5v52q172 -9 244 -9q70 0 243 9v-52q-72 -8 -103.5 -18.5t-45.5 -36.5q-17 -30 -17 -141z" />
    <glyph glyph-name="Eth" unicode="&#xd0;" 
d="M59 672v76h187v335q0 100 -5 145.5t-22 69.5q-16 21 -46.5 29.5t-90.5 13.5v52h557q357 0 552 -167t195 -495q0 -158 -55 -292.5t-154.5 -231.5t-246.5 -152t-324 -55h-524v51q66 8 97.5 19t45.5 36q14 24 17.5 66.5t3.5 136.5v363h-187zM403 66h211q279 0 442 168
t163 456q0 635 -607 635h-209v-577h388v-76h-388v-606z" />
    <glyph glyph-name="Ntilde" unicode="&#xd1;" horiz-adv-x="1523" 
d="M532 1475l-49 18q39 170 172 170q55 0 137 -39t109 -39q59 0 98 92l48 -16q-21 -84 -65.5 -128t-102.5 -44q-51 0 -130.5 39t-113.5 39q-33 0 -57.5 -21t-45.5 -71zM1253 1384q5 0 189 9v-52q-69 -10 -94.5 -19.5t-38.5 -35.5q-17 -33 -17 -207v-1079h-53l-915 1188
l2 -873q0 -101 2.5 -143.5t13.5 -65.5q13 -27 47.5 -36.5t145.5 -18.5v-51q-58 2 -114 4t-86.5 3t-53.5 1q-35 0 -199 -8v51q66 10 92 18.5t37 30.5q13 23 16.5 68.5t3.5 146.5v762v66.5t-2 52t-2 42t-7 31t-8.5 23.5t-15 16t-18 12t-25.5 8t-31 7t-40 6v52h276l840 -1102
v786q0 101 -3.5 146.5t-16.5 68.5q-12 22 -47 31t-142 18v52q69 -2 152 -5.5t112 -3.5z" />
    <glyph glyph-name="Ograve" unicode="&#xd2;" 
d="M391 1671l2 33l113 49l266 -237l-24 -35zM739 -20q-148 0 -272 56t-205.5 151.5t-126.5 222t-45 268.5q0 108 26.5 213.5t81 200t130.5 166.5t182 114.5t229 42.5q126 0 233 -39.5t182 -107t128 -157t78.5 -190t25.5 -206.5q0 -144 -42 -274.5t-121 -234t-204.5 -165
t-279.5 -61.5zM743 51q213 0 345.5 172t132.5 459q0 291 -134.5 476t-347.5 185q-216 0 -348.5 -166t-132.5 -452q0 -192 61 -345.5t172 -241t252 -87.5z" />
    <glyph glyph-name="Oacute" unicode="&#xd3;" 
d="M973 1753l110 -49l4 -33l-358 -190l-24 35zM739 -20q-148 0 -272 56t-205.5 151.5t-126.5 222t-45 268.5q0 108 26.5 213.5t81 200t130.5 166.5t182 114.5t229 42.5q126 0 233 -39.5t182 -107t128 -157t78.5 -190t25.5 -206.5q0 -144 -42 -274.5t-121 -234t-204.5 -165
t-279.5 -61.5zM743 51q213 0 345.5 172t132.5 459q0 291 -134.5 476t-347.5 185q-216 0 -348.5 -166t-132.5 -452q0 -192 61 -345.5t172 -241t252 -87.5z" />
    <glyph glyph-name="Ocircumflex" unicode="&#xd4;" 
d="M758 1724l252 -215l-23 -30l-246 118l-254 -118l-22 30l254 215h39zM739 -20q-148 0 -272 56t-205.5 151.5t-126.5 222t-45 268.5q0 108 26.5 213.5t81 200t130.5 166.5t182 114.5t229 42.5q126 0 233 -39.5t182 -107t128 -157t78.5 -190t25.5 -206.5q0 -144 -42 -274.5
t-121 -234t-204.5 -165t-279.5 -61.5zM743 51q213 0 345.5 172t132.5 459q0 291 -134.5 476t-347.5 185q-216 0 -348.5 -166t-132.5 -452q0 -192 61 -345.5t172 -241t252 -87.5z" />
    <glyph glyph-name="Otilde" unicode="&#xd5;" 
d="M510 1497l-49 21q39 168 170 168q55 0 138 -39t110 -39q59 0 96 92l47 -17q-20 -83 -64 -127.5t-102 -44.5q-51 0 -130.5 39t-113.5 39q-33 0 -57 -21t-45 -71zM739 -20q-148 0 -272 56t-205.5 151.5t-126.5 222t-45 268.5q0 108 26.5 213.5t81 200t130.5 166.5
t182 114.5t229 42.5q126 0 233 -39.5t182 -107t128 -157t78.5 -190t25.5 -206.5q0 -144 -42 -274.5t-121 -234t-204.5 -165t-279.5 -61.5zM743 51q213 0 345.5 172t132.5 459q0 291 -134.5 476t-347.5 185q-216 0 -348.5 -166t-132.5 -452q0 -192 61 -345.5t172 -241
t252 -87.5z" />
    <glyph glyph-name="Odieresis" unicode="&#xd6;" 
d="M918 1497q-42 0 -71.5 31t-29.5 74q0 40 29.5 70t71.5 30q41 0 69.5 -30t28.5 -70q0 -43 -28.5 -74t-69.5 -31zM559 1497q-41 0 -70.5 31t-29.5 74q0 40 29.5 70t70.5 30t70.5 -30t29.5 -70q0 -43 -29.5 -74t-70.5 -31zM739 -20q-148 0 -272 56t-205.5 151.5t-126.5 222
t-45 268.5q0 108 26.5 213.5t81 200t130.5 166.5t182 114.5t229 42.5q126 0 233 -39.5t182 -107t128 -157t78.5 -190t25.5 -206.5q0 -144 -42 -274.5t-121 -234t-204.5 -165t-279.5 -61.5zM743 51q213 0 345.5 172t132.5 459q0 291 -134.5 476t-347.5 185
q-216 0 -348.5 -166t-132.5 -452q0 -192 61 -345.5t172 -241t252 -87.5z" />
    <glyph glyph-name="multiply" unicode="&#xd7;" horiz-adv-x="909" 
d="M840 250l-58 -60l-327 328l-328 -328l-57 60l327 328l-331 329l59 60l330 -332l329 330l60 -58l-330 -329z" />
    <glyph glyph-name="Oslash" unicode="&#xd8;" 
d="M1386 711q0 -144 -42 -274t-122 -232.5t-207.5 -163.5t-285.5 -61q-151 0 -276 61q-30 -59 -77 -147.5t-61 -116.5q-28 12 -82 39q43 80 140 270q-134 95 -208.5 252.5t-74.5 343.5q0 137 43.5 266t124 234t209 169t285.5 64q152 0 274 -61q113 220 141 272q5 -2 38 -19
t42 -20q-116 -225 -143 -278q136 -95 209 -256.5t73 -341.5zM258 723q0 -163 45 -299t127 -227q439 853 551 1067q-108 79 -244 79q-214 0 -346.5 -167t-132.5 -453zM743 51q213 0 345.5 171.5t132.5 457.5q0 163 -45 297.5t-127 224.5q-189 -369 -549 -1069
q108 -82 243 -82z" />
    <glyph glyph-name="Ugrave" unicode="&#xd9;" horiz-adv-x="1404" 
d="M379 1649l2 32l113 50l268 -238l-25 -37zM1214 1096v-498q0 -314 -122.5 -466t-389.5 -152q-139 0 -238.5 43t-157.5 127.5t-84.5 197t-26.5 262.5v533q0 110 -17 143q-14 26 -45 36.5t-100 18.5v52q169 -9 239 -9q71 0 244 9v-52q-71 -8 -102 -18.5t-45 -36.5
q-17 -30 -17 -141v-510q0 -273 91.5 -416t299.5 -143q194 0 283.5 117.5t89.5 363.5v539q0 150 -16 188q-12 28 -42 38t-100 19v52q147 -9 213 -9q51 0 201 9v-52q-70 -10 -97.5 -19.5t-41.5 -33.5q-19 -37 -19 -192z" />
    <glyph glyph-name="Uacute" unicode="&#xda;" horiz-adv-x="1404" 
d="M961 1731l112 -50l2 -32l-356 -193l-27 37zM1214 1096v-498q0 -314 -122.5 -466t-389.5 -152q-139 0 -238.5 43t-157.5 127.5t-84.5 197t-26.5 262.5v533q0 110 -17 143q-14 26 -45 36.5t-100 18.5v52q169 -9 239 -9q71 0 244 9v-52q-71 -8 -102 -18.5t-45 -36.5
q-17 -30 -17 -141v-510q0 -273 91.5 -416t299.5 -143q194 0 283.5 117.5t89.5 363.5v539q0 150 -16 188q-12 28 -42 38t-100 19v52q147 -9 213 -9q51 0 201 9v-52q-70 -10 -97.5 -19.5t-41.5 -33.5q-19 -37 -19 -192z" />
    <glyph glyph-name="Ucircumflex" unicode="&#xdb;" horiz-adv-x="1404" 
d="M748 1702l251 -215l-22 -31l-246 119l-254 -119l-22 31l254 215h39zM1214 1096v-498q0 -314 -122.5 -466t-389.5 -152q-139 0 -238.5 43t-157.5 127.5t-84.5 197t-26.5 262.5v533q0 110 -17 143q-14 26 -45 36.5t-100 18.5v52q169 -9 239 -9q71 0 244 9v-52
q-71 -8 -102 -18.5t-45 -36.5q-17 -30 -17 -141v-510q0 -273 91.5 -416t299.5 -143q194 0 283.5 117.5t89.5 363.5v539q0 150 -16 188q-12 28 -42 38t-100 19v52q147 -9 213 -9q51 0 201 9v-52q-70 -10 -97.5 -19.5t-41.5 -33.5q-19 -37 -19 -192z" />
    <glyph glyph-name="Udieresis" unicode="&#xdc;" horiz-adv-x="1404" 
d="M907 1475q-43 0 -72.5 30.5t-29.5 73.5q0 40 30 70t72 30q40 0 69.5 -30t29.5 -70q0 -43 -29.5 -73.5t-69.5 -30.5zM549 1475q-43 0 -73 30.5t-30 73.5q0 40 30.5 70t72.5 30q40 0 69 -30t29 -70q0 -43 -29 -73.5t-69 -30.5zM1214 1096v-498q0 -314 -122.5 -466
t-389.5 -152q-139 0 -238.5 43t-157.5 127.5t-84.5 197t-26.5 262.5v533q0 110 -17 143q-14 26 -45 36.5t-100 18.5v52q169 -9 239 -9q71 0 244 9v-52q-71 -8 -102 -18.5t-45 -36.5q-17 -30 -17 -141v-510q0 -273 91.5 -416t299.5 -143q194 0 283.5 117.5t89.5 363.5v539
q0 150 -16 188q-12 28 -42 38t-100 19v52q147 -9 213 -9q51 0 201 9v-52q-70 -10 -97.5 -19.5t-41.5 -33.5q-19 -37 -19 -192z" />
    <glyph glyph-name="Yacute" unicode="&#xdd;" horiz-adv-x="1290" 
d="M905 1731l113 -50l2 -32l-356 -193l-27 37zM1085 1219l-366 -609v-362q0 -113 16 -142q14 -26 46 -36.5t104 -18.5v-51q-153 8 -246 8q-89 0 -242 -8v51q71 9 103.5 19t44.5 36q18 30 18 144v332l-319 565q-26 46 -38.5 67.5t-31 46.5t-30 33.5t-33.5 20t-43 16t-58 10.5
v52q202 -9 238 -9q134 0 260 9v-52q-72 -13 -105.5 -30t-33.5 -47t34 -90l275 -488l283 492q36 61 36 88q0 33 -37 48t-122 27v52q141 -9 245 -9q25 0 197 9v-52q-82 -17 -108 -30q-47 -24 -87 -92z" />
    <glyph glyph-name="Thorn" unicode="&#xde;" horiz-adv-x="1159" 
d="M403 1145v-8h172q259 0 393 -103.5t134 -281.5q0 -196 -168 -315.5t-440 -119.5h-91v-69q0 -112 17 -142q14 -26 45.5 -36.5t103.5 -18.5v-51q-153 8 -243 8q-91 0 -244 -8v51q70 8 101.5 18.5t45.5 36.5q17 33 17 144v893q0 110 -17 143q-14 26 -45.5 36.5t-101.5 18.5
v52q172 -9 244 -9q70 0 243 9v-52q-72 -8 -103.5 -18.5t-45.5 -36.5q-17 -30 -17 -141zM547 1071h-144v-678q49 -8 111 -8q198 0 310 93t112 253q0 152 -100 246t-289 94z" />
    <glyph glyph-name="germandbls" unicode="&#xdf;" horiz-adv-x="1185" 
d="M754 805q0 -59 34.5 -112t83.5 -95.5t97.5 -86.5t83 -104.5t34.5 -130.5q0 -74 -32 -134t-87.5 -98.5t-123.5 -61.5t-148 -31l-6 47q111 17 185.5 76t74.5 162q0 45 -24.5 89t-62 78.5t-80.5 74t-80.5 76t-62 84.5t-24.5 99q0 78 64.5 147.5t187.5 149.5
q-14 375 -252 375q-117 0 -180 -123t-63 -330v-647q0 -109 3 -152.5t15 -66.5q12 -21 39.5 -29.5t87.5 -15.5v-45q-125 8 -217 8t-217 -8v45q57 7 84 14.5t41 26.5q20 34 20 158v594v14h-141v51l143 19q17 259 128 406t290 147q69 0 130.5 -23t113.5 -70t82.5 -130.5
t30.5 -194.5q-134 -86 -168 -113q-84 -68 -84 -139z" />
    <glyph glyph-name="agrave" unicode="&#xe0;" horiz-adv-x="1013" 
d="M215 1368l14 29h123l160 -324l-35 -24zM129 776q75 81 158.5 125.5t195.5 44.5q149 0 234.5 -84.5t85.5 -247.5l-2 -424q0 -92 30 -118.5t121 -26.5v-41q-74 -24 -137 -24q-156 0 -156 163v56q-76 -104 -158 -161.5t-184 -57.5q-95 0 -155 53.5t-60 146.5
q0 136 141.5 240t418.5 162q-2 120 -58.5 190t-177.5 70q-148 0 -264 -101zM248 223q0 -59 36 -97t103 -38q143 0 272 184l3 244q-193 -42 -303.5 -115.5t-110.5 -177.5z" />
    <glyph glyph-name="aacute" unicode="&#xe1;" horiz-adv-x="1013" 
d="M614 1397h123l15 -29l-260 -319l-35 24zM129 776q75 81 158.5 125.5t195.5 44.5q149 0 234.5 -84.5t85.5 -247.5l-2 -424q0 -92 30 -118.5t121 -26.5v-41q-74 -24 -137 -24q-156 0 -156 163v56q-76 -104 -158 -161.5t-184 -57.5q-95 0 -155 53.5t-60 146.5
q0 136 141.5 240t418.5 162q-2 120 -58.5 190t-177.5 70q-148 0 -264 -101zM248 223q0 -59 36 -97t103 -38q143 0 272 184l3 244q-193 -42 -303.5 -115.5t-110.5 -177.5z" />
    <glyph glyph-name="acircumflex" unicode="&#xe2;" horiz-adv-x="1013" 
d="M500 1372l256 -287l-27 -34l-246 188l-247 -188l-25 34l256 287h33zM129 776q75 81 158.5 125.5t195.5 44.5q149 0 234.5 -84.5t85.5 -247.5l-2 -424q0 -92 30 -118.5t121 -26.5v-41q-74 -24 -137 -24q-156 0 -156 163v56q-76 -104 -158 -161.5t-184 -57.5
q-95 0 -155 53.5t-60 146.5q0 136 141.5 240t418.5 162q-2 120 -58.5 190t-177.5 70q-148 0 -264 -101zM248 223q0 -59 36 -97t103 -38q143 0 272 184l3 244q-193 -42 -303.5 -115.5t-110.5 -177.5z" />
    <glyph glyph-name="atilde" unicode="&#xe3;" horiz-adv-x="1013" 
d="M254 1096l-49 20q42 168 176 168q52 0 133.5 -39t110.5 -39q56 0 96 94l47 -18q-22 -84 -65.5 -128t-102.5 -44q-50 0 -129 40t-115 40q-31 0 -55 -22t-47 -72zM129 776q75 81 158.5 125.5t195.5 44.5q149 0 234.5 -84.5t85.5 -247.5l-2 -424q0 -92 30 -118.5t121 -26.5
v-41q-74 -24 -137 -24q-156 0 -156 163v56q-76 -104 -158 -161.5t-184 -57.5q-95 0 -155 53.5t-60 146.5q0 136 141.5 240t418.5 162q-2 120 -58.5 190t-177.5 70q-148 0 -264 -101zM248 223q0 -59 36 -97t103 -38q143 0 272 184l3 244q-193 -42 -303.5 -115.5
t-110.5 -177.5z" />
    <glyph glyph-name="adieresis" unicode="&#xe4;" horiz-adv-x="1013" 
d="M664 1092q-43 0 -73 30t-30 74q0 40 30.5 70t72.5 30q40 0 69 -30t29 -70q0 -44 -29 -74t-69 -30zM305 1092q-43 0 -72.5 30t-29.5 74q0 40 30 70t72 30q40 0 69 -30t29 -70q0 -44 -29 -74t-69 -30zM129 776q75 81 158.5 125.5t195.5 44.5q149 0 234.5 -84.5t85.5 -247.5
l-2 -424q0 -92 30 -118.5t121 -26.5v-41q-74 -24 -137 -24q-156 0 -156 163v56q-76 -104 -158 -161.5t-184 -57.5q-95 0 -155 53.5t-60 146.5q0 136 141.5 240t418.5 162q-2 120 -58.5 190t-177.5 70q-148 0 -264 -101zM248 223q0 -59 36 -97t103 -38q143 0 272 184l3 244
q-193 -42 -303.5 -115.5t-110.5 -177.5z" />
    <glyph glyph-name="aring" unicode="&#xe5;" horiz-adv-x="1013" 
d="M483 1407q82 0 139.5 -56.5t57.5 -138.5q0 -80 -57.5 -137t-139.5 -57q-79 0 -135.5 57t-56.5 137q0 82 56 138.5t136 56.5zM483 1352q-58 0 -96.5 -39.5t-38.5 -100.5q0 -59 39 -99t96 -40q59 0 99.5 40.5t40.5 98.5q0 61 -40.5 100.5t-99.5 39.5zM129 776
q75 81 158.5 125.5t195.5 44.5q149 0 234.5 -84.5t85.5 -247.5l-2 -424q0 -92 30 -118.5t121 -26.5v-41q-74 -24 -137 -24q-156 0 -156 163v56q-76 -104 -158 -161.5t-184 -57.5q-95 0 -155 53.5t-60 146.5q0 136 141.5 240t418.5 162q-2 120 -58.5 190t-177.5 70
q-148 0 -264 -101zM248 223q0 -59 36 -97t103 -38q143 0 272 184l3 244q-193 -42 -303.5 -115.5t-110.5 -177.5z" />
    <glyph glyph-name="ae" unicode="&#xe6;" horiz-adv-x="1519" 
d="M1442 575v-79h-643q1 -200 85.5 -303t243.5 -103q158 0 281 111l35 -37q-161 -184 -385 -184q-143 0 -241 71t-140 195q-82 -123 -170 -194.5t-195 -71.5q-94 0 -152.5 53t-58.5 145q0 132 130.5 227t402.5 168l16 5q0 128 -58 195t-171 67q-135 0 -258 -84l-29 39
q81 71 161 110t179 39q104 0 176.5 -45.5t104.5 -134.5q119 180 344 180q164 0 253 -99t89 -270zM801 551l491 12q0 67 -11.5 122t-37 100.5t-70 70.5t-106.5 25q-112 0 -181.5 -88t-84.5 -242zM383 88q80 0 149.5 57.5t118.5 135.5v229q-401 -95 -401 -289
q0 -60 34.5 -96.5t98.5 -36.5z" />
    <glyph glyph-name="ccedilla" unicode="&#xe7;" horiz-adv-x="923" 
d="M434 -432q121 49 121 110q0 27 -48 88.5t-48 96.5q0 63 57 117h-16q-177 0 -286.5 125t-109.5 335q0 143 55 256.5t165.5 181.5t259.5 68q144 0 264 -65l-62 -267h-43l-51 240q-67 29 -135 29q-94 0 -164 -56t-104.5 -146.5t-34.5 -201.5q0 -182 82.5 -286.5
t226.5 -104.5q164 0 266 127l37 -37q-120 -160 -286 -190q-31 -50 -31 -94q0 -19 16 -42t35 -42.5t35 -47t16 -53.5q0 -54 -56.5 -99t-148.5 -75z" />
    <glyph glyph-name="egrave" unicode="&#xe8;" horiz-adv-x="972" 
d="M279 1368l14 29h123l159 -324l-34 -24zM899 162q-163 -182 -383 -182q-195 0 -303.5 127t-108.5 327q0 222 123.5 367t329.5 145q164 0 252 -100t88 -271v-79h-643v-17q0 -180 83.5 -285.5t244.5 -105.5t282 113zM524 885q-113 0 -182.5 -90t-83.5 -244l492 12
q0 67 -12 122.5t-37 101.5t-70.5 72t-106.5 26z" />
    <glyph glyph-name="eacute" unicode="&#xe9;" horiz-adv-x="972" 
d="M678 1397h123l14 -29l-260 -319l-37 24zM899 162q-163 -182 -383 -182q-195 0 -303.5 127t-108.5 327q0 222 123.5 367t329.5 145q164 0 252 -100t88 -271v-79h-643v-17q0 -180 83.5 -285.5t244.5 -105.5t282 113zM524 885q-113 0 -182.5 -90t-83.5 -244l492 12
q0 67 -12 122.5t-37 101.5t-70.5 72t-106.5 26z" />
    <glyph glyph-name="ecircumflex" unicode="&#xea;" horiz-adv-x="972" 
d="M563 1372l256 -287l-26 -34l-246 188l-248 -188l-25 34l256 287h33zM899 162q-163 -182 -383 -182q-195 0 -303.5 127t-108.5 327q0 222 123.5 367t329.5 145q164 0 252 -100t88 -271v-79h-643v-17q0 -180 83.5 -285.5t244.5 -105.5t282 113zM524 885q-113 0 -182.5 -90
t-83.5 -244l492 12q0 67 -12 122.5t-37 101.5t-70.5 72t-106.5 26z" />
    <glyph glyph-name="edieresis" unicode="&#xeb;" horiz-adv-x="972" 
d="M725 1092q-42 0 -71 30t-29 74q0 40 29.5 70t70.5 30t70.5 -30t29.5 -70q0 -44 -29 -74t-71 -30zM369 1092q-43 0 -73 30t-30 74q0 40 30.5 70t72.5 30q40 0 69 -30t29 -70q0 -44 -29 -74t-69 -30zM899 162q-163 -182 -383 -182q-195 0 -303.5 127t-108.5 327
q0 222 123.5 367t329.5 145q164 0 252 -100t88 -271v-79h-643v-17q0 -180 83.5 -285.5t244.5 -105.5t282 113zM524 885q-113 0 -182.5 -90t-83.5 -244l492 12q0 67 -12 122.5t-37 101.5t-70.5 72t-106.5 26z" />
    <glyph glyph-name="igrave" unicode="&#xec;" horiz-adv-x="616" 
d="M18 1364l15 29h125l157 -326l-34 -25zM385 678v-436q0 -117 18 -152q12 -21 39.5 -29.5t87.5 -15.5v-45q-125 8 -217 8t-217 -8v45q57 7 84 14.5t39 26.5q21 31 21 158v393q0 85 -3.5 119.5t-17.5 50.5q-11 13 -34.5 19t-80.5 12v45q128 11 258 53l33 -18
q-10 -85 -10 -240z" />
    <glyph glyph-name="iacute" unicode="&#xed;" horiz-adv-x="616" 
d="M420 1393h123l14 -29l-262 -322l-35 25zM385 678v-436q0 -117 18 -152q12 -21 39.5 -29.5t87.5 -15.5v-45q-125 8 -217 8t-217 -8v45q57 7 84 14.5t39 26.5q21 31 21 158v393q0 85 -3.5 119.5t-17.5 50.5q-11 13 -34.5 19t-80.5 12v45q128 11 258 53l33 -18
q-10 -85 -10 -240z" />
    <glyph glyph-name="icircumflex" unicode="&#xee;" horiz-adv-x="616" 
d="M305 1368l254 -287l-24 -34l-246 188l-248 -188l-27 34l258 287h33zM385 678v-436q0 -117 18 -152q12 -21 39.5 -29.5t87.5 -15.5v-45q-125 8 -217 8t-217 -8v45q57 7 84 14.5t39 26.5q21 31 21 158v393q0 85 -3.5 119.5t-17.5 50.5q-11 13 -34.5 19t-80.5 12v45
q128 11 258 53l33 -18q-10 -85 -10 -240z" />
    <glyph glyph-name="idieresis" unicode="&#xef;" horiz-adv-x="616" 
d="M467 1087q-41 0 -70.5 30.5t-29.5 74.5q0 40 29.5 70t70.5 30t69.5 -30t28.5 -70q0 -44 -28.5 -74.5t-69.5 -30.5zM109 1087q-42 0 -71.5 30.5t-29.5 74.5q0 40 30 70t71 30t70.5 -30t29.5 -70q0 -44 -29.5 -74.5t-70.5 -30.5zM385 678v-436q0 -117 18 -152
q12 -21 39.5 -29.5t87.5 -15.5v-45q-125 8 -217 8t-217 -8v45q57 7 84 14.5t39 26.5q21 31 21 158v393q0 85 -3.5 119.5t-17.5 50.5q-11 13 -34.5 19t-80.5 12v45q128 11 258 53l33 -18q-10 -85 -10 -240z" />
    <glyph glyph-name="eth" unicode="&#xf0;" horiz-adv-x="1099" 
d="M268 1475q228 -33 389 -172l250 129v-74l-198 -101q142 -141 215 -336t73 -378q0 -256 -131 -409.5t-334 -153.5q-182 0 -305 124.5t-123 331.5q0 107 36.5 202t98 162.5t145 106.5t173.5 39q136 0 236 -86q-57 207 -177 350l-276 -141v72l229 119q-126 123 -311 159z
M262 463q0 -192 77.5 -306t215.5 -114q136 0 209.5 117t73.5 344q0 130 -23 256q-123 123 -254 123q-142 0 -220.5 -113.5t-78.5 -306.5z" />
    <glyph glyph-name="ntilde" unicode="&#xf1;" horiz-adv-x="1263" 
d="M432 1096l-49 20q39 168 176 168q51 0 133 -39t111 -39q57 0 94 94l47 -18q-20 -83 -64 -127.5t-102 -44.5q-51 0 -130 40t-113 40q-33 0 -57.5 -22t-45.5 -72zM385 678v-436q0 -117 18 -152q12 -21 39.5 -29.5t87.5 -15.5v-45q-125 8 -217 8t-217 -8v45q57 7 84 14.5
t39 26.5q21 31 21 158v393q0 85 -3.5 119.5t-17.5 50.5q-11 13 -34.5 19t-80.5 12v45q128 11 258 53l33 -18q-8 -82 -8 -134q82 79 161 120.5t185 41.5q156 0 237 -94t81 -272v-338q0 -121 16 -152q12 -21 39.5 -29.5t87.5 -15.5v-45q-125 8 -217 8t-217 -8v45q57 7 84 14.5
t41 26.5q20 34 20 158v286q0 164 -62.5 232.5t-180.5 68.5q-161 0 -277 -104v-49z" />
    <glyph glyph-name="ograve" unicode="&#xf2;" horiz-adv-x="1120" 
d="M293 1368l14 29h123l160 -324l-37 -24zM549 -20q-122 0 -221.5 52t-161.5 157.5t-62 248.5q0 109 37.5 204.5t100.5 161.5t149 104t180 38q92 0 173 -33t142 -92.5t96.5 -149t35.5 -196.5q0 -217 -136 -356t-333 -139zM563 45q139 0 217 106.5t78 297.5q0 190 -78 312
t-223 122q-138 0 -216.5 -110.5t-78.5 -301.5q0 -189 77.5 -307.5t223.5 -118.5z" />
    <glyph glyph-name="oacute" unicode="&#xf3;" horiz-adv-x="1120" 
d="M692 1397h123l14 -29l-260 -319l-37 24zM549 -20q-122 0 -221.5 52t-161.5 157.5t-62 248.5q0 109 37.5 204.5t100.5 161.5t149 104t180 38q92 0 173 -33t142 -92.5t96.5 -149t35.5 -196.5q0 -217 -136 -356t-333 -139zM563 45q139 0 217 106.5t78 297.5q0 190 -78 312
t-223 122q-138 0 -216.5 -110.5t-78.5 -301.5q0 -189 77.5 -307.5t223.5 -118.5z" />
    <glyph glyph-name="ocircumflex" unicode="&#xf4;" horiz-adv-x="1120" 
d="M578 1372l253 -287l-24 -34l-246 188l-248 -188l-24 34l256 287h33zM549 -20q-122 0 -221.5 52t-161.5 157.5t-62 248.5q0 109 37.5 204.5t100.5 161.5t149 104t180 38q92 0 173 -33t142 -92.5t96.5 -149t35.5 -196.5q0 -217 -136 -356t-333 -139zM563 45
q139 0 217 106.5t78 297.5q0 190 -78 312t-223 122q-138 0 -216.5 -110.5t-78.5 -301.5q0 -189 77.5 -307.5t223.5 -118.5z" />
    <glyph glyph-name="otilde" unicode="&#xf5;" horiz-adv-x="1120" 
d="M332 1096l-49 20q39 168 176 168q52 0 133 -39t110 -39q57 0 97 94l47 -18q-21 -83 -65.5 -127.5t-102.5 -44.5q-51 0 -130.5 40t-113.5 40q-33 0 -56.5 -22t-45.5 -72zM549 -20q-122 0 -221.5 52t-161.5 157.5t-62 248.5q0 109 37.5 204.5t100.5 161.5t149 104t180 38
q92 0 173 -33t142 -92.5t96.5 -149t35.5 -196.5q0 -217 -136 -356t-333 -139zM563 45q139 0 217 106.5t78 297.5q0 190 -78 312t-223 122q-138 0 -216.5 -110.5t-78.5 -301.5q0 -189 77.5 -307.5t223.5 -118.5z" />
    <glyph glyph-name="odieresis" unicode="&#xf6;" horiz-adv-x="1120" 
d="M739 1092q-42 0 -71 30t-29 74q0 40 29.5 70t70.5 30t71 -30t30 -70q0 -44 -29.5 -74t-71.5 -30zM383 1092q-43 0 -72.5 30t-29.5 74q0 40 30 70t72 30q40 0 69 -30t29 -70q0 -44 -29 -74t-69 -30zM549 -20q-122 0 -221.5 52t-161.5 157.5t-62 248.5q0 109 37.5 204.5
t100.5 161.5t149 104t180 38q92 0 173 -33t142 -92.5t96.5 -149t35.5 -196.5q0 -217 -136 -356t-333 -139zM563 45q139 0 217 106.5t78 297.5q0 190 -78 312t-223 122q-138 0 -216.5 -110.5t-78.5 -301.5q0 -189 77.5 -307.5t223.5 -118.5z" />
    <glyph glyph-name="divide" unicode="&#xf7;" horiz-adv-x="909" 
d="M455 766q-38 0 -64 28t-26 68q0 38 26 65t64 27t64 -27t26 -65q0 -40 -26 -68t-64 -28zM41 541v82h827v-82h-827zM455 209q-38 0 -64 28t-26 68q0 38 26 65t64 27t64 -27t26 -65q0 -40 -26 -68t-64 -28z" />
    <glyph glyph-name="oslash" unicode="&#xf8;" horiz-adv-x="1120" 
d="M289 -193l-70 31l96 201q-98 58 -154.5 159.5t-56.5 239.5q0 109 37.5 204.5t100.5 161.5t149 104t180 38q80 0 160 -26l103 215l67 -33l-102 -215q102 -59 160.5 -165t58.5 -247q0 -217 -136 -356t-333 -139q-87 0 -166 28zM262 471q0 -221 98 -334l336 707
q-61 39 -139 39q-138 0 -216.5 -110.5t-78.5 -301.5zM563 45q139 0 217 106.5t78 297.5q0 227 -102 344l-336 -709q64 -39 143 -39z" />
    <glyph glyph-name="ugrave" unicode="&#xf9;" horiz-adv-x="1198" 
d="M283 1364l14 29h123l160 -326l-35 -25zM975 946v-667q0 -53 2 -86.5t10 -59.5t17 -38.5t30.5 -20.5t44 -9.5t62.5 -1.5v-45l-312 -38v143q-78 -69 -153.5 -106t-169.5 -37q-311 0 -311 366v318q0 48 -2 78.5t-9.5 53.5t-16.5 34t-30.5 18t-43 8.5t-60.5 1.5v45l305 43
v-561q0 -161 63 -226t181 -65q131 0 247 86v484q0 48 -2 78.5t-9.5 53.5t-16 34t-29.5 18t-42 8.5t-60 1.5v45z" />
    <glyph glyph-name="uacute" unicode="&#xfa;" horiz-adv-x="1198" 
d="M684 1393h123l14 -29l-262 -322l-35 25zM975 946v-667q0 -53 2 -86.5t10 -59.5t17 -38.5t30.5 -20.5t44 -9.5t62.5 -1.5v-45l-312 -38v143q-78 -69 -153.5 -106t-169.5 -37q-311 0 -311 366v318q0 48 -2 78.5t-9.5 53.5t-16.5 34t-30.5 18t-43 8.5t-60.5 1.5v45l305 43
v-561q0 -161 63 -226t181 -65q131 0 247 86v484q0 48 -2 78.5t-9.5 53.5t-16 34t-29.5 18t-42 8.5t-60 1.5v45z" />
    <glyph glyph-name="ucircumflex" unicode="&#xfb;" horiz-adv-x="1198" 
d="M569 1368l254 -287l-26 -34l-244 188l-248 -188l-26 34l258 287h32zM975 946v-667q0 -53 2 -86.5t10 -59.5t17 -38.5t30.5 -20.5t44 -9.5t62.5 -1.5v-45l-312 -38v143q-78 -69 -153.5 -106t-169.5 -37q-311 0 -311 366v318q0 48 -2 78.5t-9.5 53.5t-16.5 34t-30.5 18
t-43 8.5t-60.5 1.5v45l305 43v-561q0 -161 63 -226t181 -65q131 0 247 86v484q0 48 -2 78.5t-9.5 53.5t-16 34t-29.5 18t-42 8.5t-60 1.5v45z" />
    <glyph glyph-name="udieresis" unicode="&#xfc;" horiz-adv-x="1198" 
d="M731 1087q-43 0 -71.5 30.5t-28.5 74.5q0 40 29 70t71 30q40 0 69 -30t29 -70q0 -44 -29 -74.5t-69 -30.5zM373 1087q-42 0 -71.5 30.5t-29.5 74.5q0 40 30 70t71 30t70.5 -30t29.5 -70q0 -44 -29.5 -74.5t-70.5 -30.5zM975 946v-667q0 -53 2 -86.5t10 -59.5t17 -38.5
t30.5 -20.5t44 -9.5t62.5 -1.5v-45l-312 -38v143q-78 -69 -153.5 -106t-169.5 -37q-311 0 -311 366v318q0 48 -2 78.5t-9.5 53.5t-16.5 34t-30.5 18t-43 8.5t-60.5 1.5v45l305 43v-561q0 -161 63 -226t181 -65q131 0 247 86v484q0 48 -2 78.5t-9.5 53.5t-16 34t-29.5 18
t-42 8.5t-60 1.5v45z" />
    <glyph glyph-name="yacute" unicode="&#xfd;" horiz-adv-x="1064" 
d="M692 1393h123l14 -29l-262 -322l-35 25zM80 -291q36 -8 88 -8q110 0 174 44t102 144l45 113l-317 713q-44 99 -70 129.5t-88 36.5v45q141 -8 199 -8q87 0 215 8v-45q-66 -1 -95.5 -20t-29.5 -56q0 -33 25 -94l243 -547l238 549q20 44 20 78q0 42 -35 65t-100 25v45
q117 -8 183 -8q90 0 186 8v-45q-54 -4 -87.5 -36t-66.5 -106l-350 -786q-56 -128 -100.5 -204.5t-93.5 -122t-98 -61.5t-120 -16q-45 0 -92 7z" />
    <glyph glyph-name="thorn" unicode="&#xfe;" horiz-adv-x="1165" 
d="M383 -350q12 -21 39.5 -29.5t87.5 -15.5v-45q-125 8 -217 8q-91 0 -219 -8v45q43 5 60 8t36.5 11t28.5 22q20 34 20 157v1373q0 119 -5 141q-5 19 -15 29q-11 13 -35 18t-82 10v47q123 11 260 54l33 -19q-10 -85 -10 -239v-441q157 170 346 170q162 0 257 -116t95 -306
q0 -154 -61 -277.5t-175.5 -195t-261.5 -71.5q-97 0 -200 36v-215q0 -116 18 -151zM635 831q-139 0 -270 -108v-580q93 -100 225 -100q148 0 234.5 114.5t86.5 309.5q0 164 -68.5 264t-207.5 100z" />
    <glyph glyph-name="ydieresis" unicode="&#xff;" horiz-adv-x="1064" 
d="M739 1087q-43 0 -71.5 30.5t-28.5 74.5q0 40 29 70t71 30q40 0 69.5 -30t29.5 -70q0 -44 -29.5 -74.5t-69.5 -30.5zM381 1087q-41 0 -70.5 30.5t-29.5 74.5q0 40 29.5 70t70.5 30t69.5 -30t28.5 -70q0 -44 -28.5 -74.5t-69.5 -30.5zM80 -291q36 -8 88 -8q110 0 174 44
t102 144l45 113l-317 713q-44 99 -70 129.5t-88 36.5v45q141 -8 199 -8q87 0 215 8v-45q-66 -1 -95.5 -20t-29.5 -56q0 -33 25 -94l243 -547l238 549q20 44 20 78q0 42 -35 65t-100 25v45q117 -8 183 -8q90 0 186 8v-45q-54 -4 -87.5 -36t-66.5 -106l-350 -786
q-56 -128 -100.5 -204.5t-93.5 -122t-98 -61.5t-120 -16q-45 0 -92 7z" />
    <glyph glyph-name="Amacron" unicode="&#x100;" horiz-adv-x="1372" 
d="M406 1513v93h567v-93h-567zM709 1393l467 -1170q3 -6 8 -19q22 -52 31.5 -71.5t29.5 -39.5t43.5 -26.5t71.5 -15.5v-51q-132 8 -246 8q-61 0 -225 -8v51q93 15 114 28q27 16 27 54q0 57 -51 182l-43 109h-567l-66 -168q-33 -88 -33 -131q0 -25 18.5 -39.5t37.5 -19
t69 -11.5q8 -1 13.5 -2t11.5 -2v-51q-176 8 -227 8q-49 0 -181 -8v51q83 15 111.5 40.5t66.5 119.5l472 1182h47zM397 496h510l-258 647z" />
    <glyph glyph-name="amacron" unicode="&#x101;" horiz-adv-x="1013" 
d="M219 1147v86h526v-86h-526zM129 776q75 81 158.5 125.5t195.5 44.5q149 0 234.5 -84.5t85.5 -247.5l-2 -424q0 -92 30 -118.5t121 -26.5v-41q-74 -24 -137 -24q-156 0 -156 163v56q-76 -104 -158 -161.5t-184 -57.5q-95 0 -155 53.5t-60 146.5q0 136 141.5 240t418.5 162
q-2 120 -58.5 190t-177.5 70q-148 0 -264 -101zM248 223q0 -59 36 -97t103 -38q143 0 272 184l3 244q-193 -42 -303.5 -115.5t-110.5 -177.5z" />
    <glyph glyph-name="Abreve" unicode="&#x102;" horiz-adv-x="1372" 
d="M911 1716h45q0 -93 -73 -167t-191 -74q-119 0 -195.5 74.5t-76.5 166.5h47q20 -64 78.5 -103.5t146.5 -39.5q87 0 142.5 39t76.5 104zM709 1393l467 -1170q3 -6 8 -19q22 -52 31.5 -71.5t29.5 -39.5t43.5 -26.5t71.5 -15.5v-51q-132 8 -246 8q-61 0 -225 -8v51
q93 15 114 28q27 16 27 54q0 57 -51 182l-43 109h-567l-66 -168q-33 -88 -33 -131q0 -25 18.5 -39.5t37.5 -19t69 -11.5q8 -1 13.5 -2t11.5 -2v-51q-176 8 -227 8q-49 0 -181 -8v51q83 15 111.5 40.5t66.5 119.5l472 1182h47zM397 496h510l-258 647z" />
    <glyph glyph-name="abreve" unicode="&#x103;" horiz-adv-x="1013" 
d="M717 1346h45q0 -120 -71 -201.5t-193 -81.5t-197.5 82t-75.5 201h47q41 -185 226 -185q178 0 219 185zM129 776q75 81 158.5 125.5t195.5 44.5q149 0 234.5 -84.5t85.5 -247.5l-2 -424q0 -92 30 -118.5t121 -26.5v-41q-74 -24 -137 -24q-156 0 -156 163v56
q-76 -104 -158 -161.5t-184 -57.5q-95 0 -155 53.5t-60 146.5q0 136 141.5 240t418.5 162q-2 120 -58.5 190t-177.5 70q-148 0 -264 -101zM248 223q0 -59 36 -97t103 -38q143 0 272 184l3 244q-193 -42 -303.5 -115.5t-110.5 -177.5z" />
    <glyph glyph-name="Aogonek" unicode="&#x104;" horiz-adv-x="1372" 
d="M1243 -360q-73 -60 -149 -60q-63 0 -99.5 40.5t-36.5 103.5q0 68 43.5 135.5t126.5 148.5h-14q-61 0 -225 -8v51q93 15 114 28q27 16 27 54q0 57 -51 182l-43 109h-567l-66 -168q-33 -88 -33 -131q0 -25 18.5 -39.5t37.5 -19t69 -11.5q8 -1 13.5 -2t11.5 -2v-51
q-176 8 -227 8q-49 0 -181 -8v51q83 15 111.5 40.5t66.5 119.5l472 1182h47l467 -1170q3 -6 8 -19q22 -52 31.5 -71.5t29.5 -39.5t43.5 -26.5t71.5 -15.5v-51q-55 4 -178 8q-107 -139 -107 -250q0 -98 86 -98q38 0 70 16zM397 496h510l-258 647z" />
    <glyph glyph-name="aogonek" unicode="&#x105;" horiz-adv-x="1013" 
d="M129 776q75 81 158.5 125.5t195.5 44.5q149 0 234.5 -84.5t85.5 -247.5l-2 -424q0 -92 30 -118.5t121 -26.5v-41q-74 -24 -137 -24h-2q-86 -121 -86 -222q0 -98 86 -98q35 0 72 16l10 -36q-73 -60 -150 -60q-63 0 -98 40t-35 104q0 116 146 262q-99 27 -99 157v56
q-76 -104 -158 -161.5t-184 -57.5q-95 0 -155 53.5t-60 146.5q0 136 141.5 240t418.5 162q-2 120 -58.5 190t-177.5 70q-148 0 -264 -101zM248 223q0 -59 36 -97t103 -38q143 0 272 184l3 244q-193 -42 -303.5 -115.5t-110.5 -177.5z" />
    <glyph glyph-name="Cacute" unicode="&#x106;" horiz-adv-x="1302" 
d="M1001 1753l111 -49l4 -33l-358 -190l-25 35zM90 678q0 156 52 291.5t145 234t228.5 155t295.5 56.5q206 0 401 -92l-59 -377h-55l-60 346q-104 51 -239 51q-123 0 -226 -52t-170.5 -140.5t-105 -203.5t-37.5 -242q0 -134 35 -251t101.5 -207.5t172 -143t236.5 -52.5
q122 0 237 43l56 336h55l57 -375q-218 -75 -430 -75q-324 0 -507 185t-183 513z" />
    <glyph glyph-name="cacute" unicode="&#x107;" horiz-adv-x="923" 
d="M692 1397h123l14 -29l-262 -319l-35 24zM866 178q-146 -198 -366 -198q-177 0 -286.5 125t-109.5 335q0 143 55 256.5t165.5 181.5t259.5 68q144 0 264 -65l-62 -267h-43l-51 240q-67 29 -135 29q-94 0 -164 -56t-104.5 -146.5t-34.5 -201.5q0 -182 82.5 -286.5
t226.5 -104.5q164 0 266 127z" />
    <glyph glyph-name="Ccaron" unicode="&#x10c;" horiz-adv-x="1302" 
d="M1016 1741l22 -31l-252 -213h-38l-254 213l22 31l254 -119zM90 678q0 156 52 291.5t145 234t228.5 155t295.5 56.5q206 0 401 -92l-59 -377h-55l-60 346q-104 51 -239 51q-123 0 -226 -52t-170.5 -140.5t-105 -203.5t-37.5 -242q0 -134 35 -251t101.5 -207.5t172 -143
t236.5 -52.5q122 0 237 43l56 336h55l57 -375q-218 -75 -430 -75q-324 0 -507 185t-183 513z" />
    <glyph glyph-name="ccaron" unicode="&#x10d;" horiz-adv-x="923" 
d="M807 1372l24 -33l-253 -288h-33l-258 288l26 33l248 -188zM866 178q-146 -198 -366 -198q-177 0 -286.5 125t-109.5 335q0 143 55 256.5t165.5 181.5t259.5 68q144 0 264 -65l-62 -267h-43l-51 240q-67 29 -135 29q-94 0 -164 -56t-104.5 -146.5t-34.5 -201.5
q0 -182 82.5 -286.5t226.5 -104.5q164 0 266 127z" />
    <glyph glyph-name="Dcaron" unicode="&#x10e;" 
d="M926 1718l22 -30l-252 -213h-39l-254 213l23 30l254 -119zM82 1393h557q357 0 552 -167t195 -495q0 -158 -55 -292.5t-154.5 -231.5t-246.5 -152t-324 -55h-524v51q66 8 97.5 19t45.5 36q14 24 17.5 66.5t3.5 136.5v774q0 100 -5 145.5t-22 69.5q-16 21 -46.5 29.5
t-90.5 13.5v52zM403 66h211q279 0 442 168t163 456q0 635 -607 635h-209v-1259z" />
    <glyph glyph-name="dcaron" unicode="&#x10f;" horiz-adv-x="1204" 
d="M952 1217v-938q0 -53 2 -86.5t10 -59.5t17 -38.5t30.5 -20.5t44 -9.5t62.5 -1.5v-45l-311 -38v174q-155 -172 -344 -172q-164 0 -261.5 122t-97.5 316q0 230 136 378t364 148q98 0 203 -37v265q0 87 -3.5 121.5t-17.5 50.5q-11 13 -34.5 18t-81.5 10v47q54 4 101 12.5
t76 16.5t83 25l33 -19q-11 -94 -11 -239zM1040 1120q112 88 123 189q-16 -4 -24 -4q-35 0 -59.5 24.5t-24.5 54.5q0 36 23.5 63.5t64.5 27.5q40 0 68.5 -30.5t29.5 -82.5q1 -79 -46.5 -153.5t-127.5 -129.5zM254 469q0 -106 29 -188t94 -133.5t160 -51.5q143 0 270 113v571
q-96 103 -229 103q-150 0 -237 -111.5t-87 -302.5z" />
    <glyph glyph-name="Dcroat" unicode="&#x110;" 
d="M59 672v76h187v335q0 100 -5 145.5t-22 69.5q-16 21 -46.5 29.5t-90.5 13.5v52h557q357 0 552 -167t195 -495q0 -158 -55 -292.5t-154.5 -231.5t-246.5 -152t-324 -55h-524v51q66 8 97.5 19t45.5 36q14 24 17.5 66.5t3.5 136.5v363h-187zM403 66h211q279 0 442 168
t163 456q0 635 -607 635h-209v-577h388v-76h-388v-606z" />
    <glyph glyph-name="dcroat" unicode="&#x111;" horiz-adv-x="1234" 
d="M471 1096v63h336v15q0 87 -3.5 121.5t-17.5 50.5q-11 13 -34.5 18t-81.5 10v47q54 4 101 12.5t76 16.5t83 25l33 -19q-11 -94 -11 -239v-58h191v-63h-191v-817q0 -53 2 -86.5t10 -59.5t17 -38.5t30.5 -20.5t44 -9.5t62.5 -1.5v-45l-311 -38v174q-155 -172 -344 -172
q-164 0 -261.5 122t-97.5 316q0 230 136 378t364 148q98 0 203 -37v187h-336zM254 469q0 -106 29 -188t94 -133.5t160 -51.5q143 0 270 113v571q-96 103 -229 103q-150 0 -237 -111.5t-87 -302.5z" />
    <glyph glyph-name="Emacron" unicode="&#x112;" horiz-adv-x="1228" 
d="M387 1513v93h567v-93h-567zM969 72l131 323h53l-39 -395h-1032v51q69 8 101 19t46 36q23 40 23 203v774q0 100 -5 145.5t-24 69.5q-17 20 -49 29t-92 14v52h999l21 -355h-55l-111 283h-528v-561h237q50 0 81.5 5t52.5 15.5t33 31t20 46.5t18 67l6 27h53v-458h-53
q-26 106 -37 128q-22 46 -77 58q-35 8 -97 8h-237v-616h561z" />
    <glyph glyph-name="emacron" unicode="&#x113;" horiz-adv-x="972" 
d="M283 1147v86h526v-86h-526zM899 162q-163 -182 -383 -182q-195 0 -303.5 127t-108.5 327q0 222 123.5 367t329.5 145q164 0 252 -100t88 -271v-79h-643v-17q0 -180 83.5 -285.5t244.5 -105.5t282 113zM524 885q-113 0 -182.5 -90t-83.5 -244l492 12q0 67 -12 122.5
t-37 101.5t-70.5 72t-106.5 26z" />
    <glyph glyph-name="Edotaccent" unicode="&#x116;" horiz-adv-x="1228" 
d="M668 1470q-44 0 -75.5 31.5t-31.5 75.5t31.5 75t75.5 31q43 0 73.5 -31t30.5 -75t-30.5 -75.5t-73.5 -31.5zM969 72l131 323h53l-39 -395h-1032v51q69 8 101 19t46 36q23 40 23 203v774q0 100 -5 145.5t-24 69.5q-17 20 -49 29t-92 14v52h999l21 -355h-55l-111 283h-528
v-561h237q50 0 81.5 5t52.5 15.5t33 31t20 46.5t18 67l6 27h53v-458h-53q-26 106 -37 128q-22 46 -77 58q-35 8 -97 8h-237v-616h561z" />
    <glyph glyph-name="edotaccent" unicode="&#x117;" horiz-adv-x="972" 
d="M547 1133q-46 0 -77.5 31t-31.5 75q0 46 31.5 77.5t77.5 31.5q45 0 76.5 -32t31.5 -77q0 -44 -32 -75t-76 -31zM899 162q-163 -182 -383 -182q-195 0 -303.5 127t-108.5 327q0 222 123.5 367t329.5 145q164 0 252 -100t88 -271v-79h-643v-17q0 -180 83.5 -285.5
t244.5 -105.5t282 113zM524 885q-113 0 -182.5 -90t-83.5 -244l492 12q0 67 -12 122.5t-37 101.5t-70.5 72t-106.5 26z" />
    <glyph glyph-name="Eogonek" unicode="&#x118;" horiz-adv-x="1228" 
d="M969 72l131 323h53l-39 -395h-59q-103 -132 -103 -242q0 -98 86 -98q35 0 72 16l10 -36q-70 -60 -149 -60q-63 0 -98 40t-35 104q0 68 41 134t118 142h-915v51q69 8 101 19t46 36q23 40 23 203v774q0 100 -5 145.5t-24 69.5q-17 20 -49 29t-92 14v52h999l21 -355h-55
l-111 283h-528v-561h237q50 0 81.5 5t52.5 15.5t33 31t20 46.5t18 67l6 27h53v-458h-53q-26 106 -37 128q-22 46 -77 58q-35 8 -97 8h-237v-616h561z" />
    <glyph glyph-name="eogonek" unicode="&#x119;" horiz-adv-x="972" 
d="M719 -360q-73 -60 -150 -60q-63 0 -99 40.5t-36 103.5q0 113 144 260q-36 -4 -62 -4q-195 0 -303.5 127t-108.5 327q0 222 123.5 367t329.5 145q164 0 252 -100t88 -271v-79h-643v-17q0 -180 83.5 -285.5t244.5 -105.5t282 113l35 -39q-106 -122 -248 -164
q-100 -132 -100 -240q0 -98 86 -98q38 0 70 16zM524 885q-113 0 -182.5 -90t-83.5 -244l492 12q0 67 -12 122.5t-37 101.5t-70.5 72t-106.5 26z" />
    <glyph glyph-name="Ecaron" unicode="&#x11a;" horiz-adv-x="1228" 
d="M915 1718l23 -30l-252 -213h-39l-254 213l23 30l254 -119zM969 72l131 323h53l-39 -395h-1032v51q69 8 101 19t46 36q23 40 23 203v774q0 100 -5 145.5t-24 69.5q-17 20 -49 29t-92 14v52h999l21 -355h-55l-111 283h-528v-561h237q50 0 81.5 5t52.5 15.5t33 31t20 46.5
t18 67l6 27h53v-458h-53q-26 106 -37 128q-22 46 -77 58q-35 8 -97 8h-237v-616h561z" />
    <glyph glyph-name="ecaron" unicode="&#x11b;" horiz-adv-x="972" 
d="M793 1372l26 -33l-256 -288h-33l-256 288l25 33l248 -188zM899 162q-163 -182 -383 -182q-195 0 -303.5 127t-108.5 327q0 222 123.5 367t329.5 145q164 0 252 -100t88 -271v-79h-643v-17q0 -180 83.5 -285.5t244.5 -105.5t282 113zM524 885q-113 0 -182.5 -90
t-83.5 -244l492 12q0 67 -12 122.5t-37 101.5t-70.5 72t-106.5 26z" />
    <glyph glyph-name="Gbreve" unicode="&#x11e;" horiz-adv-x="1478" 
d="M1024 1737h45q0 -92 -73 -167t-191 -75t-195.5 75.5t-77.5 166.5h46q21 -63 80.5 -103.5t146.5 -40.5q86 0 141.5 40t77.5 104zM909 588v49h477v-45q-29 -5 -39 -7t-30 -8t-26.5 -14t-16 -22t-12 -34.5t-2.5 -49.5v-400q-137 -39 -245.5 -58t-228.5 -19q-314 0 -505 186
t-191 512q0 159 54 295t151.5 233.5t241 153t315.5 55.5q212 0 416 -82l-62 -360h-55l-57 321q-115 49 -265 49q-168 0 -300 -88t-201.5 -234t-69.5 -321q0 -298 154 -473.5t422 -175.5q66 0 113 8.5t87 31t60 65.5t20 108v172q0 29 -5 51t-11.5 37t-23 26t-28.5 17
t-39 10.5t-44 6t-54 4.5z" />
    <glyph glyph-name="gbreve" unicode="&#x11f;" horiz-adv-x="1011" 
d="M721 1346h45q0 -120 -71 -201.5t-193 -81.5t-197.5 82t-75.5 201h47q38 -185 226 -185q178 0 219 185zM963 932l30 -23l-16 -84h-197q88 -76 88 -200q0 -141 -109.5 -235.5t-271.5 -94.5q-75 0 -137 18q-59 -62 -73 -86q-13 -24 -13 -45q0 -33 25 -46t78 -13h215
q176 0 272 -63.5t96 -184.5q0 -150 -144 -239t-362 -89q-173 0 -284 57t-111 158q0 74 58 133.5t155 102.5q-65 12 -98 44t-33 79q0 48 37 94t125 119q-90 40 -141.5 114t-51.5 170q0 138 112.5 233t274.5 95q143 0 244 -69zM492 356q102 0 166.5 71t64.5 185
q0 118 -67.5 195.5t-178.5 77.5q-103 0 -166 -70t-63 -186q0 -118 65 -195.5t179 -77.5zM195 -190q0 -92 86.5 -143.5t222.5 -51.5q132 0 220.5 57t88.5 160q0 87 -74 122.5t-229 35.5h-166h-14q-135 -80 -135 -180z" />
    <glyph glyph-name="Gcommaaccent" unicode="&#x122;" horiz-adv-x="1478" 
d="M909 588v49h477v-45q-29 -5 -39 -7t-30 -8t-26.5 -14t-16 -22t-12 -34.5t-2.5 -49.5v-400q-137 -39 -245.5 -58t-228.5 -19q-314 0 -505 186t-191 512q0 159 54 295t151.5 233.5t241 153t315.5 55.5q212 0 416 -82l-62 -360h-55l-57 321q-115 49 -265 49q-168 0 -300 -88
t-201.5 -234t-69.5 -321q0 -298 154 -473.5t422 -175.5q66 0 113 8.5t87 31t60 65.5t20 108v172q0 29 -5 51t-11.5 37t-23 26t-28.5 17t-39 10.5t-44 6t-54 4.5zM692 -451q111 88 123 189q-16 -4 -24 -4q-35 0 -59.5 24.5t-24.5 55.5q0 36 23.5 63t64.5 27q40 0 68.5 -30.5
t29.5 -82.5q1 -78 -47 -153t-127 -130z" />
    <glyph glyph-name="gcommaaccent" unicode="&#x123;" horiz-adv-x="1011" 
d="M584 1436q-113 -87 -125 -189q16 4 24 4q35 0 59.5 -24.5t24.5 -55.5q0 -36 -23.5 -63t-64.5 -27q-40 0 -68.5 30.5t-29.5 82.5q-1 78 47 153t127 130zM963 932l30 -23l-16 -84h-197q88 -76 88 -200q0 -141 -109.5 -235.5t-271.5 -94.5q-75 0 -137 18q-59 -62 -73 -86
q-13 -24 -13 -45q0 -33 25 -46t78 -13h215q176 0 272 -63.5t96 -184.5q0 -150 -144 -239t-362 -89q-173 0 -284 57t-111 158q0 74 58 133.5t155 102.5q-65 12 -98 44t-33 79q0 48 37 94t125 119q-90 40 -141.5 114t-51.5 170q0 138 112.5 233t274.5 95q143 0 244 -69z
M492 356q102 0 166.5 71t64.5 185q0 118 -67.5 195.5t-178.5 77.5q-103 0 -166 -70t-63 -186q0 -118 65 -195.5t179 -77.5zM195 -190q0 -92 86.5 -143.5t222.5 -51.5q132 0 220.5 57t88.5 160q0 87 -74 122.5t-229 35.5h-166h-14q-135 -80 -135 -180z" />
    <glyph glyph-name="Imacron" unicode="&#x12a;" horiz-adv-x="649" 
d="M45 1513v93h567v-93h-567zM403 1145v-897q0 -112 17 -142q14 -26 45.5 -36.5t103.5 -18.5v-51q-153 8 -243 8q-91 0 -244 -8v51q70 8 101.5 18.5t45.5 36.5q17 33 17 144v893q0 110 -17 143q-14 26 -45.5 36.5t-101.5 18.5v52q172 -9 244 -9q70 0 243 9v-52
q-72 -8 -103.5 -18.5t-45.5 -36.5q-17 -30 -17 -141z" />
    <glyph glyph-name="imacron" unicode="&#x12b;" horiz-adv-x="616" 
d="M25 1141v88h526v-88h-526zM385 678v-436q0 -117 18 -152q12 -21 39.5 -29.5t87.5 -15.5v-45q-125 8 -217 8t-217 -8v45q57 7 84 14.5t39 26.5q21 31 21 158v393q0 85 -3.5 119.5t-17.5 50.5q-11 13 -34.5 19t-80.5 12v45q128 11 258 53l33 -18q-10 -85 -10 -240z" />
    <glyph glyph-name="Iogonek" unicode="&#x12e;" horiz-adv-x="649" 
d="M451 -360q-73 -60 -150 -60q-63 0 -99 40.5t-36 103.5q0 68 43.5 135.5t126.5 148.5h-10q-91 0 -244 -8v51q70 8 101.5 18.5t45.5 36.5q17 33 17 144v893q0 110 -17 143q-14 26 -45.5 36.5t-101.5 18.5v52q172 -9 244 -9q70 0 243 9v-52q-72 -8 -103.5 -18.5t-45.5 -36.5
q-17 -30 -17 -141v-897q0 -112 17 -142q14 -26 45.5 -36.5t103.5 -18.5v-51q-143 7 -180 8q-106 -142 -106 -250q0 -98 86 -98q37 0 69 16z" />
    <glyph glyph-name="iogonek" unicode="&#x12f;" horiz-adv-x="616" 
d="M289 1128q-46 0 -77.5 31.5t-31.5 75.5q0 46 31.5 77t77.5 31q44 0 75 -31t31 -77q0 -44 -31 -75.5t-75 -31.5zM444 -360q-73 -60 -149 -60q-63 0 -99 40.5t-36 103.5q0 68 43.5 135.5t126.5 148.5h-17q-92 0 -217 -8v45q57 7 84 14.5t39 26.5q21 31 21 158v393
q0 85 -3.5 119.5t-17.5 50.5q-11 13 -34.5 19t-80.5 12v45q128 11 258 53l33 -18q-10 -85 -10 -240v-436q0 -117 18 -152q12 -21 39.5 -29.5t87.5 -15.5v-45q-101 6 -147 8q-107 -139 -107 -250q0 -98 86 -98q38 0 70 16z" />
    <glyph glyph-name="Idotaccent" unicode="&#x130;" horiz-adv-x="649" 
d="M326 1470q-44 0 -75.5 31.5t-31.5 75.5t31.5 75t75.5 31t75 -31t31 -75t-31 -75.5t-75 -31.5zM403 1145v-897q0 -112 17 -142q14 -26 45.5 -36.5t103.5 -18.5v-51q-153 8 -243 8q-91 0 -244 -8v51q70 8 101.5 18.5t45.5 36.5q17 33 17 144v893q0 110 -17 143
q-14 26 -45.5 36.5t-101.5 18.5v52q172 -9 244 -9q70 0 243 9v-52q-72 -8 -103.5 -18.5t-45.5 -36.5q-17 -30 -17 -141z" />
    <glyph glyph-name="dotlessi" unicode="&#x131;" horiz-adv-x="616" 
d="M385 678v-436q0 -117 18 -152q12 -21 39.5 -29.5t87.5 -15.5v-45q-125 8 -217 8t-217 -8v45q57 7 84 14.5t39 26.5q21 31 21 158v393q0 85 -3.5 119.5t-17.5 50.5q-11 13 -34.5 19t-80.5 12v45q128 11 258 53l33 -18q-10 -85 -10 -240z" />
    <glyph glyph-name="Kcommaaccent" unicode="&#x136;" horiz-adv-x="1449" 
d="M414 1145v-461l524 492q12 11 28.5 26.5t24.5 22.5t16.5 17t11.5 18t3 18q0 51 -113 63v52q105 -9 219 -9q82 0 267 9v-52q-105 -12 -165 -39.5t-151 -109.5l-385 -348l389 -535q47 -62 79 -101.5t63.5 -68.5t50.5 -44t50.5 -25t51 -13t64.5 -8v-49q-100 4 -187 4
q-51 0 -125 -4l-550 741l-166 -149v-344q0 -113 16 -142q14 -26 48 -36.5t110 -18.5v-51q-159 8 -254 8q-96 0 -252 -8v51q74 8 108 18.5t50 36.5q16 31 16 144v893q0 112 -16 143q-16 26 -50 36.5t-108 18.5v52q175 -9 252 -9q76 0 254 9v-52q-76 -8 -110 -18.5t-48 -36.5
q-11 -17 -13.5 -46.5t-2.5 -94.5zM651 -451q113 87 125 189q-16 -4 -24 -4q-35 0 -59.5 24.5t-24.5 55.5q0 36 23.5 63t64.5 27q40 0 68 -30.5t28 -82.5q3 -78 -45 -153t-127 -130z" />
    <glyph glyph-name="kcommaaccent" unicode="&#x137;" horiz-adv-x="1105" 
d="M365 1217v-748l284 262q6 6 16.5 16t15.5 14.5t13 12.5t11.5 13t8 11.5t6 12.5t1.5 12q0 28 -24.5 40t-84.5 20v43q131 -8 226 -8q34 0 190 8v-43q-71 -13 -115 -36.5t-104 -74.5l-211 -182l301 -414q84 -117 201 -133v-43q-90 4 -139 4q-39 0 -121 -4l-346 502
l-129 -111v-149q0 -117 18 -152q12 -21 39.5 -29.5t87.5 -15.5v-45q-125 8 -217 8q-91 0 -219 -8v45q58 7 85.5 14.5t39.5 26.5q20 34 20 158v932q0 88 -3 121t-17 49q-11 13 -35 18t-82 10v47q54 4 101 12.5t76 16.5t83 25l33 -19q-10 -85 -10 -239zM477 -451
q112 88 123 189q-16 -4 -25 -4q-35 0 -58 24.5t-23 55.5q0 36 23 63t63 27t68.5 -30.5t29.5 -82.5q3 -79 -45.5 -153.5t-128.5 -129.5z" />
    <glyph glyph-name="Lacute" unicode="&#x139;" horiz-adv-x="1118" 
d="M557 1731l113 -50l2 -32l-357 -193l-24 37zM403 1145v-1073h496l115 325h55l-25 -397h-962v51q66 8 97.5 19t45.5 36q21 41 21 203v834q0 110 -17 143q-14 26 -45.5 36.5t-101.5 18.5v52q172 -9 242 -9q72 0 245 9v-52q-72 -8 -103.5 -18.5t-45.5 -36.5q-17 -30 -17 -141
z" />
    <glyph glyph-name="lacute" unicode="&#x13a;" horiz-adv-x="593" 
d="M520 1804l113 -47l2 -33l-356 -192l-27 37zM365 1217v-908v-31q0 -92 2.5 -129.5t15.5 -58.5q12 -21 39.5 -29.5t87.5 -15.5v-45q-125 8 -217 8q-91 0 -219 -8v45q58 7 85.5 14.5t39.5 26.5q14 19 17 55t3 127v41v867q0 88 -3 121t-17 49q-11 13 -35 18t-82 10v47
q54 4 101 12.5t76 16.5t83 25l33 -19q-10 -85 -10 -239z" />
    <glyph glyph-name="Lcommaaccent" unicode="&#x13b;" horiz-adv-x="1118" 
d="M403 1145v-1073h496l115 325h55l-25 -397h-962v51q66 8 97.5 19t45.5 36q21 41 21 203v834q0 110 -17 143q-14 26 -45.5 36.5t-101.5 18.5v52q172 -9 242 -9q72 0 245 9v-52q-72 -8 -103.5 -18.5t-45.5 -36.5q-17 -30 -17 -141zM467 -451q111 88 123 189q-16 -4 -25 -4
q-35 0 -59.5 24.5t-24.5 55.5q0 36 23.5 63t64.5 27q40 0 69 -30.5t30 -82.5q1 -78 -47 -153t-127 -130z" />
    <glyph glyph-name="lcommaaccent" unicode="&#x13c;" horiz-adv-x="593" 
d="M365 1217v-908v-31q0 -92 2.5 -129.5t15.5 -58.5q12 -21 39.5 -29.5t87.5 -15.5v-45q-125 8 -217 8q-91 0 -219 -8v45q58 7 85.5 14.5t39.5 26.5q14 19 17 55t3 127v41v867q0 88 -3 121t-17 49q-11 13 -35 18t-82 10v47q54 4 101 12.5t76 16.5t83 25l33 -19
q-10 -85 -10 -239zM186 -451q112 88 123 189q-16 -4 -24 -4q-35 0 -58.5 24.5t-23.5 55.5q0 36 23 63t63 27t68.5 -30.5t29.5 -82.5q3 -79 -45.5 -153.5t-128.5 -129.5z" />
    <glyph glyph-name="Lcaron" unicode="&#x13d;" horiz-adv-x="1118" 
d="M651 1061q114 89 125 188q-16 -4 -26 -4q-35 0 -58.5 24.5t-23.5 55.5q0 38 22.5 64t63.5 26q40 0 68.5 -30t29.5 -82q3 -79 -45.5 -153.5t-128.5 -129.5zM403 1145v-1073h496l115 325h55l-25 -397h-962v51q66 8 97.5 19t45.5 36q21 41 21 203v834q0 110 -17 143
q-14 26 -45.5 36.5t-101.5 18.5v52q172 -9 242 -9q72 0 245 9v-52q-72 -8 -103.5 -18.5t-45.5 -36.5q-17 -30 -17 -141z" />
    <glyph glyph-name="lcaron" unicode="&#x13e;" horiz-adv-x="620" 
d="M365 1217v-908v-31q0 -92 2.5 -129.5t15.5 -58.5q12 -21 39.5 -29.5t87.5 -15.5v-45q-125 8 -217 8q-91 0 -219 -8v45q58 7 85.5 14.5t39.5 26.5q14 19 17 55t3 127v41v867q0 88 -3 121t-17 49q-11 13 -35 18t-82 10v47q54 4 101 12.5t76 16.5t83 25l33 -19
q-10 -85 -10 -239zM449 1120q111 87 122 189q-16 -4 -24 -4q-35 0 -58.5 24t-23.5 55q0 37 23 64t63 27t68.5 -30.5t29.5 -82.5q3 -79 -45.5 -153.5t-128.5 -129.5z" />
    <glyph glyph-name="Lslash" unicode="&#x141;" horiz-adv-x="1118" 
d="M690 963v-78l-287 -146v-667h496l115 325h55l-25 -397h-962v51q66 8 97.5 19t45.5 36q21 41 21 203v350l-207 -104v78l207 104v406q0 110 -17 143q-14 26 -45.5 36.5t-101.5 18.5v52q172 -9 242 -9q72 0 245 9v-52q-72 -8 -103.5 -18.5t-45.5 -36.5q-17 -30 -17 -141
v-328z" />
    <glyph glyph-name="lslash" unicode="&#x142;" horiz-adv-x="585" 
d="M551 1018v-78l-186 -106v-525v-31q0 -92 2.5 -129.5t15.5 -58.5q12 -21 39.5 -29.5t87.5 -15.5v-45q-125 8 -217 8q-91 0 -219 -8v45q58 7 85.5 14.5t39.5 26.5q14 19 17 55t3 127v41v443l-174 -101v76l174 100v349q0 88 -3 121t-17 49q-11 13 -35 18t-82 10v47
q54 4 101 12.5t76 16.5t83 25l33 -19q-10 -85 -10 -239v-306z" />
    <glyph glyph-name="Nacute" unicode="&#x143;" horiz-adv-x="1523" 
d="M995 1731l113 -50l2 -32l-356 -193l-27 37zM1253 1384q5 0 189 9v-52q-69 -10 -94.5 -19.5t-38.5 -35.5q-17 -33 -17 -207v-1079h-53l-915 1188l2 -873q0 -101 2.5 -143.5t13.5 -65.5q13 -27 47.5 -36.5t145.5 -18.5v-51q-58 2 -114 4t-86.5 3t-53.5 1q-35 0 -199 -8v51
q66 10 92 18.5t37 30.5q13 23 16.5 68.5t3.5 146.5v762v66.5t-2 52t-2 42t-7 31t-8.5 23.5t-15 16t-18 12t-25.5 8t-31 7t-40 6v52h276l840 -1102v786q0 101 -3.5 146.5t-16.5 68.5q-12 22 -47 31t-142 18v52q69 -2 152 -5.5t112 -3.5z" />
    <glyph glyph-name="nacute" unicode="&#x144;" horiz-adv-x="1263" 
d="M793 1397h122l15 -29l-262 -319l-35 24zM385 678v-436q0 -117 18 -152q12 -21 39.5 -29.5t87.5 -15.5v-45q-125 8 -217 8t-217 -8v45q57 7 84 14.5t39 26.5q21 31 21 158v393q0 85 -3.5 119.5t-17.5 50.5q-11 13 -34.5 19t-80.5 12v45q128 11 258 53l33 -18
q-8 -82 -8 -134q82 79 161 120.5t185 41.5q156 0 237 -94t81 -272v-338q0 -121 16 -152q12 -21 39.5 -29.5t87.5 -15.5v-45q-125 8 -217 8t-217 -8v45q57 7 84 14.5t41 26.5q20 34 20 158v286q0 164 -62.5 232.5t-180.5 68.5q-161 0 -277 -104v-49z" />
    <glyph glyph-name="Ncommaaccent" unicode="&#x145;" horiz-adv-x="1523" 
d="M1253 1384q5 0 189 9v-52q-69 -10 -94.5 -19.5t-38.5 -35.5q-17 -33 -17 -207v-1079h-53l-915 1188l2 -873q0 -101 2.5 -143.5t13.5 -65.5q13 -27 47.5 -36.5t145.5 -18.5v-51q-58 2 -114 4t-86.5 3t-53.5 1q-35 0 -199 -8v51q66 10 92 18.5t37 30.5q13 23 16.5 68.5
t3.5 146.5v762v66.5t-2 52t-2 42t-7 31t-8.5 23.5t-15 16t-18 12t-25.5 8t-31 7t-40 6v52h276l840 -1102v786q0 101 -3.5 146.5t-16.5 68.5q-12 22 -47 31t-142 18v52q69 -2 152 -5.5t112 -3.5zM653 -451q112 88 123 189q-16 -4 -24 -4q-35 0 -58.5 24.5t-23.5 55.5
q0 36 23 63t63 27t68.5 -30.5t29.5 -82.5q1 -79 -46.5 -153.5t-127.5 -129.5z" />
    <glyph glyph-name="ncommaaccent" unicode="&#x146;" horiz-adv-x="1263" 
d="M385 678v-436q0 -117 18 -152q12 -21 39.5 -29.5t87.5 -15.5v-45q-125 8 -217 8t-217 -8v45q57 7 84 14.5t39 26.5q21 31 21 158v393q0 85 -3.5 119.5t-17.5 50.5q-11 13 -34.5 19t-80.5 12v45q128 11 258 53l33 -18q-8 -82 -8 -134q82 79 161 120.5t185 41.5
q156 0 237 -94t81 -272v-338q0 -121 16 -152q12 -21 39.5 -29.5t87.5 -15.5v-45q-125 8 -217 8t-217 -8v45q57 7 84 14.5t41 26.5q20 34 20 158v286q0 164 -62.5 232.5t-180.5 68.5q-161 0 -277 -104v-49zM539 -451q116 89 125 189q-16 -4 -25 -4q-35 0 -59.5 24.5
t-24.5 55.5q0 36 23.5 63t64.5 27q40 0 68 -30.5t28 -82.5q3 -79 -45.5 -153.5t-128.5 -129.5z" />
    <glyph glyph-name="Ncaron" unicode="&#x147;" horiz-adv-x="1523" 
d="M1010 1718l22 -30l-250 -213h-41l-252 213l23 30l254 -119zM1253 1384q5 0 189 9v-52q-69 -10 -94.5 -19.5t-38.5 -35.5q-17 -33 -17 -207v-1079h-53l-915 1188l2 -873q0 -101 2.5 -143.5t13.5 -65.5q13 -27 47.5 -36.5t145.5 -18.5v-51q-58 2 -114 4t-86.5 3t-53.5 1
q-35 0 -199 -8v51q66 10 92 18.5t37 30.5q13 23 16.5 68.5t3.5 146.5v762v66.5t-2 52t-2 42t-7 31t-8.5 23.5t-15 16t-18 12t-25.5 8t-31 7t-40 6v52h276l840 -1102v786q0 101 -3.5 146.5t-16.5 68.5q-12 22 -47 31t-142 18v52q69 -2 152 -5.5t112 -3.5z" />
    <glyph glyph-name="ncaron" unicode="&#x148;" horiz-adv-x="1263" 
d="M907 1372l25 -33l-254 -288h-33l-258 288l27 33l248 -188zM385 678v-436q0 -117 18 -152q12 -21 39.5 -29.5t87.5 -15.5v-45q-125 8 -217 8t-217 -8v45q57 7 84 14.5t39 26.5q21 31 21 158v393q0 85 -3.5 119.5t-17.5 50.5q-11 13 -34.5 19t-80.5 12v45q128 11 258 53
l33 -18q-8 -82 -8 -134q82 79 161 120.5t185 41.5q156 0 237 -94t81 -272v-338q0 -121 16 -152q12 -21 39.5 -29.5t87.5 -15.5v-45q-125 8 -217 8t-217 -8v45q57 7 84 14.5t41 26.5q20 34 20 158v286q0 164 -62.5 232.5t-180.5 68.5q-161 0 -277 -104v-49z" />
    <glyph glyph-name="Omacron" unicode="&#x14c;" 
d="M459 1536v92h567v-92h-567zM739 -20q-148 0 -272 56t-205.5 151.5t-126.5 222t-45 268.5q0 108 26.5 213.5t81 200t130.5 166.5t182 114.5t229 42.5q126 0 233 -39.5t182 -107t128 -157t78.5 -190t25.5 -206.5q0 -144 -42 -274.5t-121 -234t-204.5 -165t-279.5 -61.5z
M743 51q213 0 345.5 172t132.5 459q0 291 -134.5 476t-347.5 185q-216 0 -348.5 -166t-132.5 -452q0 -192 61 -345.5t172 -241t252 -87.5z" />
    <glyph glyph-name="omacron" unicode="&#x14d;" horiz-adv-x="1120" 
d="M297 1147v86h526v-86h-526zM549 -20q-122 0 -221.5 52t-161.5 157.5t-62 248.5q0 109 37.5 204.5t100.5 161.5t149 104t180 38q92 0 173 -33t142 -92.5t96.5 -149t35.5 -196.5q0 -217 -136 -356t-333 -139zM563 45q139 0 217 106.5t78 297.5q0 190 -78 312t-223 122
q-138 0 -216.5 -110.5t-78.5 -301.5q0 -189 77.5 -307.5t223.5 -118.5z" />
    <glyph glyph-name="Ohungarumlaut" unicode="&#x150;" 
d="M901 1784h127l14 -29l-170 -266l-49 20zM680 1784h127l14 -29l-170 -266l-49 20zM739 -20q-148 0 -272 56t-205.5 151.5t-126.5 222t-45 268.5q0 108 26.5 213.5t81 200t130.5 166.5t182 114.5t229 42.5q126 0 233 -39.5t182 -107t128 -157t78.5 -190t25.5 -206.5
q0 -144 -42 -274.5t-121 -234t-204.5 -165t-279.5 -61.5zM743 51q213 0 345.5 172t132.5 459q0 291 -134.5 476t-347.5 185q-216 0 -348.5 -166t-132.5 -452q0 -192 61 -345.5t172 -241t252 -87.5z" />
    <glyph glyph-name="ohungarumlaut" unicode="&#x151;" horiz-adv-x="1120" 
d="M520 1397h119l14 -29l-182 -313l-43 18zM741 1397h119l14 -29l-182 -313l-43 18zM549 -20q-122 0 -221.5 52t-161.5 157.5t-62 248.5q0 109 37.5 204.5t100.5 161.5t149 104t180 38q92 0 173 -33t142 -92.5t96.5 -149t35.5 -196.5q0 -217 -136 -356t-333 -139zM563 45
q139 0 217 106.5t78 297.5q0 190 -78 312t-223 122q-138 0 -216.5 -110.5t-78.5 -301.5q0 -189 77.5 -307.5t223.5 -118.5z" />
    <glyph glyph-name="OE" unicode="&#x152;" horiz-adv-x="1988" 
d="M1858 395h55l-39 -395h-938q-92 -20 -186 -20q-153 0 -279 56t-208.5 152t-127.5 222t-45 268q0 108 27 213.5t83 200t133.5 166.5t187 114.5t235.5 42.5q105 0 202 -22h881l21 -355h-56l-108 283h-529v-561h238q50 0 81.5 5t52.5 15.5t33 31t20 46.5t18 67l1.5 9t2 8.5
t2.5 9.5h51v-458h-51q-26 106 -37 128q-22 46 -77 58q-35 8 -97 8h-238v-616h559zM258 725q0 -193 62 -346.5t177.5 -240.5t264.5 -87q148 0 198 52.5t50 195.5v784q0 58 -4 96.5t-15.5 69t-29 47.5t-49.5 28.5t-71 15t-98 3.5q-217 0 -351 -166t-134 -452z" />
    <glyph glyph-name="oe" unicode="&#x153;" horiz-adv-x="1722" 
d="M1642 575v-79h-641q0 -199 84.5 -302.5t243.5 -103.5q154 0 283 111l35 -37q-161 -184 -385 -184q-127 0 -213.5 56.5t-130.5 158.5q-56 -101 -152 -158t-217 -57q-122 0 -221.5 52t-161.5 157.5t-62 248.5q0 109 37.5 204.5t100.5 161.5t149 104t180 38q122 0 217 -59
t146 -166q53 106 146.5 165.5t222.5 59.5q163 0 251 -99.5t88 -271.5zM1004 553l491 12q0 67 -12 122t-37.5 100t-70 70.5t-105.5 25.5q-114 0 -183 -88.5t-83 -241.5zM563 43q138 0 214.5 107t76.5 299q0 124 -31.5 220t-100 155t-165.5 59q-137 0 -214 -110t-77 -302
q0 -124 31.5 -218.5t100 -152t165.5 -57.5z" />
    <glyph glyph-name="Racute" unicode="&#x154;" horiz-adv-x="1368" 
d="M840 1731l110 -50l4 -32l-358 -193l-25 37zM1358 49v-49q-152 4 -174 4q-39 0 -137 -4l-402 651q-70 -4 -115 -4h-116v-340q0 -164 20 -201q16 -25 48 -35t112 -20v-51q-159 8 -258 8q-95 0 -254 -8v51q78 10 110 20.5t46 37.5q26 43 26 200v776q0 94 -4.5 136.5
t-21.5 68.5q-25 39 -152 51v52h518q273 0 412 -86t139 -254q0 -140 -92.5 -238t-267.5 -139l260 -400q39 -59 72 -99t58.5 -63.5t56 -37t54 -18.5t62.5 -9zM414 1325v-598q72 -10 135 -10q444 0 444 307q0 143 -104 222t-307 79h-168z" />
    <glyph glyph-name="racute" unicode="&#x155;" horiz-adv-x="815" 
d="M569 1397h123l15 -29l-263 -319l-34 24zM385 684v-14q35 56 66 96.5t72.5 79.5t90 59.5t103.5 20.5q33 0 53 -4l-22 -148q-121 0 -209.5 -37.5t-153.5 -126.5v-368q0 -117 18 -152q13 -22 47.5 -30.5t124.5 -14.5v-45q-185 8 -262 8q-92 0 -217 -8v45q57 7 84 14.5
t39 26.5q21 31 21 158v401q0 84 -3.5 118.5t-17.5 51.5q-18 21 -115 29v47q130 9 256 53l35 -20q-10 -85 -10 -240z" />
    <glyph glyph-name="Rcommaaccent" unicode="&#x156;" horiz-adv-x="1368" 
d="M1358 49v-49q-152 4 -174 4q-39 0 -137 -4l-402 651q-70 -4 -115 -4h-116v-340q0 -164 20 -201q16 -25 48 -35t112 -20v-51q-159 8 -258 8q-95 0 -254 -8v51q78 10 110 20.5t46 37.5q26 43 26 200v776q0 94 -4.5 136.5t-21.5 68.5q-25 39 -152 51v52h518q273 0 412 -86
t139 -254q0 -140 -92.5 -238t-267.5 -139l260 -400q39 -59 72 -99t58.5 -63.5t56 -37t54 -18.5t62.5 -9zM414 1325v-598q72 -10 135 -10q444 0 444 307q0 143 -104 222t-307 79h-168zM610 -451q111 88 123 189q-16 -4 -24 -4q-35 0 -59.5 24.5t-24.5 55.5q0 36 23.5 63
t64.5 27q40 0 68.5 -30.5t29.5 -82.5q1 -78 -47 -153t-127 -130z" />
    <glyph glyph-name="rcommaaccent" unicode="&#x157;" horiz-adv-x="815" 
d="M385 684v-14q35 56 66 96.5t72.5 79.5t90 59.5t103.5 20.5q33 0 53 -4l-22 -148q-121 0 -209.5 -37.5t-153.5 -126.5v-368q0 -117 18 -152q13 -22 47.5 -30.5t124.5 -14.5v-45q-185 8 -262 8q-92 0 -217 -8v45q57 7 84 14.5t39 26.5q21 31 21 158v401q0 84 -3.5 118.5
t-17.5 51.5q-18 21 -115 29v47q130 9 256 53l35 -20q-10 -85 -10 -240zM207 -451q116 89 125 189q-16 -4 -25 -4q-35 0 -59.5 24.5t-24.5 55.5q0 36 23.5 63t64.5 27q40 0 68.5 -30.5t28.5 -82.5q3 -78 -45.5 -153t-129.5 -130z" />
    <glyph glyph-name="Rcaron" unicode="&#x158;" horiz-adv-x="1368" 
d="M854 1718l23 -30l-252 -213h-39l-254 213l22 30l254 -119zM1358 49v-49q-152 4 -174 4q-39 0 -137 -4l-402 651q-70 -4 -115 -4h-116v-340q0 -164 20 -201q16 -25 48 -35t112 -20v-51q-159 8 -258 8q-95 0 -254 -8v51q78 10 110 20.5t46 37.5q26 43 26 200v776
q0 94 -4.5 136.5t-21.5 68.5q-25 39 -152 51v52h518q273 0 412 -86t139 -254q0 -140 -92.5 -238t-267.5 -139l260 -400q39 -59 72 -99t58.5 -63.5t56 -37t54 -18.5t62.5 -9zM414 1325v-598q72 -10 135 -10q444 0 444 307q0 143 -104 222t-307 79h-168z" />
    <glyph glyph-name="rcaron" unicode="&#x159;" horiz-adv-x="815" 
d="M684 1372l25 -33l-254 -288h-33l-258 288l26 33l248 -188zM385 684v-14q35 56 66 96.5t72.5 79.5t90 59.5t103.5 20.5q33 0 53 -4l-22 -148q-121 0 -209.5 -37.5t-153.5 -126.5v-368q0 -117 18 -152q13 -22 47.5 -30.5t124.5 -14.5v-45q-185 8 -262 8q-92 0 -217 -8v45
q57 7 84 14.5t39 26.5q21 31 21 158v401q0 84 -3.5 118.5t-17.5 51.5q-18 21 -115 29v47q130 9 256 53l35 -20q-10 -85 -10 -240z" />
    <glyph glyph-name="Sacute" unicode="&#x15a;" horiz-adv-x="1140" 
d="M815 1753l113 -49l2 -33l-359 -190l-24 35zM516 -20q-203 0 -414 100l62 326h55l51 -289q142 -64 271 -64q158 0 253 69t95 185q0 27 -6.5 51.5t-14.5 44.5t-27.5 42t-32.5 36.5t-44 35.5t-47 31.5t-57 32.5t-58.5 31t-64.5 33q-58 30 -90 46.5t-79.5 45t-74 49.5
t-58 52.5t-47.5 62t-27 69.5t-11 83q0 160 125 261t339 101q191 0 387 -94l-53 -307h-55l-53 270q-128 59 -246 59q-147 0 -227 -63t-80 -172q0 -23 3.5 -44t12.5 -40t17 -34.5t26 -32.5t30 -29t37.5 -28.5t41 -26t47.5 -26t49 -25l55 -27.5q61 -30 96 -48t86.5 -47.5
t81.5 -52.5t65 -56.5t53.5 -66t31 -74.5t12.5 -88q0 -167 -143 -274.5t-373 -107.5z" />
    <glyph glyph-name="sacute" unicode="&#x15b;" horiz-adv-x="888" 
d="M598 1397h123l14 -29l-262 -319l-35 24zM412 410q-54 24 -89 41t-73 42.5t-59.5 51t-35.5 61.5t-14 78q0 115 96 188.5t244 73.5q170 0 285 -67l-47 -232h-43l-51 199q-73 37 -160 37q-92 0 -140.5 -43t-48.5 -111q0 -65 50 -105t166 -89q56 -24 91.5 -41.5t76.5 -44.5
t64 -54t38.5 -66t15.5 -85q0 -81 -51.5 -142t-134.5 -91.5t-184 -30.5q-175 0 -297 69l49 240h43l55 -211q80 -35 168 -35q101 0 158 45t57 117q0 31 -11.5 56t-26.5 42.5t-50 38t-60.5 32.5t-80.5 36z" />
    <glyph glyph-name="Scedilla" unicode="&#x15e;" horiz-adv-x="1140" 
d="M428 -432q121 49 121 110q0 27 -48 88.5t-48 96.5q0 62 55 117q-204 3 -406 100l62 326h55l51 -289q142 -64 271 -64q158 0 253 69t95 185q0 27 -6.5 51.5t-14.5 44.5t-27.5 42t-32.5 36.5t-44 35.5t-47 31.5t-57 32.5t-58.5 31t-64.5 33q-58 30 -90 46.5t-79.5 45
t-74 49.5t-58 52.5t-47.5 62t-27 69.5t-11 83q0 160 125 261t339 101q191 0 387 -94l-53 -307h-55l-53 270q-128 59 -246 59q-147 0 -227 -63t-80 -172q0 -23 3.5 -44t12.5 -40t17 -34.5t26 -32.5t30 -29t37.5 -28.5t41 -26t47.5 -26t49 -25l55 -27.5q61 -30 96 -48
t86.5 -47.5t81.5 -52.5t65 -56.5t53.5 -66t31 -74.5t12.5 -88q0 -156 -126.5 -261.5t-334.5 -118.5q-28 -47 -28 -88q0 -19 16 -42t35 -42.5t35 -47t16 -53.5q0 -54 -56.5 -99t-148.5 -75z" />
    <glyph glyph-name="scedilla" unicode="&#x15f;" horiz-adv-x="888" 
d="M303 -432q121 48 121 110q0 27 -48 88.5t-48 96.5q0 63 57 117q-167 8 -274 69l49 240h43l55 -211q80 -35 168 -35q101 0 158 45t57 117q0 31 -11.5 56t-26.5 42.5t-50 38t-60.5 32.5t-80.5 36q-54 24 -89 41t-73 42.5t-59.5 51t-35.5 61.5t-14 78q0 115 96 188.5
t244 73.5q170 0 285 -67l-47 -232h-43l-51 199q-73 37 -160 37q-92 0 -140.5 -43t-48.5 -111q0 -65 50 -105t166 -89q56 -24 91.5 -41.5t76.5 -44.5t64 -54t38.5 -66t15.5 -85q0 -114 -94.5 -184t-237.5 -78q-26 -44 -26 -88q0 -19 15.5 -42t34.5 -42.5t34.5 -47t15.5 -53.5
q0 -54 -56 -99.5t-147 -74.5z" />
    <glyph glyph-name="Scaron" unicode="&#x160;" horiz-adv-x="1140" 
d="M829 1741l23 -31l-252 -213h-39l-254 213l23 31l254 -119zM516 -20q-203 0 -414 100l62 326h55l51 -289q142 -64 271 -64q158 0 253 69t95 185q0 27 -6.5 51.5t-14.5 44.5t-27.5 42t-32.5 36.5t-44 35.5t-47 31.5t-57 32.5t-58.5 31t-64.5 33q-58 30 -90 46.5t-79.5 45
t-74 49.5t-58 52.5t-47.5 62t-27 69.5t-11 83q0 160 125 261t339 101q191 0 387 -94l-53 -307h-55l-53 270q-128 59 -246 59q-147 0 -227 -63t-80 -172q0 -23 3.5 -44t12.5 -40t17 -34.5t26 -32.5t30 -29t37.5 -28.5t41 -26t47.5 -26t49 -25l55 -27.5q61 -30 96 -48
t86.5 -47.5t81.5 -52.5t65 -56.5t53.5 -66t31 -74.5t12.5 -88q0 -167 -143 -274.5t-373 -107.5z" />
    <glyph glyph-name="scaron" unicode="&#x161;" horiz-adv-x="888" 
d="M711 1372l26 -33l-256 -288h-32l-256 288l26 33l246 -188zM412 410q-54 24 -89 41t-73 42.5t-59.5 51t-35.5 61.5t-14 78q0 115 96 188.5t244 73.5q170 0 285 -67l-47 -232h-43l-51 199q-73 37 -160 37q-92 0 -140.5 -43t-48.5 -111q0 -65 50 -105t166 -89
q56 -24 91.5 -41.5t76.5 -44.5t64 -54t38.5 -66t15.5 -85q0 -81 -51.5 -142t-134.5 -91.5t-184 -30.5q-175 0 -297 69l49 240h43l55 -211q80 -35 168 -35q101 0 158 45t57 117q0 31 -11.5 56t-26.5 42.5t-50 38t-60.5 32.5t-80.5 36z" />
    <glyph glyph-name="Tcedilla" unicode="&#x162;" horiz-adv-x="1280" 
d="M496 -430q120 48 120 111q0 27 -48 88t-48 96q0 69 84 143q-76 0 -209 -8v51q71 9 103.5 19t44.5 36q18 30 18 144v1069h-338l-114 -356h-58l27 430h1124l27 -430h-58l-114 356h-340v-1071q0 -113 16 -142q14 -26 46 -36.5t104 -18.5v-51q-145 8 -228 8q-43 -57 -43 -112
q0 -23 25 -53t50.5 -64.5t25.5 -67.5q0 -54 -56 -99.5t-147 -74.5z" />
    <glyph glyph-name="tcedilla" unicode="&#x163;" horiz-adv-x="675" 
d="M416 -20h-25q-26 -44 -26 -86q0 -19 16 -42t35 -42.5t35 -47t16 -53.5q0 -54 -56.5 -99t-148.5 -75l-12 33q121 49 121 110q0 27 -48.5 88.5t-48.5 96.5q0 65 66 125q-143 36 -143 237v611h-138v45q96 18 149.5 88.5t80.5 191.5h53v-248l317 13v-90h-317v-545
q0 -126 36.5 -173.5t121.5 -47.5q66 0 141 28l21 -51q-130 -67 -246 -67z" />
    <glyph glyph-name="Tcaron" unicode="&#x164;" horiz-adv-x="1280" 
d="M889 1716l22 -30l-252 -213h-38l-254 213l22 30l254 -117zM51 963l27 430h1124l27 -430h-58l-114 356h-340v-1071q0 -113 16 -142q14 -26 46 -36.5t104 -18.5v-51q-153 8 -244 8t-244 -8v51q71 9 103.5 19t44.5 36q18 30 18 144v1069h-338l-114 -356h-58z" />
    <glyph glyph-name="tcaron" unicode="&#x165;" horiz-adv-x="675" 
d="M434 1040q114 87 125 189q-8 -4 -27 -4q-35 0 -58 23.5t-23 54.5q0 38 22.5 65t63.5 27q40 0 68.5 -31.5t29.5 -83.5q3 -76 -45.5 -151t-128.5 -132zM416 -20q-113 0 -166 60.5t-53 184.5v611h-138v45q96 18 149.5 88.5t80.5 191.5h53v-248l317 13v-90h-317v-545
q0 -126 36.5 -173.5t121.5 -47.5q66 0 141 28l21 -51q-130 -67 -246 -67z" />
    <glyph glyph-name="Umacron" unicode="&#x16a;" horiz-adv-x="1404" 
d="M446 1513v93h568v-93h-568zM1214 1096v-498q0 -314 -122.5 -466t-389.5 -152q-139 0 -238.5 43t-157.5 127.5t-84.5 197t-26.5 262.5v533q0 110 -17 143q-14 26 -45 36.5t-100 18.5v52q169 -9 239 -9q71 0 244 9v-52q-71 -8 -102 -18.5t-45 -36.5q-17 -30 -17 -141v-510
q0 -273 91.5 -416t299.5 -143q194 0 283.5 117.5t89.5 363.5v539q0 150 -16 188q-12 28 -42 38t-100 19v52q147 -9 213 -9q51 0 201 9v-52q-70 -10 -97.5 -19.5t-41.5 -33.5q-19 -37 -19 -192z" />
    <glyph glyph-name="umacron" unicode="&#x16b;" horiz-adv-x="1198" 
d="M289 1141v88h526v-88h-526zM975 946v-667q0 -53 2 -86.5t10 -59.5t17 -38.5t30.5 -20.5t44 -9.5t62.5 -1.5v-45l-312 -38v143q-78 -69 -153.5 -106t-169.5 -37q-311 0 -311 366v318q0 48 -2 78.5t-9.5 53.5t-16.5 34t-30.5 18t-43 8.5t-60.5 1.5v45l305 43v-561
q0 -161 63 -226t181 -65q131 0 247 86v484q0 48 -2 78.5t-9.5 53.5t-16 34t-29.5 18t-42 8.5t-60 1.5v45z" />
    <glyph glyph-name="Uring" unicode="&#x16e;" horiz-adv-x="1404" 
d="M727 1866q82 0 139.5 -57t57.5 -140q0 -80 -57.5 -137t-139.5 -57q-79 0 -135.5 57t-56.5 137q0 83 56 140t136 57zM727 1810q-57 0 -96 -40t-39 -101q0 -59 39 -99t96 -40q59 0 99 40t40 99q0 61 -40 101t-99 40zM1214 1096v-498q0 -314 -122.5 -466t-389.5 -152
q-139 0 -238.5 43t-157.5 127.5t-84.5 197t-26.5 262.5v533q0 110 -17 143q-14 26 -45 36.5t-100 18.5v52q169 -9 239 -9q71 0 244 9v-52q-71 -8 -102 -18.5t-45 -36.5q-17 -30 -17 -141v-510q0 -273 91.5 -416t299.5 -143q194 0 283.5 117.5t89.5 363.5v539q0 150 -16 188
q-12 28 -42 38t-100 19v52q147 -9 213 -9q51 0 201 9v-52q-70 -10 -97.5 -19.5t-41.5 -33.5q-19 -37 -19 -192z" />
    <glyph glyph-name="uring" unicode="&#x16f;" horiz-adv-x="1198" 
d="M553 1403q82 0 139.5 -56.5t57.5 -138.5q0 -80 -57.5 -137t-139.5 -57q-81 0 -138 57t-57 137q0 82 56.5 138.5t138.5 56.5zM553 1348q-59 0 -97 -39.5t-38 -100.5q0 -59 38.5 -99t96.5 -40q57 0 97 40.5t40 98.5q0 61 -39.5 100.5t-97.5 39.5zM975 946v-667
q0 -53 2 -86.5t10 -59.5t17 -38.5t30.5 -20.5t44 -9.5t62.5 -1.5v-45l-312 -38v143q-78 -69 -153.5 -106t-169.5 -37q-311 0 -311 366v318q0 48 -2 78.5t-9.5 53.5t-16.5 34t-30.5 18t-43 8.5t-60.5 1.5v45l305 43v-561q0 -161 63 -226t181 -65q131 0 247 86v484
q0 48 -2 78.5t-9.5 53.5t-16 34t-29.5 18t-42 8.5t-60 1.5v45z" />
    <glyph glyph-name="Uhungarumlaut" unicode="&#x170;" horiz-adv-x="1404" 
d="M891 1761h125l14 -28l-170 -267l-49 21zM670 1761h125l14 -28l-168 -267l-51 21zM1214 1096v-498q0 -314 -122.5 -466t-389.5 -152q-139 0 -238.5 43t-157.5 127.5t-84.5 197t-26.5 262.5v533q0 110 -17 143q-14 26 -45 36.5t-100 18.5v52q169 -9 239 -9q71 0 244 9v-52
q-71 -8 -102 -18.5t-45 -36.5q-17 -30 -17 -141v-510q0 -273 91.5 -416t299.5 -143q194 0 283.5 117.5t89.5 363.5v539q0 150 -16 188q-12 28 -42 38t-100 19v52q147 -9 213 -9q51 0 201 9v-52q-70 -10 -97.5 -19.5t-41.5 -33.5q-19 -37 -19 -192z" />
    <glyph glyph-name="uhungarumlaut" unicode="&#x171;" horiz-adv-x="1198" 
d="M512 1393h117l14 -29l-180 -313l-43 16zM733 1393h117l14 -29l-182 -313l-41 16zM975 946v-667q0 -53 2 -86.5t10 -59.5t17 -38.5t30.5 -20.5t44 -9.5t62.5 -1.5v-45l-312 -38v143q-78 -69 -153.5 -106t-169.5 -37q-311 0 -311 366v318q0 48 -2 78.5t-9.5 53.5t-16.5 34
t-30.5 18t-43 8.5t-60.5 1.5v45l305 43v-561q0 -161 63 -226t181 -65q131 0 247 86v484q0 48 -2 78.5t-9.5 53.5t-16 34t-29.5 18t-42 8.5t-60 1.5v45z" />
    <glyph glyph-name="Uogonek" unicode="&#x172;" horiz-adv-x="1404" 
d="M956 -360q-70 -60 -149 -60q-63 0 -98 40t-35 104q0 65 38 128.5t111 135.5q-49 -8 -121 -8q-139 0 -238.5 43t-157.5 127.5t-84.5 197t-26.5 262.5v533q0 110 -17 143q-14 26 -45 36.5t-100 18.5v52q169 -9 239 -9q71 0 244 9v-52q-71 -8 -102 -18.5t-45 -36.5
q-17 -30 -17 -141v-510q0 -273 91.5 -416t299.5 -143q194 0 283.5 117.5t89.5 363.5v539q0 150 -16 188q-12 28 -42 38t-100 19v52q147 -9 213 -9q51 0 201 9v-52q-70 -10 -97.5 -19.5t-41.5 -33.5q-19 -37 -19 -192v-498q0 -251 -77 -398t-242 -196q-107 -136 -107 -246
q0 -98 86 -98q35 0 72 16z" />
    <glyph glyph-name="uogonek" unicode="&#x173;" horiz-adv-x="1198" 
d="M1042 -360q-70 -60 -149 -60q-63 0 -98 40t-35 104q0 117 149 266l-80 -10v143q-78 -69 -153.5 -106t-169.5 -37q-311 0 -311 366v318q0 48 -2 78.5t-9.5 53.5t-16.5 34t-30.5 18t-43 8.5t-60.5 1.5v45l305 43v-561q0 -161 63 -226t181 -65q131 0 247 86v484
q0 48 -2 78.5t-9.5 53.5t-16 34t-29.5 18t-42 8.5t-60 1.5v45l305 43v-667q0 -53 2 -86.5t10 -59.5t17 -38.5t30.5 -20.5t44 -9.5t62.5 -1.5v-45l-166 -20q-101 -134 -101 -240q0 -98 87 -98q34 0 71 16z" />
    <glyph glyph-name="Wcircumflex" unicode="&#x174;" horiz-adv-x="2123" 
d="M1126 1702l250 -215l-20 -31l-246 119l-254 -119l-22 31l253 215h39zM1915 1384q1 0 190 9v-52q-55 -8 -78.5 -14.5t-48 -30t-38 -55.5t-39.5 -104l-418 -1137h-49l-361 1018l-385 -1018h-47l-391 1077q-26 69 -37.5 100t-30 66t-28 45.5t-33 24.5t-43 17.5t-60.5 10.5
v52q185 -9 256 -9q56 0 240 9v-52q-38 -5 -58 -9t-44 -12.5t-34.5 -23t-10.5 -36.5q0 -42 51 -183l287 -798l378 1026h50l364 -1033l303 865q4 13 11 33t10.5 30.5t8 23.5t6 22.5t1.5 17.5q0 27 -21.5 43.5t-40.5 21t-65 10.5q-8 1 -12 2v52q189 -9 217 -9z" />
    <glyph glyph-name="Ycircumflex" unicode="&#x176;" horiz-adv-x="1290" 
d="M692 1702l250 -215l-20 -31l-246 119l-254 -119l-23 31l254 215h39zM1085 1219l-366 -609v-362q0 -113 16 -142q14 -26 46 -36.5t104 -18.5v-51q-153 8 -246 8q-89 0 -242 -8v51q71 9 103.5 19t44.5 36q18 30 18 144v332l-319 565q-26 46 -38.5 67.5t-31 46.5t-30 33.5
t-33.5 20t-43 16t-58 10.5v52q202 -9 238 -9q134 0 260 9v-52q-72 -13 -105.5 -30t-33.5 -47t34 -90l275 -488l283 492q36 61 36 88q0 33 -37 48t-122 27v52q141 -9 245 -9q25 0 197 9v-52q-82 -17 -108 -30q-47 -24 -87 -92z" />
    <glyph glyph-name="Ydieresis" unicode="&#x178;" horiz-adv-x="1290" 
d="M850 1475q-41 0 -70.5 30.5t-29.5 73.5q0 40 29.5 70t70.5 30t70.5 -30t29.5 -70q0 -43 -29.5 -73.5t-70.5 -30.5zM494 1475q-43 0 -73 30.5t-30 73.5q0 40 30.5 70t72.5 30q40 0 69 -30t29 -70q0 -43 -29 -73.5t-69 -30.5zM1085 1219l-366 -609v-362q0 -113 16 -142
q14 -26 46 -36.5t104 -18.5v-51q-153 8 -246 8q-89 0 -242 -8v51q71 9 103.5 19t44.5 36q18 30 18 144v332l-319 565q-26 46 -38.5 67.5t-31 46.5t-30 33.5t-33.5 20t-43 16t-58 10.5v52q202 -9 238 -9q134 0 260 9v-52q-72 -13 -105.5 -30t-33.5 -47t34 -90l275 -488
l283 492q36 61 36 88q0 33 -37 48t-122 27v52q141 -9 245 -9q25 0 197 9v-52q-82 -17 -108 -30q-47 -24 -87 -92z" />
    <glyph glyph-name="Zacute" unicode="&#x179;" horiz-adv-x="1159" 
d="M825 1731l113 -50l2 -32l-356 -193l-25 37zM915 74l121 329h54l-25 -403h-995v49l823 1270h-645l-115 -326h-53l22 400h979v-50l-821 -1269h655z" />
    <glyph glyph-name="zacute" unicode="&#x17a;" horiz-adv-x="970" 
d="M643 1393h123l14 -29l-262 -322l-35 25zM831 0h-727v41l582 819h-414l-102 -217h-43l20 283h719v-43l-581 -817h424l112 217h45z" />
    <glyph glyph-name="Zdotaccent" unicode="&#x17b;" horiz-adv-x="1159" 
d="M592 1470q-44 0 -74.5 31.5t-30.5 75.5t30.5 75t74.5 31t75 -31t31 -75t-31 -75.5t-75 -31.5zM915 74l121 329h54l-25 -403h-995v49l823 1270h-645l-115 -326h-53l22 400h979v-50l-821 -1269h655z" />
    <glyph glyph-name="zdotaccent" unicode="&#x17c;" horiz-adv-x="970" 
d="M512 1128q-46 0 -77.5 31.5t-31.5 75.5q0 46 31.5 77t77.5 31q44 0 75 -31t31 -77q0 -44 -31 -75.5t-75 -31.5zM831 0h-727v41l582 819h-414l-102 -217h-43l20 283h719v-43l-581 -817h424l112 217h45z" />
    <glyph glyph-name="Zcaron" unicode="&#x17d;" horiz-adv-x="1159" 
d="M842 1718l22 -30l-252 -213h-39l-254 213l23 30l254 -119zM915 74l121 329h54l-25 -403h-995v49l823 1270h-645l-115 -326h-53l22 400h979v-50l-821 -1269h655z" />
    <glyph glyph-name="zcaron" unicode="&#x17e;" horiz-adv-x="970" 
d="M758 1368l24 -33l-254 -288h-32l-258 288l26 33l248 -188zM831 0h-727v41l582 819h-414l-102 -217h-43l20 283h719v-43l-581 -817h424l112 217h45z" />
    <glyph glyph-name="florin" unicode="&#x192;" horiz-adv-x="1091" 
d="M29 -518l-23 47q140 102 206.5 226t102.5 356l93 587h-224v78h236l4 27q25 153 75 263.5t117 171t138.5 87.5t152.5 27q70 0 154 -23l-94 -244h-43l-27 191q-25 10 -57 10q-89 0 -161 -100t-106 -320l-14 -90h301v-78h-313l-78 -514q-29 -184 -89 -317.5t-142.5 -220
t-208.5 -164.5z" />
    <glyph glyph-name="Scommaaccent" unicode="&#x218;" horiz-adv-x="1140" 
d="M516 -20q-203 0 -414 100l62 326h55l51 -289q142 -64 271 -64q158 0 253 69t95 185q0 27 -6.5 51.5t-14.5 44.5t-27.5 42t-32.5 36.5t-44 35.5t-47 31.5t-57 32.5t-58.5 31t-64.5 33q-58 30 -90 46.5t-79.5 45t-74 49.5t-58 52.5t-47.5 62t-27 69.5t-11 83q0 160 125 261
t339 101q191 0 387 -94l-53 -307h-55l-53 270q-128 59 -246 59q-147 0 -227 -63t-80 -172q0 -23 3.5 -44t12.5 -40t17 -34.5t26 -32.5t30 -29t37.5 -28.5t41 -26t47.5 -26t49 -25l55 -27.5q61 -30 96 -48t86.5 -47.5t81.5 -52.5t65 -56.5t53.5 -66t31 -74.5t12.5 -88
q0 -167 -143 -274.5t-373 -107.5zM463 -451q112 88 123 189q-16 -4 -25 -4q-35 0 -58.5 24.5t-23.5 55.5q0 36 23 63t63 27t69 -30.5t30 -82.5q3 -78 -45.5 -153t-129.5 -130z" />
    <glyph glyph-name="scommaaccent" unicode="&#x219;" horiz-adv-x="888" 
d="M412 410q-54 24 -89 41t-73 42.5t-59.5 51t-35.5 61.5t-14 78q0 115 96 188.5t244 73.5q170 0 285 -67l-47 -232h-43l-51 199q-73 37 -160 37q-92 0 -140.5 -43t-48.5 -111q0 -65 50 -105t166 -89q56 -24 91.5 -41.5t76.5 -44.5t64 -54t38.5 -66t15.5 -85
q0 -81 -51.5 -142t-134.5 -91.5t-184 -30.5q-175 0 -297 69l49 240h43l55 -211q80 -35 168 -35q101 0 158 45t57 117q0 31 -11.5 56t-26.5 42.5t-50 38t-60.5 32.5t-80.5 36zM342 -451q114 89 125 189q-16 -4 -27 -4q-35 0 -58.5 24.5t-23.5 55.5q0 36 23 63t63 27
q41 0 69.5 -30.5t29.5 -82.5q3 -79 -45.5 -153.5t-128.5 -129.5z" />
    <glyph glyph-name="Tcommaaccent" unicode="&#x21a;" horiz-adv-x="1280" 
d="M51 963l27 430h1124l27 -430h-58l-114 356h-340v-1071q0 -113 16 -142q14 -26 46 -36.5t104 -18.5v-51q-153 8 -244 8t-244 -8v51q71 9 103.5 19t44.5 36q18 30 18 144v1069h-338l-114 -356h-58zM530 -449q114 89 125 189q-16 -4 -26 -4q-34 0 -58 25t-24 55
q0 38 22.5 64t63.5 26t69.5 -30.5t28.5 -82.5q3 -78 -45 -152.5t-129 -129.5z" />
    <glyph glyph-name="tcommaaccent" unicode="&#x21b;" horiz-adv-x="675" 
d="M416 -20q-113 0 -166 60.5t-53 184.5v611h-138v45q96 18 149.5 88.5t80.5 191.5h53v-248l317 13v-90h-317v-545q0 -126 36.5 -173.5t121.5 -47.5q66 0 141 28l21 -51q-130 -67 -246 -67zM289 -451q111 88 123 189q-16 -4 -25 -4q-35 0 -59.5 24.5t-24.5 55.5
q0 36 23.5 63t64.5 27q40 0 68.5 -30.5t29.5 -82.5q1 -78 -47 -153t-127 -130z" />
    <glyph glyph-name="circumflex" unicode="&#x2c6;" horiz-adv-x="544" 
d="M289 1368l256 -287l-27 -34l-246 188l-245 -188l-27 34l256 287h33z" />
    <glyph glyph-name="caron" unicode="&#x2c7;" horiz-adv-x="544" 
d="M518 1368l27 -33l-256 -288h-33l-256 288l27 33l245 -188z" />
    <glyph glyph-name="macronmod" unicode="&#x2c9;" horiz-adv-x="567" 
d="M567 1161h-567v94h567v-94z" />
    <glyph glyph-name="breve" unicode="&#x2d8;" horiz-adv-x="536" 
d="M492 1341h45q0 -121 -72 -201.5t-193 -80.5q-122 0 -197 81t-75 201h45q40 -184 227 -184q180 0 220 184z" />
    <glyph glyph-name="dotaccent" unicode="&#x2d9;" horiz-adv-x="217" 
d="M109 1128q-46 0 -77.5 31.5t-31.5 75.5q0 46 31.5 77t77.5 31q45 0 76.5 -31.5t31.5 -76.5q0 -44 -32 -75.5t-76 -31.5z" />
    <glyph glyph-name="ring" unicode="&#x2da;" horiz-adv-x="391" 
d="M193 1403q83 0 140.5 -56.5t57.5 -138.5q0 -80 -57.5 -137t-140.5 -57q-79 0 -136 57t-57 137q0 81 56.5 138t136.5 57zM193 1348q-57 0 -95.5 -39.5t-38.5 -100.5q0 -59 38.5 -99t95.5 -40q59 0 99 40.5t40 98.5q0 61 -40 100.5t-99 39.5z" />
    <glyph glyph-name="ogonek" unicode="&#x2db;" horiz-adv-x="284" 
d="M285 -381q-72 -59 -150 -59q-63 0 -99 40t-36 103q0 75 50.5 148t148.5 165h49q-133 -158 -133 -278q0 -98 88 -98q37 0 69 16z" />
    <glyph glyph-name="tilde" unicode="&#x2dc;" horiz-adv-x="561" 
d="M49 1092l-49 20q39 168 176 168q52 0 133.5 -39t110.5 -39q58 0 94 94l47 -18q-20 -83 -64 -127.5t-102 -44.5q-51 0 -130 40t-113 40q-33 0 -57.5 -22t-45.5 -72z" />
    <glyph glyph-name="hungarumlaut" unicode="&#x2dd;" horiz-adv-x="444" 
d="M92 1393h117l14 -29l-182 -313l-41 16zM313 1393h117l14 -29l-182 -313l-41 16z" />
    <glyph glyph-name="gravecomb" unicode="&#x300;" horiz-adv-x="296" 
d="M0 1364l14 29h123l160 -326l-35 -25z" />
    <glyph glyph-name="acutecomb" unicode="&#x301;" horiz-adv-x="296" 
d="M160 1393h123l14 -29l-262 -322l-35 25z" />
    <glyph glyph-name="circumflexcomb" unicode="&#x302;" horiz-adv-x="544" 
d="M289 1368l256 -287l-27 -34l-246 188l-245 -188l-27 34l256 287h33z" />
    <glyph glyph-name="tildecomb" unicode="&#x303;" horiz-adv-x="561" 
d="M49 1092l-49 20q39 168 176 168q52 0 133.5 -39t110.5 -39q58 0 94 94l47 -18q-20 -83 -64 -127.5t-102 -44.5q-51 0 -130 40t-113 40q-33 0 -57.5 -22t-45.5 -72z" />
    <glyph glyph-name="macroncomb" unicode="&#x304;" horiz-adv-x="526" 
d="M0 1141v88h526v-88h-526z" />
    <glyph glyph-name="brevecomb" unicode="&#x306;" horiz-adv-x="536" 
d="M492 1341h45q0 -121 -72 -201.5t-193 -80.5q-122 0 -197 81t-75 201h45q40 -184 227 -184q180 0 220 184z" />
    <glyph glyph-name="dotaccentcomb" unicode="&#x307;" horiz-adv-x="217" 
d="M109 1128q-46 0 -77.5 31.5t-31.5 75.5q0 46 31.5 77t77.5 31q45 0 76.5 -31.5t31.5 -76.5q0 -44 -32 -75.5t-76 -31.5z" />
    <glyph glyph-name="dieresiscomb" unicode="&#x308;" horiz-adv-x="557" 
d="M459 1087q-43 0 -72 30.5t-29 74.5q0 40 29.5 70t71.5 30q41 0 69.5 -30t28.5 -70q0 -44 -28.5 -74.5t-69.5 -30.5zM100 1087q-41 0 -70.5 30.5t-29.5 74.5q0 40 29.5 70t70.5 30t71 -30t30 -70q0 -44 -29.5 -74.5t-71.5 -30.5z" />
    <glyph glyph-name="ringcomb" unicode="&#x30a;" horiz-adv-x="391" 
d="M193 1403q83 0 140.5 -56.5t57.5 -138.5q0 -80 -57.5 -137t-140.5 -57q-79 0 -136 57t-57 137q0 81 56.5 138t136.5 57zM193 1348q-57 0 -95.5 -39.5t-38.5 -100.5q0 -59 38.5 -99t95.5 -40q59 0 99 40.5t40 98.5q0 61 -40 100.5t-99 39.5z" />
    <glyph glyph-name="hungarumlautcomb" unicode="&#x30b;" horiz-adv-x="444" 
d="M92 1393h117l14 -29l-182 -313l-41 16zM313 1393h117l14 -29l-182 -313l-41 16z" />
    <glyph glyph-name="caroncomb" unicode="&#x30c;" horiz-adv-x="544" 
d="M518 1368l27 -33l-256 -288h-33l-256 288l27 33l245 -188z" />
    <glyph glyph-name="commaaccentcomb" unicode="&#x326;" horiz-adv-x="200" 
d="M0 -451q114 89 125 189q-16 -4 -27 -4q-35 0 -58.5 24.5t-23.5 55.5q0 36 23 63t63 27q41 0 69.5 -30.5t29.5 -82.5q3 -79 -45.5 -153.5t-128.5 -129.5z" />
    <glyph glyph-name="cedillacomb" unicode="&#x327;" horiz-adv-x="217" 
d="M0 -432q121 48 121 110q0 27 -48 88.5t-48 96.5q0 43 26 80t76 77h45q-55 -62 -55 -126q0 -19 15.5 -42t34.5 -42.5t34.5 -47t15.5 -53.5q0 -54 -56 -99.5t-147 -74.5z" />
    <glyph glyph-name="ogonekcomb" unicode="&#x328;" horiz-adv-x="284" 
d="M285 -381q-72 -59 -150 -59q-63 0 -99 40t-36 103q0 75 50.5 148t148.5 165h49q-133 -158 -133 -278q0 -98 88 -98q37 0 69 16z" />
    <glyph glyph-name="strokeshortcomb" unicode="&#x335;" horiz-adv-x="761" 
d="M0 672v76h762v-76h-762z" />
    <glyph glyph-name="slashlongcomb" unicode="&#x338;" horiz-adv-x="851" 
d="M0 -143l735 1720h117l-735 -1720h-117z" />
    <glyph glyph-name="pi" unicode="&#x3c0;" horiz-adv-x="1167" 
d="M274 0v784h-182l-24 29l32 113h979v-142h-190v-522q0 -41 1 -66t4.5 -53.5t11 -44.5t20 -30.5t32 -20.5t46.5 -6q1 0 61 6v-43q-82 -24 -135 -24q-103 0 -137.5 64.5t-34.5 203.5v536h-352v-784h-132z" />
    <glyph glyph-name="Wgrave" unicode="&#x1e80;" horiz-adv-x="2123" 
d="M758 1649l2 32l112 50l269 -238l-27 -37zM1915 1384q1 0 190 9v-52q-55 -8 -78.5 -14.5t-48 -30t-38 -55.5t-39.5 -104l-418 -1137h-49l-361 1018l-385 -1018h-47l-391 1077q-26 69 -37.5 100t-30 66t-28 45.5t-33 24.5t-43 17.5t-60.5 10.5v52q185 -9 256 -9q56 0 240 9
v-52q-38 -5 -58 -9t-44 -12.5t-34.5 -23t-10.5 -36.5q0 -42 51 -183l287 -798l378 1026h50l364 -1033l303 865q4 13 11 33t10.5 30.5t8 23.5t6 22.5t1.5 17.5q0 27 -21.5 43.5t-40.5 21t-65 10.5q-8 1 -12 2v52q189 -9 217 -9z" />
    <glyph glyph-name="Wacute" unicode="&#x1e82;" horiz-adv-x="2123" 
d="M1339 1731l113 -50l2 -32l-356 -193l-27 37zM1915 1384q1 0 190 9v-52q-55 -8 -78.5 -14.5t-48 -30t-38 -55.5t-39.5 -104l-418 -1137h-49l-361 1018l-385 -1018h-47l-391 1077q-26 69 -37.5 100t-30 66t-28 45.5t-33 24.5t-43 17.5t-60.5 10.5v52q185 -9 256 -9
q56 0 240 9v-52q-38 -5 -58 -9t-44 -12.5t-34.5 -23t-10.5 -36.5q0 -42 51 -183l287 -798l378 1026h50l364 -1033l303 865q4 13 11 33t10.5 30.5t8 23.5t6 22.5t1.5 17.5q0 27 -21.5 43.5t-40.5 21t-65 10.5q-8 1 -12 2v52q189 -9 217 -9z" />
    <glyph glyph-name="Wdieresis" unicode="&#x1e84;" horiz-adv-x="2123" 
d="M1284 1475q-41 0 -70.5 30.5t-29.5 73.5q0 40 29.5 70t70.5 30t70.5 -30t29.5 -70q0 -43 -29.5 -73.5t-70.5 -30.5zM928 1475q-43 0 -73 30.5t-30 73.5q0 40 30.5 70t72.5 30q40 0 69 -30t29 -70q0 -43 -29 -73.5t-69 -30.5zM1915 1384q1 0 190 9v-52q-55 -8 -78.5 -14.5
t-48 -30t-38 -55.5t-39.5 -104l-418 -1137h-49l-361 1018l-385 -1018h-47l-391 1077q-26 69 -37.5 100t-30 66t-28 45.5t-33 24.5t-43 17.5t-60.5 10.5v52q185 -9 256 -9q56 0 240 9v-52q-38 -5 -58 -9t-44 -12.5t-34.5 -23t-10.5 -36.5q0 -42 51 -183l287 -798l378 1026h50
l364 -1033l303 865q4 13 11 33t10.5 30.5t8 23.5t6 22.5t1.5 17.5q0 27 -21.5 43.5t-40.5 21t-65 10.5q-8 1 -12 2v52q189 -9 217 -9z" />
    <glyph glyph-name="Ygrave" unicode="&#x1ef2;" horiz-adv-x="1290" 
d="M324 1649l2 32l112 50l269 -238l-27 -37zM1085 1219l-366 -609v-362q0 -113 16 -142q14 -26 46 -36.5t104 -18.5v-51q-153 8 -246 8q-89 0 -242 -8v51q71 9 103.5 19t44.5 36q18 30 18 144v332l-319 565q-26 46 -38.5 67.5t-31 46.5t-30 33.5t-33.5 20t-43 16t-58 10.5
v52q202 -9 238 -9q134 0 260 9v-52q-72 -13 -105.5 -30t-33.5 -47t34 -90l275 -488l283 492q36 61 36 88q0 33 -37 48t-122 27v52q141 -9 245 -9q25 0 197 9v-52q-82 -17 -108 -30q-47 -24 -87 -92z" />
    <glyph glyph-name="endash" unicode="&#x2013;" horiz-adv-x="931" 
d="M932 535h-932v81l932 31v-112z" />
    <glyph glyph-name="emdash" unicode="&#x2014;" horiz-adv-x="1216" 
d="M1217 528h-1217v84l1217 31v-115z" />
    <glyph glyph-name="quoteleft" unicode="&#x2018;" horiz-adv-x="425" 
d="M336 1432q-66 -54 -106 -120.5t-46 -133.5q15 6 31 6q45 0 72.5 -31.5t27.5 -71.5q0 -44 -27.5 -77t-76.5 -33t-85 38.5t-36 102.5q0 100 59.5 198t157.5 165z" />
    <glyph glyph-name="quoteright" unicode="&#x2019;" horiz-adv-x="428" 
d="M90 1014q67 55 107.5 121t46.5 133q-15 -6 -31 -6q-45 0 -73.5 30.5t-28.5 69.5q0 46 28 79.5t80 33.5q48 0 83.5 -39.5t35.5 -104.5q0 -99 -60 -196t-159 -164z" />
    <glyph glyph-name="quotesinglbase" unicode="&#x201a;" horiz-adv-x="428" 
d="M90 -270q67 55 107.5 121t46.5 133q-20 -4 -29 -4q-45 0 -74.5 30.5t-29.5 69.5q0 44 28 78.5t80 34.5q48 0 83.5 -40t35.5 -104q0 -98 -59.5 -196t-157.5 -168z" />
    <glyph glyph-name="quotedblleft" unicode="&#x201c;" horiz-adv-x="741" 
d="M651 1432q-66 -56 -105.5 -122.5t-45.5 -133.5q20 4 35 4q41 0 68.5 -31t27.5 -70q0 -44 -27.5 -77t-77.5 -33q-49 0 -83.5 38.5t-34.5 102.5q-3 99 57 197.5t160 167.5zM336 1432q-66 -54 -105 -121t-45 -135q8 4 29 4q45 0 72.5 -31t27.5 -70q0 -44 -27.5 -77
t-76.5 -33q-50 0 -85.5 38t-35.5 103q0 101 59 197.5t158 165.5z" />
    <glyph glyph-name="quotedblright" unicode="&#x201d;" horiz-adv-x="741" 
d="M90 1014q65 53 105.5 120t46.5 134q-15 -6 -31 -6q-44 0 -72 30.5t-28 69.5q0 46 27 79.5t79 33.5q49 0 83 -39.5t34 -104.5q0 -101 -58 -197.5t-157 -162.5zM408 1014q65 52 104 119t45 135q-15 -6 -31 -6q-45 0 -72.5 30.5t-27.5 69.5q0 45 28 79t76 34q51 0 86 -39
t35 -105q0 -100 -59 -196.5t-158 -163.5z" />
    <glyph glyph-name="quotedblbase" unicode="&#x201e;" horiz-adv-x="743" 
d="M90 -270q138 113 154 254q-20 -4 -31 -4q-45 0 -73.5 30t-28.5 70q0 44 28 77t80 33q48 0 83.5 -39t35.5 -102q0 -98 -59.5 -196t-159.5 -168zM406 -270q140 112 153 254q-20 -4 -33 -4q-43 0 -71.5 30t-28.5 70q0 43 28 76.5t76 33.5q51 0 87 -38.5t36 -102.5
q0 -98 -59.5 -195t-159.5 -167z" />
    <glyph glyph-name="dagger" unicode="&#x2020;" horiz-adv-x="999" 
d="M414 594l63 264q-115 -5 -254 -63l-141 71v29l141 70q150 -55 250 -60l-72 287l84 139h29l84 -139l-74 -287q103 5 252 60l142 -70v-29l-142 -71q-148 58 -254 63l64 -264q-9 -47 -16.5 -97t-12.5 -87t-10 -96.5t-7.5 -87.5t-6 -99.5t-4.5 -92t-4.5 -105.5t-4.5 -103h-41
q-2 40 -6.5 136.5t-6.5 137.5t-7 120t-10.5 129t-14.5 116.5t-20 128.5z" />
    <glyph glyph-name="daggerdbl" unicode="&#x2021;" horiz-adv-x="999" 
d="M598 -33l-84 -141h-29l-84 141l72 287q-97 -5 -250 -61l-141 71v29l141 69q143 -56 252 -61l-61 279l63 278q-108 -5 -254 -61l-141 69v29l141 70q150 -55 250 -60l-72 287l84 139h29l84 -139l-74 -287q103 5 252 60l142 -70v-29l-142 -69q-142 56 -254 61l64 -278
l-64 -279q112 5 254 61l142 -69v-29l-142 -71q-142 56 -252 61z" />
    <glyph glyph-name="bullet" unicode="&#x2022;" horiz-adv-x="618" 
d="M309 555q-60 0 -100.5 43t-40.5 107q0 61 40.5 102t100.5 41q59 0 100.5 -41t41.5 -102q0 -64 -41.5 -107t-100.5 -43z" />
    <glyph glyph-name="ellipsis" unicode="&#x2026;" horiz-adv-x="1411" 
d="M707 -20q-48 0 -79.5 32.5t-31.5 83.5q0 47 32 80t79 33q46 0 78 -33t32 -80q0 -50 -32 -83t-78 -33zM207 -20q-48 0 -80.5 33t-32.5 83q0 47 33 80t80 33q44 0 76 -33t32 -80q0 -50 -31.5 -83t-76.5 -33zM1208 -20q-48 0 -80 32.5t-32 83.5q0 47 32.5 80t79.5 33
q46 0 78.5 -33t32.5 -80q0 -50 -32.5 -83t-78.5 -33z" />
    <glyph glyph-name="perthousand" unicode="&#x2030;" horiz-adv-x="2306" 
d="M336 -2l835 1374l58 -37l-834 -1376zM383 559q-131 0 -220 100t-89 275q0 180 95.5 299t229.5 119q130 0 220 -105.5t90 -281.5q0 -179 -95 -292.5t-231 -113.5zM391 610q82 0 130 88t48 244q0 157 -47 255.5t-135 98.5q-79 0 -128.5 -90.5t-49.5 -244.5t48.5 -252.5
t133.5 -98.5zM1165 -20q-131 0 -220 100t-89 274q0 180 95.5 299t230.5 119q129 0 219 -105.5t90 -281.5q0 -179 -95 -292t-231 -113zM1907 -20q-130 0 -220 100t-90 274q0 180 95.5 299t230.5 119q129 0 219 -105.5t90 -281.5q0 -179 -94.5 -292t-230.5 -113zM1174 33
q82 0 130 87t48 242q0 157 -48.5 257t-134.5 100q-79 0 -128.5 -91.5t-49.5 -246.5q0 -154 48.5 -251t134.5 -97zM1917 33q81 0 129.5 87.5t48.5 241.5q0 157 -48 257t-134 100q-80 0 -130 -91.5t-50 -246.5q0 -154 48.5 -251t135.5 -97z" />
    <glyph glyph-name="guilsinglleft" unicode="&#x2039;" horiz-adv-x="526" 
d="M389 39l-311 424v24l311 422l39 -24l-201 -410l201 -409z" />
    <glyph glyph-name="guilsinglright" unicode="&#x203a;" horiz-adv-x="526" 
d="M137 909l312 -422v-24l-312 -424l-39 27l201 409l-201 410z" />
    <glyph glyph-name="fraction" unicode="&#x2044;" horiz-adv-x="1032" 
d="M61 -4l854 1376l56 -35l-856 -1378z" />
    <glyph glyph-name="four.superior" unicode="&#x2074;" horiz-adv-x="581" 
d="M545 999l-107 13v-23q0 -86 11 -104q10 -17 63 -23v-35q-55 4 -137 4q-74 0 -127 -4v35q51 7 61 21q10 16 10 80v49h-319v24l377 492h61v-469h117zM322 1059v319l-244 -319h244z" />
    <glyph glyph-name="Euro" unicode="&#x20ac;" horiz-adv-x="1286" 
d="M909 739h-835v80h141q48 240 217.5 386.5t409.5 146.5q217 0 362 -82l-63 -350h-43l-49 313q-99 47 -222 47q-181 0 -300.5 -127t-151.5 -334h534v-80zM909 541h-532q13 -135 73 -245.5t161 -176.5t223 -66q108 0 208 41l72 312h41l57 -351q-125 -38 -214.5 -56.5
t-186.5 -18.5q-249 0 -418 154.5t-186 406.5h-133v77h835v-77z" />
    <glyph glyph-name="turkishlira" unicode="&#x20ba;" horiz-adv-x="1136" 
d="M137 1280v51q156 -8 242 -8q91 0 244 8v-51q-71 -8 -103.5 -18.5t-46.5 -36.5q-8 -15 -11.5 -45t-4 -58.5t-0.5 -93.5v-82l399 119v-80l-774 -229v80l221 65v119v30q0 57 -0.5 82t-4 51.5t-11.5 41.5q-14 26 -46.5 36.5t-103.5 18.5zM905 455h121q0 -217 -150 -336
t-425 -119h-314v51q68 8 100 19t46 36q20 39 20 203v307l-221 -65v78l774 229v-78l-395 -116v-605q215 0 328.5 103t115.5 293z" />
    <glyph glyph-name="ruble" unicode="&#x20bd;" horiz-adv-x="1210" 
d="M1153 946q0 -196 -172.5 -315t-454.5 -119h-471v80h211v432q0 71 -0.5 97.5t-6 58t-17.5 49.5q-14 22 -49 33.5t-101 17.5v51h518q268 0 405.5 -103t137.5 -282zM582 1264h-160v-672h121q211 0 328.5 88t117.5 246q0 152 -105 245t-302 93zM848 309h-426v-24
q0 -58 0.5 -84t4 -53.5t11.5 -41.5q14 -26 46.5 -36.5t103.5 -18.5v-51q-153 8 -244 8t-244 -8v51q71 9 103.5 19t44.5 36q12 21 15 58.5t3 120.5v24h-211v78h793v-78z" />
    <glyph glyph-name="litre" unicode="&#x2113;" horiz-adv-x="606" 
d="M528 133q-140 -153 -268 -153q-182 0 -178 507q0 54 4 160q9 345 88.5 525t212.5 180q82 0 130 -74t48 -197q0 -176 -90.5 -334t-253.5 -258v-8q-2 -192 23 -296.5t86 -104.5q64 0 168 98zM225 664q-1 -18 -2 -55t-2 -56q258 190 258 510q0 92 -22 155.5t-70 63.5
q-144 0 -162 -618z" />
    <glyph glyph-name="trademark" unicode="&#x2122;" horiz-adv-x="1329" 
d="M291 1391q139 0 225 2l19 -166h-31l-72 127h-78v-355q0 -71 4 -79q13 -16 54 -21v-27q-59 2 -115 2q-52 0 -111 -2v27q44 6 52 19q6 12 6 77v359h-78l-72 -127h-33l17 166q82 -2 213 -2zM1188 1274l22 -275q6 -65 14 -79t44 -21v-27q-61 2 -115 2q-50 0 -109 -2v27
q47 9 55 20.5t3 65.5l-23 279l-174 -365h-37l-163 354l-27 -292q-3 -37 6.5 -46.5t60.5 -15.5v-27q-45 2 -98 2q-47 0 -80 -2v27q41 5 49 19q7 15 13 81l26 269q7 63 -2.5 77.5t-54.5 20.5v27h166l164 -336l157 336h160v-27q-45 -4 -53.5 -19t-3.5 -73z" />
    <glyph glyph-name="Ohm" unicode="&#x2126;" horiz-adv-x="1492" 
d="M758 1417q138 0 254.5 -46.5t194.5 -126.5t121.5 -187.5t43.5 -229.5q0 -117 -28 -218t-84 -188t-112.5 -151t-141.5 -143h278l64 145h51l-33 -272h-502v33l121 157q91 116 156 278.5t65 332.5q0 147 -51.5 270.5t-155.5 201t-241 77.5q-104 0 -190.5 -45t-142 -121.5
t-86 -175t-30.5 -207.5q0 -170 65 -332.5t156 -278.5l121 -157v-33h-522l-35 272h51l70 -145h293q-66 62 -112.5 112t-97.5 119t-82 135.5t-51 153t-20 180.5q0 122 43.5 229.5t121.5 187.5t194 126.5t254 46.5z" />
    <glyph glyph-name="estimated" unicode="&#x212e;" horiz-adv-x="1687" 
d="M856 -20q-156 0 -296 54.5t-240.5 146.5t-159 218.5t-58.5 266.5q0 139 59.5 266.5t159 219t237.5 146t288 54.5q198 0 368 -91t270 -247t101 -338v-8h-1280v-363q105 -127 248 -190.5t309 -63.5q164 0 276.5 54t200.5 151h95q-96 -130 -242 -203t-336 -73zM305 741h1077
v281q-105 131 -243.5 194.5t-292.5 63.5q-164 0 -304 -68.5t-237 -189.5v-281z" />
    <glyph glyph-name="partialdiff" unicode="&#x2202;" horiz-adv-x="1095" 
d="M997 616q0 -177 -58.5 -320.5t-173.5 -229.5t-267 -86q-105 0 -187 33.5t-132 91.5t-75.5 130t-25.5 154q0 108 38.5 196.5t103 144.5t146 86t171.5 30q173 0 301 -121q-2 75 -10 144.5t-25 139t-42 128t-62.5 109.5t-84 86.5t-109 56t-136.5 20.5h-19l-61 -254h-49
l-62 281q95 39 207 39q102 0 188.5 -31t148 -82.5t110.5 -123t79.5 -148t50 -162.5t27.5 -162t8 -150zM233 334q0 -135 64 -217t180 -82q88 0 157 48t111 132.5t65 188t28 225.5q-63 72 -125 106.5t-135 34.5q-151 0 -248 -122t-97 -314z" />
    <glyph glyph-name="increment" unicode="&#x2206;" horiz-adv-x="1171" 
d="M553 1403h53l529 -1362v-41h-1098v41zM147 127h801l-403 1059z" />
    <glyph glyph-name="product" unicode="&#x220f;" horiz-adv-x="1359" 
d="M1118 1147v-901q0 -115 17 -142q12 -26 43.5 -36t99.5 -19v-49q-148 8 -236 8q-91 0 -239 -8v49q68 9 99.5 19t43.5 36q19 32 19 144v891q0 109 -19 143q-13 28 -48 38.5t-107 10.5h-222q-72 0 -107 -10t-50 -37q-17 -33 -17 -143v-895q0 -112 17 -142q14 -26 45 -36.5
t100 -18.5v-49q-148 8 -238 8q-89 0 -237 -8v49q68 8 98.5 18.5t44.5 36.5q17 33 17 144v897q0 110 -17 143q-14 26 -44.5 36.5t-98.5 18.5v50h1196v-50q-68 -9 -99.5 -19t-43.5 -36q-17 -27 -17 -141z" />
    <glyph glyph-name="summation" unicode="&#x2211;" horiz-adv-x="1155" 
d="M1090 395l-35 -395h-946v39l456 649l-450 664v41h913l16 -334h-57l-110 272h-564l398 -579l-437 -619h652l106 262h58z" />
    <glyph glyph-name="minus" unicode="&#x2212;" horiz-adv-x="909" 
d="M41 543v82h827v-82h-827z" />
    <glyph glyph-name="bulletoperator" unicode="&#x2219;" horiz-adv-x="552" 
d="M276 432q-59 0 -100 43t-41 107q0 61 41 102t100 41t100.5 -41t41.5 -102q0 -64 -41.5 -107t-100.5 -43z" />
    <glyph glyph-name="radical" unicode="&#x221a;" horiz-adv-x="1228" 
d="M768 -23l-35 -2l-461 983l-200 -98l-25 58l332 163l369 -805l223 1319l73 -6z" />
    <glyph glyph-name="infinity" unicode="&#x221e;" horiz-adv-x="1343" 
d="M309 287q-117 0 -192.5 83t-75.5 203q0 119 77 201t195 82q51 0 99.5 -17.5t95 -52.5t82 -68.5t82.5 -84.5q95 105 180 164t182 59q118 0 193.5 -81.5t75.5 -203.5q0 -120 -77.5 -201t-197.5 -81q-51 0 -99.5 17.5t-95 52t-82.5 69t-81 84.5q-47 -51 -83 -85t-83 -69.5
t-95.5 -53t-99.5 -17.5zM1028 776q-40 0 -78.5 -15t-79.5 -48t-70 -62t-75 -78q90 -100 159 -152t144 -52q79 0 134 59.5t55 144.5q1 89 -53 146t-136 57zM127 573q0 -86 53.5 -146t134.5 -60q74 0 142.5 52t158.5 152q-91 101 -159.5 153t-143.5 52q-79 0 -132.5 -59
t-53.5 -144z" />
    <glyph glyph-name="integral" unicode="&#x222b;" horiz-adv-x="970" 
d="M829 1679q74 0 154 -22l-57 -238h-45l-56 183q-33 10 -61 10q-89 0 -147 -102.5t-58 -299.5v-1069q0 -137 -22.5 -243.5t-60.5 -174.5t-92 -112t-112.5 -62t-126.5 -18q-73 0 -157 23l59 239h43l57 -184q33 -10 62 -10q90 0 147.5 101.5t57.5 299.5v1112q0 153 33.5 266
t92.5 177t131 94t158 30z" />
    <glyph glyph-name="approxequal" unicode="&#x2248;" horiz-adv-x="909" 
d="M813 836l64 -45q-92 -142 -246 -142q-50 0 -100.5 17t-85 37.5t-81.5 37.5t-90 17q-100 0 -176 -103l-63 43q95 148 252 148q50 0 100.5 -17t85 -37.5t81 -37.5t89.5 -17q99 0 170 99zM813 508l64 -45q-91 -141 -246 -141q-50 0 -100.5 17t-85 37t-81.5 37t-90 17
q-101 0 -176 -102l-63 43q94 147 252 147q50 0 100.5 -17t85.5 -37t81 -37t89 -17q99 0 170 98z" />
    <glyph glyph-name="notequal" unicode="&#x2260;" horiz-adv-x="909" 
d="M250 186l-62 35l101 164h-248v82h299l143 233h-442v82h491l134 215l61 -36l-111 -179h252v-82h-301l-145 -233h446v-82h-495z" />
    <glyph glyph-name="lessequal" unicode="&#x2264;" horiz-adv-x="909" 
d="M868 983l-663 -240l663 -241v-96l-827 319v37l827 319v-98zM868 184h-827v82h827v-82z" />
    <glyph glyph-name="greaterequal" unicode="&#x2265;" horiz-adv-x="909" 
d="M41 983v98l827 -319v-37l-827 -319v96l664 241zM41 184v82h827v-82h-827z" />
    <glyph glyph-name="lozenge" unicode="&#x25ca;" horiz-adv-x="1300" 
d="M676 -31h-47l-424 762l424 760h49l418 -756zM305 737l348 -635l340 629l-344 631z" />
    <glyph glyph-name="ITF" unicode="&#xf8ff;" horiz-adv-x="3561" 
d="M225 0v1434h443v-1434h-443zM760 1016v418h442v-418h-442zM1292 0v1434h445v-1434h-445zM1827 1016v418h442v-418h-442zM2359 0v1434h445v-1434h-445zM2894 1016v418h442v-418h-442zM2894 506v420h442v-420h-442z" />
    <glyph glyph-name="caroncomb.alt" horiz-adv-x="200" 
d="M0 1061q114 89 125 188q-16 -4 -27 -4q-35 0 -58.5 24.5t-23.5 55.5q0 38 22.5 64t63.5 26t69.5 -30t29.5 -82q3 -79 -45.5 -153.5t-128.5 -129.5z" />
    <glyph glyph-name="dieresiscomb.case" horiz-adv-x="557" 
d="M459 1475q-42 0 -71.5 30.5t-29.5 73.5q0 40 29.5 70t71.5 30q41 0 69.5 -30t28.5 -70q0 -43 -28.5 -73.5t-69.5 -30.5zM100 1475q-41 0 -70.5 30.5t-29.5 73.5q0 40 29.5 70t70.5 30t71 -30t30 -70q0 -43 -30 -73.5t-71 -30.5z" />
    <glyph glyph-name="dotaccentcomb.case" horiz-adv-x="210" 
d="M106 1470q-44 0 -75 31.5t-31 75.5t31 75t75 31t74.5 -31t30.5 -75t-30.5 -75.5t-74.5 -31.5z" />
    <glyph glyph-name="gravecomb.case" horiz-adv-x="382" 
d="M0 1649l4 32l111 50l268 -238l-25 -37z" />
    <glyph glyph-name="acutecomb.case" horiz-adv-x="382" 
d="M268 1731l111 -50l4 -32l-358 -193l-25 37z" />
    <glyph glyph-name="hungarumlautcomb.case" horiz-adv-x="440" 
d="M299 1761h127l14 -28l-170 -267l-49 21zM80 1761h125l14 -28l-170 -267l-49 21z" />
    <glyph glyph-name="circumflexcomb.case" horiz-adv-x="544" 
d="M293 1702l252 -215l-23 -31l-246 119l-253 -119l-23 31l254 215h39z" />
    <glyph glyph-name="caroncomb.case" horiz-adv-x="544" 
d="M522 1718l23 -30l-252 -213h-39l-254 213l23 30l253 -119z" />
    <glyph glyph-name="brevecomb.case" horiz-adv-x="536" 
d="M492 1716h45q0 -93 -73.5 -167t-191.5 -74q-119 0 -195.5 74.5t-76.5 166.5h45q21 -64 80 -103.5t147 -39.5q87 0 143 39t77 104z" />
    <glyph glyph-name="ringcomb.case" horiz-adv-x="391" 
d="M193 1866q83 0 140.5 -57t57.5 -140q0 -80 -57.5 -137t-140.5 -57q-79 0 -136 57t-57 137q0 83 56.5 140t136.5 57zM193 1810q-57 0 -95.5 -40t-38.5 -101q0 -59 38.5 -99t95.5 -40q59 0 99 40t40 99q0 61 -40 101t-99 40z" />
    <glyph glyph-name="tildecomb.case" horiz-adv-x="561" 
d="M49 1475l-49 18q39 170 170 170q56 0 138.5 -39t109.5 -39q59 0 96 92l47 -16q-20 -84 -63.5 -128t-102.5 -44q-51 0 -130 39t-113 39q-33 0 -57.5 -21t-45.5 -71z" />
    <glyph glyph-name="macroncomb.case" horiz-adv-x="567" 
d="M0 1513v93h567v-93h-567z" />
    <glyph glyph-name="commaaccentcomb.case" horiz-adv-x="200" 
d="M0 -451q114 89 125 189q-16 -4 -27 -4q-35 0 -58.5 24.5t-23.5 55.5q0 36 23 63t63 27q41 0 69.5 -30.5t29.5 -82.5q3 -79 -45.5 -153.5t-128.5 -129.5z" />
    </font>
</defs>
</svg>
