<?xml version="1.0" standalone="no"?>
<!DOCTYPE svg PUBLIC "-//W3C//DTD SVG 20010904//EN"
 "http://www.w3.org/TR/2001/REC-SVG-20010904/DTD/svg10.dtd">
<svg version="1.0" xmlns="http://www.w3.org/2000/svg"
 width="1248.000000pt" height="1248.000000pt" viewBox="0 0 1248.000000 1248.000000"
 preserveAspectRatio="xMidYMid meet">
<metadata>
Created by potrace 1.14, written by Peter Selinger 2001-2017
</metadata>
<g transform="translate(0.000000,1248.000000) scale(0.100000,-0.100000)"
fill="#000000" stroke="none">
<path d="M6110 12349 c-160 -129 -292 -295 -397 -494 -32 -60 -58 -112 -58
-115 0 -3 -8 -21 -17 -40 -25 -51 -78 -187 -96 -245 -8 -27 -17 -54 -19 -60
-23 -74 -73 -262 -77 -291 -4 -22 -8 -46 -11 -54 -4 -16 -15 -65 -19 -90 -2
-8 -6 -35 -10 -60 -12 -73 -15 -92 -21 -145 -3 -27 -8 -68 -11 -90 -3 -22 -7
-72 -9 -112 -2 -39 -5 -75 -7 -80 -10 -21 3 -454 17 -552 2 -20 7 -56 10 -81
9 -73 25 -172 35 -210 5 -19 11 -51 14 -70 3 -19 15 -69 26 -110 11 -41 23
-83 25 -93 31 -134 63 -158 195 -149 105 8 728 6 865 -2 107 -6 108 -6 158 -6
17 0 55 -1 83 -2 78 -4 124 29 139 100 4 18 23 97 30 122 64 235 97 380 110
486 4 27 8 60 11 74 26 153 26 581 -1 783 -5 37 -26 167 -32 192 -2 11 -6 34
-9 50 -3 17 -10 48 -16 70 -5 22 -11 47 -13 55 -5 26 -36 144 -46 175 -48 155
-91 280 -119 340 -113 253 -230 431 -387 591 -93 93 -161 154 -174 154 -5 0
-9 5 -9 10 0 6 -19 10 -43 10 -37 0 -52 -8 -117 -61z"/>
<path d="M4301 11962 c-22 -66 -63 -216 -67 -247 -3 -16 -8 -37 -11 -45 -3 -8
-7 -24 -8 -35 -2 -11 -10 -49 -18 -85 -9 -36 -19 -85 -22 -110 -4 -24 -9 -48
-11 -52 -3 -4 -7 -31 -9 -60 -2 -29 -7 -69 -10 -89 -35 -214 -40 -692 -10
-924 2 -22 8 -62 11 -90 3 -27 8 -59 10 -70 3 -11 7 -36 10 -55 3 -19 7 -42 9
-50 2 -8 7 -31 10 -50 14 -83 95 -380 122 -450 4 -8 7 -17 7 -20 2 -11 39
-107 52 -137 8 -17 14 -34 14 -38 0 -7 24 -60 84 -190 24 -49 49 -105 57 -122
7 -18 18 -33 24 -33 5 0 89 16 185 35 96 20 186 38 200 40 14 3 36 8 50 11 14
3 36 8 50 10 14 3 70 14 125 25 55 12 114 23 130 26 63 11 65 14 45 93 -10 38
-16 70 -13 70 3 0 0 7 -7 15 -7 8 -10 15 -7 15 3 0 0 19 -5 43 -30 130 -38
171 -42 202 -2 17 -8 55 -14 85 -7 30 -14 71 -16 90 -3 19 -8 51 -11 71 -10
62 -24 184 -29 255 -2 28 -5 55 -8 60 -6 12 -2 370 5 414 3 19 8 58 12 85 3
28 9 76 14 108 12 85 3 164 -26 237 -14 36 -29 67 -33 70 -4 3 -15 22 -25 43
-9 20 -21 37 -26 37 -5 0 -9 4 -9 10 0 12 -71 123 -93 145 -10 9 -17 21 -17
26 0 5 -11 22 -25 37 -14 15 -25 30 -25 34 0 5 -8 16 -17 27 -10 10 -29 34
-43 52 -14 18 -33 41 -42 51 -10 10 -18 20 -18 23 0 16 -272 295 -287 295 -6
0 -13 4 -15 9 -2 7 -149 114 -184 134 -6 4 -16 -9 -23 -31z"/>
<path d="M8070 11950 c-14 -11 -28 -20 -33 -20 -7 0 -62 -38 -101 -70 -43 -35
-294 -288 -318 -322 -15 -20 -34 -42 -41 -50 -24 -23 -147 -198 -147 -207 0
-5 -4 -11 -8 -13 -5 -1 -32 -43 -61 -93 -28 -49 -56 -97 -61 -105 -48 -74 -65
-197 -46 -345 27 -207 27 -642 2 -810 -3 -16 -7 -48 -10 -70 -11 -80 -34 -198
-52 -261 -8 -28 -17 -60 -19 -70 -2 -11 -14 -53 -25 -94 -11 -41 -23 -82 -25
-90 -2 -8 -13 -45 -23 -83 -20 -68 -18 -75 18 -83 11 -2 30 -6 43 -9 12 -3 36
-8 52 -10 17 -3 37 -8 45 -10 8 -2 27 -7 43 -10 64 -12 85 -17 147 -31 36 -8
81 -17 100 -20 19 -3 38 -8 41 -10 4 -2 24 -6 45 -9 22 -4 48 -9 59 -12 11 -3
29 -8 40 -9 11 -2 49 -10 85 -18 36 -8 65 -14 65 -13 1 1 8 13 17 27 36 59
118 221 118 235 0 8 5 15 10 15 6 0 10 7 10 15 0 8 4 23 10 33 8 14 27 58 35
82 1 3 7 17 13 33 12 27 50 138 57 167 3 8 14 47 26 85 11 39 22 77 23 85 2 8
8 33 14 55 6 22 14 56 17 75 9 46 13 65 15 65 1 0 3 9 5 20 3 19 14 84 20 115
3 16 16 111 20 145 1 11 3 20 4 20 1 0 4 23 6 50 2 28 7 84 11 125 10 101 9
524 -1 630 -5 47 -9 104 -9 127 -1 24 -3 43 -6 43 -4 0 -6 10 -7 23 -1 33 -13
120 -19 140 -3 10 -7 30 -9 45 -2 15 -11 61 -21 102 -9 41 -17 83 -17 93 -1 9
-5 17 -9 17 -4 0 -8 9 -8 21 0 12 -19 79 -42 150 -46 137 -52 145 -98 109z"/>
<path d="M3197 11403 c-3 -21 -8 -48 -11 -59 -2 -12 -7 -39 -11 -60 -45 -265
-59 -441 -59 -714 0 -187 3 -256 20 -430 1 -19 5 -47 9 -63 3 -15 7 -44 10
-65 4 -38 10 -73 22 -127 7 -31 9 -41 16 -85 2 -14 9 -43 15 -65 6 -22 14 -56
17 -75 3 -19 10 -39 16 -44 5 -6 9 -18 9 -28 0 -19 47 -174 59 -193 3 -5 6
-16 7 -22 10 -63 255 -590 286 -613 4 -3 11 -18 17 -33 12 -31 37 -35 81 -12
17 9 33 16 37 16 11 2 34 9 58 19 11 4 52 19 90 33 39 14 122 44 185 67 63 23
120 43 125 44 6 1 19 7 30 13 11 5 42 16 68 24 27 8 52 18 57 24 7 9 -35 122
-70 187 -22 41 -112 286 -149 408 -23 74 -46 150 -52 168 -6 19 -12 44 -14 55
-5 29 -14 72 -28 127 -4 14 -9 37 -12 53 -3 15 -7 37 -9 50 -3 12 -7 38 -10
57 -3 19 -8 46 -11 60 -2 14 -6 45 -9 70 -2 25 -7 63 -11 85 -10 68 -15 163
-20 353 -5 201 -3 192 -78 282 -125 149 -286 290 -462 407 -87 58 -197 123
-207 123 -3 0 -8 -17 -11 -37z"/>
<path d="M9219 11416 c-2 -3 -17 -7 -33 -10 -16 -3 -32 -9 -35 -14 -3 -5 -17
-15 -31 -22 -101 -53 -306 -210 -425 -327 -83 -81 -177 -188 -195 -222 -8 -17
-13 -96 -15 -265 -2 -133 -5 -252 -8 -266 -3 -14 -8 -41 -11 -60 -6 -45 -20
-134 -21 -140 -1 -3 -5 -23 -9 -45 -7 -33 -45 -192 -61 -255 -34 -132 -101
-347 -138 -445 -26 -68 -30 -80 -33 -90 -1 -5 -16 -48 -34 -95 -17 -47 -42
-116 -55 -153 l-23 -68 29 -6 c16 -3 32 -10 35 -14 3 -5 15 -9 28 -9 12 0 26
-4 31 -8 6 -5 39 -19 75 -31 36 -12 74 -26 85 -31 22 -9 147 -54 155 -56 3 0
12 -4 20 -7 34 -15 217 -80 237 -84 17 -4 25 2 39 28 9 19 20 36 24 39 3 3 35
61 69 130 35 69 67 132 71 140 43 79 186 450 173 450 -3 0 0 7 7 15 7 8 9 15
5 15 -4 0 -3 6 3 13 5 6 13 28 18 47 11 49 11 49 14 55 1 3 3 8 4 13 10 39 17
70 20 87 2 11 9 38 15 60 9 36 16 71 26 130 2 11 6 29 8 41 3 11 8 45 11 75 4
30 8 68 11 84 2 17 7 63 10 104 4 41 8 89 11 105 5 41 5 396 0 466 -11 127
-17 196 -21 220 -3 14 -7 48 -10 75 -3 28 -7 61 -10 75 -3 14 -8 43 -10 65 -3
22 -10 65 -16 95 -17 83 -17 84 -18 93 -1 8 -15 10 -22 3z"/>
<path d="M2307 10506 c-79 -161 -113 -322 -121 -568 -2 -59 -7 -111 -11 -117
-3 -6 -2 -11 2 -11 5 0 9 -38 8 -85 0 -47 2 -85 5 -85 3 0 6 -21 7 -48 2 -53
10 -129 20 -182 3 -19 7 -48 9 -64 1 -16 8 -49 14 -75 6 -25 13 -60 15 -76 2
-17 4 -30 5 -30 1 0 3 -7 5 -16 1 -9 10 -41 18 -70 9 -30 18 -65 21 -79 13
-69 124 -371 141 -382 5 -4 7 -8 2 -8 -8 0 94 -200 124 -242 10 -14 19 -31 19
-36 0 -6 3 -12 8 -14 4 -1 23 -25 42 -53 19 -27 39 -55 45 -61 7 -9 32 0 95
33 47 25 89 49 95 54 5 5 17 9 26 9 10 0 19 3 21 8 2 4 28 20 58 35 30 16 96
50 145 75 50 26 93 51 97 57 4 5 8 6 8 1 0 -5 6 -4 13 2 6 5 57 33 111 61 55
29 101 53 103 55 2 2 -33 88 -78 192 -94 219 -209 502 -212 524 -2 8 -5 20 -9
25 -7 12 -48 150 -55 184 -2 13 -7 29 -11 35 -3 6 -7 17 -7 26 -1 8 -5 29 -9
45 -8 39 -16 74 -22 105 -8 41 -13 64 -18 90 -3 14 -8 36 -11 50 -3 14 -8 36
-11 50 -3 14 -7 34 -8 45 -2 11 -7 38 -12 60 -25 123 -32 136 -113 215 -81 80
-223 191 -294 230 -46 25 -159 83 -167 85 -3 1 -18 7 -33 13 -16 7 -32 12 -36
12 -5 0 -25 -33 -44 -74z"/>
<path d="M10070 10573 c-90 -33 -295 -153 -385 -226 -137 -111 -212 -199 -219
-259 -3 -18 -5 -33 -6 -33 -1 0 -3 -9 -5 -20 -3 -11 -9 -42 -15 -70 -13 -64
-17 -81 -25 -130 -3 -22 -9 -49 -12 -60 -3 -11 -8 -29 -9 -40 -2 -11 -5 -27
-7 -35 -4 -18 -28 -129 -32 -150 -2 -8 -4 -15 -5 -15 -1 0 -3 -7 -5 -15 -27
-118 -183 -537 -235 -632 -6 -10 -10 -25 -10 -33 0 -8 -4 -15 -10 -15 -5 0
-10 -6 -10 -14 0 -7 -20 -59 -45 -116 -25 -57 -45 -106 -45 -110 0 -4 30 -23
68 -41 37 -19 69 -36 72 -39 3 -3 50 -28 105 -57 203 -104 230 -118 237 -128
4 -5 8 -6 8 -1 0 5 6 4 13 -1 6 -6 62 -36 122 -68 61 -32 115 -62 122 -67 24
-19 144 159 240 358 35 72 63 139 63 148 0 9 5 16 12 16 6 0 9 3 5 6 -3 4 0
19 8 34 8 15 11 30 8 34 -4 3 0 6 7 6 7 0 11 3 7 6 -3 3 3 28 13 55 11 27 17
49 14 49 -4 0 -2 6 4 13 6 7 13 24 16 37 2 14 7 32 10 40 3 8 8 26 10 40 3 14
10 45 17 70 6 25 12 53 14 63 2 10 6 26 9 35 6 18 10 41 27 142 65 382 54 789
-28 1030 -24 72 -87 200 -98 199 -5 0 -17 -3 -25 -6z"/>
<path d="M5996 9043 c-3 -4 -41 -7 -84 -8 -79 -2 -265 -15 -292 -20 -13 -2
-59 -7 -195 -20 -16 -2 -30 -4 -30 -5 0 -1 -13 -3 -30 -4 -29 -3 -97 -14 -140
-23 -11 -2 -31 -6 -45 -8 -45 -8 -84 -16 -195 -41 -60 -14 -119 -28 -130 -30
-33 -6 -276 -74 -358 -100 -42 -13 -91 -26 -108 -29 -16 -3 -38 -10 -47 -15
-9 -5 -42 -16 -72 -25 -30 -9 -62 -19 -70 -22 -8 -4 -17 -7 -20 -8 -3 0 -36
-12 -75 -25 -38 -13 -72 -25 -75 -25 -3 -1 -18 -7 -35 -14 -16 -7 -34 -14 -40
-15 -5 -2 -23 -8 -38 -14 -16 -7 -31 -12 -33 -12 -9 0 -285 -111 -348 -140
-34 -15 -90 -40 -126 -56 -36 -15 -67 -31 -70 -34 -3 -3 -39 -22 -80 -43 -125
-64 -168 -90 -243 -147 -98 -76 -98 -85 3 -85 44 0 80 3 80 6 0 4 15 4 33 0
42 -8 450 -6 465 3 6 3 13 3 15 -1 6 -10 290 -9 305 1 6 3 13 3 15 -1 6 -10
449 -9 465 1 6 3 13 3 15 -1 6 -10 449 -9 465 1 6 3 13 3 15 -1 6 -10 929 -9
945 1 6 3 13 3 15 -1 6 -10 449 -9 465 1 6 3 13 3 15 -1 4 -7 435 -10 462 -3
6 1 12 1 15 0 14 -5 1094 -4 1103 2 6 4 15 4 21 1 14 -9 598 -10 618 -1 9 5
19 5 21 1 6 -10 849 -9 865 0 6 4 13 4 16 -1 2 -4 17 -7 33 -6 20 0 28 6 28
19 0 20 -63 60 -265 167 -128 68 -315 162 -315 158 0 -2 -20 8 -45 21 -25 13
-47 24 -50 24 -3 1 -36 16 -74 33 -38 18 -74 32 -80 32 -7 0 -16 4 -22 9 -5 5
-52 25 -104 46 -52 20 -106 42 -120 48 -14 5 -29 11 -35 13 -5 1 -62 21 -125
44 -63 23 -119 43 -125 44 -5 2 -23 6 -40 10 -16 4 -39 11 -50 16 -23 10 -162
52 -185 56 -8 1 -55 13 -105 27 -49 13 -126 32 -170 43 -86 20 -85 19 -130 28
-16 3 -41 8 -55 11 -14 2 -36 7 -50 9 -14 3 -36 7 -50 10 -14 3 -41 8 -60 10
-19 3 -44 7 -55 9 -24 5 -93 15 -150 22 -22 3 -56 7 -76 10 -49 7 -110 14
-299 31 -154 13 -626 22 -637 11 -3 -4 -13 -2 -23 3 -10 5 -20 6 -24 3z"/>
<path d="M2172 7900 c-5 -4 -8 -3202 -3 -3282 1 -15 37 -16 404 -16 221 0 407
-1 412 -3 6 -1 15 0 20 1 28 6 137 4 142 -3 2 -4 9 -4 15 -1 8 5 754 9 783 3
6 -1 15 0 20 1 28 6 137 4 142 -3 2 -4 9 -4 15 -1 8 5 754 9 783 3 6 -1 15 0
20 1 28 6 137 4 142 -3 2 -4 9 -4 15 -1 8 5 2674 9 2703 3 6 -1 15 0 20 1 28
6 137 4 142 -3 2 -4 9 -4 15 -1 8 5 754 9 783 3 6 -1 15 0 20 1 28 6 137 4
142 -3 2 -4 9 -4 15 -1 8 5 754 9 783 3 6 -1 15 0 20 1 28 6 137 4 142 -3 2
-4 9 -4 15 -1 5 4 94 6 197 7 l188 0 -1 1643 c-1 903 -4 1646 -9 1650 -8 8
-8074 12 -8085 4z m7863 -1646 l0 -1419 -3815 0 c-3047 0 -3814 3 -3812 13 1
6 -2 12 -7 12 -6 0 -6 12 -1 30 5 17 6 30 2 30 -4 0 -6 17 -5 37 4 64 4 106 1
161 -2 28 0 52 3 52 4 0 4 14 0 32 -4 18 -4 56 -1 86 4 29 3 55 -2 58 -4 3 -3
16 2 29 5 14 5 27 0 30 -5 3 -5 18 0 35 5 17 5 32 0 35 -6 3 -5 16 0 29 5 13
6 26 3 29 -8 8 -9 117 -2 117 4 0 4 14 0 32 -4 18 -4 56 -1 85 3 29 3 53 -1
53 -4 0 -4 14 1 30 5 17 6 30 2 30 -4 0 -6 17 -5 37 4 64 4 106 1 161 -2 28 0
52 3 52 4 0 4 14 0 32 -4 18 -4 56 -1 86 4 29 3 55 -2 58 -4 3 -3 16 2 29 5
14 5 27 0 30 -5 3 -5 18 0 35 5 17 5 32 0 35 -6 3 -5 16 0 29 5 13 6 26 3 29
-8 8 -9 117 -2 117 4 0 4 14 0 32 -4 18 -4 56 -1 85 3 29 3 53 -1 53 -4 0 -4
14 1 30 5 17 6 30 2 30 -4 0 -6 17 -5 37 4 64 4 106 1 161 -2 28 0 52 3 52 4
0 4 14 0 32 -4 18 -4 56 -1 86 4 29 3 55 -2 58 -4 3 -3 16 2 29 5 14 5 27 0
30 -5 3 -5 18 0 35 5 17 5 32 0 35 -6 3 -5 16 0 29 5 13 6 27 3 30 -7 7 -7
105 0 112 3 3 1 19 -3 35 -5 17 -5 29 0 29 5 0 7 7 3 16 -3 9 -1 19 5 23 5 3
1724 6 3819 5 l3808 0 0 -1420z"/>
<path d="M3518 6938 c-45 -16 -66 -62 -170 -363 -11 -33 -25 -66 -31 -72 -5
-7 -7 -13 -3 -13 3 0 -4 -24 -15 -52 -11 -29 -48 -127 -80 -218 -33 -91 -63
-172 -66 -180 -4 -8 -7 -17 -7 -20 -1 -3 -14 -36 -28 -75 -47 -124 -116 -320
-120 -339 -3 -17 5 -19 97 -18 55 1 123 1 152 2 l51 0 28 71 c15 38 31 72 35
75 5 2 6 11 3 18 -3 7 2 19 11 26 8 7 15 21 15 31 0 11 8 27 18 37 16 16 37
18 242 15 124 -2 231 -5 238 -8 6 -2 12 -11 12 -19 0 -9 12 -41 26 -73 14 -32
29 -67 34 -78 4 -11 16 -38 26 -59 l19 -39 130 0 c168 1 165 1 160 16 -17 56
-68 195 -75 209 -6 10 -10 26 -10 36 0 10 -4 22 -10 28 -5 5 -11 18 -13 29 -2
11 -10 34 -17 50 -6 17 -16 41 -20 55 -4 14 -27 77 -50 140 -23 63 -55 151
-70 195 -16 44 -43 118 -60 165 -18 47 -35 96 -40 110 -22 67 -73 199 -91 236
-24 51 -45 71 -84 79 -52 11 -209 13 -237 3z m167 -463 c16 -49 32 -97 37
-105 11 -22 80 -222 82 -239 1 -11 -27 -14 -147 -15 -81 -1 -154 1 -161 4 -10
4 -11 11 -3 30 5 14 11 30 13 35 1 6 26 78 54 160 29 83 53 155 55 160 9 37
29 75 34 68 4 -4 20 -48 36 -98z"/>
<path d="M5510 6270 l0 -678 143 2 142 1 1 440 c1 242 3 445 3 450 2 12 30
-38 36 -63 14 -58 47 -200 51 -216 2 -10 8 -33 13 -50 5 -17 18 -71 29 -121
82 -364 94 -405 122 -429 26 -21 36 -23 139 -21 141 3 149 9 177 141 1 7 10
45 19 85 9 41 19 83 21 94 2 11 11 49 20 84 9 36 17 72 19 80 2 9 15 65 30
125 15 60 29 116 30 125 2 9 4 16 5 16 1 0 4 8 13 45 2 8 7 32 12 53 4 21 12
36 19 34 8 -3 11 -121 12 -423 1 -230 2 -427 3 -436 1 -16 15 -17 143 -15
l143 2 1 672 c2 653 2 671 -17 676 -10 3 -19 1 -19 -5 0 -5 -5 -6 -10 -3 -12
8 -378 10 -386 3 -2 -3 -7 -16 -9 -28 -5 -27 -25 -113 -66 -285 -32 -133 -47
-200 -53 -230 -3 -11 -9 -40 -15 -65 -7 -25 -14 -56 -17 -70 -2 -14 -13 -62
-24 -107 -11 -45 -20 -91 -20 -102 0 -12 -5 -21 -11 -21 -5 0 -8 -4 -5 -9 4
-5 2 -20 -3 -33 -6 -12 -10 -18 -11 -13 -4 25 -58 220 -70 250 -4 11 -15 52
-25 90 -9 39 -21 86 -26 105 -5 19 -13 53 -18 75 -5 22 -30 121 -55 220 -61
243 -44 230 -296 231 l-190 1 0 -677z"/>
<path d="M7514 6927 c-34 -23 -37 -28 -89 -177 -21 -58 -43 -118 -50 -135 -8
-16 -17 -43 -21 -60 -4 -16 -12 -39 -17 -50 -6 -11 -12 -24 -13 -30 -1 -5 -16
-48 -34 -95 -17 -47 -38 -105 -46 -130 -8 -25 -19 -54 -24 -65 -6 -11 -18 -45
-29 -75 -10 -30 -35 -100 -55 -155 -67 -181 -126 -349 -126 -360 0 -6 31 -9
82 -8 46 1 113 2 150 2 66 1 67 2 82 34 34 78 96 228 96 235 0 9 473 3 481 -6
3 -4 30 -64 59 -134 29 -71 58 -128 64 -129 52 -4 279 -3 282 2 6 10 -31 118
-146 429 -18 47 -36 99 -41 115 -5 17 -13 39 -19 50 -5 11 -18 47 -29 80 -11
33 -41 116 -66 185 -26 69 -48 130 -49 135 -3 11 -10 29 -31 85 -104 276 -99
271 -275 275 -92 2 -109 0 -136 -18z m176 -427 c11 -36 24 -72 27 -80 3 -8 7
-17 8 -20 1 -3 4 -12 7 -20 11 -27 63 -175 64 -180 2 -11 16 -46 25 -62 11
-21 25 -20 -164 -22 -82 0 -151 2 -153 5 -3 5 107 343 133 409 8 20 10 27 12
42 2 23 19 -7 41 -72z"/>
<path d="M4959 6932 c-1 -4 -2 -240 -3 -524 l-2 -516 -27 -36 c-42 -55 -125
-69 -201 -35 -33 15 -57 62 -61 120 -2 28 -6 53 -9 56 -3 3 -1 13 4 23 5 9 6
30 1 46 l-7 29 -138 0 c-163 0 -155 7 -150 -125 6 -152 40 -247 114 -314 101
-91 281 -125 487 -92 62 10 213 103 213 131 0 4 8 19 18 33 44 64 56 121 59
276 2 82 5 152 8 154 2 3 0 13 -6 23 -6 13 -6 25 1 38 6 13 7 22 0 26 -6 3 -6
15 0 29 5 13 7 26 4 29 -7 6 -7 328 0 334 3 3 1 14 -5 24 -6 13 -6 25 1 38 6
13 7 22 0 26 -6 3 -6 15 0 29 5 13 7 26 4 29 -3 2 -5 39 -6 81 l-1 76 -149 -1
c-81 0 -148 -4 -149 -7z"/>
<path d="M8486 6931 c-1 -4 -2 -305 -2 -671 l1 -665 475 0 475 0 0 123 c0 87
-3 121 -11 118 -6 -2 -17 1 -23 7 -6 6 -11 7 -11 2 0 -6 -40 -10 -90 -10 -50
0 -90 4 -90 9 0 5 -6 4 -12 -1 -7 -5 -47 -8 -88 -6 -41 1 -79 3 -85 3 -5 0
-56 -1 -112 -3 -65 -1 -103 1 -103 8 0 5 -4 4 -9 -4 -7 -11 -10 -11 -17 0 -5
8 -9 257 -9 554 l0 540 -143 1 c-79 0 -144 -2 -146 -5z"/>
<path d="M3050 4400 c-19 -3 -56 -5 -82 -4 -42 2 -46 1 -43 -18 3 -11 6 -22 7
-23 3 -2 69 -39 178 -100 122 -67 509 -255 640 -310 36 -15 79 -33 95 -40 47
-20 199 -80 205 -80 6 0 96 -33 125 -45 26 -11 216 -73 232 -76 7 -1 36 -9 65
-18 95 -30 111 -34 258 -71 80 -21 154 -38 165 -40 11 -1 65 -12 120 -23 55
-12 116 -24 135 -27 19 -3 60 -10 90 -15 30 -6 78 -12 105 -15 28 -3 60 -8 72
-10 12 -3 46 -7 75 -10 29 -3 69 -8 88 -11 19 -3 64 -7 100 -10 36 -2 99 -7
140 -10 176 -15 837 -7 980 11 19 3 60 7 90 10 98 9 134 13 173 19 20 3 52 8
70 11 63 9 245 44 317 61 43 9 55 12 55 14 0 1 11 4 25 6 52 10 278 71 405
111 44 14 87 26 95 28 8 2 65 20 125 40 61 20 115 38 120 39 18 4 90 28 100
35 6 3 15 6 20 8 11 2 141 49 165 60 8 3 18 7 23 8 4 2 8 3 10 5 1 1 10 3 20
5 10 2 35 11 55 20 49 23 82 37 177 75 233 94 479 224 585 308 39 32 80 71 80
77 0 1 -17 2 -37 1 -21 -1 -44 2 -50 7 -7 5 -13 6 -13 1 0 -5 -30 -8 -67 -7
-83 3 -93 3 -168 0 -33 -2 -68 1 -77 5 -10 5 -18 5 -18 1 0 -4 -51 -7 -113 -5
-61 1 -128 2 -147 1 -19 -1 -55 -1 -80 0 -25 1 -58 1 -75 0 -35 -1 -145 -1
-195 0 -19 0 -71 0 -115 0 -44 -1 -98 -1 -120 0 -61 1 -335 1 -375 0 -19 -1
-55 -1 -80 0 -25 1 -58 1 -75 0 -35 -1 -145 -1 -195 0 -19 0 -71 0 -115 0 -44
-1 -98 -1 -120 0 -22 0 -114 1 -205 0 -91 0 -181 0 -200 0 -19 1 -71 0 -115 0
-44 -1 -98 -1 -120 0 -22 0 -114 1 -205 0 -91 0 -181 0 -200 0 -19 1 -71 0
-115 0 -44 -1 -98 -1 -120 0 -22 0 -114 1 -205 0 -91 0 -181 0 -200 0 -19 1
-71 0 -115 0 -44 -1 -98 -1 -120 0 -61 1 -335 1 -375 0 -19 -1 -55 -1 -80 0
-25 1 -58 1 -75 0 -35 -1 -145 -1 -195 0 -19 0 -71 0 -115 0 -44 -1 -98 -1
-120 0 -61 1 -335 1 -375 0 -19 -1 -55 -1 -80 0 -75 1 -142 1 -205 -2 -33 -2
-66 1 -72 6 -7 5 -13 6 -13 1 0 -5 -30 -8 -67 -7 -83 3 -93 3 -168 0 -33 -2
-68 1 -77 5 -10 5 -18 5 -18 1 0 -9 -210 -10 -226 -2 -5 3 -25 3 -44 -1z"/>
<path d="M2649 4233 c-18 -21 -54 -71 -81 -113 -26 -41 -51 -79 -56 -85 -8
-10 -106 -206 -108 -215 0 -3 -5 -16 -11 -30 -44 -103 -109 -287 -118 -335 -2
-11 -13 -53 -23 -93 -11 -40 -21 -75 -21 -77 -1 -3 -1 -6 -2 -7 0 -2 -2 -12
-3 -23 -2 -18 -8 -47 -21 -115 -3 -14 -8 -45 -11 -70 -3 -24 -8 -56 -10 -70
-10 -58 -23 -258 -24 -360 -2 -158 21 -342 64 -520 15 -59 90 -230 102 -230 7
0 105 40 124 50 8 5 44 23 79 41 103 51 209 128 297 214 88 86 130 144 138
187 2 15 7 31 9 35 3 5 8 40 11 78 6 64 10 91 21 150 2 11 4 20 5 20 1 0 3 11
5 25 4 31 14 79 21 102 3 9 7 26 9 37 3 12 7 30 9 40 20 88 96 329 122 388 8
17 14 34 14 38 0 4 6 21 14 38 16 35 44 103 47 115 3 10 81 168 104 212 11 19
19 38 20 42 0 4 6 13 13 20 6 6 12 15 12 20 0 4 14 31 31 60 34 58 33 62 -36
94 -16 8 -80 41 -140 72 -61 32 -164 87 -230 121 -265 140 -310 164 -319 172
-16 14 -22 11 -57 -28z"/>
<path d="M9716 4255 c-8 -8 -18 -15 -23 -15 -4 0 -19 -6 -33 -13 -14 -7 -78
-41 -142 -75 -65 -34 -171 -90 -235 -123 -65 -34 -154 -81 -198 -104 -44 -23
-90 -47 -102 -54 l-22 -11 24 -43 c63 -111 208 -414 245 -512 23 -60 46 -119
50 -130 4 -11 18 -54 30 -95 12 -41 24 -82 28 -90 3 -8 6 -19 7 -25 2 -5 14
-57 29 -115 14 -58 28 -120 31 -139 3 -19 8 -37 10 -40 3 -6 12 -66 20 -136
19 -181 37 -218 161 -340 42 -41 115 -105 120 -105 2 0 25 -15 51 -34 78 -55
327 -177 337 -165 5 6 61 124 61 129 1 3 11 34 23 70 12 36 23 77 26 93 3 15
7 35 10 45 3 9 7 33 10 52 3 19 8 45 10 58 22 107 23 455 1 622 -2 14 -6 50
-10 80 -3 30 -8 62 -11 71 -2 10 -7 32 -10 50 -9 59 -11 73 -29 144 -22 92
-25 106 -30 130 -9 41 -74 233 -105 310 -40 100 -126 274 -147 297 -9 10 -13
18 -10 18 7 0 -79 129 -93 140 -3 3 -16 20 -29 38 -25 36 -33 39 -55 17z"/>
<path d="M3632 3778 c-5 -7 -17 -29 -27 -48 -10 -19 -21 -37 -24 -40 -15 -12
-181 -360 -180 -376 0 -4 -3 -10 -8 -13 -11 -8 -36 -76 -101 -271 -30 -91 -57
-172 -60 -180 -2 -8 -6 -22 -7 -30 -2 -8 -10 -46 -20 -85 -9 -38 -19 -83 -22
-100 -3 -16 -11 -59 -18 -95 -7 -36 -13 -72 -13 -80 0 -8 -3 -26 -6 -40 -27
-133 -40 -604 -22 -795 4 -44 9 -102 11 -130 2 -27 4 -50 5 -50 1 0 3 -16 6
-35 8 -71 16 -122 31 -200 3 -19 7 -39 8 -45 1 -5 3 -12 4 -15 2 -5 10 -57 13
-87 2 -20 23 -15 78 17 28 17 54 30 58 30 4 0 31 18 60 40 28 22 52 37 52 34
0 -3 6 1 13 8 8 7 29 24 47 38 51 39 141 112 170 140 102 96 139 132 165 162
32 37 74 107 80 135 3 10 9 38 15 62 6 24 13 105 15 180 5 146 11 251 19 310
3 20 8 59 11 86 11 89 34 211 65 340 12 50 24 101 26 114 3 13 18 65 35 117
16 52 30 95 29 96 -2 10 121 328 160 413 42 91 61 138 57 141 -1 2 -115 44
-252 95 -138 50 -286 104 -330 121 -44 16 -85 30 -92 32 -7 1 -16 5 -19 9 -11
10 -20 9 -32 -5z"/>
<path d="M8668 3741 c-38 -16 -68 -26 -68 -23 0 4 -4 2 -8 -4 -6 -9 -250 -100
-294 -109 -9 -2 -25 -8 -35 -13 -10 -6 -20 -10 -23 -10 -3 0 -17 -5 -31 -10
-14 -6 -45 -16 -68 -23 -24 -7 -45 -19 -48 -26 -3 -8 8 -44 25 -81 83 -187
141 -349 242 -677 5 -16 11 -41 14 -55 3 -14 10 -43 15 -65 16 -65 40 -183 46
-228 4 -23 8 -44 10 -47 2 -3 6 -32 10 -65 3 -33 8 -71 10 -85 11 -76 18 -185
20 -353 2 -204 3 -209 65 -279 64 -75 234 -244 295 -294 33 -27 62 -51 65 -54
11 -13 261 -174 270 -175 3 0 11 -4 18 -8 18 -12 29 -1 42 41 6 20 14 44 17
52 3 8 7 24 8 35 1 11 5 29 8 40 3 11 9 40 12 65 3 25 8 56 10 70 43 259 52
670 20 905 -2 17 -7 53 -9 80 -3 28 -8 61 -10 75 -3 14 -7 43 -10 65 -5 38
-10 67 -21 125 -3 14 -8 39 -11 55 -3 17 -10 48 -16 70 -5 22 -12 51 -15 65
-8 40 -11 55 -13 55 -1 0 -3 7 -5 15 -28 119 -131 412 -160 457 -9 13 -13 23
-11 23 8 0 -110 233 -161 320 -64 109 -93 119 -205 71z"/>
<path d="M4505 3402 c-21 -42 -41 -84 -46 -92 -5 -8 -12 -22 -15 -30 -11 -27
-35 -85 -44 -105 -13 -29 -74 -190 -98 -260 -23 -65 -80 -265 -88 -305 -3 -14
-11 -50 -19 -80 -16 -65 -30 -142 -27 -152 1 -5 -1 -8 -6 -8 -4 0 -7 -15 -8
-32 0 -18 -4 -52 -8 -76 -22 -127 -30 -279 -30 -532 1 -225 5 -332 19 -432 3
-21 7 -57 10 -80 4 -24 13 -83 22 -133 8 -49 17 -99 19 -110 4 -25 9 -49 34
-155 11 -47 23 -98 25 -113 3 -15 9 -36 14 -46 6 -10 7 -21 4 -25 -3 -3 -1 -6
6 -6 7 0 10 -4 7 -8 -3 -5 2 -31 10 -58 9 -27 16 -55 17 -61 1 -19 9 -16 83
28 199 120 490 435 661 714 23 37 98 170 99 175 0 3 12 28 25 55 26 55 25 8
19 790 -2 207 1 295 15 397 3 24 8 57 10 73 2 17 5 30 6 30 1 0 3 9 4 21 1 11
7 42 14 70 6 27 13 58 16 69 2 11 15 65 29 120 15 55 28 111 31 125 2 14 11
46 18 71 17 54 13 64 -28 72 -26 5 -182 39 -240 52 -11 3 -42 9 -70 15 -27 6
-61 13 -75 16 -14 3 -36 8 -50 10 -14 2 -45 8 -70 14 -58 15 -79 20 -110 26
-14 3 -45 10 -70 15 -25 6 -52 12 -62 14 -12 3 -26 -18 -53 -73z"/>
<path d="M7777 3444 c-1 -2 -18 -6 -37 -9 -19 -3 -51 -10 -70 -15 -19 -5 -48
-11 -65 -14 -16 -2 -63 -11 -103 -20 -40 -9 -87 -18 -105 -20 -18 -2 -64 -12
-104 -21 -39 -9 -82 -18 -95 -19 -120 -17 -117 -13 -92 -111 8 -33 17 -71 20
-85 3 -14 9 -41 14 -60 5 -19 11 -46 14 -60 3 -14 12 -55 20 -91 13 -60 23
-113 31 -164 2 -11 6 -33 8 -50 11 -66 20 -121 22 -145 2 -14 6 -50 9 -80 3
-30 8 -82 12 -115 14 -138 7 -514 -12 -595 -11 -47 -12 -222 -2 -254 17 -54
78 -166 156 -286 65 -100 154 -225 172 -240 3 -3 16 -18 29 -35 59 -78 178
-202 321 -334 44 -41 152 -111 171 -111 5 0 9 -4 9 -10 0 -5 6 -10 13 -10 15
0 48 87 78 205 19 78 23 94 34 145 3 14 8 36 11 50 3 14 7 36 10 50 3 14 7 32
9 40 3 8 7 33 10 55 4 22 8 51 10 64 2 13 7 45 11 70 3 25 8 60 11 76 3 17 6
46 8 65 2 19 6 73 11 120 13 158 8 529 -11 670 -2 19 -7 58 -11 85 -8 71 -10
85 -19 130 -5 22 -9 54 -10 70 -1 17 -5 37 -9 45 -3 8 -8 29 -10 45 -5 40 -26
136 -33 155 -3 8 -7 22 -9 30 -7 41 -16 74 -20 82 -3 4 -7 17 -10 28 -10 46
-13 57 -29 105 -10 28 -18 55 -19 60 -4 24 -82 223 -123 315 -17 36 -36 80
-43 98 -7 17 -16 32 -21 32 -5 0 -9 6 -9 14 0 24 -52 50 -102 51 -26 1 -49 1
-51 -1z"/>
<path d="M5593 3277 c-29 -9 -69 -58 -56 -71 3 -3 2 -6 -4 -6 -5 0 -10 -6 -10
-12 0 -7 -14 -54 -32 -105 -26 -78 -61 -206 -76 -278 -9 -44 -16 -81 -20 -110
-3 -16 -7 -39 -9 -50 -2 -12 -7 -45 -11 -75 -3 -30 -8 -73 -11 -95 -8 -57 -13
-658 -6 -669 3 -5 7 -35 8 -65 4 -65 29 -227 51 -321 8 -36 17 -74 19 -85 3
-11 7 -30 10 -42 21 -102 135 -411 209 -566 46 -97 115 -221 126 -225 5 -2 9
-9 9 -15 0 -16 103 -151 165 -216 60 -64 178 -162 222 -185 66 -33 77 -27 218
117 166 170 205 214 205 227 0 5 4 10 9 10 9 0 102 147 136 215 11 22 23 41
28 43 4 2 7 8 7 13 0 5 18 47 40 94 22 47 40 92 40 100 0 8 4 15 8 15 5 0 9 6
9 13 1 6 18 59 37 116 20 57 38 114 40 125 2 12 11 46 20 76 8 30 17 66 20 80
3 14 7 34 9 45 9 39 35 190 36 205 0 8 2 26 5 40 2 14 7 50 11 80 4 30 8 66
11 80 24 148 24 659 0 795 -3 17 -8 53 -11 81 -3 28 -8 61 -11 75 -2 13 -6 35
-9 49 -2 14 -8 45 -14 70 -5 25 -12 56 -14 70 -3 14 -13 54 -22 90 -9 36 -19
73 -20 83 -2 9 -7 22 -10 27 -4 6 -9 22 -11 37 -7 36 -28 74 -54 98 -18 17
-37 20 -124 20 -56 1 -107 5 -114 9 -7 4 -12 3 -12 -2 0 -9 -61 -7 -87 3 -7 2
-13 1 -13 -3 0 -4 -28 -6 -62 -4 -35 1 -69 2 -75 2 -32 0 -40 0 -73 1 -19 0
-39 0 -45 -1 -22 -4 -106 -1 -115 5 -6 3 -10 2 -10 -4 0 -5 -11 -6 -27 -2 -16
4 -45 4 -65 1 -21 -4 -40 -5 -42 -2 -9 9 -402 7 -433 -1z"/>
</g>
</svg>
