<svg width="24" height="24" viewBox="0 0 24 24" fill="none" xmlns="http://www.w3.org/2000/svg">
    <path
        d="M12 20.5C12 20.5 2.625 15.25 2.625 8.87501C2.625 7.74803 3.01546 6.65585 3.72996 5.78431C4.44445 4.91277 5.43884 4.3157 6.54393 4.09468C7.64903 3.87366 8.79657 4.04235 9.79131 4.57204C10.7861 5.10174 11.5665 5.95972 12 7.00001C12.4335 5.95972 13.2139 5.10174 14.2087 4.57204C15.2034 4.04235 16.351 3.87366 17.4561 4.09468C18.5612 4.3157 19.5556 4.91277 20.27 5.78431C20.9845 6.65585 21.375 7.74803 21.375 8.87501C21.375 15.25 12 20.5 12 20.5Z"
        stroke="#2B2826" stroke-width="1.5" stroke-linecap="round" stroke-linejoin="round" />
</svg>