<svg width="40" height="40" viewBox="0 0 40 40" fill="none" xmlns="http://www.w3.org/2000/svg">
    <path
        d="M20 34.1668C20 34.1668 4.375 25.4168 4.375 14.7918C4.375 12.9135 5.02577 11.0932 6.2166 9.6406C7.40742 8.18803 9.06473 7.19291 10.9066 6.82454C12.7484 6.45618 14.6609 6.73732 16.3189 7.62015C17.9768 8.50298 19.2776 9.93294 20 11.6668C20.7224 9.93294 22.0232 8.50298 23.6811 7.62015C25.3391 6.73732 27.2516 6.45618 29.0934 6.82454C30.9353 7.19291 32.5926 8.18803 33.7834 9.6406C34.9742 11.0932 35.625 12.9135 35.625 14.7918C35.625 25.4168 20 34.1668 20 34.1668Z"
        stroke="#BC8B57" stroke-width="2" stroke-linecap="round" stroke-linejoin="round" />
</svg>