<svg width="61" height="60" viewBox="0 0 61 60" fill="none" xmlns="http://www.w3.org/2000/svg">
<rect x="0.5" width="60" height="60" rx="30" fill="#BC8B57" fill-opacity="0.1"/>
<path d="M35 24H35.75C35.75 23.5858 35.4142 23.25 35 23.25V24ZM34.25 34.05C34.25 34.4642 34.5858 34.8 35 34.8C35.4142 34.8 35.75 34.4642 35.75 34.05H34.25ZM20 24V23.25C19.5858 23.25 19.25 23.5858 19.25 24H20ZM20 36H19.25C19.25 36.4142 19.5858 36.75 20 36.75V36ZM41 36V36.75C41.4142 36.75 41.75 36.4142 41.75 36H41ZM35.5 24.25C35.0858 24.25 34.75 24.5858 34.75 25C34.75 25.4142 35.0858 25.75 35.5 25.75V24.25ZM37.625 36C37.625 36.8284 36.9534 37.5 36.125 37.5V39C37.7819 39 39.125 37.6569 39.125 36H37.625ZM36.125 37.5C35.2966 37.5 34.625 36.8284 34.625 36H33.125C33.125 37.6569 34.4681 39 36.125 39V37.5ZM34.625 36C34.625 35.1716 35.2966 34.5 36.125 34.5V33C34.4681 33 33.125 34.3431 33.125 36H34.625ZM36.125 34.5C36.9534 34.5 37.625 35.1716 37.625 36H39.125C39.125 34.3431 37.7819 33 36.125 33V34.5ZM26.375 36C26.375 36.8284 25.7034 37.5 24.875 37.5V39C26.5319 39 27.875 37.6569 27.875 36H26.375ZM24.875 37.5C24.0466 37.5 23.375 36.8284 23.375 36H21.875C21.875 37.6569 23.2181 39 24.875 39V37.5ZM23.375 36C23.375 35.1716 24.0466 34.5 24.875 34.5V33C23.2181 33 21.875 34.3431 21.875 36H23.375ZM24.875 34.5C25.7034 34.5 26.375 35.1716 26.375 36H27.875C27.875 34.3431 26.5319 33 24.875 33V34.5ZM33.875 35.25H27.125V36.75H33.875V35.25ZM34.25 24V34.05H35.75V24H34.25ZM36.75 24.25H35.5V25.75H36.75V24.25ZM41.75 29.25C41.75 26.4886 39.5114 24.25 36.75 24.25V25.75C38.683 25.75 40.25 27.317 40.25 29.25H41.75ZM22.625 35.25H20V36.75H22.625V35.25ZM20.75 36V24H19.25V36H20.75ZM20 24.75H35V23.25H20V24.75ZM40.25 29.25V36H41.75V29.25H40.25ZM41 35.25H38.375V36.75H41V35.25Z" fill="#2B2826"/>
</svg>
